<svg xmlns="http://www.w3.org/2000/svg" xmlns:xlink="http://www.w3.org/1999/xlink" width="465.711" height="329.711" viewBox="0 0 465.711 329.711">
  <defs>
    <linearGradient id="linear-gradient" x1="0.099" y1="1.06" x2="0.73" y2="-0.179" gradientUnits="objectBoundingBox">
      <stop offset="0" stop-color="#c6c6c6"/>
      <stop offset="1" stop-color="#fff"/>
    </linearGradient>
    <linearGradient id="linear-gradient-2" x1="1.174" y1="0.972" x2="0.152" y2="-0.005" xlink:href="#linear-gradient"/>
  </defs>
  <g id="Grupo_60902" data-name="Grupo 60902" transform="translate(-689.289 -157.464)">
    <g id="Grupo_60885" data-name="Grupo 60885" transform="translate(785.724 201.235)">
      <g id="Grupo_60882" data-name="Grupo 60882" transform="translate(0 4.347)" opacity="0.4">
        <g id="Grupo_60881" data-name="Grupo 60881">
          <path id="Trazado_109606" data-name="Trazado 109606" d="M174.939,489.777c-48.932-3.678-97.354,45.637-111.029,102-20.978,86.438,56.207,129.4,110.337,126.555,48.4-2.545,131.551-46.541,110.905-127.754C271.491,536.83,219.79,493.148,174.939,489.777Z" transform="translate(-60.382 -489.583)" fill="#6bd1bd" fill-rule="evenodd"/>
        </g>
      </g>
      <g id="Grupo_60884" data-name="Grupo 60884" transform="translate(238.205)" opacity="0.4">
        <g id="Grupo_60883" data-name="Grupo 60883">
          <path id="Trazado_109607" data-name="Trazado 109607" d="M230.8,598.816c23.5-5.714,38.685-36.239,36.512-64.789-3.337-43.789-46.069-52.225-71.012-42.658-22.3,8.557-54.584,41.866-32.53,76.87C178.365,591.4,209.26,604.056,230.8,598.816Z" transform="translate(-156.39 -487.831)" fill="#6bd1bd" fill-rule="evenodd"/>
        </g>
      </g>
    </g>
    <g id="Grupo_60901" data-name="Grupo 60901" transform="translate(689.289 157.464)">
      <g id="Grupo_53448" data-name="Grupo 53448" transform="translate(122.254)" opacity="0.69">
        <path id="Trazado_101141" data-name="Trazado 101141" d="M1823.688,717.826c.218-3.582-4.465-5.957-7.907-4.875-3.2,1.006-5.114,6.068-2.743,8.854C1816.13,725.433,1823.418,722.326,1823.688,717.826Z" transform="translate(-1783.6 -712.688)" fill="#f5f5e6"/>
        <g id="Grupo_53447" data-name="Grupo 53447" transform="translate(4.689 5.355)">
          <rect id="Rectángulo_5024" data-name="Rectángulo 5024" width="37.411" height="2.135" transform="translate(0 60.519) rotate(-41.105)" fill="#f5f5e6"/>
          <rect id="Rectángulo_5025" data-name="Rectángulo 5025" width="2.138" height="36.706" transform="translate(27.837)" fill="#f5f5e6"/>
          <rect id="Rectángulo_5026" data-name="Rectángulo 5026" width="54.246" height="2.137" transform="translate(28.683 35.678) rotate(-12.209)" fill="#f5f5e6"/>
          <rect id="Rectángulo_5027" data-name="Rectángulo 5027" width="2.138" height="37.38" transform="translate(27.964 37.213) rotate(-28.297)" fill="#f5f5e6"/>
        </g>
        <path id="Trazado_101142" data-name="Trazado 101142" d="M1801.59,765.433a4.893,4.893,0,0,1-4.008,1.854c-7.57,0-7.258-13.012.536-12.035C1802.845,755.85,1804.13,762.207,1801.59,765.433Z" transform="translate(-1792.084 -694.559)" fill="#f5f5e6"/>
        <path id="Trazado_101143" data-name="Trazado 101143" d="M1821.46,758.268c6.69-1.405,10-11.438,7.676-17.435-1.918-4.941-8.5-9.21-13.962-7.489C1802.663,737.285,1807.467,761.2,1821.46,758.268Z" transform="translate(-1785.317 -704.045)" fill="#f5f5e6"/>
        <path id="Trazado_101144" data-name="Trazado 101144" d="M1860.233,734.089c-1.284-5.161-7.823-5.487-10.347-.932-1.251,2.271-1.987,6.182.42,7.857C1854.653,744.036,1861.452,738.992,1860.233,734.089Z" transform="translate(-1767.932 -705.32)" fill="#f5f5e6"/>
        <path id="Trazado_101145" data-name="Trazado 101145" d="M1834.436,764.3c-2.971-5.741-9.794-2.729-10.235,3C1823.49,776.536,1838.9,772.918,1834.436,764.3Z" transform="translate(-1778.399 -691.995)" fill="#f5f5e6"/>
      </g>
      <g id="Grupo_53448-2" data-name="Grupo 53448" transform="translate(406.76 186.741)" opacity="0.69">
        <path id="Trazado_101141-2" data-name="Trazado 101141" d="M1819.445,715.964c.139-2.284-2.847-3.8-5.042-3.109-2.042.641-3.261,3.869-1.749,5.646C1814.626,720.815,1819.273,718.834,1819.445,715.964Z" transform="translate(-1793.882 -712.688)" fill="#f5f5e6"/>
        <g id="Grupo_53447-2" data-name="Grupo 53447" transform="translate(2.99 3.415)">
          <rect id="Rectángulo_5024-2" data-name="Rectángulo 5024" width="23.857" height="1.362" transform="translate(0 38.592) rotate(-41.105)" fill="#f5f5e6"/>
          <rect id="Rectángulo_5025-2" data-name="Rectángulo 5025" width="1.364" height="23.407" transform="translate(17.751)" fill="#f5f5e6"/>
          <rect id="Rectángulo_5026-2" data-name="Rectángulo 5026" width="34.592" height="1.362" transform="translate(18.291 22.751) rotate(-12.209)" fill="#f5f5e6"/>
          <rect id="Rectángulo_5027-2" data-name="Rectángulo 5027" width="1.363" height="23.836" transform="matrix(0.881, -0.474, 0.474, 0.881, 17.832, 23.73)" fill="#f5f5e6"/>
        </g>
        <path id="Trazado_101142-2" data-name="Trazado 101142" d="M1798.146,761.726a3.12,3.12,0,0,1-2.556,1.182c-4.827,0-4.628-8.3.342-7.674C1798.946,755.615,1799.766,759.668,1798.146,761.726Z" transform="translate(-1792.083 -716.53)" fill="#f5f5e6"/>
        <path id="Trazado_101143-2" data-name="Trazado 101143" d="M1816.566,749.1c4.266-.9,6.379-7.294,4.895-11.118-1.223-3.151-5.419-5.873-8.9-4.775C1804.579,735.717,1807.643,750.966,1816.566,749.1Z" transform="translate(-1793.518 -714.52)" fill="#f5f5e6"/>
        <path id="Trazado_101144-2" data-name="Trazado 101144" d="M1856.063,732.595c-.819-3.291-4.988-3.5-6.6-.594-.8,1.448-1.267,3.942.268,5.01C1852.5,738.937,1856.839,735.721,1856.063,732.595Z" transform="translate(-1797.203 -714.249)" fill="#f5f5e6"/>
        <path id="Trazado_101145-2" data-name="Trazado 101145" d="M1830.719,763.182c-1.895-3.661-6.245-1.74-6.527,1.91C1823.739,770.985,1833.566,768.677,1830.719,763.182Z" transform="translate(-1794.985 -717.074)" fill="#f5f5e6"/>
      </g>
      <g id="Grupo_53448-3" data-name="Grupo 53448" transform="translate(0 186.741)" opacity="0.69">
        <path id="Trazado_101141-3" data-name="Trazado 101141" d="M1811.983,715.964c-.139-2.284,2.847-3.8,5.042-3.109,2.042.641,3.261,3.869,1.749,5.646C1816.8,720.815,1812.155,718.834,1811.983,715.964Z" transform="translate(-1778.595 -712.688)" fill="#f5f5e6"/>
        <g id="Grupo_53447-3" data-name="Grupo 53447" transform="translate(3.573 3.415)">
          <rect id="Rectángulo_5024-3" data-name="Rectángulo 5024" width="23.857" height="1.362" transform="translate(51.493 39.618) rotate(-138.895)" fill="#f5f5e6"/>
          <rect id="Rectángulo_5025-3" data-name="Rectángulo 5025" width="1.364" height="23.407" transform="translate(33.273)" fill="#f5f5e6"/>
          <rect id="Rectángulo_5026-3" data-name="Rectángulo 5026" width="34.592" height="1.362" transform="translate(33.809 24.083) rotate(-167.791)" fill="#f5f5e6"/>
          <rect id="Rectángulo_5027-3" data-name="Rectángulo 5027" width="1.363" height="23.836" transform="matrix(-0.881, -0.474, 0.474, -0.881, 23.257, 44.718)" fill="#f5f5e6"/>
        </g>
        <path id="Trazado_101142-3" data-name="Trazado 101142" d="M1792.9,761.726a3.12,3.12,0,0,0,2.556,1.182c4.827,0,4.628-8.3-.342-7.674C1792.1,755.615,1791.279,759.668,1792.9,761.726Z" transform="translate(-1740.01 -716.53)" fill="#f5f5e6"/>
        <path id="Trazado_101143-3" data-name="Trazado 101143" d="M1813.319,749.1c-4.266-.9-6.379-7.294-4.894-11.118,1.223-3.151,5.419-5.873,8.9-4.775C1825.306,735.717,1822.243,750.966,1813.319,749.1Z" transform="translate(-1777.416 -714.52)" fill="#f5f5e6"/>
        <path id="Trazado_101144-3" data-name="Trazado 101144" d="M1848.813,732.595c.819-3.291,4.988-3.5,6.6-.594.8,1.448,1.267,3.942-.268,5.01C1852.372,738.937,1848.037,735.721,1848.813,732.595Z" transform="translate(-1848.722 -714.249)" fill="#f5f5e6"/>
        <path id="Trazado_101145-3" data-name="Trazado 101145" d="M1824.7,763.182c1.895-3.661,6.245-1.74,6.527,1.91C1831.676,770.985,1821.849,768.677,1824.7,763.182Z" transform="translate(-1801.479 -717.074)" fill="#f5f5e6"/>
      </g>
      <g id="Grupo_60880" data-name="Grupo 60880" transform="translate(271.102 43.771)">
        <ellipse id="Elipse_4334" data-name="Elipse 4334" cx="58.579" cy="36.377" rx="58.579" ry="36.377" transform="translate(42.615 213.185)" fill="#8de7ff" opacity="0.8"/>
        <g id="Grupo_60879" data-name="Grupo 60879" transform="translate(0 0)">
          <path id="Trazado_109548" data-name="Trazado 109548" d="M437.357,281.427c1.311,4.778,3.422,8.4,2.315,14.715-3.921,3.969-9.946,8.158-15.318,11.533l0,.033c-9.712,6.409-21.908,10.459-25.685,2.876-.639-2.022.979-4.97,2.477-6.49,4.538-4.6,12.113-6.351,13.4-13.388a24.308,24.308,0,0,0,.2-6.122Z" transform="translate(-289.714 -56.704)" fill="#4d4948" fill-rule="evenodd"/>
          <path id="Trazado_109549" data-name="Trazado 109549" d="M440,285.349c-2.41,5.757-5.67,4.725-8.289,6.867-8.013,6.554-9.611,12.364-21.582,14.665-4.836.929-10.716-.812-11.611-3.757l.469,3.146c1.026,2.479,6.908,4.594,11.614,3.539,13.025-2.912,29.776-16.916,30.939-19.49C442.595,287.976,440.514,287.006,440,285.349Z" transform="translate(-289.733 -49.688)" fill="#3c3c3b" fill-rule="evenodd"/>
          <path id="Trazado_109550" data-name="Trazado 109550" d="M417.505,250.849s-.4.3-1.13.851a23.77,23.77,0,0,0-1.738-2.63l-.427-.265s-36.9,31.277-36.643,59.27c0,.109,0,.218,0,.329h0l.02.842h0l.02.828h0l.02.812h0l.02.8h0l.022.786h0l.025.773h0l.028.759h0l.031.75.033.734.034.722.039.711.036.7.042.686.045.678.045.664.048.658.053.644.053.633.056.625.061.616.061.608.064.6.067.591.07.58.075.575.075.563.081.558.081.552.086.544.089.538h0l.092.533h0l.095.527h0l.1.519h0l.1.513h0l.106.51h0l.109.5h0l.111.5h0l.114.5h0l.12.494h0l.123.488h0l.128.485h0l.131.482h0l.134.48h0l.139.477h0l.145.474h0l.148.474h0l.151.471h0l.156.469h0l.162.469h0l.165.469h0l.17.469.176.469.181.466.184.469.19.469.192.471.2.471.2.471.206.474.215.477.22.48.223.482.229.485.232.488c1.779,10.216,14.592,11.388,22.2,6.465-.117.019-.223.028-.337.045a7.924,7.924,0,0,0,3.849-5.43c-2.8-26.9,6.381-50.27,22.076-59.424-3.127,18.179,14.492,67.426,19.713,74.683.494,8.844,22.661,13.337,22.145-4.46,2.435-9.025-7.4-18.9-11.131-40.8-1.347-7.921,2.468-30.9,2.516-37.9.156-23.261-2.056-33.218-9.99-41.262-6.061,7.349-25.191,19.069-34.124,15.092Z" transform="translate(-327.217 -136.32)" fill="#eaeaea" fill-rule="evenodd"/>
          <path id="Trazado_109551" data-name="Trazado 109551" d="M429.059,263.058l.025-.014-.025-.031v.045Zm0,.212v-.061l.025-.165C429.1,263.055,429.086,263.136,429.059,263.27Zm-6.719-11.446c0,15.044-13.917-15.39-13.917,6.6,0,6.114-5.216,3.138-8.3,6.231-7.065,7.076-21.375,27.573-20.779,38.7.307,5.679.569,10.819.795,15.521l.042.1.215.477.22.48.223.482.229.485.232.488c1.779,10.216,14.592,11.388,22.2,6.465-.117.019-.223.028-.337.045a7.924,7.924,0,0,0,3.849-5.43c-2.8-26.884,6.373-50.245,22.05-59.41v-.045c-2.8-3.21-2.042-11.19-6.719-11.19Zm6.719,11.385v.061l-.025.109Z" transform="translate(-324.077 -112.697)" fill="#c9c9c9" fill-rule="evenodd"/>
          <path id="Trazado_109552" data-name="Trazado 109552" d="M364.75,293.439l9.332,8.314c4.184-3.246,13.056-12.66,18.656-18.946,4.5-5.043,28.211-28.892,33.1-43.286-6.253-15.226,11.045-24.7,2.005-25.816-8.97-1.1-13.608.853-19.825,8.264-4.956,8.9-19.73,40.679-26.638,49.182C369,285.83,365.737,286.536,364.75,293.439Z" transform="translate(-350.148 -178.374)" fill="#eaeaea" fill-rule="evenodd"/>
          <path id="Trazado_109553" data-name="Trazado 109553" d="M395.264,256.122c-15.128,5.506-.078,3.277-1.615,7.369-.764,2.042-3.1.078-6.524,2.633-6.306,4.7-.87,10.428-12.467,16.888-2.644,1.473-5.018,2.806-9.726.363-.109,4.725,2.426,7.6,8.827,7.765,10.308,1.275,22.335-17.013,27.935-23.3,5.483-6.155,25.9-41,28.476-47.618-13.471-2.016-20.96-.834-24.217,6.909C402.262,235.9,403.347,251.74,395.264,256.122Z" transform="translate(-349.827 -167.759)" fill="#c9c9c9" fill-rule="evenodd"/>
          <path id="Trazado_109554" data-name="Trazado 109554" d="M417.922,278.864c.078,4.953,1.224,8.984-1.42,14.829-4.786,2.867-11.667,5.425-17.7,7.358l-.008.033c-11,3.79-23.821,4.677-25.59-3.606-.117-2.117,2.181-4.568,4.013-5.667,5.539-3.327,13.309-3.14,16.31-9.636a24.164,24.164,0,0,0,1.718-5.877Z" transform="translate(-335.039 -65.88)" fill="#4d4948" fill-rule="evenodd"/>
          <path id="Trazado_109555" data-name="Trazado 109555" d="M417.984,281.25c-3.765,4.976-6.666,3.168-9.734,4.591-9.394,4.354-12.386,9.583-24.552,8.833-4.917-.3-10.18-3.453-10.311-6.529l-.329,3.166c.376,2.655,5.55,6.167,10.367,6.317,7.5.234,13.778-2.346,22.2-6,6.27-2.719,10.827-3.1,12.618-5.182C419.845,284.443,418.071,282.982,417.984,281.25Z" transform="translate(-335.285 -57.021)" fill="#3c3c3b" fill-rule="evenodd"/>
          <path id="Trazado_109556" data-name="Trazado 109556" d="M401.861,300.545c7.006-6.856,10.732-3.71,12.791-10.964,5.366,2.415,15.9-.653,19.557-6.44h0c2.954,8.286-2.468,6.75-7.924,10.822-5.255,3.921-13.809,13.549-21.141,13.934C399.3,308.2,398.832,303.507,401.861,300.545Z" transform="translate(-287.04 -53.638)" fill="#666" fill-rule="evenodd"/>
          <path id="Trazado_109557" data-name="Trazado 109557" d="M433.858,222.183s.4,11.762,1.442,17.766c1.01,12.066,8.482,27.584,13.307,38.938-6.234,21.147-26.544,32.908-41.264,11.876-15.4-8.557-26.493-30.233-25.913-54.019,1.852-7.243,2.287-17,9.5-21.1C403.786,208.338,434.059,221.784,433.858,222.183Z" transform="translate(-320.347 -178.279)" fill="#eaeaea" fill-rule="evenodd"/>
          <path id="Trazado_109558" data-name="Trazado 109558" d="M409.028,276.154c-2.758,11.538-4.638,25.492-3.238,38.545.9,8.44,15.864,36.138,22.951,36.138.34,6.108,8.825,11.067,19.733,1.25-1.342-.435-8.091.477-10.049-.614-13.466-7.48-6.836-29.916-9.893-32.671-4.488-4.047-9.678-.608-10.916-6.326-3.6-16.6,4.56-43.956,8.462-59.945-2.616-.87-9.779,15.627-18.7,9.1C405.712,260.4,397,250.472,391.267,242.8,386.559,248.522,405.9,273.278,409.028,276.154Z" transform="translate(-304.021 -125.807)" fill="#c9c9c9" fill-rule="evenodd"/>
          <path id="Trazado_109559" data-name="Trazado 109559" d="M404.277,289.281c-.117-.873-.1-5.386.017-4.513,2.109,9.145,23.322,5.821,21.838-5.012.031-.446,2.117,5.124,2,6.365C426.614,295.347,405.47,298.29,404.277,289.281Z" transform="translate(-279.574 -59.739)" fill="#3c3c3b"/>
          <path id="Trazado_109560" data-name="Trazado 109560" d="M376.918,247.6c.034-1.933-4.195-6.2-5.709-3.966-1.693,1.64-8.152,8.021-8.518,8.554a21.591,21.591,0,0,0-1.487,2.465,4.839,4.839,0,0,0-.616,3.523c.059,1.3.123,5.034.276,6.194.482,2.05.812,4.833,1.679,6.585a1.157,1.157,0,0,0,1.085-.619c.307.689.536,1.961,1.448,1.712a2.267,2.267,0,0,0,1.456-2.125l.184.837c1.3.605,2.4-1.615,2.563-2.457.151-.823-.251-3.378-.126-4.223.312-2.05,1-6.791.653-1.908-.181,2.117-.008,5.043,1.04,4.5,2.159-1.113,1.1-2.926,1.5-5.034.343-1.858,1.261-5.589,2.507-7.218C377.534,250.914,376.873,250.261,376.918,247.6Z" transform="translate(-357.728 -125.451)" fill="#3c3c3b" fill-rule="evenodd"/>
          <path id="Trazado_109561" data-name="Trazado 109561" d="M366.372,242.111a36.5,36.5,0,0,0,9.332,8.311c-2.2,1.637-3.631,2.591-3.631,2.591-5.391-2.1-9.07-5.492-8.063-8.331C364.69,243.968,365.493,243.1,366.372,242.111Z" transform="translate(-351.77 -127.043)" fill="#575756" fill-rule="evenodd"/>
          <path id="Trazado_109562" data-name="Trazado 109562" d="M380.86,279.719c.109-.876,1.25-5.241,1.143-4.365-.234,9.38,21.138,11.441,22.4.577.139-.424.775,5.489.351,6.663C400.988,291.151,379.777,288.739,380.86,279.719Z" transform="translate(-321.399 -67.776)" fill="#3c3c3b"/>
          <path id="Trazado_109563" data-name="Trazado 109563" d="M377.693,287.946c8.493-4.895,11.318-.923,15.117-7.436,4.6,3.676,15.56,3.325,20.547-1.372h0c.8,8.763-4.069,5.924-10.367,8.509-6.066,2.491-16.746,9.689-23.944,8.236C373.308,294.726,374.022,290.063,377.693,287.946Z" transform="translate(-332.102 -60.799)" fill="#666" fill-rule="evenodd"/>
          <path id="Trazado_109564" data-name="Trazado 109564" d="M370.974,248.474c-.354,1.919-3.182,2.937-4.789,3.882-1.818,1.071-1.227,4.423-4.016,5.5-2.678,1.035,1.7-8.214,2.359-9.474.524-1.012,3.09-4.011,4.538-3.511C371.582,245.732,370.915,246.906,370.974,248.474Z" transform="translate(-356.302 -122.211)" fill="#575756" fill-rule="evenodd"/>
          <path id="Trazado_109565" data-name="Trazado 109565" d="M381.426,223.451c4,9.759,11.056,17.563,21.769,17.563,9.31,0,9.971,10.643,14.163,0,1.386-3.525,19.917,12.8,22.221,15.644,4.864,6-1.127,7.508-4.884,12.464-6.253,8.247,14.085-4.973,10.2.7-1.581,2.309-2.809,8.244-7.118,12.11-7.539,6.766-16.556,15.588-30.465-9.023C392.9,264.9,382.26,245.409,381.426,223.451Z" transform="translate(-320.314 -160.427)" fill="#c9c9c9" fill-rule="evenodd"/>
          <path id="Trazado_109566" data-name="Trazado 109566" d="M383.912,217.749c6.7,2.075,13.8,14.21,24.527,16.849,6.153,1.512,14.645.39,21.7-2.429-.4-5.087-.566-9.988-.566-9.988.19-.376-26.954-12.456-40.751-7.525-.577,1.135-1.994,3.79-5.017,3.207Z" transform="translate(-316.061 -178.276)" fill="#f9f9f9" fill-rule="evenodd"/>
          <path id="Trazado_109567" data-name="Trazado 109567" d="M401.64,205.08c1.074,2.9,6.37,20.458,11.909,25.715-9.43,3.364-8.219,28.253-20.332,23.646-3.863-1.47-7.728-7.045-7.871-16.578,3.04-4.421,5.723-3.589-2.223-13.282C381.123,221.332,401.642,205.08,401.64,205.08Z" transform="translate(-317.523 -193.294)" fill="#c9c9c9" fill-rule="evenodd"/>
          <path id="Trazado_109568" data-name="Trazado 109568" d="M382.339,226.873c.7,1.47,2.58.937,2.917,8.016.215,4.373.859,4.161,5.221,9.957,2.471,3.28,11,8.4,14.216,4.245,1-1.3,3.1-10.571,8.724-4.449,1.665,1.813,2.527-2.92,1.83-9.039-.176-1.528-3.266-17.172.3-8.311,5.441,13.544.541-17.658-4.867-22.2-5.444-4.772-16.709-7.6-29.11,3.207-4.923,4.284-8.392,13.092-3.311,17.923C379.7,227.6,381.645,224.4,382.339,226.873Z" transform="translate(-330.453 -200.854)" fill="#eaeaea" fill-rule="evenodd"/>
          <path id="Trazado_109569" data-name="Trazado 109569" d="M376.413,217.171c3.062-1.573,11.3-5.492,17.033.24,1.163,1.163,13.028,12.342,8.454,3.129-1.877-3.779,2.385-4.513,3.28-2.767,11.923,23.135,1.844-5.369,5.927-2.1a9.093,9.093,0,0,1,1.964,3.514c.282-6.593-2.058-11.608-4.78-13.892C397.655,195.974,378.522,203.585,376.413,217.171Z" transform="translate(-329.282 -200.27)" fill="#f9f9f9" fill-rule="evenodd"/>
          <path id="Trazado_109570" data-name="Trazado 109570" d="M384.662,207.131c6.236,1.42,17.091,9.232,20.525,17.384s2.432,9.07,1.219,11.073c-1.174,1.266-2.139,2.3-2.585,2.876-3.216,4.158-11.745-.965-14.216-4.245-4.362-5.8-5.006-5.584-5.221-9.957-.338-7.079-2.215-6.546-2.917-8.016-.7-2.468-2.639.722-4.083-.65a7.968,7.968,0,0,1-1.135-1.347C376.378,208.924,378.423,205.709,384.662,207.131Z" transform="translate(-329.579 -190.227)" fill="#c9c9c9" fill-rule="evenodd"/>
          <path id="Trazado_109571" data-name="Trazado 109571" d="M384.405,207.641c6.688,1.492,14.877,9.38,18.57,18.868s-.7,14.707-7.388,13.215-14.615-9.884-17.7-18.743S377.72,206.152,384.405,207.641Z" transform="translate(-328.852 -189.12)" fill="#333" fill-rule="evenodd"/>
          <path id="Trazado_109572" data-name="Trazado 109572" d="M377.28,218.165l2.3,15.655,11.491,8.49c2.527-1.989,3.975-2.912,6.418-5l.059-.05c8.27-7.3-6.178-26.97-13.781-28.669C378.415,207.4,375.769,211.578,377.28,218.165Z" transform="translate(-328.485 -187.372)" fill="#7f7f7f" fill-rule="evenodd"/>
          <path id="Trazado_109573" data-name="Trazado 109573" d="M389.563,241.195c7.146-3.994,5.79-17.973,1.883-27.269-2.652-2.806-5.455-4.836-7.675-5.333-5.355-1.194-8,2.984-6.49,9.572l2.3,15.655Z" transform="translate(-328.485 -187.372)" fill="#b2b2b2" fill-rule="evenodd"/>
          <path id="Trazado_109574" data-name="Trazado 109574" d="M377.362,210.041l3.035,25.046,2.432-.215,1.9-25.682a11.369,11.369,0,0,0-1.858-.6C380.422,208.047,378.539,208.624,377.362,210.041Z" transform="translate(-327.585 -187.372)" fill-rule="evenodd" fill="url(#linear-gradient)"/>
          <path id="Trazado_109575" data-name="Trazado 109575" d="M376.153,225.2l4.2-7.226a1.423,1.423,0,0,1,.209-.259c3.723-3.974,16.81,3.96,14.166,8.841h0l-4.08,7.023Z" transform="translate(-329.747 -172.628)" fill="#4c4c4c" fill-rule="evenodd"/>
          <path id="Trazado_109576" data-name="Trazado 109576" d="M379.981,224.2l3.816-6.457a10.629,10.629,0,0,1,3.445,3.578l-3.849,6.507A10.615,10.615,0,0,0,379.981,224.2Z" transform="translate(-322.899 -170.632)" fill="#333" fill-rule="evenodd"/>
          <path id="Trazado_109577" data-name="Trazado 109577" d="M390.477,229.538c-1.665,1.779-6.113,1.138-9.929-1.434s-5.556-6.1-3.891-7.885,6.116-1.141,9.932,1.434S392.145,227.756,390.477,229.538Z" transform="translate(-329.976 -168.012)" fill="#333" fill-rule="evenodd"/>
          <path id="Trazado_109578" data-name="Trazado 109578" d="M379.387,223.84l3.821-6.448c.326.17.647.349.962.541l-3.821,6.451Q379.872,224.091,379.387,223.84Z" transform="translate(-323.962 -171.267)" fill="#333" fill-rule="evenodd"/>
          <path id="Trazado_109579" data-name="Trazado 109579" d="M376.043,222.089l.828-1.425a1.222,1.222,0,0,1,.2-.24c3.447-3.682,15.566,3.668,13.117,8.186h0l-.72,1.238Z" transform="translate(-329.944 -167.63)" fill="#4c4c4c" fill-rule="evenodd"/>
          <path id="Trazado_109580" data-name="Trazado 109580" d="M389.31,229.488c-1.545,1.651-5.662,1.054-9.2-1.328s-5.149-5.651-3.6-7.3,5.665-1.054,9.2,1.328S390.856,227.839,389.31,229.488Z" transform="translate(-330.156 -166.734)" fill="#333" fill-rule="evenodd"/>
          <path id="Trazado_109581" data-name="Trazado 109581" d="M380.832,216.862l-3.958,6.772a6.538,6.538,0,0,1,2.652-.045l4.17-6.7A6.412,6.412,0,0,0,380.832,216.862Z" transform="translate(-328.458 -172.486)" fill="#999" fill-rule="evenodd"/>
          <g id="Grupo_60872" data-name="Grupo 60872" transform="translate(147.925 114.661)">
            <path id="Trazado_109582" data-name="Trazado 109582" d="M418.777,247.979c.918,1.98-.379,3.464-1.294,5.472-1.038,2.27.982,6.326-.979,9.3-1,1.514-2.187-.862-2.293-3.576s-1.643-4.432-1.659-6.641c-.008-1.311.329-5.829,2.039-6.426C417.564,245.076,417.7,246.615,418.777,247.979Z" transform="translate(-412.552 -235.156)" fill="#575756" fill-rule="evenodd"/>
            <path id="Trazado_109583" data-name="Trazado 109583" d="M422.181,242.72c-1.584-1.453-8.548-.845-7.9,2.142,0,2.7-1.746,12.211-1.593,12.927.237,1.2,2.337,2.862,2.728,4.041a5.017,5.017,0,0,0,2.443,3.138c1.13.906,4.3,3.6,5.383,4.312,2.1,1.082,6.153,4.178,6.842,3.358a2.329,2.329,0,0,0,.552-1.866c.767.385,1.754,1.392,2.4.427a2.46,2.46,0,0,0-.6-2.853l.848.452c1.559-.284.485-2.864-.092-3.626-.563-.739-2.912-2.714-3.514-3.45-1.459-1.785-4.856-5.882-1.068-1.98,1.62,1.718,4.345,3.74,4.594,2.393.429-2.337-1.763-3.2-3.2-5.1-1.275-1.673-3.433-5.16-3.788-7.464C425.442,244.611,424.365,244.72,422.181,242.72Z" transform="translate(-412.327 -241.965)" fill="#3c3c3b" fill-rule="evenodd"/>
          </g>
          <path id="Trazado_109584" data-name="Trazado 109584" d="M413.487,249.72a24.744,24.744,0,0,0,1.2,7.344c1.355,1.152,3.074,1.3,4.256-.335,1.573.167,2.945-.7,3.037-1.81a2.51,2.51,0,0,0,2.449-2.362,4.331,4.331,0,0,0,1.21-2.242c-.34-1.888-1.506-3.152-2.281-5.3C419.843,247.132,415.874,250.264,413.487,249.72Z" transform="translate(-262.985 -121.842)" fill="#575756" fill-rule="evenodd"/>
          <path id="Trazado_109585" data-name="Trazado 109585" d="M447.555,253.1c8.046,12.043,9.19,40.149,9.19,40.149l-13.973,1.406c-8.805-3.266-2.019-16-6.217-19.348-2.092-1.671-2.078-3.378-2.438-5.852-.2-1.4-3.417.173-3.955-2.3-1.894-8.691-11.1-13.446-18.45-14.107-23.6-9.051-15.675-37.482-11.173-36.785.987.075,5.447-.07,9.491,1.6C419.616,221.822,433.782,232.487,447.555,253.1Z" transform="translate(-295.045 -173.309)" fill="#c9c9c9" fill-rule="evenodd"/>
          <path id="Trazado_109586" data-name="Trazado 109586" d="M447.184,253.019c8.049,12.043,13.867,33.011,9.307,37.164l-3.484,1.492c-3.2-.407-8.6-1.693-8.978-4.248-.773-5.185,5.765-9-.65-19.607-1.113-1.841-3.166.9-7.461-4.613-.759-.973,3.969-1.966,3.213-2.725-1.135-1.138-8.415-1.88-10.194-3.244-11.251-8.615-27.921-10.37-31.218-16.241-.1-.2-.2-.41-.287-.616-.02-.053-.045-.106-.064-.162l-.008,0c-4.979-11.279,2.934-24.393,6.024-23.916.987.078,2.234-.19,6.278,1.481C419.246,221.745,433.415,232.41,447.184,253.019Z" transform="translate(-294.677 -173.233)" fill="#eaeaea" fill-rule="evenodd"/>
          <path id="Trazado_109587" data-name="Trazado 109587" d="M412.481,247.176a51.087,51.087,0,0,0,14.088-4.39c.212,2.736.259,4.454.259,4.454-4.649,3.445-11.561,5.67-13.427,3.308C413.159,249.591,412.852,248.451,412.481,247.176Z" transform="translate(-264.754 -125.836)" fill="#575756" fill-rule="evenodd"/>
          <path id="Trazado_109588" data-name="Trazado 109588" d="M399.283,218.113c-4.967,12-4.585,20.634,11.343,20.634,5.157,0,3.91,6.365,8.791,8.8,3.545,1.771,31.176,12.874,22.137,12.06-5.336-.483,5.6,3.1,7,4.072,2.418,1.687-5.732.5-3.743,4.075,1.7,3.057,6.222,17.242,11.519,20.541,2.164-6.663-3.238-24.524-10.423-35.276-13.773-20.608-27.941-31.274-37.524-35.232-4.044-1.671-5.291-1.4-6.278-1.481C401.361,216.192,400.337,216.867,399.283,218.113Z" transform="translate(-293.398 -173.232)" fill="#f9f9f9" fill-rule="evenodd"/>
          <g id="Grupo_60878" data-name="Grupo 60878" transform="translate(0 119.816)">
            <g id="Grupo_60877" data-name="Grupo 60877">
              <path id="Trazado_109589" data-name="Trazado 109589" d="M431.7,249.123l28.984,96.29a8.068,8.068,0,0,1,.265,1.665c2.569,27.227-62.854,45.333-71.662,18.706h0l-28.644-95.169Z" transform="translate(-357.494 -234.315)" fill="#e94b46" fill-rule="evenodd"/>
              <path id="Trazado_109590" data-name="Trazado 109590" d="M385.931,253.522l34.551,116.114c-8.8,1.841-17.666,1.846-24.561-.563l-32.37-108.782Z" transform="translate(-352.292 -226.445)" fill="#ba1c00" fill-rule="evenodd"/>
              <g id="Grupo_60873" data-name="Grupo 60873" transform="translate(7.913 32.99)">
                <path id="Trazado_109591" data-name="Trazado 109591" d="M362.566,282.472a15.5,15.5,0,0,1,.48-5.506l2.293,7.709.025-.006c8.384,26.9,74.231,8.872,71.643-18.466a13.342,13.342,0,0,0-.541-2.691l-2.086-7.277a14.765,14.765,0,0,1,4.884,9.474C442.715,298.45,366,315.575,362.566,282.472Z" transform="translate(-362.097 -254.581)" fill="#cc4040" fill-rule="evenodd"/>
                <path id="Trazado_109592" data-name="Trazado 109592" d="M362.425,281.879a15.447,15.447,0,0,1,.477-5.508l2.3,7.712.022-.005c8.387,26.9,74.231,8.872,71.646-18.466a13.344,13.344,0,0,0-.541-2.691l-2.089-7.277a14.755,14.755,0,0,1,4.886,9.474C442.572,297.857,365.861,314.982,362.425,281.879Z" transform="translate(-362.352 -255.642)" fill="#ff7373" fill-rule="evenodd"/>
              </g>
              <g id="Grupo_60874" data-name="Grupo 60874" transform="translate(19.786 72.891)">
                <path id="Trazado_109593" data-name="Trazado 109593" d="M366.823,296.775a15.508,15.508,0,0,1,.48-5.506l2.293,7.712.025-.006c8.384,26.9,74.231,8.872,71.643-18.466a13.35,13.35,0,0,0-.541-2.691l-2.086-7.277a14.764,14.764,0,0,1,4.884,9.475C446.972,312.756,370.259,329.881,366.823,296.775Z" transform="translate(-366.354 -268.887)" fill="#ba1c00" fill-rule="evenodd"/>
                <path id="Trazado_109594" data-name="Trazado 109594" d="M366.682,296.182a15.429,15.429,0,0,1,.477-5.506l2.3,7.712.022-.006c8.387,26.9,74.231,8.872,71.646-18.466a13.347,13.347,0,0,0-.541-2.691l-2.086-7.277a14.751,14.751,0,0,1,4.884,9.474C446.831,312.163,370.118,329.288,366.682,296.182Z" transform="translate(-366.609 -269.948)" fill="#ff7373" fill-rule="evenodd"/>
              </g>
              <path id="Trazado_109595" data-name="Trazado 109595" d="M359.722,277.8c-1.224-12.969,14.986-27.252,36.2-31.89s39.412,2.12,40.637,15.092-14.986,27.255-36.2,31.893S360.946,290.77,359.722,277.8Z" transform="translate(-359.261 -242.685)" fill="#ba1c00" fill-rule="evenodd"/>
              <path id="Trazado_109596" data-name="Trazado 109596" d="M359.58,277.169c-1.224-12.972,14.986-27.255,36.2-31.893s39.412,2.123,40.637,15.094-14.986,27.252-36.2,31.89S360.8,290.141,359.58,277.169Z" transform="translate(-359.515 -243.814)" fill="#cc4040" fill-rule="evenodd"/>
              <path id="Trazado_109597" data-name="Trazado 109597" d="M360.4,275.719c-1.152-12.2,14.1-25.634,34.049-30s37.072,1.994,38.224,14.2-14.1,25.634-34.052,30S361.547,287.918,360.4,275.719Z" transform="translate(-358.049 -242.862)" fill="#ff7373" fill-rule="evenodd"/>
              <path id="Trazado_109598" data-name="Trazado 109598" d="M361.558,273.653c-1.049-11.1,12.827-23.328,30.986-27.3s33.734,1.818,34.783,12.922S414.5,282.6,396.34,286.572,362.606,284.756,361.558,273.653Z" transform="translate(-355.959 -241.508)" fill="#cc4040" fill-rule="evenodd"/>
              <path id="Trazado_109599" data-name="Trazado 109599" d="M362.109,274.295c-1.026-10.88,12.57-22.859,30.365-26.75,15.655-3.422,29.344.552,33.115,8.964.039.251.075.508.1.764,1.026,10.88-12.57,22.859-30.365,26.75-15.655,3.422-29.344-.555-33.115-8.964C362.17,274.805,362.134,274.552,362.109,274.295Z" transform="translate(-354.971 -239.333)" fill="#e94b46" fill-rule="evenodd"/>
              <g id="Grupo_60875" data-name="Grupo 60875" transform="translate(14.506 14.238)">
                <path id="Trazado_109600" data-name="Trazado 109600" d="M364.728,254.9c-.22-2.326,2.689-4.889,6.5-5.72s7.07.379,7.291,2.708-2.689,4.889-6.5,5.72S364.948,257.231,364.728,254.9Z" transform="translate(-364.716 -248.919)" fill="#ff7373" fill-rule="evenodd"/>
                <path id="Trazado_109601" data-name="Trazado 109601" d="M378.252,249.747h0l0,.014-.006-.014Zm.078.232.611,1.883a2.372,2.372,0,0,1,.142.438v0h0a2.858,2.858,0,0,1,.05.315c.22,2.326-2.689,4.889-6.5,5.72-3.489.764-6.526-.2-7.173-2.153h0l-.689-2.106c.72,1.891,3.707,2.8,7.137,2.05,3.807-.831,6.713-3.394,6.5-5.72A2.66,2.66,0,0,0,378.33,249.979Z" transform="translate(-364.61 -247.437)" fill="#cc4040" fill-rule="evenodd"/>
                <path id="Trazado_109602" data-name="Trazado 109602" d="M364.994,254.43c-.2-2.075,2.4-4.362,5.793-5.1s6.306.34,6.5,2.415-2.4,4.362-5.793,5.1S365.189,256.505,364.994,254.43Z" transform="translate(-364.237 -248.608)" fill="#cc4700" fill-rule="evenodd"/>
                <path id="Trazado_109603" data-name="Trazado 109603" d="M364.945,254.265c-.2-2.075,2.4-4.362,5.793-5.1s6.306.34,6.5,2.415-2.4,4.362-5.793,5.1S365.14,256.34,364.945,254.265Z" transform="translate(-364.325 -248.903)" fill="#e94b46" fill-rule="evenodd"/>
              </g>
              <g id="Grupo_60876" data-name="Grupo 60876" transform="translate(28.23 101.264)">
                <path id="Trazado_109604" data-name="Trazado 109604" d="M369.852,306.951a15.432,15.432,0,0,1,.477-5.506l2.3,7.712.022-.006c8.387,26.9,74.231,8.872,71.643-18.466a13.1,13.1,0,0,0-.538-2.691l-2.089-7.28a14.755,14.755,0,0,1,4.886,9.477C450,322.932,373.285,340.057,369.852,306.951Z" transform="translate(-369.382 -279.06)" fill="#ba1c00" fill-rule="evenodd"/>
                <path id="Trazado_109605" data-name="Trazado 109605" d="M369.708,306.358a15.5,15.5,0,0,1,.48-5.506l2.293,7.712.025-.008c8.384,26.906,74.231,8.872,71.643-18.464a13.18,13.18,0,0,0-.541-2.694l-2.086-7.277A14.764,14.764,0,0,1,446.4,289.6C449.857,322.339,373.144,339.464,369.708,306.358Z" transform="translate(-369.636 -280.121)" fill="#ff7373" fill-rule="evenodd"/>
              </g>
            </g>
          </g>
        </g>
      </g>
      <g id="Grupo_60892" data-name="Grupo 60892" transform="translate(194.161 236.323)">
        <path id="Trazado_109650" data-name="Trazado 109650" d="M477.692,263.212,452,248.559a6.019,6.019,0,0,0-6.1,0l-25.816,14.672a3.084,3.084,0,0,0,0,5.358l25.738,14.675a6.016,6.016,0,0,0,6.107,0l25.763-14.695a3.083,3.083,0,0,0,0-5.355Z" transform="translate(-418.53 -216.318)" fill="#b2b2b2" fill-rule="evenodd"/>
        <path id="Trazado_109651" data-name="Trazado 109651" d="M477.692,262.62,452,247.967a6.019,6.019,0,0,0-6.1,0l-25.816,14.672a3.084,3.084,0,0,0,0,5.358l25.738,14.675a6.016,6.016,0,0,0,6.107,0l25.763-14.695a3.083,3.083,0,0,0,0-5.355Z" transform="translate(-418.53 -217.381)" fill="#fff" fill-rule="evenodd"/>
        <path id="Trazado_109652" data-name="Trazado 109652" d="M422.477,280a6.827,6.827,0,0,0-.425,1.121l-.229.612h.092a6.215,6.215,0,0,0-.092,1.046c0,6.2,9.488,11.236,21.188,11.236S464.2,288.98,464.2,282.777a5.944,5.944,0,0,0-.092-1.046h.1l-.235-.621a7.115,7.115,0,0,0-.417-1.1L448.679,240.72a5.916,5.916,0,0,0-11.339,0Z" transform="translate(-412.615 -236.495)" fill="#ccc" fill-rule="evenodd"/>
        <path id="Trazado_109653" data-name="Trazado 109653" d="M422.29,284.834c2.987,4.284,10.763,7.343,19.882,7.343a37.578,37.578,0,0,0,8.85-1.026l-6.051-47.337c-.464-3.644-.747-5.3-2.8-6.121-2.1-.833-4.186,1.437-5.073,3.781l-14.647,42.994C422.393,284.588,422.34,284.711,422.29,284.834Z" transform="translate(-411.776 -234.659)" fill="#e5e5e5" fill-rule="evenodd"/>
        <path id="Trazado_109654" data-name="Trazado 109654" d="M424.06,250.568q-1.112,2.945-2.223,5.883c-.6,8.163,11.689,12.282,21.188,12.282,5.66,0,22.793-2.634,21.093-12.282.092,0-1.913-5.3-2.131-5.883-2.645,4.748-10.338,7.682-18.962,7.682S426.652,255.207,424.06,250.568Z" transform="translate(-412.628 -211.215)" fill="#cc4040" fill-rule="evenodd"/>
        <path id="Trazado_109655" data-name="Trazado 109655" d="M422.3,259.736c3.392,4.941,12.458,7.433,19.843,7.433a41.641,41.641,0,0,0,8.834-1.152l-1.295-10.126a35.217,35.217,0,0,1-7.539.794c-7,0-13.431-2.008-16.988-5.246l-2.732,8.02C422.382,259.551,422.343,259.643,422.3,259.736Z" transform="translate(-411.751 -209.65)" fill="#e94b46" fill-rule="evenodd"/>
        <path id="Trazado_109656" data-name="Trazado 109656" d="M423.976,252.748c1.351,4.885,7.517,7.757,15.167,7.757s14.4-3.09,15.083-7.972l-3.314-8.761c-.791,3.154-5.461,6.225-11.77,6.225s-10.732-2.413-11.854-6.009Z" transform="translate(-408.747 -223.423)" fill="#cc4040" fill-rule="evenodd"/>
        <path id="Trazado_109657" data-name="Trazado 109657" d="M424.5,253.938c2.553,3.154,7.665,4.941,13.7,4.941a26.044,26.044,0,0,0,6.275-.744l-1.337-10.442a17.694,17.694,0,0,1-4.938.68c-4.835,0-8.562-1.418-10.545-3.7Z" transform="translate(-407.804 -221.797)" fill="#e94b46" fill-rule="evenodd"/>
        <path id="Trazado_109658" data-name="Trazado 109658" d="M426.342,248.335c.895,2.654,5.1,3.974,8.551,3.974s7.875-1.485,8.548-3.974l-2.88-7.614a5.916,5.916,0,0,0-11.339,0Z" transform="translate(-404.497 -236.495)" fill="#cc4040" fill-rule="evenodd"/>
        <path id="Trazado_109659" data-name="Trazado 109659" d="M426.766,249.233c1.717,1.516,4.754,2.271,7.366,2.271a14.538,14.538,0,0,0,3.59-.475l-.791-6.183c-.464-3.644-.392-6.929-2.8-7.737-3.082-1.035-4.189,3.054-5.075,5.4Z" transform="translate(-403.735 -235.69)" fill="#e94b46" fill-rule="evenodd"/>
      </g>
      <g id="Grupo_60893" data-name="Grupo 60893" transform="translate(11.634 130.306)">
        <path id="Trazado_109650-2" data-name="Trazado 109650" d="M467.792,260.621,446.4,248.42a5.012,5.012,0,0,0-5.081,0l-21.5,12.217a2.568,2.568,0,0,0,0,4.461l21.431,12.219a5.009,5.009,0,0,0,5.085,0l21.452-12.236a2.567,2.567,0,0,0,0-4.459Z" transform="translate(-418.53 -221.574)" fill="#b2b2b2" fill-rule="evenodd"/>
        <path id="Trazado_109651-2" data-name="Trazado 109651" d="M467.792,260.029l-21.389-12.2a5.012,5.012,0,0,0-5.081,0l-21.5,12.217a2.568,2.568,0,0,0,0,4.461l21.431,12.22a5.009,5.009,0,0,0,5.085,0l21.452-12.236a2.567,2.567,0,0,0,0-4.459Z" transform="translate(-418.53 -222.36)" fill="#fff" fill-rule="evenodd"/>
        <path id="Trazado_109652-2" data-name="Trazado 109652" d="M422.368,272.718a5.684,5.684,0,0,0-.354.934l-.191.51h.077a5.179,5.179,0,0,0-.077.871c0,5.164,7.9,9.356,17.642,9.356s17.64-4.191,17.64-9.356a4.945,4.945,0,0,0-.077-.871h.079l-.2-.517a5.92,5.92,0,0,0-.347-.917l-12.38-32.714a4.926,4.926,0,0,0-9.442,0Z" transform="translate(-414.156 -236.495)" fill="#ccc" fill-rule="evenodd"/>
        <path id="Trazado_109653-2" data-name="Trazado 109653" d="M422.29,276.916c2.487,3.567,8.962,6.114,16.555,6.114a31.289,31.289,0,0,0,7.369-.855l-5.039-39.415c-.387-3.034-.622-4.415-2.331-5.1-1.746-.694-3.486,1.2-4.224,3.148l-12.2,35.8C422.376,276.711,422.332,276.813,422.29,276.916Z" transform="translate(-413.535 -235.137)" fill="#e5e5e5" fill-rule="evenodd"/>
        <path id="Trazado_109654-2" data-name="Trazado 109654" d="M423.684,250.568q-.926,2.452-1.851,4.9c-.5,6.8,9.733,10.226,17.642,10.226,4.713,0,18.979-2.193,17.563-10.226.077,0-1.593-4.415-1.774-4.9-2.2,3.954-8.608,6.4-15.789,6.4S425.843,254.431,423.684,250.568Z" transform="translate(-414.166 -217.8)" fill="#cc4040" fill-rule="evenodd"/>
        <path id="Trazado_109655-2" data-name="Trazado 109655" d="M422.3,258.347c2.824,4.114,10.373,6.189,16.522,6.189a34.673,34.673,0,0,0,7.355-.959l-1.078-8.431a29.324,29.324,0,0,1-6.277.661c-5.833,0-11.183-1.672-14.145-4.368l-2.275,6.678C422.369,258.194,422.337,258.271,422.3,258.347Z" transform="translate(-413.517 -216.643)" fill="#e94b46" fill-rule="evenodd"/>
        <path id="Trazado_109656-2" data-name="Trazado 109656" d="M423.976,251.246c1.125,4.068,6.259,6.459,12.629,6.459s11.987-2.573,12.559-6.638l-2.759-7.295c-.659,2.626-4.547,5.183-9.8,5.183s-8.936-2.009-9.87-5Z" transform="translate(-411.295 -226.828)" fill="#cc4040" fill-rule="evenodd"/>
        <path id="Trazado_109657-2" data-name="Trazado 109657" d="M424.5,252.389c2.126,2.626,6.382,4.114,11.407,4.114a21.685,21.685,0,0,0,5.225-.619l-1.113-8.694a14.733,14.733,0,0,1-4.112.566c-4.026,0-7.129-1.18-8.78-3.078Z" transform="translate(-410.598 -225.626)" fill="#e94b46" fill-rule="evenodd"/>
        <path id="Trazado_109658-2" data-name="Trazado 109658" d="M426.342,246.354c.745,2.21,4.245,3.309,7.12,3.309s6.557-1.236,7.118-3.309l-2.4-6.34a4.926,4.926,0,0,0-9.442,0Z" transform="translate(-408.152 -236.495)" fill="#cc4040" fill-rule="evenodd"/>
        <path id="Trazado_109659-2" data-name="Trazado 109659" d="M426.766,247.176a9.885,9.885,0,0,0,6.133,1.891,12.105,12.105,0,0,0,2.99-.4l-.659-5.148c-.387-3.034-.326-5.77-2.328-6.443-2.566-.862-3.488,2.543-4.226,4.494Z" transform="translate(-407.589 -235.9)" fill="#e94b46" fill-rule="evenodd"/>
      </g>
      <g id="Grupo_60891" data-name="Grupo 60891" transform="translate(29.475 5.38)">
        <ellipse id="Elipse_4335" data-name="Elipse 4335" cx="59.162" cy="36.739" rx="59.162" ry="36.739" transform="translate(5.927 225.241)" fill="#8de7ff" opacity="0.8"/>
        <g id="Grupo_60890" data-name="Grupo 60890" transform="translate(0 0)">
          <path id="Trazado_109608" data-name="Trazado 109608" d="M498.416,254.9q-4.323,4.5-11.079,1.441c-2.1-5.347-5.909-18.98-7.637-27.945-1.7-8.852-23.39-48.485-5.17-53.646,11.215-3.175,17.319,3.824,18.994,14.178,1.224,7.553,1.8,26.165,3.517,37.925C500.425,247.4,500.5,253.869,498.416,254.9Z" transform="translate(-389.645 -140.509)" fill="#c9c9c9" fill-rule="evenodd"/>
          <path id="Trazado_109609" data-name="Trazado 109609" d="M482.031,182.415c2.1,4.343,1.389,10.1,3.485,15.437,5.184,13.187-.661,7.118.316,10.5,6.312,21.862-3.126,14.747,1.551,25.724,1.287,3.021,3.729,5.921,8.855,5.735q-5.867,6.289-11.751,2.276c-2.6-.673-5.909-18.98-7.637-27.945-1.386-7.2-.595-8.893-7.5-12.059-.652-.519-1.253-1.032-1.812-1.54C472.512,194.6,477.154,177.318,482.031,182.415Z" transform="translate(-386.795 -126.25)" fill="#dbb826" fill-rule="evenodd"/>
          <g id="Grupo_60886" data-name="Grupo 60886" transform="translate(92.081 112.693)">
            <path id="Trazado_109610" data-name="Trazado 109610" d="M475.947,203.422c2.148-.9,8.484-3.888,8.249-.644.38,2.813,1.734,13.668,1.682,14.445a25.538,25.538,0,0,1-.432,3.442,5.831,5.831,0,0,1-2.044,3.8c-1.024,1.186-3.871,4.671-4.88,5.654-1.986,1.58-4.372,3.966-6.5,4.978a1.4,1.4,0,0,1-.565-1.4c-.806.426-1.969,1.458-2.647.545a2.725,2.725,0,0,1,.209-3.1l-.8.652c-1.679-.394-1.073-3.32-.591-4.236.47-.893,2.754-3.007,3.265-3.9,1.235-2.172,4.117-7.17.809-2.291-1.409,2.137-3.755,4.778-4.343,3.485-1.215-2.662,1.134-3.6,2.337-5.877,1.061-2.015,2.975-6.231,3.01-8.7C472.784,204.95,473.549,204.425,475.947,203.422Z" transform="translate(-467.02 -201.303)" fill="#3c3c3b" fill-rule="evenodd"/>
            <path id="Trazado_109611" data-name="Trazado 109611" d="M468.237,205.671c-1.1,2.082.821,5.152,1.638,7.246.919,2.369-2.137,5.1-.3,8.2,1.763,2.975,4.512-9.043,4.833-10.725.258-1.351.067-6.1-1.673-6.706C469.707,202.62,469.461,204.232,468.237,205.671Z" transform="translate(-458.214 -197.437)" fill="#575756" fill-rule="evenodd"/>
          </g>
          <path id="Trazado_109612" data-name="Trazado 109612" d="M478.007,201.307c-4.9.992-4.242,1.818-9.974,1.3.78,2.87.441,3.314.441,3.314,4.694,1.577,7.832,1.139,9.818-.835A4.071,4.071,0,0,0,478.007,201.307Z" transform="translate(-370.622 -88.603)" fill="#575756" fill-rule="evenodd"/>
          <path id="Trazado_109613" data-name="Trazado 109613" d="M455.616,248.989c.386,4.967-.383,9.107,2.812,14.709,5.06,2.424,12.184,4.335,18.414,5.7l.009.035c11.369,2.763,24.283,2.447,25.278-6.011-.084-2.131-2.615-4.369-4.549-5.3-5.857-2.81-13.619-1.9-17.232-8.113a24.309,24.309,0,0,1-2.273-5.724Z" transform="translate(-358.124 -6.955)" fill="#575756" fill-rule="evenodd"/>
          <path id="Trazado_109614" data-name="Trazado 109614" d="M456.006,249.789c4.236,4.628,6.97,2.543,10.177,3.679,9.809,3.476,13.294,8.429,25.4,6.535,4.891-.765,9.864-4.407,9.71-7.5l.626,3.137c-.13,2.694-4.978,6.695-9.786,7.3-7.489.939-14.01-1.055-22.784-3.92-6.53-2.134-11.128-2.093-13.114-4C454.443,253.158,456.084,251.529,456.006,249.789Z" transform="translate(-357.276 3.487)" fill="#3c3c3b" fill-rule="evenodd"/>
          <path id="Trazado_109615" data-name="Trazado 109615" d="M499.154,236.376c-2.746,4.155-5.895,6.956-6.811,13.338,2.5,5.019,6.956,10.9,11.032,15.808l-.015.032c7.278,9.159,17.666,16.84,23.642,10.774,1.244-1.731.621-5.054-.339-6.973-2.9-5.813-9.586-9.858-8.62-16.985a24.456,24.456,0,0,1,1.722-5.912Z" transform="translate(-490.183 -21.991)" fill="#575756" fill-rule="evenodd"/>
          <path id="Trazado_109616" data-name="Trazado 109616" d="M521.2,264.744c-4.552-8.739-9.093-6.9-8.791-14.474-5.886.632-14.99-5.59-16.678-12.268h0c-5.413,7,.246,7.223,4.187,12.819,3.8,5.387,8.959,17.26,15.845,19.922C521.255,272.862,523.169,268.522,521.2,264.744Z" transform="translate(-487.801 -18.902)" fill="#666" fill-rule="evenodd"/>
          <path id="Trazado_109617" data-name="Trazado 109617" d="M495.524,239.7c.5,6.254,3.94,6.289,5.773,9.154,5.608,8.765,5.318,14.816,16.037,20.754,4.332,2.4,10.493,2.578,12.271.041l-1.432,2.862c-1.757,2.047-8.037,2.23-12.2-.246-11.537-6.857-23.164-25.472-23.468-28.3C492.222,241.4,494.515,241.122,495.524,239.7Z" transform="translate(-492.477 -15.681)" fill="#3c3c3b" fill-rule="evenodd"/>
          <path id="Trazado_109618" data-name="Trazado 109618" d="M468.91,194.963s1.11,16.773,2.166,23.462c1.937,7.759-1.377,22.917,2.012,33.642,2.641,8.359,2.4,12.068,2.821,18.481,14.129,20.012,45.058,14.587,59.306-14.95-1.63-13.613,1.786-36.9-7.475-60.749-2.746-7.069-4.831-24.057-20.725-18.072C483.8,179.335,468.556,194.615,468.91,194.963Z" transform="translate(-429.738 -137.578)" fill="#eaeaea" fill-rule="evenodd"/>
          <path id="Trazado_109619" data-name="Trazado 109619" d="M556.071,200.412S570.7,238.9,571.038,279.234c.171,20.169,12.786,43.819,2.607,45.336,3.52,11.644-23.851,16.33-22.917,2.749-7.341-3.807-16.823-45.342-20.464-71.741-2.441,26.8-34.9,57.461-46.971,55.446-2.5,9.333-26.516,2.627-19.777-11.9-1.606-11.462,18.084-29.563,31.352-36.832,2.218-28.133,2.279-44.127,2.157-48.989,3.781,15.785,52.59,10.742,49.845-6.48Z" transform="translate(-453.062 -90.303)" fill="#eaeaea" fill-rule="evenodd"/>
          <path id="Trazado_109620" data-name="Trazado 109620" d="M472.177,333.079c-3.772-1.951-6.3-4.572-6.095-7.7,18.27,1.856-12.83-22.369-.133-26.089,6.695-1.96,8.73-20.224,8.893-23.062,1.467-25.454-9.069-42.732-6.506-69.468a18.843,18.843,0,0,1,2.517-4.909l.444-.31s14.274,37.554,14.608,76.917c.165,19.681,12.477,42.761,2.543,44.24C490.74,330.292,479.565,334.85,472.177,333.079Z" transform="translate(-369.159 -88.162)" fill="#c9c9c9" fill-rule="evenodd"/>
          <path id="Trazado_109621" data-name="Trazado 109621" d="M471.257,291.867c.812,5.932,3.7,6.454,7.611,5.842,11.949-1.864,13.393-16.249,16.541-19.4,4.628-4.633,15.6.571,18.119-5.248,8.745-20.151,13.065-30.386,10.395-49.7,3.4-3.311,9.125,9.3,16.379,7.556,2.18-.525,14.225-4.517,18.023-26.22,10.5,22.558-7.614,38.8-21.934,44.681-2.38,26.156-34.06,56.073-45.835,54.107C488.121,312.59,464.681,306.046,471.257,291.867Z" transform="translate(-459.439 -82.167)" fill="#c9c9c9" fill-rule="evenodd"/>
          <path id="Trazado_109622" data-name="Trazado 109622" d="M516.407,250.711c.386-.8,1.777-5.118,1.395-4.317-4.874,8.078-24.1-1.728-19.3-11.615.11-.438-3.624,4.233-3.9,5.457C493.168,249.523,512.45,258.943,516.407,250.711Z" transform="translate(-486.685 -25.079)" fill="#3c3c3b"/>
          <path id="Trazado_109623" data-name="Trazado 109623" d="M487.617,247.663c-.191-.867-1.743-5.129-1.554-4.262,1.116,9.368-20.085,13.433-22.364,2.679-.18-.412-.261,5.567.273,6.7C468.541,260.995,489.545,256.59,487.617,247.663Z" transform="translate(-366.779 -8.867)" fill="#3c3c3b"/>
          <path id="Trazado_109624" data-name="Trazado 109624" d="M493.722,253.541c-8.959-4.1-11.415.139-15.828-6.025-4.256,4.111-15.263,4.79-20.693.557h0c.02,8.846,4.627,5.547,11.174,7.544,6.3,1.925,17.669,8.127,24.738,6C498.749,259.917,497.6,255.316,493.722,253.541Z" transform="translate(-357.574 -0.831)" fill="#666" fill-rule="evenodd"/>
          <path id="Trazado_109625" data-name="Trazado 109625" d="M483.526,245.513c.937,3.558,3.619,6.347,7.176,8.527,11.624,7.13,27.223,10.945,32.587,7.8,5.184-2.163,3.764-8.69-.264-14.167-2.54-5.413-13.761-4.187-19.073-9.351-.678-.661,1.618-1.667.748-2.32-3.184-2.386,1.125-2.737-.568-3.665-2.757-1.516.09-1.882.139-3.1.2-4.8.383-6.651,4.958-12.871,7.64-23.039-20.409-38.163-23.08-34a21.117,21.117,0,0,0-4.294,7.37C478.188,200.357,476.678,219.529,483.526,245.513Z" transform="translate(-449.704 -125.897)" fill="#c9c9c9" fill-rule="evenodd"/>
          <path id="Trazado_109626" data-name="Trazado 109626" d="M528.161,205.139c1.168,9.823-2.212,17.414-14.941,17.814-9.971.313-15.634-10.238-20.238-17.742-9.38-15.28-13.106-11.035-19.711-11.114-.345-.339,14.529-15.251,37.18-17.745C528.176,169.682,527.341,193.8,528.161,205.139Z" transform="translate(-435.547 -138.18)" fill="#f9f9f9" fill-rule="evenodd"/>
          <path id="Trazado_109627" data-name="Trazado 109627" d="M479.853,168.512c-.058,3.117,1.192,22.016-2.343,28.873,20.389,19.47,35.971,18.641,28.777-3.024-4.367-3.207-6.651-1.522-2.293-13.4C504.82,177.193,479.853,168.512,479.853,168.512Z" transform="translate(-427.547 -150.896)" fill="#c9c9c9" fill-rule="evenodd"/>
          <g id="Grupo_60887" data-name="Grupo 60887" transform="translate(73.659 46.924)">
            <path id="Trazado_109628" data-name="Trazado 109628" d="M482.544,282a1.553,1.553,0,0,0,1.476-1.064c4.422-13.329,5.553-32.526,3.459-58.685-.789-9.855-3.563-17.965-5.793-24.48-2.435-7.112-4.358-12.729-2.45-16.953a1.554,1.554,0,1,0-2.833-1.279c-2.415,5.347-.319,11.476,2.34,19.238,2.288,6.683,4.88,14.257,5.637,23.723,2.059,25.736.977,44.53-3.311,57.456a1.556,1.556,0,0,0,.986,1.966A1.6,1.6,0,0,0,482.544,282Z" transform="translate(-475.34 -178.62)" fill="#7f7f7f"/>
          </g>
          <path id="Trazado_109629" data-name="Trazado 109629" d="M508.91,182.911c-.185,1.635-2.151,1.751-.122,8.617,1.25,4.242.565,4.251-1.67,11.23-1.264,3.949-7.7,11.67-12.146,8.774-1.392-.9-6.474-9.052-9.8-1.345-.983,2.285-3.381-1.943-4.746-8.011-.342-1.516-2.595-17.463-3.047-7.829-.687,14.726-6.382-16.663-2.734-22.79,3.607-6.361,13.413-12.8,28.829-6.617,6.118,2.453,12.355,9.7,9.113,16C511.665,182.726,508.751,180.328,508.91,182.911Z" transform="translate(-421.132 -162.436)" fill="#eaeaea" fill-rule="evenodd"/>
          <path id="Trazado_109630" data-name="Trazado 109630" d="M510.424,172.266c-3.442-.484-12.6-1.482-16.165,5.889-.722,1.493-8.321,16.1-7.022,5.793.533-4.227-3.772-3.511-4.048-1.551-3.682,26.028-3.543-4.506-6.35-.032a9.188,9.188,0,0,0-.7,4c-2.459-6.2-1.893-11.754-.058-14.839C483.122,159.108,503.9,160.007,510.424,172.266Z" transform="translate(-421.144 -162.063)" fill="#f9f9f9" fill-rule="evenodd"/>
          <path id="Trazado_109631" data-name="Trazado 109631" d="M487.456,167.919c-5.477,3.427-13.23,14.486-13.8,23.4s.7,9.458,2.52,10.966c1.543.818,2.8,1.482,3.421,1.885,4.448,2.9,10.882-4.825,12.146-8.774,2.235-6.979,2.92-6.988,1.67-11.23-2.03-6.866-.061-6.982.119-8.617-.156-2.583,2.757-.186,3.68-1.975a8.07,8.07,0,0,0,.635-1.664C495.951,166.879,492.933,164.492,487.456,167.919Z" transform="translate(-405.758 -155.076)" fill="#c9c9c9" fill-rule="evenodd"/>
          <path id="Trazado_109632" data-name="Trazado 109632" d="M484.856,168.259c-5.883,3.645-11.067,13.888-11.438,24.164s5.555,13.793,11.438,10.148,10.653-14.283,10.653-23.758S490.739,164.614,484.856,168.259Z" transform="translate(-403.071 -153.713)" fill="#333" fill-rule="evenodd"/>
          <path id="Trazado_109633" data-name="Trazado 109633" d="M490.551,176l3.01,15.695-8.139,11.917c-3.07-1.058-4.758-1.456-7.782-2.633l-.073-.029c-10.316-4.219-3.07-27.777,3.616-31.92C485.894,166.11,489.806,169.213,490.551,176Z" transform="translate(-398.243 -151.996)" fill="#7f7f7f" fill-rule="evenodd"/>
          <path id="Trazado_109634" data-name="Trazado 109634" d="M483.342,202.043c-8.142-1.432-11.493-15.216-10.858-25.379,1.6-3.558,3.6-6.425,5.549-7.634,4.712-2.92,8.623.183,9.368,6.97l3.01,15.695Z" transform="translate(-395.094 -151.996)" fill="#b2b2b2" fill-rule="evenodd"/>
          <path id="Trazado_109635" data-name="Trazado 109635" d="M480.134,168.579l5.428,24.895-2.389.606-10.345-23.865a11.2,11.2,0,0,1,1.571-1.183C476.553,167.695,478.539,167.617,480.134,168.579Z" transform="translate(-391.459 -151.998)" fill-rule="evenodd" fill="url(#linear-gradient-2)"/>
          <path id="Trazado_109636" data-name="Trazado 109636" d="M488.416,181.553l-6.4-5.5a1.587,1.587,0,0,0-.287-.177c-4.871-2.551-14.712,9.362-10.569,13.137h0l6.225,5.344Z" transform="translate(-386.592 -137.577)" fill="#4c4c4c" fill-rule="evenodd"/>
          <path id="Trazado_109637" data-name="Trazado 109637" d="M481.441,182.359l-5.784-4.888a10.734,10.734,0,0,0-2.1,4.555l5.834,4.929A10.686,10.686,0,0,1,481.441,182.359Z" transform="translate(-389.464 -133.878)" fill="#333" fill-rule="evenodd"/>
          <path id="Trazado_109638" data-name="Trazado 109638" d="M471.191,191.2c2.18,1.145,6.208-.945,8.994-4.665s3.271-7.669,1.087-8.814-6.211.945-8.994,4.668S469.007,190.055,471.191,191.2Z" transform="translate(-379.831 -133.998)" fill="#333" fill-rule="evenodd"/>
          <path id="Trazado_109639" data-name="Trazado 109639" d="M479.654,181.838l-5.787-4.883c-.252.273-.5.551-.737.838l5.787,4.883C479.155,182.383,479.4,182.1,479.654,181.838Z" transform="translate(-386.43 -134.858)" fill="#333" fill-rule="evenodd"/>
          <path id="Trazado_109640" data-name="Trazado 109640" d="M482.084,179.224l-1.261-1.084a1.37,1.37,0,0,0-.267-.165c-4.509-2.363-13.628,8.672-9.789,12.169h0l1.1.942Z" transform="translate(-379.338 -133.547)" fill="#4c4c4c" fill-rule="evenodd"/>
          <path id="Trazado_109641" data-name="Trazado 109641" d="M470.8,190.783c2.021,1.058,5.753-.876,8.33-4.323s3.03-7.1,1.009-8.159-5.753.876-8.33,4.32S468.775,189.724,470.8,190.783Z" transform="translate(-377.743 -132.855)" fill="#333" fill-rule="evenodd"/>
          <path id="Trazado_109642" data-name="Trazado 109642" d="M473.714,175.593l6.022,5.141a6.6,6.6,0,0,0-2.543.841l-6.2-5.007A6.435,6.435,0,0,1,473.714,175.593Z" transform="translate(-380.302 -137.446)" fill="#999" fill-rule="evenodd"/>
          <path id="Trazado_109643" data-name="Trazado 109643" d="M484.993,246.04c3.14,11.485,31.906,14.616,36.673,11.992,1.079-1-9.206-4.43-3.421-4.175.742.032,6.48,1.357,5.819.56-3.642-4.372,1.383-4.175-.42-6.318-2.549-3.036-6.881-4.5-11.638-4.944-6.118-.571-10.5.128-7.733-5.115.994-1.879-7.553,1.279-7.582.841-.069-1.142,7.2-3.639,5.8-3.94-4.169-.89-.255-2.911.012-4.187,2.453-11.754,8.435-26.287,5.886-32.839-5-12.853-17.113-21.047-21.752-13.822-.646.858-1.76,1.679-3.308,6.164C479.655,200.884,477.9,220.119,484.993,246.04Z" transform="translate(-451.171 -126.424)" fill="#eaeaea" fill-rule="evenodd"/>
          <path id="Trazado_109644" data-name="Trazado 109644" d="M510.915,190.5a27.507,27.507,0,0,1-6.5,13.213c-4.48,4.633-.264,2.975,1.122,6.272,1.789,4.256-8.371,4.781-4.1,13.822,1.766,3.737,4.775,8.194,1.276,9.444-7.437,2.653.815,1.975-3.224,4.822-6.66,4.694-7.234,7.127-8.669,1.235-5.66-23.21-4.393-39.157-.98-49.044,1.548-4.485,2.662-5.306,3.308-6.164C496.8,178.394,505.116,182.288,510.915,190.5Z" transform="translate(-457.684 -126.425)" fill="#f9f9f9" fill-rule="evenodd"/>
          <g id="Grupo_60889" data-name="Grupo 60889" transform="translate(74.084 118.725)">
            <g id="Grupo_60888" data-name="Grupo 60888" transform="translate(0.697)">
              <path id="Trazado_109645" data-name="Trazado 109645" d="M474.992,212.043c2.346.319,3.471-1.5,5.26-3.088,2.021-1.8,6.869-1,9.325-3.981,1.252-1.519-1.592-1.992-4.436-1.235s-5.118-.287-7.411.4c-1.36.409-5.935,2.2-6.008,4.164C471.6,211.712,473.234,211.358,474.992,212.043Z" transform="translate(-467.333 -203.384)" fill="#575756" fill-rule="evenodd"/>
              <path id="Trazado_109646" data-name="Trazado 109646" d="M470.088,217.692c-1.943-1.282-.3-10.342.574-10.679,2.8-.861,6.625-2.992,7.414-3.065,1.325-.136,3.714,1.511,5.06,1.54a5.439,5.439,0,0,1,4.033,1.528c1.3.884,5.094,3.305,6.185,4.2,1.792,1.83,6.292,5.045,5.663,6.019a2.527,2.527,0,0,1-1.757,1.166c.644.673,2,1.374,1.209,2.351a2.671,2.671,0,0,1-3.152.287l.739.734c.2,1.7-2.815,1.415-3.784,1.061-.948-.348-3.746-2.151-4.7-2.543-2.317-.942-7.646-3.155-2.4-.473,2.3,1.131,5.262,3.308,3.946,4-2.285,1.189-3.882-.8-6.306-1.7-2.137-.786-6.579-2.847-9.078-2.482C471.071,218.86,471.642,218.718,470.088,217.692Z" transform="translate(-469.179 -202.326)" fill="#3c3c3b" fill-rule="evenodd"/>
            </g>
            <path id="Trazado_109647" data-name="Trazado 109647" d="M475.491,205.743c2.488-.919,5.213-.96,7.994-1.1,1.624,1.038,2.328,2.769,1.009,4.515.679,1.577.212,3.276-.907,3.726a2.722,2.722,0,0,1-1.664,3.294,4.705,4.705,0,0,1-1.94,1.969c-2.064.249-3.746-.557-6.216-.676C474.836,213.154,476.816,208.042,475.491,205.743Z" transform="translate(-467.889 -200.989)" fill="#575756" fill-rule="evenodd"/>
            <path id="Trazado_109648" data-name="Trazado 109648" d="M477.552,204.921a34.988,34.988,0,0,1,.235,12.749c2.9-.652,4.7-1.154,4.7-1.154,2.088-5.915,1.9-10.479-1.142-11.659C480.275,204.909,478.993,204.9,477.552,204.921Z" transform="translate(-477.552 -200.585)" fill="#575756" fill-rule="evenodd"/>
          </g>
          <path id="Trazado_109649" data-name="Trazado 109649" d="M511.171,208.463c1.195,1.119,4.343,3.668,1.108,3.024-4.538-.9-3.4.438-.739,2.9,2.073,1.911-6.631.371-9.307.371-4.1,0-7.165-1.119-9.681-4.381-.568-.739-3.674-2.61-2.528-3.766,5.645-5.692-5.8-.409-9.061.5-.939.258,2.952-2.81,3.821-3.149,2.247-.873,5.66-2.662,7.953-2.839,2.511-.194.647,2.311,1.357,3.581C495.9,207.915,507.517,205.051,511.171,208.463Z" transform="translate(-442.758 -88.98)" fill="#f9f9f9" fill-rule="evenodd"/>
        </g>
      </g>
      <g id="Grupo_60900" data-name="Grupo 60900" transform="translate(156.125 81.816)">
        <ellipse id="Elipse_4336" data-name="Elipse 4336" cx="49.376" cy="30.515" rx="49.376" ry="30.515" transform="translate(0 92.385)" fill="#8de7ff" opacity="0.8"/>
        <g id="Grupo_60899" data-name="Grupo 60899" transform="translate(10.918)">
          <g id="Grupo_60898" data-name="Grupo 60898">
            <path id="Trazado_109660" data-name="Trazado 109660" d="M463.738,178.016l.3,96.09a7.984,7.984,0,0,1-.211,1.6c-5.068,25.636-69.923,24.387-70.733-2.4h0l-.3-94.966Z" transform="translate(-390.402 -155.278)" fill="#e94b46" fill-rule="evenodd"/>
            <path id="Trazado_109661" data-name="Trazado 109661" d="M417.517,178.07V293.829c-8.556-.711-16.684-3.124-22.341-7.209V178.169Z" transform="translate(-384.684 -155.148)" fill="#ba1c00" fill-rule="evenodd"/>
            <g id="Grupo_60894" data-name="Grupo 60894" transform="translate(0.161 40.461)">
              <path id="Trazado_109662" data-name="Trazado 109662" d="M392.469,188.611a14.7,14.7,0,0,1,1.94-4.911v7.685h.02C394.78,218.311,460,219.74,465.08,194a12.653,12.653,0,0,0,.238-2.614l.071-7.233a14.118,14.118,0,0,1,1.892,10.01C461.52,225.087,386.594,219.866,392.469,188.611Z" transform="translate(-392.141 -182.077)" fill="#cc4040" fill-rule="evenodd"/>
              <path id="Trazado_109663" data-name="Trazado 109663" d="M392.495,188.134a14.821,14.821,0,0,1,1.937-4.911v7.685h.024c.347,26.926,65.57,28.359,70.648,2.614a12.43,12.43,0,0,0,.238-2.614l.072-7.233a14.083,14.083,0,0,1,1.892,10.01C461.543,224.61,386.617,219.389,392.495,188.134Z" transform="translate(-392.079 -183.223)" fill="#ff7373" fill-rule="evenodd"/>
            </g>
            <g id="Grupo_60895" data-name="Grupo 60895" transform="translate(0.161 80.238)">
              <path id="Trazado_109664" data-name="Trazado 109664" d="M392.469,200.3a14.757,14.757,0,0,1,1.94-4.911v7.689h.02C394.78,230,460,231.431,465.08,205.686a12.642,12.642,0,0,0,.238-2.611l.071-7.236a14.121,14.121,0,0,1,1.892,10.01C461.52,236.778,386.594,231.553,392.469,200.3Z" transform="translate(-392.141 -193.763)" fill="#ba1c00" fill-rule="evenodd"/>
              <path id="Trazado_109665" data-name="Trazado 109665" d="M392.495,199.821a14.822,14.822,0,0,1,1.937-4.911V202.6h.024c.347,26.926,65.57,28.355,70.648,2.611a12.4,12.4,0,0,0,.238-2.611l.072-7.236a14.087,14.087,0,0,1,1.892,10.01C461.543,236.3,386.617,231.076,392.495,199.821Z" transform="translate(-392.079 -194.91)" fill="#ff7373" fill-rule="evenodd"/>
            </g>
            <path id="Trazado_109666" data-name="Trazado 109666" d="M392.351,191.359c2.413-12.212,21.153-20.877,41.847-19.342s35.516,12.685,33.1,24.9-21.153,20.878-41.847,19.342S389.938,203.574,392.351,191.359Z" transform="translate(-392.093 -170.122)" fill="#ba1c00" fill-rule="evenodd"/>
            <path id="Trazado_109667" data-name="Trazado 109667" d="M392.385,190.854c2.413-12.212,21.153-20.877,41.847-19.342s35.516,12.685,33.1,24.9-21.153,20.877-41.847,19.342S389.972,203.069,392.385,190.854Z" transform="translate(-392.012 -171.335)" fill="#cc4040" fill-rule="evenodd"/>
            <path id="Trazado_109668" data-name="Trazado 109668" d="M393.028,190.085c2.27-11.49,19.9-19.639,39.359-18.2s33.409,11.93,31.139,23.42-19.9,19.635-39.362,18.192S390.758,201.573,393.028,190.085Z" transform="translate(-390.429 -170.4)" fill="#ff7373" fill-rule="evenodd"/>
            <path id="Trazado_109669" data-name="Trazado 109669" d="M393.945,188.988c2.066-10.456,18.1-17.872,35.819-16.558s30.4,10.857,28.335,21.313-18.107,17.869-35.819,16.555S391.879,199.44,393.945,188.988Z" transform="translate(-388.173 -169.068)" fill="#cc4040" fill-rule="evenodd"/>
            <path id="Trazado_109670" data-name="Trazado 109670" d="M394.06,189.629c2.025-10.245,17.743-17.511,35.1-16.221,15.268,1.13,26.721,8.5,27.882,17.232-.031.242-.068.483-.116.725-2.025,10.245-17.743,17.511-35.1,16.225-15.268-1.13-26.725-8.505-27.882-17.236C393.975,190.113,394.012,189.871,394.06,189.629Z" transform="translate(-387.645 -166.71)" fill="#e94b46" fill-rule="evenodd"/>
            <g id="Grupo_60896" data-name="Grupo 60896" transform="translate(17.144 7.901)">
              <path id="Trazado_109671" data-name="Trazado 109671" d="M397.177,177.168c.432-2.192,3.795-3.747,7.508-3.472s6.371,2.277,5.939,4.466-3.795,3.747-7.508,3.472S396.741,179.36,397.177,177.168Z" transform="translate(-397.13 -173.638)" fill="#ff7373" fill-rule="evenodd"/>
              <path id="Trazado_109672" data-name="Trazado 109672" d="M410.658,174.8h0v0Zm.007.235.048,1.892a2.369,2.369,0,0,1,.01.439h0a2.329,2.329,0,0,1-.041.3c-.432,2.192-3.795,3.744-7.508,3.468-3.4-.248-5.922-1.954-5.984-3.924h0l-.058-2.117c.143,1.926,2.634,3.574,5.98,3.822,3.713.276,7.073-1.28,7.508-3.472A2.43,2.43,0,0,0,410.665,175.031Z" transform="translate(-397.126 -170.918)" fill="#cc4040" fill-rule="evenodd"/>
              <path id="Trazado_109673" data-name="Trazado 109673" d="M397.386,176.914c.388-1.954,3.387-3.339,6.7-3.094s5.68,2.032,5.3,3.986-3.387,3.339-6.695,3.094S397,178.871,397.386,176.914Z" transform="translate(-396.614 -173.332)" fill="#cc4700" fill-rule="evenodd"/>
              <path id="Trazado_109674" data-name="Trazado 109674" d="M397.386,176.782c.388-1.957,3.387-3.342,6.7-3.1s5.68,2.029,5.3,3.986-3.387,3.339-6.695,3.094S397,178.736,397.386,176.782Z" transform="translate(-396.614 -173.657)" fill="#e94b46" fill-rule="evenodd"/>
            </g>
            <g id="Grupo_60897" data-name="Grupo 60897" transform="translate(0.161 108.525)">
              <path id="Trazado_109675" data-name="Trazado 109675" d="M392.469,208.613a14.745,14.745,0,0,1,1.94-4.915v7.689h.02C394.78,238.312,460,239.742,465.08,214a12.655,12.655,0,0,0,.238-2.614l.071-7.233a14.117,14.117,0,0,1,1.892,10.01C461.52,245.089,386.594,239.868,392.469,208.613Z" transform="translate(-392.141 -202.074)" fill="#ba1c00" fill-rule="evenodd"/>
              <path id="Trazado_109676" data-name="Trazado 109676" d="M392.495,208.136a14.811,14.811,0,0,1,1.937-4.915v7.689h.024c.347,26.926,65.57,28.355,70.648,2.614a12.431,12.431,0,0,0,.238-2.614l.072-7.233a14.083,14.083,0,0,1,1.892,10.01C461.543,244.612,386.617,239.391,392.495,208.136Z" transform="translate(-392.079 -203.221)" fill="#ff7373" fill-rule="evenodd"/>
            </g>
          </g>
        </g>
      </g>
    </g>
  </g>
</svg>
