<svg xmlns="http://www.w3.org/2000/svg" xmlns:xlink="http://www.w3.org/1999/xlink" width="320.938" height="259" viewBox="0 0 320.938 259">
  <defs>
    <linearGradient id="linear-gradient" x1="-0.174" y1="0.972" x2="0.848" y2="-0.005" gradientUnits="objectBoundingBox">
      <stop offset="0" stop-color="#c6c6c6"/>
      <stop offset="1" stop-color="#fff"/>
    </linearGradient>
    <linearGradient id="linear-gradient-2" x1="0.099" y1="1.06" x2="0.731" y2="-0.179" xlink:href="#linear-gradient"/>
    <linearGradient id="linear-gradient-3" x1="1.159" y1="0.978" x2="0.17" y2="-0.01" xlink:href="#linear-gradient"/>
  </defs>
  <g id="Grupo_56102" data-name="Grupo 56102" transform="translate(-287.982 -51.492)">
    <g id="Grupo_56064" data-name="Grupo 56064" transform="translate(287.982 65.029)" opacity="0.7">
      <path id="Trazado_103366" data-name="Trazado 103366" d="M436.922,293.147c64.243,3.754,127.813-46.582,145.77-104.111C610.23,100.807,508.9,56.956,437.831,59.86c-63.541,2.6-172.711,47.5-145.606,130.4C310.161,245.12,378.039,289.706,436.922,293.147Z" transform="translate(-287.982 -59.725)" fill="#bdf1ff" fill-rule="evenodd"/>
    </g>
    <ellipse id="Elipse_3995" data-name="Elipse 3995" cx="25.318" cy="15.722" rx="25.318" ry="15.722" transform="translate(464.518 144.622)" fill="#8de7ff"/>
    <ellipse id="Elipse_3996" data-name="Elipse 3996" cx="25.318" cy="15.722" rx="25.318" ry="15.722" transform="translate(367.312 176.69)" fill="#8de7ff"/>
    <ellipse id="Elipse_3997" data-name="Elipse 3997" cx="25.318" cy="15.722" rx="25.318" ry="15.722" transform="translate(415.06 159.978)" fill="#8de7ff"/>
    <g id="Grupo_56070" data-name="Grupo 56070" transform="translate(467.624 86.937)">
      <g id="Grupo_56069" data-name="Grupo 56069">
        <path id="Trazado_103367" data-name="Trazado 103367" d="M440.545,81.322l.183,57.483a4.733,4.733,0,0,1-.127.954c-3.032,15.338-41.828,14.589-42.313-1.434h0l-.178-56.812Z" transform="translate(-396.675 -67.719)" fill="#e94b46" fill-rule="evenodd"/>
        <path id="Trazado_103368" data-name="Trazado 103368" d="M414.419,81.388v69.25c-5.12-.424-9.981-1.868-13.365-4.311V81.449Z" transform="translate(-394.777 -67.677)" fill="#ba1c00" fill-rule="evenodd"/>
        <g id="Grupo_56065" data-name="Grupo 56065" transform="translate(0.097 24.203)">
          <path id="Trazado_103369" data-name="Trazado 103369" d="M397.492,91.3a8.843,8.843,0,0,1,1.159-2.938v4.6h.013c.209,16.107,39.224,16.962,42.264,1.564a7.69,7.69,0,0,0,.143-1.564l.043-4.328a8.442,8.442,0,0,1,1.131,5.988C438.8,113.121,393.977,110,397.492,91.3Z" transform="translate(-397.296 -87.388)" fill="#cc4040" fill-rule="evenodd"/>
          <path id="Trazado_103370" data-name="Trazado 103370" d="M397.523,90.709a8.838,8.838,0,0,1,1.161-2.94v4.6h.013c.209,16.109,39.224,16.964,42.262,1.564a7.453,7.453,0,0,0,.143-1.564l.043-4.326a8.432,8.432,0,0,1,1.133,5.987C438.83,112.53,394.009,109.406,397.523,90.709Z" transform="translate(-397.276 -87.769)" fill="#ff7373" fill-rule="evenodd"/>
        </g>
        <g id="Grupo_56066" data-name="Grupo 56066" transform="translate(0.097 48.001)">
          <path id="Trazado_103371" data-name="Trazado 103371" d="M397.492,105.77a8.843,8.843,0,0,1,1.159-2.938v4.6h.013c.209,16.107,39.224,16.962,42.264,1.562a7.674,7.674,0,0,0,.143-1.562l.043-4.328a8.44,8.44,0,0,1,1.131,5.987C438.8,127.593,393.977,124.469,397.492,105.77Z" transform="translate(-397.296 -101.862)" fill="#ba1c00" fill-rule="evenodd"/>
          <path id="Trazado_103372" data-name="Trazado 103372" d="M397.523,105.18a8.83,8.83,0,0,1,1.161-2.938v4.6h.013c.209,16.107,39.224,16.962,42.262,1.562a7.438,7.438,0,0,0,.143-1.562l.043-4.328a8.435,8.435,0,0,1,1.133,5.988C438.83,127,394.009,123.879,397.523,105.18Z" transform="translate(-397.276 -102.242)" fill="#ff7373" fill-rule="evenodd"/>
        </g>
        <path id="Trazado_103373" data-name="Trazado 103373" d="M397.39,85.351c1.444-7.307,12.654-12.488,25.034-11.571s21.247,7.588,19.8,14.894-12.654,12.488-25.034,11.571S395.947,92.658,397.39,85.351Z" transform="translate(-397.236 -72.646)" fill="#ba1c00" fill-rule="evenodd"/>
        <path id="Trazado_103374" data-name="Trazado 103374" d="M397.432,84.727c1.444-7.307,12.654-12.49,25.034-11.572s21.247,7.588,19.8,14.9-12.654,12.488-25.034,11.571S395.989,92.032,397.432,84.727Z" transform="translate(-397.209 -73.049)" fill="#cc4040" fill-rule="evenodd"/>
        <path id="Trazado_103375" data-name="Trazado 103375" d="M398.239,84.514c1.358-6.873,11.9-11.747,23.546-10.883s19.986,7.136,18.628,14.009-11.9,11.747-23.546,10.883S396.881,91.386,398.239,84.514Z" transform="translate(-396.684 -72.738)" fill="#ff7373" fill-rule="evenodd"/>
        <path id="Trazado_103376" data-name="Trazado 103376" d="M399.388,84.212c1.237-6.253,10.831-10.689,21.428-9.9S439,80.8,437.766,87.056s-10.831,10.691-21.428,9.905S398.151,90.466,399.388,84.212Z" transform="translate(-395.935 -72.296)" fill="#cc4040" fill-rule="evenodd"/>
        <path id="Trazado_103377" data-name="Trazado 103377" d="M399.6,85.226c1.212-6.128,10.614-10.476,21-9.706,9.134.677,15.987,5.087,16.681,10.309-.018.145-.041.289-.069.436-1.212,6.128-10.614,10.476-21,9.7-9.135-.676-15.987-5.087-16.681-10.309Q399.555,85.443,399.6,85.226Z" transform="translate(-395.76 -71.514)" fill="#e94b46" fill-rule="evenodd"/>
        <g id="Grupo_56067" data-name="Grupo 56067" transform="translate(10.255 4.727)">
          <path id="Trazado_103378" data-name="Trazado 103378" d="M403.5,78.029c.26-1.31,2.271-2.241,4.492-2.075s3.811,1.36,3.553,2.672-2.271,2.239-4.492,2.075S403.243,79.339,403.5,78.029Z" transform="translate(-403.473 -75.917)" fill="#ff7373" fill-rule="evenodd"/>
          <path id="Trazado_103379" data-name="Trazado 103379" d="M411.567,77.335h0v0Zm0,.14.028,1.131a1.4,1.4,0,0,1,.007.263v0h0a1.4,1.4,0,0,1-.023.181c-.26,1.31-2.271,2.239-4.492,2.075-2.037-.151-3.543-1.171-3.58-2.35h0l-.035-1.266c.085,1.153,1.575,2.139,3.576,2.287,2.221.164,4.232-.765,4.492-2.075A1.428,1.428,0,0,0,411.571,77.475Z" transform="translate(-403.472 -75.015)" fill="#cc4040" fill-rule="evenodd"/>
          <path id="Trazado_103380" data-name="Trazado 103380" d="M403.765,77.958c.23-1.167,2.024-2,4.005-1.85s3.4,1.213,3.168,2.383-2.024,2-4.005,1.851S403.533,79.129,403.765,77.958Z" transform="translate(-403.301 -75.816)" fill="#cc4700" fill-rule="evenodd"/>
          <path id="Trazado_103381" data-name="Trazado 103381" d="M403.765,77.794c.23-1.169,2.024-2,4.005-1.853s3.4,1.215,3.168,2.384-2.024,2-4.005,1.851S403.533,78.963,403.765,77.794Z" transform="translate(-403.301 -75.924)" fill="#e94b46" fill-rule="evenodd"/>
        </g>
        <g id="Grupo_56068" data-name="Grupo 56068" transform="translate(0.097 64.924)">
          <path id="Trazado_103382" data-name="Trazado 103382" d="M397.492,116.064a8.838,8.838,0,0,1,1.159-2.94v4.6h.013c.209,16.107,39.224,16.962,42.264,1.562a7.664,7.664,0,0,0,.143-1.562l.043-4.328a8.442,8.442,0,0,1,1.131,5.988C438.8,137.885,393.977,134.761,397.492,116.064Z" transform="translate(-397.296 -112.154)" fill="#ba1c00" fill-rule="evenodd"/>
          <path id="Trazado_103383" data-name="Trazado 103383" d="M397.523,115.472a8.844,8.844,0,0,1,1.161-2.938v4.6h.013c.209,16.107,39.224,16.962,42.262,1.564a7.463,7.463,0,0,0,.143-1.564l.043-4.328a8.437,8.437,0,0,1,1.133,5.988C438.83,137.295,394.009,134.171,397.523,115.472Z" transform="translate(-397.276 -112.534)" fill="#ff7373" fill-rule="evenodd"/>
        </g>
      </g>
    </g>
    <g id="Grupo_56076" data-name="Grupo 56076" transform="translate(417.681 101.99)">
      <g id="Grupo_56075" data-name="Grupo 56075">
        <path id="Trazado_103385" data-name="Trazado 103385" d="M410.171,90.477l.182,57.483a4.729,4.729,0,0,1-.127.954c-3.032,15.336-41.828,14.589-42.313-1.434h0l-.179-56.812Z" transform="translate(-366.301 -76.874)" fill="#e94b46" fill-rule="evenodd"/>
        <path id="Trazado_103386" data-name="Trazado 103386" d="M384.045,90.543v69.25c-5.12-.424-9.981-1.868-13.365-4.311V90.6Z" transform="translate(-364.403 -76.832)" fill="#ba1c00" fill-rule="evenodd"/>
        <g id="Grupo_56071" data-name="Grupo 56071" transform="translate(0.097 24.203)">
          <path id="Trazado_103387" data-name="Trazado 103387" d="M367.118,100.453a8.828,8.828,0,0,1,1.159-2.938v4.6h.013c.209,16.107,39.225,16.962,42.264,1.562a7.553,7.553,0,0,0,.143-1.562l.043-4.328a8.442,8.442,0,0,1,1.131,5.988C408.425,122.276,363.6,119.152,367.118,100.453Z" transform="translate(-366.922 -96.543)" fill="#cc4040" fill-rule="evenodd"/>
          <path id="Trazado_103388" data-name="Trazado 103388" d="M367.149,99.862a8.846,8.846,0,0,1,1.161-2.938v4.6h.013c.209,16.107,39.224,16.964,42.264,1.564a7.56,7.56,0,0,0,.143-1.564l.043-4.328a8.443,8.443,0,0,1,1.131,5.988C408.458,121.685,363.635,118.561,367.149,99.862Z" transform="translate(-366.902 -96.924)" fill="#ff7373" fill-rule="evenodd"/>
        </g>
        <g id="Grupo_56072" data-name="Grupo 56072" transform="translate(0.097 48.001)">
          <path id="Trazado_103389" data-name="Trazado 103389" d="M367.118,114.925a8.842,8.842,0,0,1,1.159-2.938v4.6h.013c.209,16.107,39.225,16.964,42.264,1.564a7.569,7.569,0,0,0,.143-1.564l.043-4.328a8.446,8.446,0,0,1,1.131,5.988C408.425,136.748,363.6,133.624,367.118,114.925Z" transform="translate(-366.922 -111.017)" fill="#ba1c00" fill-rule="evenodd"/>
          <path id="Trazado_103390" data-name="Trazado 103390" d="M367.149,114.335a8.832,8.832,0,0,1,1.161-2.938V116h.013c.209,16.107,39.224,16.962,42.264,1.562A7.545,7.545,0,0,0,410.73,116l.043-4.328a8.442,8.442,0,0,1,1.131,5.988C408.458,136.158,363.635,133.032,367.149,114.335Z" transform="translate(-366.902 -111.397)" fill="#ff7373" fill-rule="evenodd"/>
        </g>
        <path id="Trazado_103391" data-name="Trazado 103391" d="M367.016,94.506c1.444-7.307,12.654-12.49,25.034-11.571s21.247,7.587,19.8,14.894S399.2,110.317,386.82,109.4,365.573,101.813,367.016,94.506Z" transform="translate(-366.862 -81.801)" fill="#ba1c00" fill-rule="evenodd"/>
        <path id="Trazado_103392" data-name="Trazado 103392" d="M367.058,93.882c1.444-7.307,12.654-12.49,25.034-11.572s21.247,7.588,19.8,14.9-12.654,12.488-25.034,11.571S365.615,101.187,367.058,93.882Z" transform="translate(-366.835 -82.204)" fill="#cc4040" fill-rule="evenodd"/>
        <path id="Trazado_103393" data-name="Trazado 103393" d="M367.865,93.67c1.358-6.873,11.9-11.747,23.546-10.885S411.4,89.922,410.038,96.8s-11.9,11.747-23.546,10.883S366.507,100.541,367.865,93.67Z" transform="translate(-366.31 -81.893)" fill="#ff7373" fill-rule="evenodd"/>
        <path id="Trazado_103394" data-name="Trazado 103394" d="M369.014,93.367c1.236-6.253,10.831-10.689,21.428-9.905s18.187,6.5,16.951,12.75-10.831,10.689-21.428,9.905S367.777,99.622,369.014,93.367Z" transform="translate(-365.561 -81.451)" fill="#cc4040" fill-rule="evenodd"/>
        <path id="Trazado_103395" data-name="Trazado 103395" d="M369.223,94.379c1.212-6.128,10.614-10.474,21-9.7,9.135.677,15.987,5.087,16.681,10.31-.018.145-.041.289-.069.436-1.212,6.128-10.614,10.474-21,9.7-9.134-.676-15.987-5.087-16.681-10.309C369.174,94.67,369.2,94.525,369.223,94.379Z" transform="translate(-365.386 -80.669)" fill="#e94b46" fill-rule="evenodd"/>
        <g id="Grupo_56073" data-name="Grupo 56073" transform="translate(10.256 4.727)">
          <path id="Trazado_103396" data-name="Trazado 103396" d="M373.128,87.184c.258-1.31,2.269-2.241,4.49-2.077s3.811,1.361,3.553,2.672-2.271,2.241-4.492,2.077S372.868,88.495,373.128,87.184Z" transform="translate(-373.1 -85.073)" fill="#ff7373" fill-rule="evenodd"/>
          <path id="Trazado_103397" data-name="Trazado 103397" d="M381.193,86.49h0v0Zm0,.14.028,1.131a1.274,1.274,0,0,1,.007.263v0h0a1.333,1.333,0,0,1-.023.179c-.26,1.312-2.271,2.241-4.492,2.077-2.037-.151-3.543-1.171-3.58-2.35h0l-.035-1.266c.087,1.153,1.575,2.139,3.576,2.287,2.221.164,4.232-.765,4.492-2.077A1.415,1.415,0,0,0,381.2,86.63Z" transform="translate(-373.099 -84.17)" fill="#cc4040" fill-rule="evenodd"/>
          <path id="Trazado_103398" data-name="Trazado 103398" d="M373.391,87.114c.23-1.169,2.024-2,4.005-1.851s3.4,1.215,3.168,2.384-2.024,2-4.005,1.851S373.159,88.285,373.391,87.114Z" transform="translate(-372.929 -84.971)" fill="#cc4700" fill-rule="evenodd"/>
          <path id="Trazado_103399" data-name="Trazado 103399" d="M373.391,86.947c.23-1.169,2.024-2,4.005-1.851s3.4,1.215,3.168,2.384-2.024,2-4.005,1.851S373.159,88.116,373.391,86.947Z" transform="translate(-372.929 -85.079)" fill="#e94b46" fill-rule="evenodd"/>
        </g>
        <g id="Grupo_56074" data-name="Grupo 56074" transform="translate(0.097 64.924)">
          <path id="Trazado_103400" data-name="Trazado 103400" d="M367.118,125.219a8.836,8.836,0,0,1,1.159-2.94v4.6h.013c.209,16.107,39.225,16.962,42.264,1.562a7.563,7.563,0,0,0,.143-1.562l.043-4.328a8.44,8.44,0,0,1,1.131,5.987C408.425,147.04,363.6,143.916,367.118,125.219Z" transform="translate(-366.922 -121.309)" fill="#ba1c00" fill-rule="evenodd"/>
          <path id="Trazado_103401" data-name="Trazado 103401" d="M367.149,124.627a8.832,8.832,0,0,1,1.161-2.938v4.6h.013c.209,16.107,39.224,16.962,42.264,1.562a7.545,7.545,0,0,0,.143-1.562l.043-4.328a8.444,8.444,0,0,1,1.131,5.988C408.458,146.45,363.635,143.324,367.149,124.627Z" transform="translate(-366.902 -121.689)" fill="#ff7373" fill-rule="evenodd"/>
        </g>
        <path id="Trazado_103402" data-name="Trazado 103402" d="M387.221,126.063v-.008a4.071,4.071,0,0,0,1.426-.1,5.266,5.266,0,0,0,2.6-1.708,4,4,0,0,1-4.028,1.018,4,4,0,0,0,4.028-1.018,5.266,5.266,0,0,1-2.6,1.708,4.071,4.071,0,0,1-1.426.1v-.793a3.7,3.7,0,0,0,4.028-1.018,5.266,5.266,0,0,1-2.6,1.708,3.979,3.979,0,0,1-1.426.11Zm0-3.6v-1.845a3.676,3.676,0,0,0,.365-1.564,3.927,3.927,0,0,1,.653-.307,4.006,4.006,0,0,1,.467-.141c0,.089.01-.245.01.273a6.543,6.543,0,0,1-.766,2.651,4.97,4.97,0,0,1-.728.934Zm0-3.675a4.692,4.692,0,0,1,.911-.451,3.644,3.644,0,0,1,2.68-.1,2.973,2.973,0,0,1,1.805,3.229,4.33,4.33,0,0,0-.26-2.8A3.456,3.456,0,0,0,390.412,117a4.624,4.624,0,0,0-2.315-.2,4.835,4.835,0,0,0,.621-2.407,4.293,4.293,0,0,0-.926-2.642,4.366,4.366,0,0,0-.572-.571v0a4.354,4.354,0,0,1,.572.569,4.284,4.284,0,0,1,.926,2.641,4.841,4.841,0,0,1-.621,2.409,4.631,4.631,0,0,1,2.317.2,3.447,3.447,0,0,1,1.943,1.672,4.352,4.352,0,0,1,.26,2.8,2.973,2.973,0,0,0-1.8-3.229,3.621,3.621,0,0,0-2.68.1,4.76,4.76,0,0,0-.913.452,4.76,4.76,0,0,1,.913-.452,3.621,3.621,0,0,1,2.68-.1,2.973,2.973,0,0,1,1.8,3.229,4.352,4.352,0,0,0-.26-2.8A3.447,3.447,0,0,0,390.414,117a4.631,4.631,0,0,0-2.317-.2,4.841,4.841,0,0,0,.621-2.409,4.284,4.284,0,0,0-.926-2.641,4.354,4.354,0,0,0-.572-.569v.383a3.406,3.406,0,0,1,.544,1.953,3.806,3.806,0,0,1-.544,1.888v3.394Zm0-3.4a3.8,3.8,0,0,0,.544-1.886,3.406,3.406,0,0,0-.544-1.953,3.406,3.406,0,0,1,.544,1.953A3.8,3.8,0,0,1,387.221,115.4Zm-1.648-.592a4.631,4.631,0,0,1,1.235.562,3.5,3.5,0,0,1-.354.483,3.359,3.359,0,0,1-.419.4,3.5,3.5,0,0,0-.462-.238V114.8Zm1.648-3.632v0a4.477,4.477,0,0,0-1.648-.855v.01a3.313,3.313,0,0,1,1.648,1.228v-.383a4.477,4.477,0,0,0-1.648-.855,4.5,4.5,0,0,1,1.648.853Zm0,4.226a4.27,4.27,0,0,1-1.648,1.61v2.881l.344.181a4.23,4.23,0,0,1,1.3-1.276,4.23,4.23,0,0,0-1.3,1.276l-.344-.181v0l.344.179a4.236,4.236,0,0,1,1.3-1.278V115.4Zm0,5.224v1.845a4.947,4.947,0,0,1-1.241.909,3.167,3.167,0,0,1-.113-.3,3.27,3.27,0,0,1-.14-.812,3.862,3.862,0,0,0,1.495-1.639Zm0,4.64v.793a4.029,4.029,0,0,1-1.442-.424c-.072-.038-.14-.076-.206-.115.066.039.133.077.206.115a4.029,4.029,0,0,0,1.442.424v.008a4.032,4.032,0,0,1-1.442-.432c-.071-.038-.138-.077-.206-.118v-1.927a2.738,2.738,0,0,0,1.557,1.636l.09.041-.09-.041a2.738,2.738,0,0,1-1.557-1.636v-.028a3.286,3.286,0,0,0,1.557,1.664l.09.041Zm-1.648-4.541v-.242l.087.046c-.031.066-.059.132-.087.2Zm0-3.714a4.27,4.27,0,0,0,1.648-1.61,4.27,4.27,0,0,1-1.648,1.61Zm1.648-5.449a3.313,3.313,0,0,0-1.648-1.228,3.313,3.313,0,0,1,1.648,1.228Zm-1.56,8.968c-.031.066-.059.132-.087.2.028-.064.056-.13.087-.2l-.087-.046Zm-1.577-5.929a5.312,5.312,0,0,1,1.49.209v1.212a3.876,3.876,0,0,0-2.983,0v-1.212a5.275,5.275,0,0,1,1.493-.21Zm1.49-4.277v.01l-.123-.043.123.033Zm0,6.689v2.881c-.141-.076-.283-.153-.423-.23.061-.141.094-.1.094-.46a1.325,1.325,0,0,0-.906-1.116v-.692a3.331,3.331,0,0,0,1.235-.383,3.331,3.331,0,0,1-1.235.383v.692a1.325,1.325,0,0,1,.906,1.116c0,.358-.033.319-.094.46.14.077.281.155.423.23v0l-.426-.232c.064-.141.1-.1.1-.46a1.321,1.321,0,0,0-.906-1.115v-.692a3.393,3.393,0,0,0,1.235-.383Zm0,3.471v.242a3.647,3.647,0,0,0,0,2.836v.028c-.044-.12-.087-.247-.127-.377a3.676,3.676,0,0,1,.127-2.488,3.676,3.676,0,0,0-.127,2.488c.039.13.082.257.127.377v1.927a4.349,4.349,0,0,1-1.49-1.536,4.358,4.358,0,0,1-1.493,1.536v-1.925c.046-.122.087-.247.127-.378a3.677,3.677,0,0,0-.127-2.491v-.24c.243-.128.487-.263.73-.4a1.151,1.151,0,0,0,.763.291,1.117,1.117,0,0,0,.761-.294q.363.2.728.4Zm-2.983,3.108v-.025a3.351,3.351,0,0,0,.128-.354,3.678,3.678,0,0,0-.128-2.491,3.677,3.677,0,0,1,.127,2.491c-.039.132-.081.257-.127.378Zm0-3.7v-2.881a3.382,3.382,0,0,0,1.236.385v.692a1.327,1.327,0,0,0-.906,1.115.677.677,0,0,0,.094.462l-.424.227Zm0-9.556v-.01l.125-.033-.125.044.125-.044-.125.033h0l.123-.033-.123.043Zm2.859-.044.123.033-.123-.033.123.043-.123-.043Zm.123,15.229a4.028,4.028,0,0,1-1.49-1.539,4.029,4.029,0,0,1-1.493,1.541,4.029,4.029,0,0,0,1.493-1.541,4.028,4.028,0,0,0,1.49,1.539Zm-2.983-5.038c.243-.128.487-.263.73-.4a1.141,1.141,0,0,0,.761.291,1.127,1.127,0,0,0,.763-.294q.363.2.728.4-.365-.2-.728-.4a1.127,1.127,0,0,1-.763.294,1.141,1.141,0,0,1-.761-.291c-.243.133-.487.268-.73.4Zm0-3.471a3.349,3.349,0,0,0,1.236.383v.692a1.331,1.331,0,0,0-.906,1.116.674.674,0,0,0,.094.462l-.424.229.424-.229a.674.674,0,0,1-.094-.462,1.331,1.331,0,0,1,.906-1.116v-.692A3.349,3.349,0,0,1,382.59,117.006Zm0-.988a3.793,3.793,0,0,0-.46.237,3.489,3.489,0,0,1-.421-.4,3.715,3.715,0,0,1-.353-.48,4.582,4.582,0,0,1,1.235-.564v1.212Zm0-5.7h0a4.543,4.543,0,0,0-1.644.852h0a4.493,4.493,0,0,1,1.644-.852Zm0,0a4.543,4.543,0,0,0-1.644.852v.385a3.317,3.317,0,0,1,1.644-1.227v-.01Zm0,6.686a4.275,4.275,0,0,1-1.644-1.606v3.394a4.251,4.251,0,0,1,1.3,1.274l.344-.181v-2.881Zm0,3.471v.24c-.026-.064-.056-.13-.087-.194l.087-.046Zm0,3.085v.025a2.73,2.73,0,0,1-1.555,1.633l-.089.041v.794a3.98,3.98,0,0,0,1.439-.424c.071-.038.14-.076.206-.113-.066.038-.135.076-.206.113a3.98,3.98,0,0,1-1.439.424v.008a4.039,4.039,0,0,0,1.439-.432c.071-.038.14-.077.206-.118v-1.925a2.73,2.73,0,0,1-1.555,1.633l-.089.041.089-.041a3.276,3.276,0,0,0,1.555-1.657Zm-1.644-1.1V120.62a3.849,3.849,0,0,0,1.493,1.639,3.2,3.2,0,0,1-.141.812,3.09,3.09,0,0,1-.112.3,4.983,4.983,0,0,1-1.24-.911Zm1.644-1.748c-.026-.064-.056-.13-.087-.194l.087-.046-.087.046c.031.064.061.13.087.194Zm-.342-.649a4.275,4.275,0,0,0-1.3-1.274,4.275,4.275,0,0,1,1.3,1.274l.342-.179-.342.179Zm.342-9.736a3.305,3.305,0,0,0-1.644,1.225,3.305,3.305,0,0,1,1.644-1.225Zm-1.644,5.066a4.267,4.267,0,0,0,1.644,1.608A4.267,4.267,0,0,1,380.946,115.4Zm0-4.226h0a4.2,4.2,0,0,0-.576.571,4.281,4.281,0,0,0-.924,2.642,4.841,4.841,0,0,0,.622,2.409,4.612,4.612,0,0,0-2.317.2,3.433,3.433,0,0,0-1.945,1.669,4.355,4.355,0,0,0-.258,2.8,2.975,2.975,0,0,1,1.8-3.231,3.624,3.624,0,0,1,2.678.105,4.79,4.79,0,0,1,.916.452V115.4a3.8,3.8,0,0,1-.548-1.889,3.394,3.394,0,0,1,.548-1.953v-.385a4.2,4.2,0,0,0-.576.571,4.281,4.281,0,0,0-.924,2.642,4.841,4.841,0,0,0,.622,2.409,4.612,4.612,0,0,0-2.317.2,3.433,3.433,0,0,0-1.945,1.669,4.355,4.355,0,0,0-.258,2.8,2.975,2.975,0,0,1,1.8-3.231,3.624,3.624,0,0,1,2.678.105,4.79,4.79,0,0,1,.916.452,4.79,4.79,0,0,0-.916-.452,3.966,3.966,0,0,0-2.677-.1,2.751,2.751,0,0,0-1.805,3.229,4.355,4.355,0,0,1,.258-2.8A3.232,3.232,0,0,1,377.751,117a4.7,4.7,0,0,1,2.317-.2,4.835,4.835,0,0,1-.622-2.407,4.289,4.289,0,0,1,.924-2.644,4.105,4.105,0,0,1,.576-.571Zm0,9.448v1.845a5.05,5.05,0,0,1-.733-.932,6.519,6.519,0,0,1-.76-2.651c0-.518,0-.184.007-.273a3.891,3.891,0,0,1,.465.141,4.015,4.015,0,0,1,.654.307,3.67,3.67,0,0,0,.367,1.562Zm0,4.64v.794a4.05,4.05,0,0,1-1.429-.1,5.269,5.269,0,0,1-2.6-1.71,4,4,0,0,0,4.03,1.018Zm0,.794v.008a4,4,0,0,1-1.429-.11,5.28,5.28,0,0,1-2.6-1.71,3.7,3.7,0,0,0,4.032,1.018,4,4,0,0,1-4.03-1.018,5.269,5.269,0,0,0,2.6,1.71,4.05,4.05,0,0,0,1.429.1Zm0-14.5a3.394,3.394,0,0,0-.548,1.953,3.794,3.794,0,0,0,.548,1.888,3.794,3.794,0,0,1-.548-1.888A3.394,3.394,0,0,1,380.946,111.557Z" transform="translate(-361.341 -64.112)" fill="#752727" fill-rule="evenodd"/>
      </g>
    </g>
    <g id="Grupo_56082" data-name="Grupo 56082" transform="translate(370.762 119.47)">
      <g id="Grupo_56081" data-name="Grupo 56081">
        <path id="Trazado_103403" data-name="Trazado 103403" d="M381.636,101.107l.181,57.483a4.726,4.726,0,0,1-.125.954c-3.032,15.338-41.828,14.591-42.313-1.434h0L339.2,101.3Z" transform="translate(-337.765 -87.505)" fill="#e94b46" fill-rule="evenodd"/>
        <path id="Trazado_103404" data-name="Trazado 103404" d="M355.508,101.174v69.248c-5.119-.424-9.979-1.868-13.363-4.311V101.233Z" transform="translate(-335.867 -87.462)" fill="#ba1c00" fill-rule="evenodd"/>
        <g id="Grupo_56077" data-name="Grupo 56077" transform="translate(0.096 24.202)">
          <path id="Trazado_103405" data-name="Trazado 103405" d="M338.582,111.083a8.876,8.876,0,0,1,1.159-2.938v4.6h.015c.209,16.107,39.224,16.964,42.262,1.564a7.563,7.563,0,0,0,.143-1.564l.043-4.328a8.435,8.435,0,0,1,1.131,5.988C379.889,132.906,335.067,129.782,338.582,111.083Z" transform="translate(-338.386 -107.173)" fill="#cc4040" fill-rule="evenodd"/>
          <path id="Trazado_103406" data-name="Trazado 103406" d="M338.614,110.494a8.837,8.837,0,0,1,1.159-2.94v4.6h.013c.209,16.107,39.225,16.962,42.264,1.562a7.543,7.543,0,0,0,.143-1.562l.043-4.328a8.433,8.433,0,0,1,1.131,5.988C379.921,132.315,335.1,129.191,338.614,110.494Z" transform="translate(-338.365 -107.554)" fill="#ff7373" fill-rule="evenodd"/>
        </g>
        <g id="Grupo_56078" data-name="Grupo 56078" transform="translate(0.096 48)">
          <path id="Trazado_103407" data-name="Trazado 103407" d="M338.582,125.556a8.849,8.849,0,0,1,1.159-2.938v4.6h.015c.209,16.107,39.224,16.962,42.262,1.562a7.547,7.547,0,0,0,.143-1.562l.043-4.328a8.433,8.433,0,0,1,1.131,5.988C379.889,147.377,335.067,144.253,338.582,125.556Z" transform="translate(-338.386 -121.646)" fill="#ba1c00" fill-rule="evenodd"/>
          <path id="Trazado_103408" data-name="Trazado 103408" d="M338.614,124.965a8.842,8.842,0,0,1,1.159-2.938v4.6h.013c.209,16.107,39.225,16.964,42.264,1.564a7.569,7.569,0,0,0,.143-1.564l.043-4.328a8.435,8.435,0,0,1,1.131,5.988C379.921,146.788,335.1,143.664,338.614,124.965Z" transform="translate(-338.365 -122.027)" fill="#ff7373" fill-rule="evenodd"/>
        </g>
        <path id="Trazado_103409" data-name="Trazado 103409" d="M338.482,105.136c1.444-7.305,12.653-12.488,25.034-11.571s21.247,7.588,19.8,14.894-12.653,12.49-25.034,11.572S337.036,112.443,338.482,105.136Z" transform="translate(-338.327 -92.432)" fill="#ba1c00" fill-rule="evenodd"/>
        <path id="Trazado_103410" data-name="Trazado 103410" d="M338.523,104.511c1.444-7.307,12.653-12.49,25.032-11.571s21.249,7.587,19.8,14.894-12.652,12.488-25.034,11.571S337.078,111.818,338.523,104.511Z" transform="translate(-338.3 -92.835)" fill="#cc4040" fill-rule="evenodd"/>
        <path id="Trazado_103411" data-name="Trazado 103411" d="M339.33,104.3c1.358-6.873,11.9-11.747,23.546-10.883s19.984,7.136,18.626,14.009-11.9,11.747-23.546,10.883S337.972,111.172,339.33,104.3Z" transform="translate(-337.775 -92.524)" fill="#ff7373" fill-rule="evenodd"/>
        <path id="Trazado_103412" data-name="Trazado 103412" d="M340.478,104c1.237-6.255,10.832-10.691,21.428-9.905s18.187,6.495,16.951,12.748-10.831,10.691-21.426,9.905S339.243,110.251,340.478,104Z" transform="translate(-337.027 -92.082)" fill="#cc4040" fill-rule="evenodd"/>
        <path id="Trazado_103413" data-name="Trazado 103413" d="M340.689,105.01c1.21-6.128,10.614-10.476,21-9.7,9.134.676,15.987,5.086,16.681,10.308-.02.145-.041.291-.071.436-1.21,6.128-10.614,10.476-21,9.706-9.134-.677-15.987-5.089-16.681-10.311C340.638,105.3,340.659,105.155,340.689,105.01Z" transform="translate(-336.851 -91.3)" fill="#e94b46" fill-rule="evenodd"/>
        <g id="Grupo_56079" data-name="Grupo 56079" transform="translate(10.255 4.727)">
          <path id="Trazado_103414" data-name="Trazado 103414" d="M344.592,97.814c.258-1.31,2.271-2.241,4.491-2.075s3.813,1.361,3.553,2.672-2.271,2.239-4.49,2.075S344.332,99.126,344.592,97.814Z" transform="translate(-344.564 -95.703)" fill="#ff7373" fill-rule="evenodd"/>
          <path id="Trazado_103415" data-name="Trazado 103415" d="M352.657,97.12h0v.01l0-.01Zm0,.14.028,1.131a1.559,1.559,0,0,1,.007.263v0h0a1.769,1.769,0,0,1-.025.181c-.258,1.31-2.271,2.239-4.49,2.075-2.037-.15-3.545-1.171-3.581-2.35h0l-.033-1.266c.086,1.153,1.575,2.139,3.576,2.287,2.22.164,4.232-.765,4.49-2.075A1.427,1.427,0,0,0,352.662,97.26Z" transform="translate(-344.562 -94.801)" fill="#cc4040" fill-rule="evenodd"/>
          <path id="Trazado_103416" data-name="Trazado 103416" d="M344.855,97.745c.232-1.169,2.026-2,4.007-1.851s3.4,1.213,3.169,2.383-2.026,2-4.005,1.851S344.624,98.914,344.855,97.745Z" transform="translate(-344.393 -95.602)" fill="#cc4700" fill-rule="evenodd"/>
          <path id="Trazado_103417" data-name="Trazado 103417" d="M344.855,97.578c.232-1.169,2.026-2,4.007-1.851s3.4,1.213,3.169,2.383-2.026,2-4.005,1.851S344.624,98.747,344.855,97.578Z" transform="translate(-344.393 -95.71)" fill="#e94b46" fill-rule="evenodd"/>
        </g>
        <g id="Grupo_56080" data-name="Grupo 56080" transform="translate(0.096 64.922)">
          <path id="Trazado_103418" data-name="Trazado 103418" d="M338.582,135.848a8.849,8.849,0,0,1,1.159-2.938v4.6h.015c.209,16.107,39.224,16.962,42.262,1.562a7.547,7.547,0,0,0,.143-1.562l.043-4.328a8.433,8.433,0,0,1,1.131,5.988C379.889,157.671,335.067,154.545,338.582,135.848Z" transform="translate(-338.386 -131.938)" fill="#ba1c00" fill-rule="evenodd"/>
          <path id="Trazado_103419" data-name="Trazado 103419" d="M338.614,135.257a8.842,8.842,0,0,1,1.159-2.938v4.6h.013c.209,16.107,39.225,16.964,42.264,1.564a7.569,7.569,0,0,0,.143-1.564l.043-4.328a8.435,8.435,0,0,1,1.131,5.988C379.921,157.08,335.1,153.956,338.614,135.257Z" transform="translate(-338.365 -132.319)" fill="#ff7373" fill-rule="evenodd"/>
        </g>
      </g>
    </g>
    <g id="Grupo_56088" data-name="Grupo 56088" transform="translate(530.408 59.362)">
      <ellipse id="Elipse_3998" data-name="Elipse 3998" cx="32.113" cy="19.942" rx="32.113" ry="19.942" transform="translate(11.07 122.26)" fill="#8de7ff"/>
      <g id="Grupo_56087" data-name="Grupo 56087">
        <path id="Trazado_103421" data-name="Trazado 103421" d="M447.559,111.25q2.348,2.444,6.015.783a115.167,115.167,0,0,0,4.145-15.168c.926-4.8,12.7-26.318,2.805-29.12-6.085-1.723-9.4,2.077-10.31,7.7-.663,4.1-.978,14.2-1.909,20.586C446.47,107.179,446.431,110.691,447.559,111.25Z" transform="translate(-428.088 -49.16)" fill="#dbb826" fill-rule="evenodd"/>
        <path id="Trazado_103422" data-name="Trazado 103422" d="M454.751,75.017C453.61,77.373,454,80.5,452.86,83.4c-2.813,7.157.358,3.862-.171,5.7-3.427,11.868,1.7,8.006-.842,13.963a4.664,4.664,0,0,1-4.806,3.114q3.184,3.413,6.378,1.235c1.409-.365,3.208-10.3,4.145-15.168.751-3.907.322-4.828,4.071-6.546.355-.283.681-.561.985-.835C459.919,81.63,457.4,72.248,454.751,75.017Z" transform="translate(-427.933 -44.531)" fill="#dbb826" fill-rule="evenodd"/>
        <g id="Grupo_56083" data-name="Grupo 56083" transform="translate(18.295 61.169)">
          <path id="Trazado_103423" data-name="Trazado 103423" d="M451.937,94.629c-1.167-.488-4.606-2.11-4.477-.349-.207,1.526-.942,7.419-.913,7.841a14.018,14.018,0,0,0,.234,1.866,3.168,3.168,0,0,0,1.11,2.06c.556.643,2.1,2.535,2.649,3.068a22.636,22.636,0,0,0,3.527,2.7.758.758,0,0,0,.308-.758c.436.23,1.069.793,1.435.3a1.48,1.48,0,0,0-.112-1.682l.434.355c.911-.214.582-1.8.321-2.3s-1.495-1.633-1.772-2.119c-.671-1.179-2.235-3.892-.437-1.243.763,1.161,2.037,2.593,2.356,1.893.659-1.445-.615-1.952-1.268-3.191a13.77,13.77,0,0,1-1.634-4.722C453.655,95.46,453.239,95.174,451.937,94.629Z" transform="translate(-446.546 -93.48)" fill="#3c3c3b" fill-rule="evenodd"/>
          <path id="Trazado_103424" data-name="Trazado 103424" d="M450.8,96.694c.6,1.13-.446,2.8-.888,3.933-.5,1.286,1.159,2.769.163,4.449-.957,1.615-2.45-4.91-2.624-5.822-.14-.733-.035-3.31.909-3.64C450,95.038,450.131,95.913,450.8,96.694Z" transform="translate(-446 -92.225)" fill="#575756" fill-rule="evenodd"/>
        </g>
        <path id="Trazado_103425" data-name="Trazado 103425" d="M447.852,93.483c2.66.539,2.3.988,5.413.705-.421,1.559-.238,1.8-.238,1.8-2.547.855-4.25.618-5.329-.452A2.214,2.214,0,0,1,447.852,93.483Z" transform="translate(-427.627 -32.309)" fill="#575756" fill-rule="evenodd"/>
        <path id="Trazado_103426" data-name="Trazado 103426" d="M460.879,137.177c-.209,2.695.207,4.943-1.527,7.985a49.773,49.773,0,0,1-9.994,3.094l0,.018c-6.171,1.5-13.182,1.329-13.721-3.262.046-1.156,1.419-2.371,2.47-2.876,3.178-1.524,7.393-1.028,9.354-4.4a13.218,13.218,0,0,0,1.232-3.106Z" transform="translate(-435.284 -5.801)" fill="#575756" fill-rule="evenodd"/>
        <path id="Trazado_103427" data-name="Trazado 103427" d="M460.342,139.888c-2.3,2.512-3.783,1.381-5.523,2-5.326,1.886-7.217,4.576-13.789,3.548-2.655-.416-5.354-2.394-5.27-4.071l-.34,1.7c.071,1.463,2.7,3.634,5.311,3.961,4.065.51,7.6-.572,12.366-2.128,3.545-1.158,6.041-1.135,7.118-2.174C461.19,141.718,460.3,140.833,460.342,139.888Z" transform="translate(-435.42 -2.412)" fill="#3c3c3b" fill-rule="evenodd"/>
        <path id="Trazado_103428" data-name="Trazado 103428" d="M486.279,127.05c1.491,2.256,3.2,3.775,3.7,7.24a49.789,49.789,0,0,1-5.988,8.58l.007.018c-3.95,4.972-9.589,9.142-12.833,5.849-.674-.94-.335-2.743.184-3.785,1.574-3.155,5.2-5.35,4.679-9.219a13.272,13.272,0,0,0-.934-3.208Z" transform="translate(-412.636 -10.683)" fill="#575756" fill-rule="evenodd"/>
        <path id="Trazado_103429" data-name="Trazado 103429" d="M472.3,143.121c2.471-4.744,4.936-3.744,4.773-7.855,3.193.342,8.134-3.037,9.052-6.659h0c2.938,3.8-.135,3.918-2.274,6.957-2.059,2.925-4.862,9.369-8.6,10.814C472.275,147.529,471.236,145.173,472.3,143.121Z" transform="translate(-411.921 -9.68)" fill="#666" fill-rule="evenodd"/>
        <path id="Trazado_103430" data-name="Trazado 103430" d="M489.412,130.23c-.273,3.394-2.139,3.413-3.134,4.967-3.045,4.758-2.887,8.044-8.7,11.266-2.351,1.3-5.7,1.4-6.659.023l.776,1.552c.954,1.111,4.362,1.21,6.625-.135,6.261-3.721,12.572-13.825,12.738-15.357C491.2,131.152,489.959,131,489.412,130.23Z" transform="translate(-412.553 -8.634)" fill="#3c3c3b" fill-rule="evenodd"/>
        <path id="Trazado_103431" data-name="Trazado 103431" d="M484.477,78.771s-.587,8.884-1.146,12.427c-1.026,4.111.728,12.14-1.067,17.82-1.4,4.428-1.269,6.393-1.493,9.788-7.485,10.6-23.866,7.726-31.414-7.917.863-7.212-.945-19.549,3.959-32.178,1.455-3.744,2.558-12.743,10.979-9.573C476.591,70.494,484.664,78.587,484.477,78.771Z" transform="translate(-426.441 -48.42)" fill="#fad228" fill-rule="evenodd"/>
        <path id="Trazado_103432" data-name="Trazado 103432" d="M453.922,93.706s-7.746,20.384-7.927,41.749c-.09,10.683-6.773,23.21-1.381,24.013-1.863,6.169,12.634,8.65,12.14,1.457,3.889-2.018,8.91-24.016,10.839-38,1.294,14.2,18.488,30.437,24.881,29.368,1.322,4.944,14.044,1.393,10.476-6.3.85-6.071-9.579-15.658-16.607-19.507-1.176-14.9-1.207-23.373-1.143-25.95-2,8.361-27.857,5.691-26.4-3.432Z" transform="translate(-430.85 -32.165)" fill="#fad228" fill-rule="evenodd"/>
        <path id="Trazado_103433" data-name="Trazado 103433" d="M453.445,165.1c2.047-1.061,3.422-2.481,3.308-4.18-9.917,1.008,6.963-12.143.072-14.16-3.635-1.065-4.74-10.979-4.828-12.519-.8-13.817,4.923-23.194,3.532-37.706a10.265,10.265,0,0,0-1.366-2.665l-.242-.168s-7.746,20.384-7.927,41.749c-.09,10.683-6.773,23.21-1.381,24.013C443.367,163.592,449.435,166.066,453.445,165.1Z" transform="translate(-430.85 -32.165)" fill="#dbb826" fill-rule="evenodd"/>
        <path id="Trazado_103434" data-name="Trazado 103434" d="M498.453,144.043c-.442,3.221-2.011,3.5-4.132,3.172-6.487-1.011-7.269-8.82-8.979-10.531-2.512-2.516-8.465.309-9.836-2.85-4.745-10.938-7.09-16.494-5.641-26.976-1.846-1.8-4.952,5.05-8.89,4.1-1.182-.286-7.721-2.452-9.783-14.233-5.7,12.245,4.134,21.061,11.906,24.253,1.294,14.2,18.488,30.437,24.881,29.368C489.3,155.291,502.021,151.74,498.453,144.043Z" transform="translate(-426.354 -30.219)" fill="#dbb826" fill-rule="evenodd"/>
        <path id="Trazado_103435" data-name="Trazado 103435" d="M473.667,134.158a14.28,14.28,0,0,1-.755-2.345c2.644,4.385,13.082-.937,10.474-6.3a12.2,12.2,0,0,1,2.118,2.961C486.283,133.512,475.816,138.627,473.667,134.158Z" transform="translate(-411.289 -11.685)" fill="#3c3c3b"/>
        <path id="Trazado_103436" data-name="Trazado 103436" d="M443.306,136.039a14.368,14.368,0,0,1,.844-2.313c-.605,5.086,10.9,7.292,12.138,1.455a12.178,12.178,0,0,1-.148,3.637C453.659,143.277,442.258,140.886,443.306,136.039Z" transform="translate(-430.383 -6.422)" fill="#3c3c3b"/>
        <path id="Trazado_103437" data-name="Trazado 103437" d="M438.919,140.983c4.864-2.226,6.2.076,8.591-3.27,2.31,2.231,8.285,2.6,11.234.3v0c-.012,4.8-2.512,3.011-6.066,4.094-3.422,1.044-9.593,4.412-13.429,3.256C436.191,144.445,436.816,141.947,438.919,140.983Z" transform="translate(-434.307 -3.813)" fill="#666" fill-rule="evenodd"/>
        <path id="Trazado_103438" data-name="Trazado 103438" d="M481.175,109.343a8.063,8.063,0,0,1-3.9,4.63c-6.309,3.869-14.775,5.941-17.687,4.232-2.815-1.174-2.044-4.717.143-7.69,1.379-2.938,7.468-2.272,10.354-5.076.367-.357-.88-.9-.406-1.258,1.726-1.3-.612-1.485.306-1.99,1.5-.822-.048-1.021-.074-1.684-.108-2.608-.207-3.611-2.692-6.986C463.075,81.015,478.3,72.807,479.75,75.063a11.447,11.447,0,0,1,2.332,4C484.072,84.833,484.891,95.238,481.175,109.343Z" transform="translate(-421.02 -44.416)" fill="#dbb826" fill-rule="evenodd"/>
        <path id="Trazado_103439" data-name="Trazado 103439" d="M452.642,84.75c-.635,5.331,1.2,9.451,8.109,9.668,5.413.171,8.486-5.558,10.987-9.63,5.089-8.294,7.111-5.988,10.7-6.033.187-.184-7.886-8.277-20.182-9.632C452.634,65.5,453.088,78.592,452.642,84.75Z" transform="translate(-424.4 -48.404)" fill="#fce47e" fill-rule="evenodd"/>
        <path id="Trazado_103440" data-name="Trazado 103440" d="M471.9,62.093c.033,1.692-.646,11.95,1.273,15.671-11.068,10.569-19.524,10.119-15.62-1.641,2.371-1.741,3.611-.827,1.245-7.276C458.351,66.805,471.9,62.093,471.9,62.093Z" transform="translate(-421.783 -52.532)" fill="#dbb826" fill-rule="evenodd"/>
        <g id="Grupo_56084" data-name="Grupo 56084" transform="translate(31.39 25.47)">
          <path id="Trazado_103441" data-name="Trazado 103441" d="M457.741,127.881a.843.843,0,0,1-.8-.579c-2.4-7.235-3.014-17.654-1.878-31.853a52.553,52.553,0,0,1,3.145-13.289c1.322-3.859,2.364-6.909,1.33-9.2a.844.844,0,1,1,1.537-.7c1.31,2.9.171,6.23-1.271,10.444a50.477,50.477,0,0,0-3.06,12.876c-1.116,13.968-.529,24.171,1.8,31.187a.843.843,0,0,1-.8,1.11Z" transform="translate(-454.51 -71.768)" fill="#7f7f7f"/>
        </g>
        <path id="Trazado_103442" data-name="Trazado 103442" d="M455.164,67.391c.1.888,1.167.95.064,4.678-.677,2.3-.306,2.307.908,6.094.686,2.146,4.178,6.335,6.592,4.763.756-.492,3.515-4.913,5.319-.73.536,1.24,1.837-1.056,2.578-4.349.186-.822,1.408-9.479,1.652-4.249.375,7.993,3.464-9.045,1.485-12.37-1.958-3.453-7.279-6.947-15.648-3.591-3.32,1.33-6.705,5.265-4.946,8.682C453.667,67.29,455.249,65.989,455.164,67.391Z" transform="translate(-424.296 -56.278)" fill="#fad228" fill-rule="evenodd"/>
        <path id="Trazado_103443" data-name="Trazado 103443" d="M453.7,61.693c1.87-.261,6.842-.8,8.775,3.2.391.812,4.517,8.739,3.811,3.145-.289-2.3,2.047-1.906,2.2-.842,2,14.129,1.922-2.445,3.446-.018a5.014,5.014,0,0,1,.381,2.174c1.335-3.363,1.028-6.38.031-8.054C468.516,54.552,457.238,55.041,453.7,61.693Z" transform="translate(-423.646 -56.157)" fill="#fce47e" fill-rule="evenodd"/>
        <path id="Trazado_103444" data-name="Trazado 103444" d="M458.408,60.86c2.973,1.86,7.184,7.861,7.491,12.7s-.378,5.135-1.366,5.952c-.839.444-1.523.8-1.86,1.023-2.414,1.572-5.9-2.618-6.592-4.763-1.214-3.787-1.585-3.792-.908-6.094,1.1-3.728.034-3.79-.064-4.678.085-1.4-1.5-.1-2-1.072a4.3,4.3,0,0,1-.344-.9C453.8,60.295,455.435,59,458.408,60.86Z" transform="translate(-424.242 -53.889)" fill="#dbb826" fill-rule="evenodd"/>
        <path id="Trazado_103445" data-name="Trazado 103445" d="M458.437,61.342c3.193,1.978,6.008,7.537,6.209,13.116s-3.016,7.486-6.209,5.508-5.783-7.754-5.783-12.9S455.244,59.362,458.437,61.342Z" transform="translate(-424.317 -53.446)" fill="#333" fill-rule="evenodd"/>
        <path id="Trazado_103446" data-name="Trazado 103446" d="M453.337,65.918,451.7,74.437l4.418,6.469c1.667-.574,2.583-.789,4.223-1.431l.041-.015c5.6-2.29,1.666-15.076-1.963-17.327C455.866,60.548,453.741,62.234,453.337,65.918Z" transform="translate(-424.929 -52.889)" fill="#7f7f7f" fill-rule="evenodd"/>
        <path id="Trazado_103447" data-name="Trazado 103447" d="M455.54,80.054c4.42-.778,6.24-8.259,5.895-13.776a9.662,9.662,0,0,0-3.012-4.145c-2.557-1.585-4.681.1-5.086,3.785L451.7,74.437Z" transform="translate(-424.929 -52.889)" fill="#b2b2b2" fill-rule="evenodd"/>
        <path id="Trazado_103448" data-name="Trazado 103448" d="M455.052,61.889,452.1,75.4l1.3.327,5.615-12.953a6.3,6.3,0,0,0-.853-.643A2.874,2.874,0,0,0,455.052,61.889Z" transform="translate(-424.671 -52.89)" fill-rule="evenodd" fill="url(#linear-gradient)"/>
        <path id="Trazado_103449" data-name="Trazado 103449" d="M449.556,72.077l3.474-2.984a.747.747,0,0,1,.156-.1c2.644-1.386,7.986,5.082,5.737,7.131h0l-3.379,2.9Z" transform="translate(-426.313 -48.208)" fill="#4c4c4c" fill-rule="evenodd"/>
        <path id="Trazado_103450" data-name="Trazado 103450" d="M452.807,73.322l3.139-2.654a5.831,5.831,0,0,1,1.138,2.473l-3.165,2.675A5.846,5.846,0,0,0,452.807,73.322Z" transform="translate(-424.218 -47.007)" fill="#333" fill-rule="evenodd"/>
        <path id="Trazado_103451" data-name="Trazado 103451" d="M455.446,78.094c-1.184.622-3.371-.513-4.882-2.532s-1.776-4.162-.592-4.783,3.371.513,4.882,2.532S456.63,77.474,455.446,78.094Z" transform="translate(-426.522 -47.046)" fill="#333" fill-rule="evenodd"/>
        <path id="Trazado_103452" data-name="Trazado 103452" d="M452.395,72.824l3.141-2.649q.207.219.4.454l-3.141,2.651C452.665,73.12,452.531,72.969,452.395,72.824Z" transform="translate(-424.484 -47.325)" fill="#333" fill-rule="evenodd"/>
        <path id="Trazado_103453" data-name="Trazado 103453" d="M449.251,71.691l.686-.587a.762.762,0,0,1,.145-.09c2.448-1.283,7.4,4.708,5.314,6.6h0l-.6.511Z" transform="translate(-426.509 -46.899)" fill="#4c4c4c" fill-rule="evenodd"/>
        <path id="Trazado_103454" data-name="Trazado 103454" d="M454.706,78.116c-1.1.575-3.121-.475-4.52-2.345s-1.646-3.856-.549-4.43,3.122.475,4.522,2.345S455.8,77.542,454.706,78.116Z" transform="translate(-426.703 -46.675)" fill="#333" fill-rule="evenodd"/>
        <path id="Trazado_103455" data-name="Trazado 103455" d="M453.614,68.871l-3.27,2.79a3.6,3.6,0,0,1,1.381.455l3.369-2.718A3.517,3.517,0,0,0,453.614,68.871Z" transform="translate(-425.805 -48.165)" fill="#999" fill-rule="evenodd"/>
        <path id="Trazado_103456" data-name="Trazado 103456" d="M480.326,109.514c-1.705,6.233-17.319,7.934-19.907,6.51-.585-.544,5-2.406,1.856-2.266-.4.016-3.517.737-3.157.3,1.976-2.374-.751-2.267.227-3.432,1.384-1.646,3.736-2.442,6.317-2.682,3.321-.309,5.7.069,4.2-2.777-.539-1.019,4.1.694,4.116.457.038-.62-3.91-1.975-3.145-2.138,2.263-.483.138-1.582-.007-2.274-1.332-6.381-4.578-14.269-3.195-17.825,2.711-6.977,9.288-11.424,11.807-7.5a8.294,8.294,0,0,1,1.8,3.344C483.223,85,484.172,95.444,480.326,109.514Z" transform="translate(-420.171 -44.587)" fill="#fad228" fill-rule="evenodd"/>
        <path id="Trazado_103457" data-name="Trazado 103457" d="M465.6,79.365a14.945,14.945,0,0,0,3.529,7.172c2.43,2.514.143,1.615-.608,3.4-.972,2.31,4.543,2.6,2.226,7.5-.959,2.031-2.591,4.449-.692,5.127,4.037,1.44-.442,1.072,1.75,2.618,3.616,2.547,3.926,3.867,4.708.669,3.07-12.6,2.383-21.254.531-26.621a8.294,8.294,0,0,0-1.8-3.344C473.256,72.8,468.746,74.909,465.6,79.365Z" transform="translate(-415.978 -44.587)" fill="#fce47e" fill-rule="evenodd"/>
        <g id="Grupo_56086" data-name="Grupo 56086" transform="translate(21.693 64.444)">
          <g id="Grupo_56085" data-name="Grupo 56085">
            <path id="Trazado_103458" data-name="Trazado 103458" d="M459.12,100.172c-1.273.173-1.883-.814-2.854-1.677-1.1-.977-3.728-.543-5.061-2.161-.679-.825.863-1.08,2.407-.671s2.777-.156,4.023.217c.738.222,3.221,1.2,3.261,2.259C460.963,99.991,460.075,99.8,459.12,100.172Z" transform="translate(-447.05 -95.471)" fill="#575756" fill-rule="evenodd"/>
            <path id="Trazado_103459" data-name="Trazado 103459" d="M464.348,103.469c1.054-.7.163-5.615-.312-5.8-1.523-.467-3.6-1.625-4.024-1.662-.719-.076-2.016.819-2.748.835a2.956,2.956,0,0,0-2.188.829c-.7.48-2.766,1.794-3.358,2.282-.972.993-3.413,2.738-3.073,3.267a1.378,1.378,0,0,0,.954.633c-.35.365-1.087.747-.656,1.276a1.449,1.449,0,0,0,1.71.156l-.4.4c-.11.926,1.529.768,2.055.575s2.032-1.167,2.55-1.38c1.256-.511,4.148-1.713,1.3-.256-1.248.613-2.858,1.8-2.141,2.169,1.238.646,2.106-.436,3.422-.921,1.161-.426,3.571-1.546,4.928-1.347A4.175,4.175,0,0,0,464.348,103.469Z" transform="translate(-448.613 -95.128)" fill="#3c3c3b" fill-rule="evenodd"/>
          </g>
          <path id="Trazado_103460" data-name="Trazado 103460" d="M458.266,97.274a14.608,14.608,0,0,0-4.339-.6,1.589,1.589,0,0,0-.549,2.452,1.512,1.512,0,0,0,.493,2.022,1.476,1.476,0,0,0,.9,1.787,2.54,2.54,0,0,0,1.052,1.069c1.12.135,2.032-.3,3.374-.367C458.621,101.3,457.546,98.522,458.266,97.274Z" transform="translate(-445.785 -94.694)" fill="#575756" fill-rule="evenodd"/>
          <path id="Trazado_103461" data-name="Trazado 103461" d="M460.057,96.917a19.023,19.023,0,0,0-.128,6.919c-1.575-.354-2.549-.626-2.549-.626-1.133-3.211-1.033-5.687.62-6.329C458.58,96.911,459.276,96.9,460.057,96.917Z" transform="translate(-443.45 -94.563)" fill="#575756" fill-rule="evenodd"/>
        </g>
        <path id="Trazado_103462" data-name="Trazado 103462" d="M461.122,97.285c-.648.607-2.356,1.991-.6,1.641,2.465-.49,1.85.238.4,1.575-1.125,1.038,3.6.2,5.053.2a6,6,0,0,0,5.253-2.378c.309-.4,1.995-1.417,1.373-2.044-3.065-3.091,3.149-.222,4.918.268.51.141-1.6-1.524-2.075-1.708a19.243,19.243,0,0,0-4.316-1.541c-1.363-.107-.35,1.255-.737,1.942C469.414,96.989,463.107,95.432,461.122,97.285Z" transform="translate(-419.744 -32.431)" fill="#fce47e" fill-rule="evenodd"/>
      </g>
    </g>
    <g id="Grupo_56097" data-name="Grupo 56097" transform="translate(401.291 147.041)">
      <ellipse id="Elipse_3999" data-name="Elipse 3999" cx="33.485" cy="20.794" rx="33.485" ry="20.794" transform="translate(24.36 121.863)" fill="#8de7ff"/>
      <g id="Grupo_56096" data-name="Grupo 56096">
        <path id="Trazado_103463" data-name="Trazado 103463" d="M416.92,187.728c.75,2.731,1.957,4.8,1.324,8.412a52.137,52.137,0,0,1-8.756,6.592v.02c-5.551,3.663-12.523,5.979-14.682,1.643-.365-1.154.559-2.84,1.416-3.708,2.595-2.629,6.924-3.632,7.662-7.654a13.938,13.938,0,0,0,.115-3.5Z" transform="translate(-332.522 -59.27)" fill="#4d4948" fill-rule="evenodd"/>
        <path id="Trazado_103464" data-name="Trazado 103464" d="M418.426,191.531c-1.378,3.29-3.241,2.7-4.739,3.925-4.581,3.746-5.493,7.067-12.337,8.382-2.764.531-6.125-.464-6.636-2.147l.268,1.8c.587,1.417,3.949,2.624,6.638,2.024,7.447-1.666,17.02-9.67,17.686-11.143C419.909,193.034,418.718,192.478,418.426,191.531Z" transform="translate(-332.529 -56.82)" fill="#3c3c3b" fill-rule="evenodd"/>
        <path id="Trazado_103465" data-name="Trazado 103465" d="M397.228,152.537s-.232.169-.645.487a14.118,14.118,0,0,0-.993-1.5l-.245-.151s-21.094,17.878-20.945,33.88c0,.064,0,.127,0,.189h0l.012.482h0l.01.474h0l.013.465h0l.013.457h0l.015.449h0l.015.442h0l.016.434h0l.016.429.02.419.02.413.021.406.021.4.023.393.026.388.026.38.026.375.03.368.031.363.031.357.035.352.035.347.038.342.039.337.039.332.041.329.044.322.046.319.046.316.049.311.051.307h0l.053.3h0l.054.3h0l.058.3h0l.059.293h0l.061.291h0l.062.289h0l.064.286h0l.066.283h0l.069.283h0l.071.28h0l.072.276h0l.076.276h0l.077.275h0l.079.273h0l.084.27h0l.084.271h0l.087.27h0l.089.27h0l.094.266h0l.1.268h0l.1.266.1.268.1.268.105.268.109.268.11.268.115.27.117.27.118.271.122.273.125.273.128.276.132.276.133.281c1.016,5.839,8.341,6.51,12.689,3.695-.066.012-.127.016-.191.025a4.526,4.526,0,0,0,2.2-3.1c-1.6-15.375,3.649-28.735,12.62-33.967-1.787,10.392,8.284,38.543,11.268,42.692.283,5.054,12.955,7.624,12.659-2.55,1.393-5.158-4.229-10.8-6.362-23.324-.771-4.528,1.411-17.664,1.437-21.665.09-13.3-1.176-18.988-5.71-23.585-3.464,4.2-14.4,10.9-19.507,8.627Z" transform="translate(-345.617 -87.069)" fill="#fad228" fill-rule="evenodd"/>
        <path id="Trazado_103466" data-name="Trazado 103466" d="M404.532,164.772l.013-.008-.013-.018v.026Zm0,.12v-.035l.013-.094A.328.328,0,0,1,404.532,164.892Zm-3.843-6.543c0,8.6-7.955-8.8-7.955,3.772,0,3.5-2.981,1.8-4.745,3.563-4.038,4.045-12.22,15.76-11.878,22.122.174,3.246.324,6.184.454,8.872l.025.058.122.273.125.273.128.276.132.276.133.281c1.016,5.839,8.341,6.51,12.689,3.695-.066.012-.127.016-.191.025a4.526,4.526,0,0,0,2.2-3.1c-1.6-15.367,3.644-28.72,12.607-33.959v-.026c-1.6-1.835-1.167-6.4-3.843-6.4Zm3.843,6.508v.035l-.015.062Z" transform="translate(-344.52 -78.821)" fill="#dbb826" fill-rule="evenodd"/>
        <path id="Trazado_103467" data-name="Trazado 103467" d="M361.971,167.527l5.334,4.752c2.392-1.855,7.463-7.236,10.665-10.829,2.57-2.884,16.127-16.515,18.922-24.744-3.575-8.7,6.314-14.119,1.146-14.756-5.127-.631-7.779.488-11.332,4.724-2.833,5.084-11.276,23.251-15.227,28.113C364.4,163.178,362.533,163.583,361.971,167.527Z" transform="translate(-353.624 -101.753)" fill="#fad228" fill-rule="evenodd"/>
        <path id="Trazado_103468" data-name="Trazado 103468" d="M379.485,148.557c-8.649,3.147-.046,1.873-.922,4.213-.437,1.166-1.771.044-3.731,1.506-3.6,2.685-.5,5.96-7.126,9.652-1.511.842-2.868,1.6-5.559.207-.062,2.7,1.388,4.344,5.046,4.438,5.893.73,12.768-9.724,15.967-13.318,3.136-3.517,14.81-23.436,16.28-27.219-7.7-1.153-11.983-.477-13.845,3.948C383.486,137,384.106,146.053,379.485,148.557Z" transform="translate(-353.512 -98.047)" fill="#dbb826" fill-rule="evenodd"/>
        <path id="Trazado_103469" data-name="Trazado 103469" d="M395.727,184.222c.046,2.831.7,5.135-.812,8.476a52.188,52.188,0,0,1-10.12,4.206l0,.02c-6.288,2.167-13.618,2.674-14.627-2.062-.067-1.21,1.248-2.613,2.294-3.241,3.167-1.9,7.61-1.794,9.325-5.507a13.88,13.88,0,0,0,.982-3.359Z" transform="translate(-348.348 -62.474)" fill="#4d4948" fill-rule="evenodd"/>
        <path id="Trazado_103470" data-name="Trazado 103470" d="M395.708,187.557c-2.152,2.843-3.811,1.81-5.566,2.623-5.369,2.488-7.079,5.479-14.034,5.05-2.81-.174-5.817-1.973-5.895-3.732l-.187,1.81c.217,1.518,3.172,3.525,5.926,3.611,4.29.135,7.876-1.34,12.69-3.428,3.583-1.554,6.189-1.774,7.212-2.963C396.771,189.38,395.757,188.547,395.708,187.557Z" transform="translate(-348.434 -59.38)" fill="#3c3c3b" fill-rule="evenodd"/>
        <path id="Trazado_103471" data-name="Trazado 103471" d="M397.223,199.338c4.005-3.918,6.135-2.119,7.31-6.266,3.068,1.381,9.089-.373,11.181-3.683v0c1.69,4.737-1.409,3.857-4.528,6.186-3,2.241-7.892,7.744-12.085,7.965C395.76,203.717,395.492,201.032,397.223,199.338Z" transform="translate(-331.588 -58.2)" fill="#666" fill-rule="evenodd"/>
        <path id="Trazado_103472" data-name="Trazado 103472" d="M408.1,126.818s.23,6.723.825,10.155c.577,6.9,4.849,15.767,7.606,22.257-3.563,12.089-15.173,18.814-23.589,6.791-8.8-4.892-15.144-17.283-14.813-30.879,1.059-4.142,1.307-9.719,5.431-12.062C390.915,118.9,408.219,126.59,408.1,126.818Z" transform="translate(-343.219 -101.72)" fill="#fad228" fill-rule="evenodd"/>
        <path id="Trazado_103473" data-name="Trazado 103473" d="M397.542,169.341a67.213,67.213,0,0,0-1.851,22.033c.518,4.824,9.068,20.658,13.12,20.658.2,3.491,5.046,6.325,11.281.714-.768-.248-4.625.273-5.745-.35-7.7-4.277-3.908-17.1-5.655-18.675-2.567-2.313-5.533-.347-6.24-3.617-2.055-9.487,2.606-25.126,4.837-34.266-1.5-.5-5.59,8.933-10.688,5.2a99.967,99.967,0,0,1-9.211-10.76C384.7,153.546,395.755,167.7,397.542,169.341Z" transform="translate(-337.518 -83.398)" fill="#dbb826" fill-rule="evenodd"/>
        <path id="Trazado_103474" data-name="Trazado 103474" d="M400.264,191.542a14.942,14.942,0,0,1,.011-2.578c1.205,5.227,13.33,3.326,12.482-2.866a12.747,12.747,0,0,1,1.143,3.639C413.034,195.01,400.948,196.692,400.264,191.542Z" transform="translate(-328.981 -60.329)" fill="#3c3c3b"/>
        <path id="Trazado_103475" data-name="Trazado 103475" d="M367.241,153.1c.018-1.1-2.4-3.545-3.264-2.266-.968.936-4.661,4.584-4.869,4.888a12.237,12.237,0,0,0-.85,1.409,2.77,2.77,0,0,0-.354,2.014c.035.743.071,2.879.16,3.54a19.752,19.752,0,0,0,.959,3.765.662.662,0,0,0,.62-.355c.176.395.306,1.121.827.98a1.3,1.3,0,0,0,.832-1.215l.107.478c.74.345,1.375-.922,1.465-1.406s-.145-1.929-.072-2.412c.179-1.172.572-3.882.373-1.092-.1,1.21,0,2.884.594,2.575,1.235-.635.633-1.672.857-2.877A12.071,12.071,0,0,1,366.057,157C367.593,154.992,367.214,154.619,367.241,153.1Z" transform="translate(-356.271 -83.274)" fill="#3c3c3b" fill-rule="evenodd"/>
        <path id="Trazado_103476" data-name="Trazado 103476" d="M362.538,149.606a20.815,20.815,0,0,0,5.334,4.752c-1.26.936-2.075,1.48-2.075,1.48-3.083-1.2-5.186-3.139-4.611-4.762C361.576,150.668,362.035,150.173,362.538,149.606Z" transform="translate(-354.19 -83.83)" fill="#575756" fill-rule="evenodd"/>
        <path id="Trazado_103477" data-name="Trazado 103477" d="M377.575,184.289a15.226,15.226,0,0,1,.653-2.5c-.133,5.364,12.084,6.541,12.8.331a12.762,12.762,0,0,1,.2,3.808C389.081,190.825,376.957,189.445,377.575,184.289Z" transform="translate(-343.585 -63.136)" fill="#3c3c3b"/>
        <path id="Trazado_103478" data-name="Trazado 103478" d="M373.385,190.543c4.854-2.8,6.468-.526,8.639-4.25,2.628,2.1,8.9,1.9,11.745-.784h0c.457,5.01-2.325,3.387-5.924,4.865-3.468,1.424-9.573,5.538-13.688,4.708C370.876,194.42,371.286,191.755,373.385,190.543Z" transform="translate(-347.323 -60.7)" fill="#666" fill-rule="evenodd"/>
        <path id="Trazado_103479" data-name="Trazado 103479" d="M364.159,154.318c-.2,1.1-1.818,1.679-2.738,2.22-1.039.612-.7,2.529-2.3,3.144-1.531.59.973-4.7,1.348-5.418.3-.579,1.766-2.292,2.593-2.008C364.508,152.751,364.127,153.424,364.159,154.318Z" transform="translate(-355.773 -82.143)" fill="#575756" fill-rule="evenodd"/>
        <path id="Trazado_103480" data-name="Trazado 103480" d="M378.14,131.513c2.285,5.579,6.319,10.04,12.444,10.04,5.321,0,5.7,6.084,8.1,0,.793-2.014,11.385,7.32,12.7,8.941,2.782,3.43-.643,4.292-2.79,7.126-3.575,4.714,8.052-2.845,5.829.4-.9,1.32-1.6,4.712-4.07,6.922-4.31,3.869-9.464,8.91-17.414-5.158C384.7,155.21,378.617,144.065,378.14,131.513Z" transform="translate(-343.207 -95.487)" fill="#dbb826" fill-rule="evenodd"/>
        <path id="Trazado_103481" data-name="Trazado 103481" d="M380.507,124.284c3.831,1.186,7.888,8.123,14.019,9.63,3.519.863,8.373.222,12.4-1.388-.229-2.91-.324-5.709-.324-5.709.109-.217-15.407-7.121-23.292-4.3-.332.649-1.141,2.167-2.869,1.835Z" transform="translate(-341.722 -101.719)" fill="#fce47e" fill-rule="evenodd"/>
        <path id="Trazado_103482" data-name="Trazado 103482" d="M390.316,113.7c.613,1.657,3.64,11.694,6.807,14.7-5.39,1.922-4.7,16.15-11.623,13.516-2.208-.839-4.418-4.025-4.5-9.476,1.738-2.527,3.272-2.052-1.269-7.592C378.587,122.99,390.316,113.7,390.316,113.7Z" transform="translate(-342.232 -106.963)" fill="#dbb826" fill-rule="evenodd"/>
        <path id="Trazado_103483" data-name="Trazado 103483" d="M376.406,124.476c.4.84,1.475.536,1.669,4.583.122,2.5.49,2.378,2.984,5.691,1.412,1.876,6.288,4.8,8.126,2.427.575-.742,1.774-6.043,4.987-2.544.952,1.038,1.445-1.667,1.046-5.166-.1-.873-1.866-9.816.169-4.752,3.111,7.743.309-10.092-2.782-12.689-3.113-2.728-9.551-4.342-16.642,1.833-2.812,2.45-4.8,7.485-1.891,10.245C374.9,124.888,376.009,123.065,376.406,124.476Z" transform="translate(-346.747 -109.603)" fill="#fad228" fill-rule="evenodd"/>
        <path id="Trazado_103484" data-name="Trazado 103484" d="M373.28,119.059c1.749-.9,6.459-3.139,9.736.138.664.664,7.445,7.054,4.832,1.789-1.074-2.161,1.361-2.58,1.874-1.583,6.815,13.226,1.054-3.068,3.387-1.2a5.166,5.166,0,0,1,1.123,2.008c.161-3.769-1.177-6.635-2.733-7.942C385.421,106.943,374.484,111.294,373.28,119.059Z" transform="translate(-346.338 -109.399)" fill="#fce47e" fill-rule="evenodd"/>
        <path id="Trazado_103485" data-name="Trazado 103485" d="M377.927,115.554c3.566.811,9.77,5.278,11.733,9.938s1.389,5.184.7,6.329c-.673.725-1.223,1.314-1.478,1.644-1.838,2.378-6.714-.551-8.126-2.427-2.494-3.313-2.863-3.192-2.984-5.691-.194-4.047-1.266-3.742-1.669-4.583-.4-1.411-1.508.413-2.333-.372a4.544,4.544,0,0,1-.648-.77C373.193,116.579,374.362,114.742,377.927,115.554Z" transform="translate(-346.441 -105.892)" fill="#dbb826" fill-rule="evenodd"/>
        <path id="Trazado_103486" data-name="Trazado 103486" d="M377.944,116.093c3.823.852,8.5,5.362,10.614,10.785s-.4,8.407-4.224,7.554-8.353-5.65-10.117-10.714S374.121,115.24,377.944,116.093Z" transform="translate(-346.188 -105.505)" fill="#333" fill-rule="evenodd"/>
        <path id="Trazado_103487" data-name="Trazado 103487" d="M373.954,122.5l1.315,8.948,6.569,4.854c1.444-1.136,2.272-1.664,3.668-2.856l.035-.03c4.727-4.175-3.532-15.418-7.878-16.387C374.6,116.343,373.089,118.73,373.954,122.5Z" transform="translate(-346.059 -104.895)" fill="#7f7f7f" fill-rule="evenodd"/>
        <path id="Trazado_103488" data-name="Trazado 103488" d="M380.973,135.661c4.086-2.282,3.31-10.273,1.077-15.588a10.064,10.064,0,0,0-4.387-3.047c-3.062-.684-4.574,1.7-3.709,5.47l1.315,8.948Z" transform="translate(-346.059 -104.895)" fill="#b2b2b2" fill-rule="evenodd"/>
        <path id="Trazado_103489" data-name="Trazado 103489" d="M374.2,117.854l1.735,14.317,1.389-.123,1.085-14.682a6.59,6.59,0,0,0-1.061-.339A2.992,2.992,0,0,0,374.2,117.854Z" transform="translate(-345.745 -104.895)" fill-rule="evenodd" fill="url(#linear-gradient-2)"/>
        <path id="Trazado_103490" data-name="Trazado 103490" d="M373.028,129.8l2.4-4.13a.8.8,0,0,1,.122-.148c2.126-2.272,9.607,2.264,8.095,5.053h0l-2.332,4.015Z" transform="translate(-346.5 -99.746)" fill="#4c4c4c" fill-rule="evenodd"/>
        <path id="Trazado_103491" data-name="Trazado 103491" d="M376.739,129.673l2.18-3.691a6.079,6.079,0,0,1,1.97,2.045l-2.2,3.721A6.047,6.047,0,0,0,376.739,129.673Z" transform="translate(-344.109 -99.05)" fill="#333" fill-rule="evenodd"/>
        <path id="Trazado_103492" data-name="Trazado 103492" d="M381.165,133.3c-.954,1.018-3.5.651-5.676-.819s-3.177-3.489-2.223-4.507,3.494-.653,5.676.819S382.118,132.287,381.165,133.3Z" transform="translate(-346.58 -98.135)" fill="#333" fill-rule="evenodd"/>
        <path id="Trazado_103493" data-name="Trazado 103493" d="M376.163,129.324l2.184-3.686c.187.1.37.2.551.311l-2.184,3.686C376.531,129.523,376.349,129.42,376.163,129.324Z" transform="translate(-344.48 -99.272)" fill="#333" fill-rule="evenodd"/>
        <path id="Trazado_103494" data-name="Trazado 103494" d="M372.921,129.132l.472-.814a.745.745,0,0,1,.112-.138c1.97-2.1,8.9,2.1,7.5,4.68l0,0-.411.707Z" transform="translate(-346.569 -98.002)" fill="#4c4c4c" fill-rule="evenodd"/>
        <path id="Trazado_103495" data-name="Trazado 103495" d="M380.457,133.561c-.883.942-3.236.6-5.257-.758s-2.942-3.231-2.059-4.175,3.238-.6,5.257.758S381.34,132.619,380.457,133.561Z" transform="translate(-346.643 -97.689)" fill="#333" fill-rule="evenodd"/>
        <path id="Trazado_103496" data-name="Trazado 103496" d="M375.988,125.064l-2.262,3.871a3.75,3.75,0,0,1,1.518-.025l2.383-3.833A3.651,3.651,0,0,0,375.988,125.064Z" transform="translate(-346.05 -99.697)" fill="#999" fill-rule="evenodd"/>
        <g id="Grupo_56089" data-name="Grupo 56089" transform="translate(84.559 65.544)">
          <path id="Trazado_103497" data-name="Trazado 103497" d="M411.879,154.418c.525,1.133-.217,1.98-.742,3.129-.592,1.3.562,3.616-.559,5.316-.571.867-1.25-.493-1.31-2.044s-.939-2.534-.947-3.8c0-.748.187-3.333,1.164-3.673C411.185,152.757,411.261,153.637,411.879,154.418Z" transform="translate(-408.321 -147.087)" fill="#575756" fill-rule="evenodd"/>
          <path id="Trazado_103498" data-name="Trazado 103498" d="M413.874,149.9c-.9-.83-4.885-.482-4.517,1.225,0,1.546-1,6.982-.909,7.389.135.689,1.335,1.636,1.559,2.31a2.865,2.865,0,0,0,1.4,1.794c.646.518,2.455,2.055,3.078,2.465,1.2.618,3.517,2.387,3.91,1.919a1.332,1.332,0,0,0,.316-1.066c.439.22,1,.8,1.371.243a1.4,1.4,0,0,0-.344-1.631l.485.258c.89-.161.276-1.638-.053-2.072s-1.666-1.552-2.011-1.971c-.834-1.021-2.776-3.363-.608-1.133.926.982,2.483,2.139,2.624,1.368.245-1.335-1.008-1.832-1.832-2.915a12.2,12.2,0,0,1-2.165-4.265C415.737,150.978,415.122,151.039,413.874,149.9Z" transform="translate(-408.242 -149.465)" fill="#3c3c3b" fill-rule="evenodd"/>
        </g>
        <path id="Trazado_103499" data-name="Trazado 103499" d="M409.22,155.113a14.137,14.137,0,0,0,.687,4.2,1.543,1.543,0,0,0,2.432-.191c.9.1,1.684-.4,1.736-1.036a1.436,1.436,0,0,0,1.4-1.35,2.489,2.489,0,0,0,.691-1.283c-.194-1.079-.862-1.8-1.3-3.027C412.854,153.634,410.584,155.424,409.22,155.113Z" transform="translate(-323.19 -82.014)" fill="#575756" fill-rule="evenodd"/>
        <path id="Trazado_103500" data-name="Trazado 103500" d="M421.562,145.593c4.6,6.884,5.255,22.951,5.255,22.951l-7.988.8c-5.033-1.866-1.156-9.144-3.553-11.059-1.2-.957-1.189-1.932-1.394-3.344-.117-.8-1.953.1-2.261-1.314-1.082-4.967-6.345-7.685-10.546-8.063-13.493-5.174-8.961-21.426-6.386-21.028a15.669,15.669,0,0,1,5.426.916C405.593,127.716,413.691,133.813,421.562,145.593Z" transform="translate(-334.384 -99.985)" fill="#dbb826" fill-rule="evenodd"/>
        <path id="Trazado_103501" data-name="Trazado 103501" d="M421.433,145.565c4.6,6.886,7.925,18.871,5.319,21.245l-1.991.852c-1.832-.232-4.915-.967-5.132-2.427-.441-2.965,3.3-5.148-.372-11.209-.636-1.052-1.81.516-4.265-2.637-.434-.556,2.269-1.123,1.837-1.557-.648-.649-4.81-1.074-5.827-1.853-6.432-4.926-15.961-5.928-17.844-9.283-.057-.118-.112-.235-.166-.353-.012-.031-.025-.061-.035-.092l-.007,0c-2.845-6.447,1.679-13.943,3.445-13.67a8.041,8.041,0,0,1,3.589.845C405.462,127.688,413.562,133.785,421.433,145.565Z" transform="translate(-334.255 -99.957)" fill="#fad228" fill-rule="evenodd"/>
        <path id="Trazado_103502" data-name="Trazado 103502" d="M408.252,152.77a29.24,29.24,0,0,0,8.052-2.509c.122,1.564.148,2.545.148,2.545-2.657,1.97-6.608,3.242-7.675,1.891C408.638,154.151,408.464,153.5,408.252,152.77Z" transform="translate(-323.807 -83.408)" fill="#575756" fill-rule="evenodd"/>
        <path id="Trazado_103503" data-name="Trazado 103503" d="M394.335,125.612c-2.84,6.86-2.621,11.8,6.485,11.8,2.948,0,2.235,3.637,5.025,5.03,2.027,1.013,17.822,7.36,12.654,6.893-3.05-.275,3.2,1.771,4,2.328,1.383.965-3.277.283-2.141,2.33.972,1.748,3.558,9.856,6.585,11.743,1.238-3.811-1.851-14.021-5.959-20.167-7.871-11.779-15.971-17.876-21.448-20.139a8.041,8.041,0,0,0-3.589-.845C395.524,124.515,394.938,124.9,394.335,125.612Z" transform="translate(-333.809 -99.957)" fill="#fce47e" fill-rule="evenodd"/>
        <g id="Grupo_56095" data-name="Grupo 56095" transform="translate(0 68.491)">
          <g id="Grupo_56094" data-name="Grupo 56094">
            <path id="Trazado_103504" data-name="Trazado 103504" d="M398.609,156.4l16.569,55.043a4.672,4.672,0,0,1,.151.95c1.468,15.565-35.929,25.913-40.965,10.693v0l-16.375-54.4Z" transform="translate(-356.189 -147.941)" fill="#e94b46" fill-rule="evenodd"/>
            <path id="Trazado_103505" data-name="Trazado 103505" d="M373.6,160.671l19.751,66.374c-5.028,1.052-10.1,1.056-14.039-.322l-18.5-62.182Z" transform="translate(-354.372 -145.192)" fill="#ba1c00" fill-rule="evenodd"/>
            <g id="Grupo_56090" data-name="Grupo 56090" transform="translate(4.523 18.858)">
              <path id="Trazado_103506" data-name="Trazado 103506" d="M359.825,178.3a8.811,8.811,0,0,1,.273-3.147l1.31,4.408.013,0c4.795,15.379,42.433,5.073,40.955-10.554a7.623,7.623,0,0,0-.309-1.539l-1.194-4.16a8.43,8.43,0,0,1,2.792,5.416C405.639,187.432,361.789,197.222,359.825,178.3Z" transform="translate(-359.556 -162.356)" fill="#cc4040" fill-rule="evenodd"/>
              <path id="Trazado_103507" data-name="Trazado 103507" d="M359.686,177.723a8.849,8.849,0,0,1,.275-3.147l1.31,4.408.013,0c4.795,15.379,42.433,5.073,40.955-10.554a7.6,7.6,0,0,0-.309-1.539l-1.194-4.16a8.431,8.431,0,0,1,2.792,5.416C405.5,186.857,361.651,196.647,359.686,177.723Z" transform="translate(-359.645 -162.726)" fill="#ff7373" fill-rule="evenodd"/>
            </g>
            <g id="Grupo_56091" data-name="Grupo 56091" transform="translate(11.311 41.665)">
              <path id="Trazado_103508" data-name="Trazado 103508" d="M363.952,192.169a8.887,8.887,0,0,1,.273-3.147l1.312,4.408.013,0c4.795,15.379,42.433,5.071,40.954-10.556a7.424,7.424,0,0,0-.309-1.539L405,177.172a8.438,8.438,0,0,1,2.792,5.416C409.768,201.3,365.917,211.093,363.952,192.169Z" transform="translate(-363.684 -176.227)" fill="#ba1c00" fill-rule="evenodd"/>
              <path id="Trazado_103509" data-name="Trazado 103509" d="M363.814,191.594a8.887,8.887,0,0,1,.273-3.147l1.312,4.408.013,0c4.795,15.379,42.433,5.071,40.954-10.556a7.425,7.425,0,0,0-.309-1.539l-1.192-4.16a8.438,8.438,0,0,1,2.792,5.416C409.63,200.73,365.779,210.518,363.814,191.594Z" transform="translate(-363.773 -176.597)" fill="#ff7373" fill-rule="evenodd"/>
            </g>
            <path id="Trazado_103510" data-name="Trazado 103510" d="M357.07,170.934c-.7-7.414,8.567-15.578,20.693-18.23s22.53,1.213,23.228,8.627-8.567,15.579-20.693,18.232S357.768,178.35,357.07,170.934Z" transform="translate(-356.805 -150.863)" fill="#ba1c00" fill-rule="evenodd"/>
            <path id="Trazado_103511" data-name="Trazado 103511" d="M356.932,170.324c-.7-7.416,8.565-15.579,20.693-18.23s22.53,1.212,23.228,8.627-8.567,15.579-20.693,18.23S357.63,177.739,356.932,170.324Z" transform="translate(-356.894 -151.257)" fill="#cc4040" fill-rule="evenodd"/>
            <path id="Trazado_103512" data-name="Trazado 103512" d="M357.724,169.707c-.658-6.975,8.059-14.654,19.465-17.148s21.19,1.141,21.849,8.114-8.059,14.654-19.465,17.148S358.383,176.68,357.724,169.707Z" transform="translate(-356.383 -150.925)" fill="#ff7373" fill-rule="evenodd"/>
            <path id="Trazado_103513" data-name="Trazado 103513" d="M358.853,168.828c-.6-6.348,7.332-13.337,17.712-15.606s19.284,1.038,19.882,7.384-7.332,13.337-17.712,15.606S359.452,175.173,358.853,168.828Z" transform="translate(-355.653 -150.452)" fill="#cc4040" fill-rule="evenodd"/>
            <path id="Trazado_103514" data-name="Trazado 103514" d="M359.388,169.678c-.587-6.22,7.185-13.067,17.358-15.292,8.946-1.957,16.773.316,18.927,5.124.023.145.043.289.058.437.587,6.219-7.185,13.067-17.357,15.292-8.948,1.957-16.775-.317-18.929-5.125C359.423,169.97,359.4,169.825,359.388,169.678Z" transform="translate(-355.308 -149.693)" fill="#e94b46" fill-rule="evenodd"/>
            <g id="Grupo_56092" data-name="Grupo 56092" transform="translate(8.291 8.139)">
              <path id="Trazado_103515" data-name="Trazado 103515" d="M361.944,159.629c-.125-1.332,1.537-2.8,3.713-3.272s4.043.219,4.168,1.549-1.537,2.8-3.713,3.27S362.07,160.959,361.944,159.629Z" transform="translate(-361.937 -156.207)" fill="#ff7373" fill-rule="evenodd"/>
              <path id="Trazado_103516" data-name="Trazado 103516" d="M369.7,157.01h0l0,.008,0-.008Zm.044.133.35,1.075a1.48,1.48,0,0,1,.081.25v0h0a1.294,1.294,0,0,1,.028.181c.127,1.33-1.536,2.794-3.711,3.27-2,.436-3.731-.112-4.1-1.232h0l-.393-1.2c.411,1.08,2.119,1.6,4.079,1.172,2.175-.475,3.838-1.94,3.713-3.27A1.464,1.464,0,0,0,369.743,157.143Z" transform="translate(-361.9 -155.69)" fill="#cc4040" fill-rule="evenodd"/>
              <path id="Trazado_103517" data-name="Trazado 103517" d="M362.2,159.426c-.112-1.187,1.371-2.493,3.311-2.917s3.606.194,3.718,1.38-1.371,2.494-3.312,2.917S362.316,160.613,362.2,159.426Z" transform="translate(-361.77 -156.098)" fill="#cc4700" fill-rule="evenodd"/>
              <path id="Trazado_103518" data-name="Trazado 103518" d="M362.155,159.266c-.112-1.187,1.37-2.493,3.311-2.917s3.6.194,3.716,1.38-1.37,2.493-3.31,2.917S362.267,160.452,362.155,159.266Z" transform="translate(-361.8 -156.201)" fill="#e94b46" fill-rule="evenodd"/>
            </g>
            <g id="Grupo_56093" data-name="Grupo 56093" transform="translate(16.137 57.886)">
              <path id="Trazado_103519" data-name="Trazado 103519" d="M366.888,202.034a8.81,8.81,0,0,1,.273-3.147l1.312,4.408.013,0c4.793,15.379,42.432,5.071,40.954-10.556a7.646,7.646,0,0,0-.309-1.539l-1.194-4.16a8.431,8.431,0,0,1,2.792,5.416C412.7,211.17,368.852,220.958,366.888,202.034Z" transform="translate(-366.62 -186.092)" fill="#ba1c00" fill-rule="evenodd"/>
              <path id="Trazado_103520" data-name="Trazado 103520" d="M366.75,201.459a8.809,8.809,0,0,1,.273-3.147l1.312,4.408.013,0c4.793,15.38,42.432,5.073,40.954-10.555a7.623,7.623,0,0,0-.309-1.539l-1.194-4.16a8.431,8.431,0,0,1,2.792,5.416C412.564,210.593,368.714,220.383,366.75,201.459Z" transform="translate(-366.709 -186.462)" fill="#ff7373" fill-rule="evenodd"/>
            </g>
          </g>
        </g>
      </g>
    </g>
    <g id="Grupo_56098" data-name="Grupo 56098" transform="translate(521.45 219.607)">
      <path id="Trazado_103522" data-name="Trazado 103522" d="M473.052,178.92l-18.705-10.668a4.374,4.374,0,0,0-4.441,0l-18.8,10.683a2.245,2.245,0,0,0,0,3.9l18.74,10.686a4.386,4.386,0,0,0,4.449,0l18.758-10.7a2.245,2.245,0,0,0,0-3.9Z" transform="translate(-429.972 -144.775)" fill="#b2b2b2" fill-rule="evenodd"/>
      <path id="Trazado_103523" data-name="Trazado 103523" d="M473.052,178.188,454.346,167.52a4.374,4.374,0,0,0-4.441,0l-18.8,10.684a2.243,2.243,0,0,0,0,3.9l18.74,10.686a4.386,4.386,0,0,0,4.449,0l18.758-10.7a2.243,2.243,0,0,0,0-3.9Z" transform="translate(-429.972 -145.247)" fill="#fff" fill-rule="evenodd"/>
      <path id="Trazado_103524" data-name="Trazado 103524" d="M434.528,185.413a4.684,4.684,0,0,0-.309.816l-.169.446h.069a4.373,4.373,0,0,0-.069.763c0,4.515,6.909,8.18,15.428,8.18s15.426-3.665,15.426-8.18a4.372,4.372,0,0,0-.067-.763h.069l-.171-.452a5.177,5.177,0,0,0-.3-.8l-10.826-28.605a4.307,4.307,0,0,0-8.256,0Z" transform="translate(-427.345 -153.736)" fill="#ccc" fill-rule="evenodd"/>
      <path id="Trazado_103525" data-name="Trazado 103525" d="M434.629,189.454c2.175,3.119,7.836,5.347,14.476,5.347a27.341,27.341,0,0,0,6.444-.748l-4.4-34.465c-.339-2.652-.543-3.861-2.039-4.458-1.526-.607-3.047,1.047-3.693,2.752l-10.665,31.305C434.7,189.276,434.665,189.364,434.629,189.454Z" transform="translate(-426.972 -152.92)" fill="#e5e5e5" fill-rule="evenodd"/>
      <path id="Trazado_103526" data-name="Trazado 103526" d="M435.677,171.163q-.812,2.143-1.621,4.283c-.436,5.944,8.512,8.943,15.428,8.943,4.122,0,16.6-1.917,15.359-8.943.066,0-1.393-3.861-1.552-4.283-1.925,3.458-7.527,5.594-13.807,5.594S437.563,174.54,435.677,171.163Z" transform="translate(-427.351 -142.508)" fill="#cc4040" fill-rule="evenodd"/>
      <path id="Trazado_103527" data-name="Trazado 103527" d="M434.646,178.283c2.47,3.6,9.071,5.411,14.448,5.411a30.262,30.262,0,0,0,6.432-.839l-.942-7.373a25.566,25.566,0,0,1-5.49.579c-5.1,0-9.78-1.462-12.368-3.82l-1.99,5.839C434.705,178.148,434.674,178.214,434.646,178.283Z" transform="translate(-426.961 -141.813)" fill="#e94b46" fill-rule="evenodd"/>
      <path id="Trazado_103528" data-name="Trazado 103528" d="M436.716,169.285c.983,3.555,5.474,5.646,11.044,5.646s10.482-2.248,10.984-5.8l-2.414-6.38c-.575,2.3-3.976,4.535-8.57,4.535s-7.814-1.758-8.631-4.377Z" transform="translate(-425.627 -147.931)" fill="#cc4040" fill-rule="evenodd"/>
      <path id="Trazado_103529" data-name="Trazado 103529" d="M437.366,170.613c1.86,2.3,5.582,3.6,9.976,3.6a18.965,18.965,0,0,0,4.568-.539l-.972-7.6a12.922,12.922,0,0,1-3.6.493c-3.52,0-6.233-1.031-7.677-2.692Z" transform="translate(-425.208 -147.208)" fill="#e94b46" fill-rule="evenodd"/>
      <path id="Trazado_103530" data-name="Trazado 103530" d="M439.646,162.358c.653,1.932,3.713,2.892,6.227,2.892s5.734-1.08,6.225-2.892l-2.1-5.544a4.307,4.307,0,0,0-8.256,0Z" transform="translate(-423.739 -153.736)" fill="#cc4040" fill-rule="evenodd"/>
      <path id="Trazado_103531" data-name="Trazado 103531" d="M440.172,163.241a8.639,8.639,0,0,0,5.362,1.652,10.537,10.537,0,0,0,2.614-.347l-.576-4.5c-.339-2.652-.286-5.046-2.037-5.635-2.244-.753-3.048,2.225-3.695,3.93Z" transform="translate(-423.401 -153.378)" fill="#e94b46" fill-rule="evenodd"/>
    </g>
    <g id="Grupo_56099" data-name="Grupo 56099" transform="translate(358.899 51.492)">
      <path id="Trazado_103532" data-name="Trazado 103532" d="M374.19,76.676l-18.7-10.668a4.381,4.381,0,0,0-4.443,0l-18.8,10.684a2.246,2.246,0,0,0,0,3.9l18.741,10.684a4.379,4.379,0,0,0,4.448,0l18.758-10.7a2.245,2.245,0,0,0,0-3.9Z" transform="translate(-331.112 -42.531)" fill="#b2b2b2" fill-rule="evenodd"/>
      <path id="Trazado_103533" data-name="Trazado 103533" d="M374.19,75.943l-18.7-10.668a4.377,4.377,0,0,0-4.443,0l-18.8,10.683a2.246,2.246,0,0,0,0,3.9l18.741,10.686a4.383,4.383,0,0,0,4.448,0l18.758-10.7a2.245,2.245,0,0,0,0-3.9Z" transform="translate(-331.112 -43.003)" fill="#fff" fill-rule="evenodd"/>
      <path id="Trazado_103534" data-name="Trazado 103534" d="M335.668,83.167a5.034,5.034,0,0,0-.309.817l-.169.446h.069a4.359,4.359,0,0,0-.067.761c0,4.517,6.908,8.18,15.426,8.18s15.426-3.663,15.426-8.18a4.351,4.351,0,0,0-.067-.761h.069l-.171-.452a4.866,4.866,0,0,0-.3-.8L354.746,54.57a4.308,4.308,0,0,0-8.257,0Z" transform="translate(-328.485 -51.492)" fill="#ccc" fill-rule="evenodd"/>
      <path id="Trazado_103535" data-name="Trazado 103535" d="M335.768,87.21c2.175,3.119,7.837,5.345,14.476,5.345a27.342,27.342,0,0,0,6.444-.746l-4.4-34.465c-.339-2.652-.543-3.861-2.039-4.458-1.526-.607-3.047,1.047-3.693,2.752L335.888,86.944C335.845,87.032,335.8,87.12,335.768,87.21Z" transform="translate(-328.112 -50.676)" fill="#e5e5e5" fill-rule="evenodd"/>
      <path id="Trazado_103536" data-name="Trazado 103536" d="M336.816,68.919Q336,71.062,335.195,73.2c-.436,5.944,8.512,8.941,15.428,8.941,4.122,0,16.6-1.916,15.359-8.941.066,0-1.393-3.861-1.552-4.283-1.925,3.458-7.527,5.594-13.807,5.594S338.7,72.3,336.816,68.919Z" transform="translate(-328.491 -40.265)" fill="#cc4040" fill-rule="evenodd"/>
      <path id="Trazado_103537" data-name="Trazado 103537" d="M335.785,76.038c2.47,3.6,9.073,5.411,14.448,5.411a30.23,30.23,0,0,0,6.432-.837l-.942-7.373a25.555,25.555,0,0,1-5.49.579c-5.1,0-9.778-1.462-12.368-3.821l-1.988,5.84C335.844,75.9,335.815,75.971,335.785,76.038Z" transform="translate(-328.101 -39.57)" fill="#e94b46" fill-rule="evenodd"/>
      <path id="Trazado_103538" data-name="Trazado 103538" d="M337.855,67.041c.985,3.555,5.474,5.646,11.044,5.646s10.482-2.249,10.984-5.8l-2.412-6.38c-.577,2.3-3.977,4.533-8.572,4.533s-7.813-1.758-8.631-4.375Z" transform="translate(-326.768 -45.687)" fill="#cc4040" fill-rule="evenodd"/>
      <path id="Trazado_103539" data-name="Trazado 103539" d="M338.506,68.369c1.858,2.3,5.581,3.6,9.974,3.6a18.988,18.988,0,0,0,4.569-.541l-.972-7.6a12.871,12.871,0,0,1-3.6.495c-3.519,0-6.233-1.031-7.677-2.692Z" transform="translate(-326.348 -44.964)" fill="#e94b46" fill-rule="evenodd"/>
      <path id="Trazado_103540" data-name="Trazado 103540" d="M340.785,60.114c.653,1.93,3.713,2.892,6.227,2.892s5.733-1.08,6.227-2.892l-2.1-5.544a4.308,4.308,0,0,0-8.257,0Z" transform="translate(-324.88 -51.492)" fill="#cc4040" fill-rule="evenodd"/>
      <path id="Trazado_103541" data-name="Trazado 103541" d="M341.311,61a8.642,8.642,0,0,0,5.362,1.652,10.526,10.526,0,0,0,2.614-.347l-.575-4.5c-.337-2.652-.286-5.046-2.037-5.635-2.243-.753-3.048,2.225-3.695,3.93Z" transform="translate(-324.541 -51.134)" fill="#e94b46" fill-rule="evenodd"/>
    </g>
    <g id="Grupo_56101" data-name="Grupo 56101" transform="translate(296.551 89.092)">
      <g id="Grupo_56100" data-name="Grupo 56100" transform="translate(64.34 42.725)">
        <path id="Trazado_103542" data-name="Trazado 103542" d="M337.389,109.259c1.235-.643,1.159-1.9,1.48-3.269.362-1.549,2.961-2.808,3.131-5.074.087-1.154-1.439-.418-2.55.911s-2.557,1.6-3.425,2.7c-.515.658-2.106,3.071-1.477,4.038C335.645,110.251,336.312,109.526,337.389,109.259Z" transform="translate(-330.984 -100.344)" fill="#575756" fill-rule="evenodd"/>
        <path id="Trazado_103543" data-name="Trazado 103543" d="M335.856,115.427c-1.365.115-4.642-2.905-3.154-4.16,1.057-1.365,3.88-6.845,4.236-7.146.589-.515,2.3-.533,2.953-.977a3.2,3.2,0,0,1,2.455-.633c.924-.015,3.57-.14,4.4-.076,1.481.271,4.734.289,4.762.972a1.49,1.49,0,0,1-.449,1.156c.538.105,1.429-.02,1.378.72a1.569,1.569,0,0,1-1.417,1.205l.605.1c.676.751-.873,1.636-1.46,1.794s-2.527.237-3.119.372c-1.432.332-4.744,1.075-1.31.584,1.488-.235,3.65-.2,3.251.584-.694,1.345-2.139.929-3.606,1.322a13.649,13.649,0,0,0-4.819,2.29C338.239,115.743,337.737,115.27,335.856,115.427Z" transform="translate(-332.323 -99.007)" fill="#3c3c3b" fill-rule="evenodd"/>
      </g>
      <path id="Trazado_103544" data-name="Trazado 103544" d="M298.657,129.367c1.773,9.065,10.686,21.507,11.883,19.511,5.061,1.735,7.8-.016,9.2-1.983-2.81-5.687-7.233-21.517-5.046-35.6,1.163-7.486,3.991-14.539,1.9-18.521-2.527-4.806-10.966-3.841-14.241,3.979A53.48,53.48,0,0,0,298.657,129.367Z" transform="translate(-290.359 -64.383)" fill="#fad228" fill-rule="evenodd"/>
      <ellipse id="Elipse_4000" data-name="Elipse 4000" cx="34.795" cy="21.608" rx="34.795" ry="21.608" transform="translate(0 132.677)" fill="#8de7ff"/>
      <path id="Trazado_103545" data-name="Trazado 103545" d="M300.77,162.849c1.893,2.008-2.8,4.6.975,9.547,3.05,1.756,10.915-1.161,14.076-2.736l.016.012c5.863-2.762,11.327-7.389,8.813-11.383-.776-.89-2.647-.975-3.8-.7-3.5.824-6.533,3.918-10.254,2.491a13.453,13.453,0,0,1-2.97-1.679Z" transform="translate(-288.662 -20.828)" fill="#575756" fill-rule="evenodd"/>
      <path id="Trazado_103546" data-name="Trazado 103546" d="M319.425,157.911c-5.291,1.345-3.584,2.041-8.289,2.869-.146,1.174-.382,5.533-6.935,5.812-2.764,3.058,5.875,1.085,7.476.46,3.4-1.329,4.793.495,8.29-4.548C321.826,159.825,321.712,157.329,319.425,157.911Z" transform="translate(-286.45 -20.585)" fill="#666" fill-rule="evenodd"/>
      <path id="Trazado_103547" data-name="Trazado 103547" d="M300.479,169.532c2.21,2.284,4.89,3.063,11.766-.4,4.77-2.4,6.173.281,10.739-4.745,1.843-2.032,2.823-5.186,1.68-6.467l1.218,1.768a6.069,6.069,0,0,1-1.643,5.771c-3.951,4.1-13.608,7.179-18.846,8.177C301.008,174.472,299.3,171.241,300.479,169.532Z" transform="translate(-288.735 -20.525)" fill="#3c3c3b" fill-rule="evenodd"/>
      <path id="Trazado_103548" data-name="Trazado 103548" d="M314.054,171.033c.426,1.5-2.866,4.163.911,9.111,3.05,1.756,10.915-1.159,14.076-2.736l.016.012c5.863-2.761,11.326-7.389,8.813-11.383-.776-.89-2.647-.975-3.8-.7-3.5.824-6.533,3.918-10.255,2.493a13.59,13.59,0,0,1-2.97-1.679Z" transform="translate(-280.349 -15.837)" fill="#575756" fill-rule="evenodd"/>
      <path id="Trazado_103549" data-name="Trazado 103549" d="M332.521,165.659c-5.291,1.345-3.586,2.04-8.289,2.869-.148,1.174-.382,5.533-6.936,5.812-2.766,3.058,5.875,1.085,7.476.46,3.4-1.329,4.793.495,8.289-4.548C334.922,167.573,334.809,165.077,332.521,165.659Z" transform="translate(-278.013 -15.593)" fill="#666" fill-rule="evenodd"/>
      <path id="Trazado_103550" data-name="Trazado 103550" d="M313.575,177.282c2.208,2.282,4.89,3.062,11.766-.4,4.77-2.4,6.173.281,10.737-4.745,1.845-2.031,2.823-5.186,1.682-6.467l1.218,1.768a6.073,6.073,0,0,1-1.643,5.773c-3.953,4.1-13.608,7.177-18.846,8.175C314.1,182.22,312.391,178.989,313.575,177.282Z" transform="translate(-280.297 -15.533)" fill="#3c3c3b" fill-rule="evenodd"/>
      <path id="Trazado_103551" data-name="Trazado 103551" d="M302.449,117.688s-.49,20.229-2.6,42.509c-1.093,11.523-1.447,19.693,1.422,26.514,2.514,5.921,15,5.773,13.458-2.093,3.369-5.086,1.618-6.875,2.94-21.51.37-4.1-1.118-9.2-.482-13.815,1.4,15.382,4.295,45.548,7.378,50.344.018,5.648,10.033,6.983,12.26-2.261,5.124-5.049,1.332-11.312,2.877-27.313,1.319-13.667-3.788-31.126-3.44-45.035-2.636-21.025-30.336-3.719-28.607-3.718Z" transform="translate(-289.426 -48.427)" fill="#fad228" fill-rule="evenodd"/>
      <path id="Trazado_103552" data-name="Trazado 103552" d="M341.135,101.787s-2.174,7.184-2.779,11.021c-1.113,4.454.789,13.154-1.156,19.309-1.516,4.8-5.891-2.509-6.932-1.733-1.71,2.422.924,9.852-1.661,11.426-8.218,5-20.164,9.839-26.616-3.535-.378-18.96-3.7-26.127-.661-37.346,2.943-10.864,11.148-12.11,22.34-8.715C337.615,96.443,341.339,101.586,341.135,101.787Z" transform="translate(-288.769 -63.933)" fill="#dbb826" fill-rule="evenodd"/>
      <path id="Trazado_103553" data-name="Trazado 103553" d="M302.377,116.468c-3.486,17.215.051,19.529-2.572,42.532-1.028,9.015-1.256,20.1,1.613,26.925.876,4.8,14.46,6.983,13.268-2.5-10.745,1.092,5.152-10.768-2.315-12.955-3.938-1.153-1.477-8.491-1.572-10.16-.862-14.969,9.744-7.771,8.963-21.9C318.274,132.7,306.017,124.367,302.377,116.468Z" transform="translate(-289.386 -47.23)" fill="#dbb826" fill-rule="evenodd"/>
      <path id="Trazado_103554" data-name="Trazado 103554" d="M316.534,148.652c.59,6.488,1.447,15.611,2.471,24.346,1.4,11.972-.127,23.4,3.088,25.767.013,3.9,9.994,6.283,14.223-.768-.84-.321,2.036-14.187.064-11.651-7.868,10.119-7.572.39-3.381-10.061,1.434-3.576-2.948-3.328-3.545-7.011-1.125-6.931-.03-18.546,1.7-28.6.939-5.447,1.888-8.547-1.039-13.679-2.726,1.61-11.036,1.141-16.171-2.21-1.1-.719-8.386-4.111-11.776-9.186-1.274,3.54-3.946,22.123-.2,27.822C303.8,146.21,315.911,148.017,316.534,148.652Z" transform="translate(-288.777 -47.787)" fill="#dbb826" fill-rule="evenodd"/>
      <path id="Trazado_103555" data-name="Trazado 103555" d="M318.388,133.636c3.224,17.051,31.606-7.953,30.119-13,.293-3.024-1.577-6.1-5.4-7.707-3.742-2.269-8.713,5.678-10.771,8.119-2.687,3.183-.266-1.184-.5-1.376-.378-.316-1.95,2.366-.712-1.4,2-6.08,1.044-15.772-.763-19.721-.94-2.055-7.144-6.541-10.842,2.286C316.965,106.932,315.451,118.106,318.388,133.636Z" transform="translate(-277.997 -60.694)" fill="#dbb826" fill-rule="evenodd"/>
      <path id="Trazado_103556" data-name="Trazado 103556" d="M300.135,107.482c.52,3.474,1.669,1.654,1.962,5.482.071.931,1.616,5.186,2.609,5.3,1.47.168,2.675-4.979,3.481-6.1,1.764-2.445,2.762,8.715,2.9,10.671.579,8.177,5.426-3.611,5.8-4.283,1.981-3.548,2.613-3.769,4.642-.725,2.309,3.463,6.855-5.582,7.613-7.767,1.628-4.683,3.3-10.61,10.663-9.851-2.042-1.888-6.8-5.15-16.184-8-11.192-3.4-19.4-2.149-22.341,8.715A35.594,35.594,0,0,0,300.135,107.482Z" transform="translate(-288.721 -63.933)" fill="#fad228" fill-rule="evenodd"/>
      <path id="Trazado_103557" data-name="Trazado 103557" d="M300.858,100.787c1.511,1.657,3.326,7.754,10.755,5.863,4.7-1.2,6.207,6.829,12.136,2.539,7.753-5.607,7.62-9.935,12.973-11a51.584,51.584,0,0,0-13.565-5.977C312.014,88.835,303.834,90.055,300.858,100.787Z" transform="translate(-288.255 -63.933)" fill="#fce47e" fill-rule="evenodd"/>
      <path id="Trazado_103558" data-name="Trazado 103558" d="M313.366,170.083a15.757,15.757,0,0,1,.153-2.7c.973,5.533,14.66,3.458,14.113-3.065a43.222,43.222,0,0,1,.1,4.62C326.531,174.409,313.8,175.506,313.366,170.083Z" transform="translate(-280.202 -16.408)" fill="#3c3c3b"/>
      <path id="Trazado_103559" data-name="Trazado 103559" d="M300.455,162.2a15.821,15.821,0,0,1,.151-2.7c.975,5.533,13.761,4.211,13.213-2.312a13.376,13.376,0,0,1,.995,3.867C313.619,166.527,300.887,167.624,300.455,162.2Z" transform="translate(-288.52 -21.003)" fill="#3c3c3b"/>
      <path id="Trazado_103560" data-name="Trazado 103560" d="M309.314,80.659c-.035,1.835.7,12.95-1.378,16.982-1.671,1.3-.926,3.706.543,4.8,9.824,7.32,14.024-.987,17.155-1.648a13.074,13.074,0,0,0-.773-4.931c-2.568-1.888-3.912-.9-1.348-7.884C324,85.766,309.314,80.659,309.314,80.659Z" transform="translate(-284.31 -70.3)" fill="#dbb826" fill-rule="evenodd"/>
      <path id="Trazado_103561" data-name="Trazado 103561" d="M329.262,86.4c-.107.962-1.264,1.031-.069,5.069.735,2.494.332,2.5-.983,6.6-.743,2.323-4.527,6.863-7.143,5.161-.819-.533-3.808-5.324-5.763-.791-.58,1.342-1.99-1.144-2.794-4.714-.2-.89-1.526-10.27-1.791-4.6-.406,8.662-3.754-9.8-1.61-13.4,2.123-3.741,7.889-7.526,16.956-3.89,3.6,1.442,7.268,5.7,5.36,9.407C330.885,86.29,329.17,84.88,329.262,86.4Z" transform="translate(-283.397 -74.359)" fill="#fad228" fill-rule="evenodd"/>
      <path id="Trazado_103562" data-name="Trazado 103562" d="M329.906,80.227c-2.024-.283-7.412-.87-9.507,3.464-.424.878-4.893,9.468-4.129,3.407.314-2.486-2.22-2.065-2.383-.911-2.164,15.308-2.082-2.651-3.734-.02a5.436,5.436,0,0,0-.414,2.355c-1.445-3.644-1.113-6.912-.033-8.726C313.849,72.489,326.07,73.018,329.906,80.227Z" transform="translate(-283.157 -74.229)" fill="#fce47e" fill-rule="evenodd"/>
      <path id="Trazado_103563" data-name="Trazado 103563" d="M322.124,79.324c-3.221,2.016-7.782,8.519-8.114,13.762s.409,5.564,1.48,6.449c.908.482,1.649.873,2.014,1.11,2.616,1.7,6.4-2.838,7.143-5.161,1.315-4.1,1.718-4.109.983-6.6-1.194-4.038-.038-4.107.069-5.069-.092-1.519,1.623-.109,2.164-1.161a4.727,4.727,0,0,0,.373-.978C327.121,78.71,325.345,77.308,322.124,79.324Z" transform="translate(-279.834 -71.77)" fill="#dbb826" fill-rule="evenodd"/>
      <path id="Trazado_103564" data-name="Trazado 103564" d="M321.585,79.846c-3.46,2.142-6.511,8.167-6.728,14.211s3.269,8.113,6.728,5.969,6.265-8.4,6.265-13.973S325.045,77.7,321.585,79.846Z" transform="translate(-279.243 -71.291)" fill="#333" fill-rule="evenodd"/>
      <path id="Trazado_103565" data-name="Trazado 103565" d="M326.889,84.8l1.769,9.231-4.786,7.009c-1.805-.622-2.8-.857-4.576-1.549l-.044-.018c-6.066-2.48-1.805-16.336,2.128-18.772C324.15,78.986,326.45,80.813,326.889,84.8Z" transform="translate(-278.359 -70.688)" fill="#7f7f7f" fill-rule="evenodd"/>
      <path id="Trazado_103566" data-name="Trazado 103566" d="M323.776,100.121c-4.788-.844-6.76-8.95-6.386-14.927a10.473,10.473,0,0,1,3.264-4.49c2.771-1.718,5.071.109,5.51,4.1l1.769,9.231Z" transform="translate(-277.634 -70.688)" fill="#b2b2b2" fill-rule="evenodd"/>
      <path id="Trazado_103567" data-name="Trazado 103567" d="M323.091,80.439l3.193,14.64-1.406.355L318.8,81.4a6.824,6.824,0,0,1,.924-.7A3.111,3.111,0,0,1,323.091,80.439Z" transform="translate(-276.699 -70.688)" fill-rule="evenodd" fill="url(#linear-gradient-3)"/>
      <path id="Trazado_103568" data-name="Trazado 103568" d="M330.319,91.477l-3.765-3.233a.876.876,0,0,0-.169-.1c-2.864-1.5-8.654,5.507-6.217,7.726h0l3.662,3.142Z" transform="translate(-276.192 -65.615)" fill="#4c4c4c" fill-rule="evenodd"/>
      <path id="Trazado_103569" data-name="Trazado 103569" d="M324.4,92.827,321,89.95a6.348,6.348,0,0,0-1.233,2.68l3.43,2.9A6.309,6.309,0,0,1,324.4,92.827Z" transform="translate(-276.071 -64.315)" fill="#333" fill-rule="evenodd"/>
      <path id="Trazado_103570" data-name="Trazado 103570" d="M322.682,98c1.284.674,3.653-.556,5.29-2.744s1.925-4.509.641-5.183-3.652.556-5.29,2.744S321.4,97.325,322.682,98Z" transform="translate(-274.712 -64.356)" fill="#333" fill-rule="evenodd"/>
      <path id="Trazado_103571" data-name="Trazado 103571" d="M324.539,92.288l-3.4-2.871c-.15.158-.294.322-.432.492l3.4,2.871C324.245,92.608,324.391,92.444,324.539,92.288Z" transform="translate(-275.47 -64.658)" fill="#333" fill-rule="evenodd"/>
      <path id="Trazado_103572" data-name="Trazado 103572" d="M329.262,91.061l-.743-.638a.756.756,0,0,0-.156-.1c-2.652-1.391-8.014,5.1-5.757,7.156h0l.646.554Z" transform="translate(-274.593 -64.197)" fill="#4c4c4c" fill-rule="evenodd"/>
      <path id="Trazado_103573" data-name="Trazado 103573" d="M323.266,98.021c1.187.625,3.382-.515,4.9-2.542s1.782-4.176.594-4.8-3.384.516-4.9,2.542S322.078,97.4,323.266,98.021Z" transform="translate(-274.298 -63.954)" fill="#333" fill-rule="evenodd"/>
      <path id="Trazado_103574" data-name="Trazado 103574" d="M323.731,88l3.543,3.022a3.9,3.9,0,0,0-1.5.495l-3.649-2.947A3.809,3.809,0,0,1,323.731,88Z" transform="translate(-274.552 -65.568)" fill="#999" fill-rule="evenodd"/>
      <path id="Trazado_103575" data-name="Trazado 103575" d="M320.064,128.366c.615,3.259,1.948,5.191,3.683,6.127,6.2,3.344,17.529-5.99,19.682-12.787.355-1.12,2.6-6.054-2.129-3.76-1.225.6,2.7-4.124.728-5.275-3.778-2.208-8.713,5.678-10.771,8.119-2.687,3.183-.266-1.182-.5-1.376-.378-.316-1.95,2.364-.712-1.4,2-6.08.88-15.7-.763-19.721-1.133-2.771-5.071-3.469-8.634.233C318.441,104.86,317.344,113.982,320.064,128.366Z" transform="translate(-276.918 -60.434)" fill="#fad228" fill-rule="evenodd"/>
      <path id="Trazado_103576" data-name="Trazado 103576" d="M335.193,106.05a15.79,15.79,0,0,1,3.468-3.239,1.721,1.721,0,0,1,2.017,1.827,1.638,1.638,0,0,1,.827,2.1,1.6,1.6,0,0,1,.316,2.147,2.771,2.771,0,0,1-.263,1.6c-.908.82-1.99,1-3.218,1.784C337.391,109.834,336.61,106.7,335.193,106.05Z" transform="translate(-266.135 -56.031)" fill="#575756" fill-rule="evenodd"/>
      <path id="Trazado_103577" data-name="Trazado 103577" d="M332.791,106.671a32.6,32.6,0,0,1,5.4,7.707c1.174-1.3,1.866-2.147,1.866-2.147-1-3.552-3.624-7.368-5.488-6.9C334.074,105.714,333.477,106.171,332.791,106.671Z" transform="translate(-267.682 -54.433)" fill="#575756" fill-rule="evenodd"/>
      <path id="Trazado_103578" data-name="Trazado 103578" d="M323.163,126.221c1.85,2.448,7.93-12.847,4.344,3.931-.5,2.355,3.168-4.461,3.443-4.91.13-.21,12.125-.855,7-5.979-.824-.824,1.541-4.2,2.894-6.544a1.139,1.139,0,0,0-.171-.123c-3.279-1.916-7.425,3.764-9.811,6.9l0-.007c-.251.33-.485.633-.694.9l-.015.018-.013.016-.056.069v0l-.015.016-.013.018-.013.016-.013.016-.094.113-.013.015-.013.016-.011.015c-2.687,3.183-.266-1.182-.5-1.376l-.025-.015,0,0-.013,0,0,0-.018,0-.012,0h-.012a.263.263,0,0,0-.049.01h0l-.008,0-.018.008h0l-.02.007-.02.01-.041.023-.007,0-.016.01-.015.01,0,0-.025.015,0,0c-.062.044-.132.1-.2.158l-.007.007-.025.02,0,0-.02.016-.015.013-.008.008-.025.021h0l-.023.02-.01.01-.013.011-.021.018,0,0-.023.02-.007.007-.016.015c-.046.038-.092.074-.135.105l-.008.008-.011.007-.018.013,0,0-.018.013-.007,0-.051.03h0l-.013.007-.012,0h0l-.023.008h0a.116.116,0,0,1-.079,0,.107.107,0,0,1-.049-.066l0,0a5.282,5.282,0,0,1,.455-1.96c2-6.08.88-15.7-.763-19.721a3.631,3.631,0,0,0-2.305-2.126c-1.754,1.065-2.917,3.432-3.555,5.245-2.057,5.84-2.047,18.194.217,18.585C328.445,120.982,322.259,125.024,323.163,126.221Z" transform="translate(-275.564 -60.36)" fill="#fce47e" fill-rule="evenodd"/>
    </g>
  </g>
</svg>
