<svg xmlns="http://www.w3.org/2000/svg" width="327.021" height="208" viewBox="0 0 327.021 208">
  <g id="Grupo_56249" data-name="Grupo 56249" transform="translate(-440.915 -61.574)">
    <g id="Grupo_56236" data-name="Grupo 56236" transform="translate(597.527 70.538)">
      <path id="Trazado_104514" data-name="Trazado 104514" d="M576.629,100.772c-2.5,2.109-.314,4.642-.314,4.642s6.818,8.016,9.773,11.815a18.21,18.21,0,0,1,3.517,11.534v44.956a3.6,3.6,0,0,1-3.585,3.585H553.808a3.6,3.6,0,0,1-3.585-3.585v-36.3c0-1.626,0-8.121.013-8.532.3-14.471,7.066-14.67,8-23.049.417-3.727,1.476-13.641,2-16.137a3,3,0,0,1,2.5-2.638h12.975a2.572,2.572,0,0,1,2.143,2.632V98A3.2,3.2,0,0,1,576.629,100.772Z" transform="translate(-550.223 -59.508)" fill="#e2e4f2" fill-rule="evenodd"/>
      <path id="Trazado_104515" data-name="Trazado 104515" d="M575.234,99.886c-2.5,2.109-.314,4.642-.314,4.642s6.818,8.016,9.773,11.815a18.21,18.21,0,0,1,3.517,11.534v44.956a3.6,3.6,0,0,1-3.585,3.585H557.031a3.6,3.6,0,0,1-3.585-3.585v-36.3c0-1.626,0-8.121.013-8.532.3-14.471,7.065-14.67,8-23.049.417-3.727,1.477-10.71,2-13.206a3,3,0,0,1,2.5-2.638h10.5v8.009A3.2,3.2,0,0,1,575.234,99.886Z" transform="translate(-548.828 -58.622)" fill="#fff" fill-rule="evenodd"/>
      <path id="Rectángulo_5700" data-name="Rectángulo 5700" d="M.219,0H1.672A.219.219,0,0,1,1.89.219V3.833a.219.219,0,0,1-.219.219H.217A.217.217,0,0,1,0,3.834V.219A.219.219,0,0,1,.219,0Z" transform="translate(18.059 29.148)" fill="#e94b46"/>
      <rect id="Rectángulo_5701" data-name="Rectángulo 5701" width="7.798" height="9.66" rx="0.901" transform="translate(15.106 21.799)" fill="#e2e4f2"/>
      <path id="Trazado_104516" data-name="Trazado 104516" d="M573.377,104.3s-1.328-1.744-4.222-.974-5.2,3.371-7.147,3.848,8.1,3.737,10.078,2.308A3.9,3.9,0,0,0,573.377,104.3Z" transform="translate(-545.23 -52.553)" fill="#e94b46" fill-rule="evenodd"/>
      <path id="Trazado_104517" data-name="Trazado 104517" d="M577.705,103.951c2.037,2.417,4.05,4.863,5.97,7.329a15.932,15.932,0,0,1,3.047,10.174v44.956a1.377,1.377,0,0,1-1.367,1.368H553.143a1.38,1.38,0,0,1-1.37-1.368v-36.3c0-2.817-.043-5.674.014-8.486a25.291,25.291,0,0,1,1.926-9.949,42.951,42.951,0,0,1,3.252-5.384c3.447-4.662,9.843,1.146,15.706.99C577.74,107.146,577.788,104.63,577.705,103.951Z" transform="translate(-549.559 -52.199)" fill="#e94b46" fill-rule="evenodd"/>
      <path id="Trazado_104518" data-name="Trazado 104518" d="M576.975,103.951c2.037,2.417,4.05,4.863,5.97,7.329a15.932,15.932,0,0,1,3.048,10.174v44.956a1.377,1.377,0,0,1-1.367,1.368H553.718a3.55,3.55,0,0,1-.272-1.368v-36.3c0-1.626,0-8.121.013-8.532.212-10.105,3.572-13.252,5.9-17.083,3.523-.311,8.2,2.9,12.582,2.785C577.009,107.146,577.058,104.63,576.975,103.951Z" transform="translate(-548.828 -52.199)" fill="#ff7373" fill-rule="evenodd"/>
      <path id="Rectángulo_5702" data-name="Rectángulo 5702" d="M.531,0H5.06a.529.529,0,0,1,.529.529v3a.531.531,0,0,1-.531.531H.529A.529.529,0,0,1,0,3.534v-3A.531.531,0,0,1,.531,0Z" transform="translate(40.304 1.212)" fill="#6d6e7e"/>
      <path id="Rectángulo_5703" data-name="Rectángulo 5703" d="M1.075,0H8.226A1.074,1.074,0,0,1,9.3,1.074V8.585A1.074,1.074,0,0,1,8.226,9.659H1.075A1.075,1.075,0,0,1,0,8.585V1.075A1.075,1.075,0,0,1,1.075,0Z" transform="translate(14.354 14.784)" fill="#809b7f"/>
      <rect id="Rectángulo_5704" data-name="Rectángulo 5704" width="18.567" height="4.324" rx="1.358" transform="translate(8.819 12.209)" fill="#2d5b68"/>
      <path id="Trazado_104519" data-name="Trazado 104519" d="M577.912,71.465l3.244,1.281v6.973a16.79,16.79,0,0,0,3.032,9.653s.318.778-.434.778h-1.291a3.677,3.677,0,0,1-2.639-1.595c-1.212-1.585-6.172-13.187-6.172-13.187Z" transform="translate(-540.084 -66.258)" fill="#8fccee" fill-rule="evenodd"/>
      <path id="Trazado_104520" data-name="Trazado 104520" d="M577.912,71.465l3.244,1.281v3.1l-5.681,3.708c-1.029-2.328-1.824-4.184-1.824-4.184Z" transform="translate(-540.084 -66.258)" fill="#71aee1" fill-rule="evenodd"/>
      <path id="Trazado_104521" data-name="Trazado 104521" d="M555.161,77.027v3.381c0,1.794,1.292,1.794,1.292,1.794H575.76a3.549,3.549,0,0,0,1.661-.765s5.775-5.089,6.909-6.065,3.747-1.053,3.747-1.053l-3.06-4.01-17.826-2.477h-3.241a3.591,3.591,0,0,0-2.162.593c-.609.633-5.513,5.988-5.513,5.988A4.03,4.03,0,0,0,555.161,77.027Z" transform="translate(-548.086 -67.831)" fill="#8de7ff" fill-rule="evenodd"/>
      <path id="Rectángulo_5705" data-name="Rectángulo 5705" d="M1.116,0H13.107a1.116,1.116,0,0,1,1.116,1.116V8.544A1.116,1.116,0,0,1,13.107,9.66H1.115A1.115,1.115,0,0,1,0,8.545V1.116A1.116,1.116,0,0,1,1.116,0Z" transform="translate(11.893 17.896)" fill="#8de7ff"/>
      <path id="Rectángulo_5706" data-name="Rectángulo 5706" d="M1.116,0H9.662a1.116,1.116,0,0,1,1.116,1.116V8.544A1.116,1.116,0,0,1,9.662,9.66H1.115A1.115,1.115,0,0,1,0,8.545V1.116A1.116,1.116,0,0,1,1.116,0Z" transform="translate(15.338 17.896)" fill="#bdf1ff"/>
      <path id="Rectángulo_5707" data-name="Rectángulo 5707" d="M.847,0H25.366a.847.847,0,0,1,.847.847V5.642a.846.846,0,0,1-.846.846H.846A.846.846,0,0,1,0,5.642V.847A.847.847,0,0,1,.847,0Z" transform="translate(17.097)" fill="#bdf1ff"/>
      <path id="Rectángulo_5708" data-name="Rectángulo 5708" d="M2.454,0H20.266a2.455,2.455,0,0,1,2.455,2.455V31.846A2.453,2.453,0,0,1,20.269,34.3H2.456A2.456,2.456,0,0,1,0,31.844V2.454A2.454,2.454,0,0,1,2.454,0Z" transform="translate(8.329 70.99)" fill="#fff"/>
    </g>
    <g id="Grupo_56237" data-name="Grupo 56237" transform="translate(659.768 80.465)">
      <rect id="Rectángulo_5709" data-name="Rectángulo 5709" width="4.883" height="44.625" transform="translate(3.014 43.919)" fill="#e0ac9e"/>
      <path id="Trazado_104522" data-name="Trazado 104522" d="M625.162,83.063V84.4a4.9,4.9,0,0,0,1.479,3.258l11.633,11.634s3.838,3.506,3.838,7.218v75.542a5.836,5.836,0,0,1-5.82,5.821h-36.8a5.838,5.838,0,0,1-5.824-5.821V160.594a2.956,2.956,0,0,1,3.207-2.867h7.071s2.867-.287,2.867-3.727V123.559c0-3.44-2.867-3.725-2.867-3.725H596.87c-3.123,0-3.063-1.659-3.207-2.868V106.509c0-3.712,3.839-7.218,3.839-7.218l11.634-11.634a4.9,4.9,0,0,0,1.477-3.258v-4.7h14.548Z" transform="translate(-593.664 -72.623)" fill="#bdf1ff" fill-rule="evenodd"/>
      <path id="Rectángulo_5710" data-name="Rectángulo 5710" d="M1.116,0H16.254a1.117,1.117,0,0,1,1.117,1.117V8.543A1.117,1.117,0,0,1,16.254,9.66H1.117A1.117,1.117,0,0,1,0,8.543V1.116A1.116,1.116,0,0,1,1.116,0Z" transform="translate(15.539 0)" fill="#ff7373"/>
      <path id="Trazado_104523" data-name="Trazado 104523" d="M614.128,76.359v6.46a1.6,1.6,0,0,1-1.6,1.6h4.281a1.352,1.352,0,0,0,.189-.013,1.6,1.6,0,0,0,1.411-1.586v-6.46a1.6,1.6,0,0,0-1.6-1.6h-4.281A1.6,1.6,0,0,1,614.128,76.359Z" transform="translate(-585.5 -74.759)" fill="#e94b46" fill-rule="evenodd"/>
      <path id="Trazado_104524" data-name="Trazado 104524" d="M623.522,98.513s3.836,3.506,3.836,7.218v75.542a5.837,5.837,0,0,1-5.82,5.821h7.506a5.836,5.836,0,0,0,5.82-5.821V105.731c0-3.712-3.838-7.218-3.838-7.218L619.393,86.879a4.9,4.9,0,0,1-1.479-3.258V81.492a1.354,1.354,0,0,1-.189.013h-7.314v2.116a4.884,4.884,0,0,0,1.479,3.258C613.393,88.385,623.522,98.513,623.522,98.513Z" transform="translate(-586.417 -71.845)" fill="#8de7ff" fill-rule="evenodd"/>
    </g>
    <g id="Grupo_56238" data-name="Grupo 56238" transform="translate(570.037 102.229)">
      <path id="Trazado_104525" data-name="Trazado 104525" d="M540.809,91.357h4.971a3.2,3.2,0,0,1,3.187,3.188v10.38A5.689,5.689,0,0,1,543.3,110.6h0a5.691,5.691,0,0,1-5.675-5.675V94.545A3.2,3.2,0,0,1,540.809,91.357Z" transform="translate(-528.187 -89.34)" fill="#a42429" fill-rule="evenodd"/>
      <path id="Trazado_104526" data-name="Trazado 104526" d="M546.144,189.166h11.521a3.593,3.593,0,0,0,3.585-3.585v-36.3c0-1.628-.006-8.124-.014-8.534-.3-14.471-7.065-14.67-8-23.049-.417-3.727-1.477-13.641-2-16.137a3,3,0,0,0-2.5-2.638h-5.181a3,3,0,0,0-2.494,2.638c-.527,2.5-1.587,12.411-2,16.137-.939,8.379-7.7,8.578-8,23.049-.01.41-.014,6.906-.016,8.534v36.3a3.6,3.6,0,0,0,3.588,3.585Z" transform="translate(-531.036 -86.063)" fill="#fad228" fill-rule="evenodd"/>
      <path id="Trazado_104527" data-name="Trazado 104527" d="M540.214,114.344l0,.007v.007a16.867,16.867,0,0,1-2.106,4.847,53.124,53.124,0,0,0-3.578,5.9,25.268,25.268,0,0,0-1.924,9.951c-.056,2.814-.013,5.668-.013,8.488v36.3a1.38,1.38,0,0,0,1.37,1.371H557a1.382,1.382,0,0,0,1.37-1.371v-36.3c0-2.82.041-5.674-.014-8.488a25.29,25.29,0,0,0-1.926-9.949,52.956,52.956,0,0,0-3.578-5.9,16.927,16.927,0,0,1-2.106-4.85l0,0s-.586-2.166-2.009-2.166h-6.516C540.863,112.192,540.266,114.159,540.214,114.344Z" transform="translate(-530.371 -80.323)" fill="#fff" fill-rule="evenodd"/>
      <path id="Rectángulo_5711" data-name="Rectángulo 5711" d="M1.116,0H13.108a1.116,1.116,0,0,1,1.116,1.116V8.543A1.117,1.117,0,0,1,13.107,9.66H1.116A1.116,1.116,0,0,1,0,8.544V1.116A1.116,1.116,0,0,1,1.116,0Z" transform="translate(7.995 12.825)" fill="#a42429"/>
      <path id="Trazado_104528" data-name="Trazado 104528" d="M541.25,94.778h2.126a1.368,1.368,0,0,1,1.365,1.365V107.9a2.435,2.435,0,0,1-2.427,2.429h0a2.434,2.434,0,0,1-2.426-2.429V96.143A1.368,1.368,0,0,1,541.25,94.778Z" transform="translate(-527.206 -87.859)" fill="#e94b46" fill-rule="evenodd"/>
      <path id="Trazado_104529" data-name="Trazado 104529" d="M541.25,94.778h2.126a1.368,1.368,0,0,1,1.365,1.365v2.072l-4.856-2.033v-.039A1.368,1.368,0,0,1,541.25,94.778Z" transform="translate(-527.206 -87.859)" fill="#a42429" fill-rule="evenodd"/>
      <rect id="Rectángulo_5712" data-name="Rectángulo 5712" width="7.51" height="7.509" rx="0.659" transform="translate(11.353)" fill="#e94b46"/>
      <path id="Trazado_104530" data-name="Trazado 104530" d="M540.5,95.747h3.79a.465.465,0,0,0,.467-.467V91.49a.467.467,0,0,0-.138-.33.462.462,0,0,0-.33-.138H540.5a.469.469,0,0,0-.469.467v3.79a.462.462,0,0,0,.137.33.457.457,0,0,0,.331.138Zm3.79.34H540.5a.807.807,0,0,1-.807-.807V91.49a.809.809,0,0,1,.807-.805h3.79a.81.81,0,0,1,.805.805v3.79a.81.81,0,0,1-.805.807Z" transform="translate(-527.289 -89.631)" fill="#ff7373" fill-rule="evenodd"/>
      <path id="Trazado_104531" data-name="Trazado 104531" d="M541.84,93.687a.858.858,0,1,0-.858-.858A.859.859,0,0,0,541.84,93.687Z" transform="translate(-526.732 -89.074)" fill="#ff7373" fill-rule="evenodd"/>
    </g>
    <g id="Grupo_56239" data-name="Grupo 56239" transform="translate(626.541 107.402)">
      <path id="Trazado_104532" data-name="Trazado 104532" d="M595.255,113.164h0a3.819,3.819,0,0,0,3.808-3.808V97.367a3.819,3.819,0,0,0-3.808-3.807h0a3.819,3.819,0,0,0-3.808,3.807v11.989A3.819,3.819,0,0,0,595.255,113.164Z" transform="translate(-561.396 -93.56)" fill="#2d5b68" fill-rule="evenodd"/>
      <path id="Trazado_104533" data-name="Trazado 104533" d="M592.184,99.8h6.993A1.726,1.726,0,0,0,600.9,98.08h0a1.727,1.727,0,0,0-1.722-1.722h-6.993a1.725,1.725,0,0,0-1.719,1.722h0A1.724,1.724,0,0,0,592.184,99.8Z" transform="translate(-561.821 -92.349)" fill="#e94b46" fill-rule="evenodd"/>
      <path id="Rectángulo_5713" data-name="Rectángulo 5713" d="M3.192,0H13.57a3.193,3.193,0,0,1,3.193,3.193V16.414A3.191,3.191,0,0,1,13.572,19.6H3.191A3.191,3.191,0,0,1,0,16.414V3.192A3.192,3.192,0,0,1,3.192,0Z" transform="translate(25.48 8.723)" fill="#ce7e31"/>
      <path id="Trazado_104534" data-name="Trazado 104534" d="M580.78,135.338c-16.6,22.785-9.183,43.063-4.9,50.806s10.647,12.891,15.484,12.891H617.3c4.837,0,11.2-5.149,15.485-12.891s11.7-28.021-4.9-50.806c-7.489-9.918-13.5-15.544-13.5-21.732v-8.9c0-1.652-1.268-1.48-1.268-1.48H595.549s-1.267-.172-1.267,1.48v8.9C594.283,119.794,588.272,125.42,580.78,135.338Z" transform="translate(-570.473 -89.378)" fill="#fdeda9" fill-rule="evenodd"/>
      <path id="Trazado_104535" data-name="Trazado 104535" d="M613.39,123.165s-5.356-5.185-20.089.532,17.444,7.7,20.3,7.4S614.923,125.6,613.39,123.165Z" transform="translate(-562.257 -81.681)" fill="#dbb826" fill-rule="evenodd"/>
      <path id="Trazado_104536" data-name="Trazado 104536" d="M585.024,124.577c-1.056,1.335-2.1,2.681-3.115,4.052-6.394,8.684-10.3,18.738-9.895,29.615a42.879,42.879,0,0,0,5.152,18.806,30.655,30.655,0,0,0,7.009,8.713c1.7,1.4,4.247,3.036,6.538,3.036h25.929c2.29,0,4.84-1.635,6.538-3.036a30.6,30.6,0,0,0,7.009-8.713,42.9,42.9,0,0,0,5.152-18.806c.4-10.878-3.5-20.931-9.895-29.615-1.448-1.964-2.974-3.877-4.5-5.788C626.894,135.245,595.075,114.62,585.024,124.577Z" transform="translate(-569.818 -81.356)" fill="#fad228" fill-rule="evenodd"/>
      <path id="Trazado_104537" data-name="Trazado 104537" d="M587.359,105.842h20.968a1.892,1.892,0,0,0,1.89-1.888h0a1.9,1.9,0,0,0-1.89-1.891H587.359a1.9,1.9,0,0,0-1.89,1.891h0A1.892,1.892,0,0,0,587.359,105.842Z" transform="translate(-563.983 -89.881)" fill="#e94b46" fill-rule="evenodd"/>
    </g>
    <g id="Grupo_56240" data-name="Grupo 56240" transform="translate(440.925 61.574)">
      <path id="Rectángulo_5714" data-name="Rectángulo 5714" d="M1.489,0H16.483a1.488,1.488,0,0,1,1.488,1.488V18.394a1.49,1.49,0,0,1-1.49,1.49H1.489A1.489,1.489,0,0,1,0,18.395V1.489A1.489,1.489,0,0,1,1.489,0Z" transform="translate(70.888 159.495)" fill="#efc432"/>
      <path id="Trazado_104538" data-name="Trazado 104538" d="M498.5,178.209h14.107a11.271,11.271,0,0,0,11.233-11.231V92.536a25.34,25.34,0,0,0-50.68,0V152.87a25.425,25.425,0,0,0,25.34,25.34Zm14.107,5.622H498.5a31.046,31.046,0,0,1-30.962-30.962V92.536a30.963,30.963,0,0,1,61.925,0v74.442a16.9,16.9,0,0,1-16.856,16.854Z" transform="translate(-429.403 -61.574)" fill="#131742" fill-rule="evenodd"/>
      <path id="Rectángulo_5715" data-name="Rectángulo 5715" d="M.947,0H5.488a.946.946,0,0,1,.946.946V16.312a.946.946,0,0,1-.946.946H.947A.947.947,0,0,1,0,16.311V.947A.947.947,0,0,1,.947,0Z" transform="translate(74.389 110.818)" fill="#465ea6"/>
      <path id="Rectángulo_5716" data-name="Rectángulo 5716" d="M2.245,0h17.9a2.246,2.246,0,0,1,2.246,2.246V8.713a2.244,2.244,0,0,1-2.244,2.244H2.244A2.244,2.244,0,0,1,0,8.713V2.245A2.245,2.245,0,0,1,2.245,0Z" transform="translate(29.753 30.661)" fill="#1d204d"/>
      <path id="Rectángulo_5717" data-name="Rectángulo 5717" d="M5.68,0H67.641a5.68,5.68,0,0,1,5.68,5.68V62.874a5.681,5.681,0,0,1-5.681,5.681H5.681A5.681,5.681,0,0,1,0,62.874V5.68A5.68,5.68,0,0,1,5.68,0Z" transform="translate(4.285 92.075)" fill="#131742"/>
      <path id="Rectángulo_5718" data-name="Rectángulo 5718" d="M2.762,0H79.129a2.762,2.762,0,0,1,2.762,2.762v27.8a2.76,2.76,0,0,1-2.76,2.76H2.761A2.761,2.761,0,0,1,0,30.563V2.762A2.762,2.762,0,0,1,2.762,0Z" transform="translate(0 152.776)" fill="#131742"/>
      <rect id="Rectángulo_5719" data-name="Rectángulo 5719" width="66.173" height="9.282" rx="2.824" transform="translate(7.859 36.14)" fill="#2d5b68"/>
      <path id="Rectángulo_5720" data-name="Rectángulo 5720" d="M5.484,0H60.689a5.483,5.483,0,0,1,5.483,5.483V118.531a5.483,5.483,0,0,1-5.483,5.483H5.483A5.483,5.483,0,0,1,0,118.531V5.484A5.484,5.484,0,0,1,5.484,0Z" transform="translate(7.859 45.423)" fill="#b1b1ab"/>
      <path id="Rectángulo_5721" data-name="Rectángulo 5721" d="M5.483,0H49.432a5.484,5.484,0,0,1,5.484,5.484V118.531a5.483,5.483,0,0,1-5.483,5.483H5.483A5.483,5.483,0,0,1,0,118.531V5.483A5.483,5.483,0,0,1,5.483,0Z" transform="translate(7.859 45.423)" fill="#fff"/>
      <path id="Rectángulo_5722" data-name="Rectángulo 5722" d="M5.484,0H36.142a5.483,5.483,0,0,1,5.483,5.483V118.531a5.483,5.483,0,0,1-5.483,5.483H5.483A5.483,5.483,0,0,1,0,118.531V5.484A5.484,5.484,0,0,1,5.484,0Z" transform="translate(21.15 45.423)" fill="#e3e4e4"/>
      <path id="Rectángulo_5723" data-name="Rectángulo 5723" d="M5.482,0H60.689a5.483,5.483,0,0,1,5.483,5.483V33.078a5.484,5.484,0,0,1-5.484,5.484H5.483A5.483,5.483,0,0,1,0,33.079V5.482A5.482,5.482,0,0,1,5.482,0Z" transform="translate(7.859 169.438)" fill="#2f4697"/>
      <path id="Rectángulo_5724" data-name="Rectángulo 5724" d="M5.482,0h43.95a5.483,5.483,0,0,1,5.483,5.483V33.078a5.484,5.484,0,0,1-5.484,5.484H5.483A5.483,5.483,0,0,1,0,33.079V5.482A5.482,5.482,0,0,1,5.482,0Z" transform="translate(7.859 169.438)" fill="#69d1ff"/>
      <path id="Rectángulo_5725" data-name="Rectángulo 5725" d="M5.482,0h30.66a5.483,5.483,0,0,1,5.483,5.483V33.078a5.484,5.484,0,0,1-5.484,5.484H5.483A5.483,5.483,0,0,1,0,33.079V5.482A5.482,5.482,0,0,1,5.482,0Z" transform="translate(21.15 169.438)" fill="#468ca5"/>
      <path id="Trazado_104539" data-name="Trazado 104539" d="M478.582,86.8a4.057,4.057,0,0,1,4.046,4.046v1.189a4.057,4.057,0,0,1-4.046,4.046h16.027a4.057,4.057,0,0,0,4.046-4.046V90.844a4.057,4.057,0,0,0-4.046-4.046Z" transform="translate(-424.624 -50.658)" fill="#131742" fill-rule="evenodd"/>
    </g>
    <g id="Grupo_56242" data-name="Grupo 56242" transform="translate(520.787 74.756)">
      <path id="Trazado_104540" data-name="Trazado 104540" d="M496.662,104.735a13.508,13.508,0,0,1,3.9-10.127l13.924-13.924c2.991-2.99,4.628-1.533,4.628-1.533l5.523-1.315,4.29,6.93-.735,3.368V89.47a4.9,4.9,0,0,0,1.479,3.258L541.3,104.362s3.84,3.5,3.84,7.218v75.542a5.838,5.838,0,0,1-5.823,5.821H502.485a5.838,5.838,0,0,1-5.823-5.821Z" transform="translate(-496.662 -67.719)" fill="#0dcea9" fill-rule="evenodd"/>
      <path id="Trazado_104541" data-name="Trazado 104541" d="M496.672,103.99a13.267,13.267,0,0,1,3.884-9.382L514.48,80.684c2.992-2.99,4.628-1.533,4.628-1.533l5.523-1.315,4.29,6.93-.735,3.368V89.47a4.9,4.9,0,0,0,1.479,3.258l-7.033-7.091s-2.492-2.345-5.717.586-17.005,17.884-17.005,17.884S497.941,106.183,496.672,103.99Z" transform="translate(-496.658 -67.719)" fill="#11f2c6" fill-rule="evenodd"/>
      <path id="Trazado_104542" data-name="Trazado 104542" d="M498.209,101.114s.3-2.3,5.427-2.4S518.978,104,522.838,104s-11.482,5.131-17.053,4.5S498.455,104.533,498.209,101.114Z" transform="translate(-495.992 -58.682)" fill="#065949" fill-rule="evenodd"/>
      <path id="Trazado_104543" data-name="Trazado 104543" d="M498.209,100.467v76.972a3.622,3.622,0,0,0,3.606,3.606h36.832a3.622,3.622,0,0,0,3.6-3.606V104.768c0-9.771-16.775-1.076-30.261.88S498.209,100.467,498.209,100.467Z" transform="translate(-495.992 -58.035)" fill="#098970" fill-rule="evenodd"/>
      <path id="Trazado_104544" data-name="Trazado 104544" d="M519.973,80.956l2.482,2.482a1.024,1.024,0,0,0,1.588-.126l5.843-7.872a1.457,1.457,0,0,0-.125-1.838l-1.218-1.216-1.216-1.218a1.455,1.455,0,0,0-1.837-.125l-7.872,5.844a1.021,1.021,0,0,0-.126,1.586Z" transform="translate(-487.786 -70.775)" fill="#065949" fill-rule="evenodd"/>
      <path id="Rectángulo_5726" data-name="Rectángulo 5726" d="M1.235,0h8.22a1.235,1.235,0,0,1,1.235,1.235V14.88a1.236,1.236,0,0,1-1.236,1.236H1.234A1.234,1.234,0,0,1,0,14.882V1.235A1.235,1.235,0,0,1,1.235,0Z" transform="translate(20.995 9.978) rotate(-45)" fill="#098970"/>
      <path id="Rectángulo_5727" data-name="Rectángulo 5727" d="M2.9,0H32.239a2.9,2.9,0,0,1,2.9,2.9V50.374a2.9,2.9,0,0,1-2.9,2.9H2.9a2.9,2.9,0,0,1-2.9-2.9V2.9A2.9,2.9,0,0,1,2.9,0Z" transform="translate(6.669 56.549)" fill="#fff"/>
      <path id="Trazado_104545" data-name="Trazado 104545" d="M523.629,80.732l-3.614,3.613-.937.937a1.772,1.772,0,0,1-2.5,0l2.6,2.606a1.774,1.774,0,0,0,2.5,0l5.058-5.058a1.778,1.778,0,0,0,0-2.5l-1.413-1.413-1.194-1.192a1.772,1.772,0,0,1,0,2.5Z" transform="translate(-488.044 -67.767)" fill="#065949" fill-rule="evenodd"/>
      <g id="Grupo_56241" data-name="Grupo 56241" transform="translate(8.982 94.34)">
        <path id="Rectángulo_5728" data-name="Rectángulo 5728" d="M.9,0h9.5a.9.9,0,0,1,.9.9V11.7a.906.906,0,0,1-.906.906H.9a.9.9,0,0,1-.9-.9V.9A.9.9,0,0,1,.9,0Z" fill="#131742"/>
        <path id="Trazado_104546" data-name="Trazado 104546" d="M503.55,142.118l1.421-3.747a.333.333,0,0,1,.319-.216l3.076.017a.331.331,0,0,1,.211.059.337.337,0,0,1,.089.47l-1.2,1.757h.8a.348.348,0,0,1,.16.039.342.342,0,0,1,.139.461l-2.772,5.22a.339.339,0,0,1-.629-.244l.9-3.354h-2.186a.409.409,0,0,1-.122-.024A.338.338,0,0,1,503.55,142.118Z" transform="translate(-502.673 -135.956)" fill="#d1ac38" fill-rule="evenodd"/>
        <path id="Trazado_104547" data-name="Trazado 104547" d="M508.36,138.787a.169.169,0,0,1,0-.338h1.946a.169.169,0,0,1,0,.338Zm0,7.021a.169.169,0,1,1,0-.338h1.946a.169.169,0,0,1,0,.338Zm0-1.4a.171.171,0,0,1,0-.341h1.946a.171.171,0,0,1,0,.341Zm0-1.4a.171.171,0,0,1,0-.342h1.946a.171.171,0,0,1,0,.342Zm0-1.406a.171.171,0,0,1,0-.342h1.946a.171.171,0,0,1,0,.342Zm0-1.4a.171.171,0,0,1-.169-.172.169.169,0,0,1,.169-.168h1.946a.169.169,0,0,1,.169.168.171.171,0,0,1-.169.172Z" transform="translate(-500.655 -135.828)" fill="#fff" fill-rule="evenodd"/>
      </g>
      <path id="Trazado_104548" data-name="Trazado 104548" d="M518.809,90.334a.553.553,0,1,1,.792-.771l7.658,7.9a.553.553,0,0,1-.792.772l-7.658-7.9Zm9.6,9.9a.553.553,0,1,1,.792-.771l.738.759a.553.553,0,0,1-.792.772Z" transform="translate(-487.145 -62.716)" fill="#fff" fill-rule="evenodd"/>
      <path id="Trazado_104549" data-name="Trazado 104549" d="M515.86,116.211h2.533a1.693,1.693,0,0,1,1.688,1.688V125h7.1a1.693,1.693,0,0,1,1.688,1.688v2.532a1.693,1.693,0,0,1-1.688,1.688h-7.1v7.1a1.693,1.693,0,0,1-1.688,1.689H515.86a1.693,1.693,0,0,1-1.686-1.689v-7.1h-7.1a1.693,1.693,0,0,1-1.688-1.688V126.69A1.692,1.692,0,0,1,507.07,125h7.1v-7.1A1.693,1.693,0,0,1,515.86,116.211Z" transform="translate(-492.888 -51.112)" fill="#e94b46" fill-rule="evenodd"/>
      <path id="Trazado_104550" data-name="Trazado 104550" d="M521.588,112.764a.246.246,0,1,1,0-.491h2.81a.246.246,0,0,1,0,.491Zm0,10.15a.246.246,0,0,1,0-.493h2.81a.246.246,0,0,1,0,.493Zm0-2.03a.246.246,0,1,1,0-.491h2.81a.246.246,0,0,1,0,.491Zm0-2.029a.246.246,0,0,1,0-.493h2.81a.246.246,0,0,1,0,.493Zm0-2.03a.246.246,0,1,1,0-.491h2.81a.246.246,0,0,1,0,.491Zm0-2.029a.246.246,0,1,1,0-.491h2.81a.246.246,0,0,1,0,.491Z" transform="translate(-485.981 -52.816)" fill="#131742" fill-rule="evenodd"/>
    </g>
    <g id="Grupo_56243" data-name="Grupo 56243" transform="translate(530.991 151.927)">
      <rect id="Rectángulo_5729" data-name="Rectángulo 5729" width="4.886" height="44.624" transform="translate(40.547 43.919)" fill="#e94b46"/>
      <path id="Trazado_104551" data-name="Trazado 104551" d="M520.731,132.941v1.335a4.894,4.894,0,0,1-1.477,3.258c-1.5,1.506-11.633,11.633-11.633,11.633s-3.837,3.506-3.837,7.22v75.541a5.837,5.837,0,0,0,5.82,5.821h36.8a5.838,5.838,0,0,0,5.823-5.821V210.471a2.955,2.955,0,0,0-3.206-2.867h-7.071s-2.867-.287-2.867-3.725V173.437c0-3.441,2.867-3.727,2.867-3.727h7.071c3.123,0,3.065-1.661,3.206-2.867V156.387c0-3.714-3.838-7.22-3.838-7.22s-10.128-10.127-11.633-11.633a4.894,4.894,0,0,1-1.477-3.258v-4.7H520.731Z" transform="translate(-503.784 -122.499)" fill="#468ca5" fill-rule="evenodd"/>
      <path id="Rectángulo_5730" data-name="Rectángulo 5730" d="M1.117,0H16.252a1.116,1.116,0,0,1,1.116,1.116V8.543A1.117,1.117,0,0,1,16.251,9.66H1.115A1.115,1.115,0,0,1,0,8.545V1.117A1.117,1.117,0,0,1,1.117,0Z" transform="translate(15.538 0)" fill="#e94b46"/>
      <path id="Trazado_104552" data-name="Trazado 104552" d="M518.909,126.236v6.46a1.605,1.605,0,0,0,1.6,1.6h-4.281c-.064,0-.128-.006-.191-.011a1.6,1.6,0,0,1-1.408-1.588v-6.46a1.6,1.6,0,0,1,1.6-1.6h4.281A1.6,1.6,0,0,0,518.909,126.236Z" transform="translate(-499.091 -124.636)" fill="#a42429" fill-rule="evenodd"/>
      <path id="Trazado_104553" data-name="Trazado 104553" d="M515.126,148.39s-3.837,3.506-3.837,7.22V231.15a5.838,5.838,0,0,0,5.821,5.821H509.6a5.837,5.837,0,0,1-5.82-5.821V155.609c0-3.714,3.837-7.22,3.837-7.22s10.128-10.127,11.633-11.633a4.894,4.894,0,0,0,1.477-3.258V131.37c.063.006.126.012.191.012h7.316V133.5a4.892,4.892,0,0,1-1.479,3.258C525.254,138.263,515.126,148.39,515.126,148.39Z" transform="translate(-503.784 -121.722)" fill="#2d5b68" fill-rule="evenodd"/>
      <path id="Trazado_104554" data-name="Trazado 104554" d="M526.744,136.312a.553.553,0,0,0-.781-.01.548.548,0,0,0-.012.779l8.875,9.158a.551.551,0,1,0,.792-.767l-8.875-9.161Zm11.141,11.5a.552.552,0,1,0-.792.769l.953.98a.551.551,0,1,0,.792-.767Z" transform="translate(-494.259 -119.655)" fill="#fff" fill-rule="evenodd"/>
    </g>
    <g id="Grupo_56244" data-name="Grupo 56244" transform="translate(708.464 83.674)">
      <path id="Trazado_104555" data-name="Trazado 104555" d="M645.17,109.939c2.5,2.11.318,4.644.318,4.644s-6.823,8.016-9.776,11.815a18.218,18.218,0,0,0-3.515,11.534v44.953a3.6,3.6,0,0,0,3.585,3.586h32.21a3.6,3.6,0,0,0,3.585-3.586v-36.3c0-1.628,0-8.122-.012-8.535-.305-14.469-7.068-14.667-8-23.046-.416-3.728-1.476-13.643-2-16.139a3,3,0,0,0-2.5-2.636H646.087a2.571,2.571,0,0,0-2.145,2.631v8.309A3.191,3.191,0,0,0,645.17,109.939Z" transform="translate(-625.683 -68.675)" fill="#ced1e8" fill-rule="evenodd"/>
      <path id="Trazado_104556" data-name="Trazado 104556" d="M645.17,109.054c2.5,2.11.318,4.644.318,4.644s-6.823,8.016-9.776,11.815a18.218,18.218,0,0,0-3.515,11.534V182a3.6,3.6,0,0,0,3.585,3.586h27.592A3.6,3.6,0,0,0,666.96,182V145.7c0-1.628-.006-8.122-.012-8.535-.305-14.469-7.068-14.667-8-23.046-.415-3.727-1.479-10.711-2-13.209a3,3,0,0,0-2.5-2.636h-10.5v8.009A3.191,3.191,0,0,0,645.17,109.054Z" transform="translate(-625.683 -67.79)" fill="#fff" fill-rule="evenodd"/>
      <path id="Rectángulo_5731" data-name="Rectángulo 5731" d="M.219,0H1.675a.219.219,0,0,1,.219.219V3.831a.218.218,0,0,1-.218.218H.22A.22.22,0,0,1,0,3.83V.219A.219.219,0,0,1,.219,0Z" transform="translate(25.943 29.149)" fill="#8fccee"/>
      <path id="Rectángulo_5732" data-name="Rectángulo 5732" d="M.9,0h6a.9.9,0,0,1,.9.9V8.758a.9.9,0,0,1-.9.9H.9a.9.9,0,0,1-.9-.9V.9A.9.9,0,0,1,.9,0Z" transform="translate(22.99 21.8)" fill="#bddff2"/>
      <path id="Trazado_104557" data-name="Trazado 104557" d="M640.192,113.471s1.328-1.742,4.224-.971,5.2,3.371,7.147,3.847-8.1,3.738-10.078,2.31A3.9,3.9,0,0,1,640.192,113.471Z" transform="translate(-622.446 -61.72)" fill="#6aa2d8" fill-rule="evenodd"/>
      <path id="Trazado_104558" data-name="Trazado 104558" d="M642.761,113.118c-2.035,2.42-4.049,4.866-5.968,7.331a15.933,15.933,0,0,0-3.05,10.174v44.953a1.38,1.38,0,0,0,1.371,1.368h32.21a1.38,1.38,0,0,0,1.371-1.368v-36.3c0-2.818.043-5.674-.016-8.488a25.258,25.258,0,0,0-1.924-9.949,43.055,43.055,0,0,0-3.252-5.384c-3.447-4.664-9.843,1.148-15.706.99C642.728,116.314,642.682,113.8,642.761,113.118Z" transform="translate(-625.015 -61.368)" fill="#71aee1" fill-rule="evenodd"/>
      <path id="Trazado_104559" data-name="Trazado 104559" d="M642.761,113.118c-2.035,2.42-4.049,4.866-5.968,7.331a15.933,15.933,0,0,0-3.05,10.174v44.953a1.38,1.38,0,0,0,1.371,1.368H666.02a3.584,3.584,0,0,0,.271-1.368v-36.3c0-1.628-.006-8.122-.011-8.535-.214-10.1-3.573-13.249-5.9-17.08-3.525-.314-8.2,2.9-12.582,2.784C642.728,116.314,642.682,113.8,642.761,113.118Z" transform="translate(-625.015 -61.368)" fill="#8fccee" fill-rule="evenodd"/>
      <path id="Rectángulo_5733" data-name="Rectángulo 5733" d="M.53,0H5.061a.531.531,0,0,1,.531.531v3a.53.53,0,0,1-.53.53H.53A.53.53,0,0,1,0,3.531v-3A.53.53,0,0,1,.53,0Z" transform="translate(0 1.213)" fill="#2d5b68"/>
      <rect id="Rectángulo_5734" data-name="Rectángulo 5734" width="9.302" height="9.658" rx="1.074" transform="translate(22.239 14.785)" fill="#131742"/>
      <rect id="Rectángulo_5735" data-name="Rectángulo 5735" width="18.565" height="4.326" rx="1.358" transform="translate(18.509 12.209)" fill="#2d5b68"/>
      <path id="Trazado_104560" data-name="Trazado 104560" d="M635.2,80.633l-3.247,1.282v6.973a16.785,16.785,0,0,1-3.032,9.651s-.314.778.437.778h1.291a3.678,3.678,0,0,0,2.639-1.6c1.212-1.582,6.169-13.187,6.169-13.187Z" transform="translate(-627.13 -75.426)" fill="#e94b46" fill-rule="evenodd"/>
      <path id="Trazado_104561" data-name="Trazado 104561" d="M634.263,80.633l-3.247,1.282v3.1l5.684,3.708c1.03-2.33,1.821-4.187,1.821-4.187Z" transform="translate(-626.195 -75.426)" fill="#cc4040" fill-rule="evenodd"/>
      <path id="Trazado_104562" data-name="Trazado 104562" d="M664.685,86.195v3.383c0,1.794-1.291,1.794-1.291,1.794h-19.3a3.545,3.545,0,0,1-1.662-.767s-5.778-5.088-6.91-6.063-3.745-1.053-3.745-1.053l3.06-4.01L652.66,77H655.9a3.572,3.572,0,0,1,2.162.595c.608.633,5.513,5.988,5.513,5.988A4.015,4.015,0,0,1,664.685,86.195Z" transform="translate(-625.867 -76.999)" fill="#e94b46" fill-rule="evenodd"/>
      <path id="Rectángulo_5736" data-name="Rectángulo 5736" d="M1.117,0H13.108a1.117,1.117,0,0,1,1.117,1.117V8.544A1.116,1.116,0,0,1,13.11,9.66H1.116A1.116,1.116,0,0,1,0,8.544V1.117A1.117,1.117,0,0,1,1.117,0Z" transform="translate(19.777 17.897)" fill="#a42429"/>
      <path id="Rectángulo_5737" data-name="Rectángulo 5737" d="M1.117,0H9.665a1.116,1.116,0,0,1,1.116,1.116V8.543A1.117,1.117,0,0,1,9.664,9.66H1.116A1.116,1.116,0,0,1,0,8.544V1.117A1.117,1.117,0,0,1,1.117,0Z" transform="translate(19.777 17.897)" fill="#e94b46"/>
      <path id="Rectángulo_5738" data-name="Rectángulo 5738" d="M.846,0h24.52a.848.848,0,0,1,.848.848V5.642a.846.846,0,0,1-.846.846H.848A.848.848,0,0,1,0,5.64V.846A.846.846,0,0,1,.846,0Z" transform="translate(2.583 0.001)" fill="#ff7373"/>
      <path id="Rectángulo_5739" data-name="Rectángulo 5739" d="M2.456,0h17.81a2.456,2.456,0,0,1,2.456,2.456V31.847A2.456,2.456,0,0,1,20.266,34.3H2.453A2.453,2.453,0,0,1,0,31.849V2.456A2.456,2.456,0,0,1,2.456,0Z" transform="translate(14.845 70.989)" fill="#2d5b68"/>
      <path id="Trazado_104563" data-name="Trazado 104563" d="M641.836,141.039l3.258-8.575a.775.775,0,0,1,.731-.5l7.045.04a.779.779,0,0,1,.685,1.216l-2.752,4.015h1.821a.8.8,0,0,1,.365.092.78.78,0,0,1,.321,1.054l-6.346,11.954a.779.779,0,0,1-1.441-.563l2.049-7.681h-5.009a.7.7,0,0,1-.271-.052A.775.775,0,0,1,641.836,141.039Z" transform="translate(-621.534 -53.213)" fill="#8fccee" fill-rule="evenodd"/>
    </g>
    <g id="Grupo_56245" data-name="Grupo 56245" transform="translate(584.705 139.025)">
      <path id="Trazado_104564" data-name="Trazado 104564" d="M579.122,123.473v1.689a4.927,4.927,0,0,0,2,3.553c7.817,5.861,14.656,9.681,16.521,14.034s-.848,6.621-.848,6.621-1.643,1.42-3.241,2.843a4.658,4.658,0,0,0-1.288,3.775s3.46,42.2,3.46,49.657-7.106,7.641-7.106,7.641H550.951s-7.106-.181-7.106-7.641,3.461-49.657,3.461-49.657a4.664,4.664,0,0,0-1.288-3.775c-1.6-1.423-3.242-2.843-3.242-2.843s-2.714-2.267-.847-6.621,8.7-8.172,16.521-14.034a4.927,4.927,0,0,0,2-3.553v-1.689h18.675Z" transform="translate(-541.273 -112.238)" fill="#8fccee" fill-rule="evenodd"/>
      <path id="Trazado_104565" data-name="Trazado 104565" d="M547.428,146.845s.077-1.354,1.99-1.51,11.574-.311,18.424,5.616S548.523,159.9,547.428,146.845Z" transform="translate(-538.61 -102.798)" fill="#6aa2d8" fill-rule="evenodd"/>
      <path id="Trazado_104566" data-name="Trazado 104566" d="M548.469,146.374q-1.034,12.633-1.974,25.28c-.364,4.92-.719,9.843-1.029,14.766-.192,3.05-.444,6.26-.444,9.314,0,1.762.484,3.282,2.089,4.165a6.019,6.019,0,0,0,2.218.675h37.577c2.828-.119,4.4-2.067,4.4-4.84,0-3.055-.254-6.264-.446-9.314-.308-4.923-.662-9.846-1.026-14.766q-.623-8.377-1.289-16.753c-1.107-9.74-10.557-9.263-24.628-4.572S548.469,146.374,548.469,146.374Z" transform="translate(-539.651 -102.327)" fill="#fff" fill-rule="evenodd"/>
      <path id="Rectángulo_5740" data-name="Rectángulo 5740" d="M1.41,0H20.528a1.409,1.409,0,0,1,1.409,1.409v9.383A1.409,1.409,0,0,1,20.528,12.2H1.409A1.409,1.409,0,0,1,0,10.792V1.41A1.41,1.41,0,0,1,1.41,0Z" transform="translate(17.542 0)" fill="#131742"/>
      <path id="Rectángulo_5741" data-name="Rectángulo 5741" d="M1.41,0H14.325a1.41,1.41,0,0,1,1.41,1.41V10.79a1.41,1.41,0,0,1-1.41,1.41H1.409A1.409,1.409,0,0,1,0,10.792V1.41A1.41,1.41,0,0,1,1.41,0Z" transform="translate(17.542 0)" fill="#1d204d"/>
      <path id="Trazado_104567" data-name="Trazado 104567" d="M570.658,124.159H559.935v.724a4.927,4.927,0,0,0,2,3.553c7.817,5.861,14.654,9.681,16.521,14.034s-.85,6.621-.85,6.621-1.642,1.42-3.24,2.843a4.661,4.661,0,0,0-1.289,3.775s.03.36.083,1.02c5.124.135,8.313,2.394,8.929,7.8q.664,8.373,1.289,16.753c.364,4.92.718,9.843,1.026,14.766.192,3.05.446,6.26.446,9.314,0,2.772-1.569,4.721-4.4,4.84h-5.371a8.006,8.006,0,0,1-5.648,2.8h11.108s7.106-.181,7.106-7.641-3.46-49.657-3.46-49.657a4.658,4.658,0,0,1,1.288-3.775c1.6-1.423,3.241-2.843,3.241-2.843s2.714-2.267.848-6.621-8.7-8.172-16.521-14.034a4.926,4.926,0,0,1-2-3.553v-.762A2,2,0,0,1,570.658,124.159Z" transform="translate(-533.197 -111.958)" fill="#71aee1" fill-rule="evenodd"/>
      <path id="Trazado_104568" data-name="Trazado 104568" d="M578.094,154.682c-.616-5.409-3.805-7.668-8.929-7.8.529,6.48,3.381,41.867,3.381,48.637a7.693,7.693,0,0,1-1.46,4.84h5.371c2.828-.119,4.4-2.068,4.4-4.84,0-3.055-.253-6.264-.445-9.314-.308-4.923-.662-9.846-1.026-14.766Q578.76,163.058,578.094,154.682Z" transform="translate(-529.203 -102.109)" fill="#8fccee" fill-rule="evenodd"/>
      <path id="Trazado_104569" data-name="Trazado 104569" d="M558.21,128.255a.7.7,0,0,1,.847,1.109l-.811.619a.7.7,0,0,1-.848-1.108l.812-.62Zm-3.334,2.545a.7.7,0,1,1,.847,1.112l-10.9,8.324a.7.7,0,1,1-.848-1.109Z" transform="translate(-540.224 -110.231)" fill="#fff" fill-rule="evenodd"/>
      <path id="Rectángulo_5742" data-name="Rectángulo 5742" d="M1.145,0H13.139a1.144,1.144,0,0,1,1.144,1.144V14.779a1.144,1.144,0,0,1-1.144,1.144h-12A1.142,1.142,0,0,1,0,14.78V1.145A1.145,1.145,0,0,1,1.145,0Z" transform="translate(9.167 78.788)" fill="#131742"/>
      <path id="Trazado_104570" data-name="Trazado 104570" d="M554.529,173.361a.213.213,0,1,1,0-.427h2.457a.213.213,0,1,1,0,.427Zm0,8.873a.217.217,0,0,1-.214-.218.213.213,0,0,1,.214-.213h2.457a.213.213,0,0,1,.215.213.217.217,0,0,1-.215.218Zm0-1.775a.216.216,0,0,1-.214-.216.213.213,0,0,1,.214-.213h2.457a.213.213,0,0,1,.215.213.216.216,0,0,1-.215.216Zm0-1.774a.216.216,0,0,1,0-.431h2.457a.216.216,0,0,1,0,.431Zm0-1.775a.215.215,0,0,1,0-.43h2.457a.215.215,0,0,1,0,.43Zm0-1.774a.213.213,0,0,1-.214-.213.216.216,0,0,1,.214-.218h2.457a.216.216,0,0,1,.215.218.213.213,0,0,1-.215.213Z" transform="translate(-535.63 -90.833)" fill="#fff" fill-rule="evenodd"/>
      <path id="Trazado_104571" data-name="Trazado 104571" d="M554.443,179.134h0a2.779,2.779,0,1,1-5.364,1.017,2.807,2.807,0,0,1,.192-1.017h0l2.583-6.575Z" transform="translate(-537.895 -90.995)" fill="#8fccee" fill-rule="evenodd"/>
    </g>
    <g id="Grupo_56246" data-name="Grupo 56246" transform="translate(683.013 117.133)">
      <path id="Trazado_104572" data-name="Trazado 104572" d="M639.849,106.561V107.9a3.9,3.9,0,0,0,1.582,2.814c6.191,4.641,11.6,7.665,13.08,11.111s-.668,5.241-.668,5.241-1.3,1.125-2.569,2.251a3.7,3.7,0,0,0-1.02,2.987S653,165.707,653,171.613a5.769,5.769,0,0,1-5.628,6.048H617.549a5.767,5.767,0,0,1-5.625-6.048c0-5.906,2.74-39.312,2.74-39.312a3.688,3.688,0,0,0-1.02-2.987c-1.265-1.126-2.566-2.251-2.566-2.251s-2.149-1.8-.671-5.241,6.889-6.47,13.078-11.111a3.9,3.9,0,0,0,1.583-2.814v-1.335h14.78Z" transform="translate(-609.888 -97.665)" fill="#468ca5" fill-rule="evenodd"/>
      <path id="Trazado_104573" data-name="Trazado 104573" d="M614.76,125.061s.06-1.07,1.576-1.192,9.161-.246,14.585,4.444S615.627,135.4,614.76,125.061Z" transform="translate(-607.779 -90.191)" fill="#8fccee" fill-rule="evenodd"/>
      <path id="Trazado_104574" data-name="Trazado 104574" d="M615.585,124.689q-.821,10.006-1.565,20.014c-.287,3.9-.568,7.793-.812,11.69-.152,2.416-.354,4.956-.354,7.374a3.408,3.408,0,0,0,1.655,3.3,4.768,4.768,0,0,0,1.757.534h29.748a3.486,3.486,0,0,0,3.482-3.833c0-2.419-.2-4.959-.351-7.374-.248-3.9-.529-7.794-.815-11.69q-.49-6.63-1.02-13.26c-.877-7.713-8.356-7.336-19.5-3.622S615.585,124.689,615.585,124.689Z" transform="translate(-608.604 -89.82)" fill="#fff" fill-rule="evenodd"/>
      <path id="Rectángulo_5743" data-name="Rectángulo 5743" d="M1.116,0H16.251a1.117,1.117,0,0,1,1.117,1.117V8.543A1.117,1.117,0,0,1,16.251,9.66H1.115A1.115,1.115,0,0,1,0,8.545V1.116A1.116,1.116,0,0,1,1.116,0Z" transform="translate(13.888)" fill="#131742"/>
      <path id="Rectángulo_5744" data-name="Rectángulo 5744" d="M1.116,0H11.34a1.117,1.117,0,0,1,1.117,1.117V8.543A1.117,1.117,0,0,1,11.34,9.66H1.115A1.115,1.115,0,0,1,0,8.545V1.116A1.116,1.116,0,0,1,1.116,0Z" transform="translate(13.888)" fill="#2d5b68"/>
      <path id="Trazado_104575" data-name="Trazado 104575" d="M633.15,107.1h-8.489v.572a3.9,3.9,0,0,0,1.582,2.814c6.19,4.641,11.6,7.665,13.08,11.111s-.672,5.241-.672,5.241-1.3,1.125-2.566,2.251a3.7,3.7,0,0,0-1.02,2.987s.026.285.067.808c4.056.107,6.582,1.9,7.068,6.18q.527,6.628,1.02,13.26c.287,3.9.567,7.793.815,11.69.149,2.416.351,4.956.351,7.374a3.486,3.486,0,0,1-3.482,3.833h-4.251a6.334,6.334,0,0,1-4.474,2.215h8.8a5.769,5.769,0,0,0,5.628-6.048c0-5.906-2.742-39.312-2.742-39.312a3.7,3.7,0,0,1,1.02-2.987c1.268-1.126,2.569-2.251,2.569-2.251s2.146-1.8.668-5.241-6.889-6.47-13.08-11.111a3.9,3.9,0,0,1-1.582-2.814v-.6A1.53,1.53,0,0,1,633.15,107.1Z" transform="translate(-603.494 -97.444)" fill="#2d5b68" fill-rule="evenodd"/>
      <path id="Trazado_104576" data-name="Trazado 104576" d="M639.037,131.27c-.486-4.284-3.012-6.072-7.068-6.18.415,5.132,2.672,33.141,2.672,38.5a6.1,6.1,0,0,1-1.15,3.833h4.251a3.486,3.486,0,0,0,3.482-3.833c0-2.419-.2-4.959-.351-7.374-.248-3.9-.529-7.794-.815-11.69Q639.567,137.9,639.037,131.27Z" transform="translate(-600.332 -89.646)" fill="#8fccee" fill-rule="evenodd"/>
      <path id="Trazado_104577" data-name="Trazado 104577" d="M623.3,110.345a.552.552,0,1,1,.669.878l-.642.49a.553.553,0,1,1-.671-.878l.643-.49Zm-2.642,2.016a.553.553,0,1,1,.672.878l-8.63,6.592a.555.555,0,0,1-.777-.1.549.549,0,0,1,.1-.774Z" transform="translate(-609.057 -96.076)" fill="#fff" fill-rule="evenodd"/>
      <path id="Rectángulo_5745" data-name="Rectángulo 5745" d="M.9,0h9.5a.9.9,0,0,1,.9.9V11.7a.906.906,0,0,1-.906.906H.906A.906.906,0,0,1,0,11.7V.9A.9.9,0,0,1,.9,0Z" transform="translate(7.255 62.377)" fill="#131742"/>
      <path id="Trazado_104578" data-name="Trazado 104578" d="M620.382,146.057a.172.172,0,0,1-.17-.172.17.17,0,0,1,.17-.168h1.943a.169.169,0,0,1,.17.168.171.171,0,0,1-.17.172Zm0,7.021a.17.17,0,0,1-.17-.168.172.172,0,0,1,.17-.172h1.943a.171.171,0,0,1,.17.172.169.169,0,0,1-.17.168Zm0-1.4a.171.171,0,0,1,0-.341h1.943a.171.171,0,0,1,0,.341Zm0-1.4a.171.171,0,0,1,0-.342h1.943a.171.171,0,0,1,0,.342Zm0-1.4a.171.171,0,0,1,0-.342h1.943a.171.171,0,0,1,0,.342Zm0-1.406a.169.169,0,1,1,0-.338h1.943a.169.169,0,1,1,0,.338Z" transform="translate(-605.419 -80.72)" fill="#fff" fill-rule="evenodd"/>
      <path id="Trazado_104579" data-name="Trazado 104579" d="M620.313,150.625v0a2.2,2.2,0,1,1-4.095,0l0,0,2.046-5.2Z" transform="translate(-607.213 -80.848)" fill="#8fccee" fill-rule="evenodd"/>
    </g>
    <g id="Grupo_56247" data-name="Grupo 56247" transform="translate(498.711 147.454)">
      <path id="Trazado_104580" data-name="Trazado 104580" d="M504.34,126.3v1.029a3,3,0,0,0,1.219,2.166c4.77,3.576,8.939,5.906,10.077,8.562s-.516,4.038-.516,4.038-1,.867-1.977,1.735a2.845,2.845,0,0,0-.787,2.3s2.112,25.738,2.112,30.289a4.444,4.444,0,0,1-4.335,4.661H487.158a4.445,4.445,0,0,1-4.337-4.661c0-4.55,2.113-30.289,2.113-30.289a2.839,2.839,0,0,0-.787-2.3c-.974-.868-1.979-1.735-1.979-1.735s-1.653-1.383-.516-4.038,5.31-4.986,10.078-8.562a3,3,0,0,0,1.219-2.166V126.3H504.34Z" transform="translate(-481.254 -119.444)" fill="#fad228" fill-rule="evenodd"/>
      <path id="Trazado_104581" data-name="Trazado 104581" d="M485.008,140.554s.049-.825,1.215-.92,7.059-.189,11.239,3.424S485.677,148.519,485.008,140.554Z" transform="translate(-479.63 -113.686)" fill="#f0d1c6" fill-rule="evenodd"/>
      <path id="Trazado_104582" data-name="Trazado 104582" d="M485.643,140.267q-.632,7.7-1.2,15.419c-.224,3-.44,6-.629,9.009-.116,1.86-.271,3.817-.271,5.679a2.633,2.633,0,0,0,1.274,2.545,3.736,3.736,0,0,0,1.354.41H509.09a2.688,2.688,0,0,0,2.681-2.954c0-1.863-.153-3.82-.269-5.679-.189-3.006-.407-6.008-.628-9.009q-.38-5.109-.785-10.218c-.678-5.94-6.44-5.649-15.024-2.788S485.643,140.267,485.643,140.267Z" transform="translate(-480.264 -113.399)" fill="#fff" fill-rule="evenodd"/>
      <path id="Rectángulo_5746" data-name="Rectángulo 5746" d="M.86,0H12.522a.86.86,0,0,1,.86.86V6.583a.859.859,0,0,1-.859.859H.86A.86.86,0,0,1,0,6.583V.86A.86.86,0,0,1,.86,0Z" transform="translate(10.701)" fill="#131742"/>
      <rect id="Rectángulo_5747" data-name="Rectángulo 5747" width="9.599" height="7.443" rx="0.86" transform="translate(10.701)" fill="#2d5b68"/>
      <path id="Trazado_104583" data-name="Trazado 104583" d="M499.179,126.716h-6.542v.441a3,3,0,0,0,1.221,2.166c4.767,3.576,8.939,5.906,10.078,8.562s-.519,4.038-.519,4.038-1,.867-1.977,1.735a2.845,2.845,0,0,0-.787,2.3l.052.623c3.126.083,5.07,1.46,5.447,4.758q.406,5.106.785,10.218c.221,3,.439,6,.628,9.009.116,1.86.269,3.817.269,5.679a2.688,2.688,0,0,1-2.681,2.954h-3.277a4.888,4.888,0,0,1-3.446,1.706h6.776a4.444,4.444,0,0,0,4.336-4.661c0-4.55-2.112-30.289-2.112-30.289a2.845,2.845,0,0,1,.787-2.3c.976-.868,1.977-1.735,1.977-1.735s1.655-1.383.517-4.038-5.31-4.986-10.078-8.562a3,3,0,0,1-1.219-2.166v-.464A1.156,1.156,0,0,1,499.179,126.716Z" transform="translate(-476.328 -119.273)" fill="#dbb826" fill-rule="evenodd"/>
      <path id="Trazado_104584" data-name="Trazado 104584" d="M503.715,145.334c-.377-3.3-2.321-4.675-5.447-4.758.321,3.952,2.06,25.533,2.06,29.665a4.708,4.708,0,0,1-.888,2.954h3.277a2.688,2.688,0,0,0,2.681-2.954c0-1.863-.153-3.82-.269-5.679-.189-3.006-.407-6.008-.628-9.009Q504.12,150.444,503.715,145.334Z" transform="translate(-473.891 -113.265)" fill="#f0d1c6" fill-rule="evenodd"/>
      <rect id="Rectángulo_5748" data-name="Rectángulo 5748" width="8.713" height="9.711" rx="0.697" transform="translate(5.591 48.059)" fill="#131742"/>
      <path id="Trazado_104585" data-name="Trazado 104585" d="M489.34,156.732a.132.132,0,0,1-.13-.132.13.13,0,0,1,.13-.132h1.5a.132.132,0,0,1,.132.132.134.134,0,0,1-.132.132Zm0,5.407a.129.129,0,0,1-.13-.13.132.132,0,0,1,.13-.132h1.5a.134.134,0,0,1,.132.132.131.131,0,0,1-.132.13Zm0-1.08a.131.131,0,0,1,0-.262h1.5a.131.131,0,1,1,0,.262Zm0-1.085a.13.13,0,1,1,0-.259h1.5a.13.13,0,1,1,0,.259Zm0-1.08a.13.13,0,0,1-.13-.132.132.132,0,0,1,.13-.132h1.5a.134.134,0,0,1,.132.132.132.132,0,0,1-.132.132Zm0-1.082a.131.131,0,0,1,0-.262h1.5a.131.131,0,1,1,0,.262Z" transform="translate(-477.811 -106.388)" fill="#fff" fill-rule="evenodd"/>
      <path id="Trazado_104586" data-name="Trazado 104586" d="M489.288,160.25h0a1.693,1.693,0,1,1-3.155,0h0l1.576-4.01Z" transform="translate(-479.193 -106.486)" fill="#8fccee" fill-rule="evenodd"/>
    </g>
    <g id="Grupo_56248" data-name="Grupo 56248" transform="translate(457.998 193.043)">
      <path id="Trazado_104587" data-name="Trazado 104587" d="M475.439,157.144l-17.031,7.284,9.75,53.876s2.669,9.91,10.436,9.91H732.2c7.766,0,10.435-9.91,10.435-9.91l9.751-53.876-17.031-7.284-129.957.59Z" transform="translate(-450.427 -151.684)" fill="#09b291" fill-rule="evenodd"/>
      <path id="Trazado_104588" data-name="Trazado 104588" d="M475.439,157.144l-17.031,7.284,1.266,7L692.21,182.882s8.6,0,4.3,13.292c-2.033,6.287-5.6,19.676-8.791,32.041H732.2c7.766,0,10.435-9.91,10.435-9.91l9.751-53.876-17.031-7.284-129.957.59Z" transform="translate(-450.427 -151.684)" fill="#098970" fill-rule="evenodd"/>
      <path id="Trazado_104589" data-name="Trazado 104589" d="M458.9,167.17l290.906,11.474,2.574-14.216-17.032-7.284-129.957.59-129.957-.59-17.03,7.284Z" transform="translate(-450.427 -151.684)" fill="#065949" fill-rule="evenodd"/>
      <rect id="Rectángulo_5749" data-name="Rectángulo 5749" width="309.938" height="12.744" rx="4.446" transform="translate(0 0)" fill="#09b291"/>
      <path id="Trazado_104590" data-name="Trazado 104590" d="M623.789,153.333a6.394,6.394,0,0,1,6.324,5.614,6.314,6.314,0,0,1,.046.759,6.391,6.391,0,0,1-6.37,6.371h58.634a6.392,6.392,0,0,0,6.371-6.374c0-.065,0-.132,0-.195a6.391,6.391,0,0,0-6.367-6.175H623.789Z" transform="translate(-378.857 -153.333)" fill="#098970" fill-rule="evenodd"/>
    </g>
    <path id="Trazado_104591" data-name="Trazado 104591" d="M443.834,208.653H762.177A3.051,3.051,0,0,0,765.1,205.5h0a3.052,3.052,0,0,0-2.919-3.154H443.834a3.054,3.054,0,0,0-2.919,3.154h0A3.053,3.053,0,0,0,443.834,208.653Z" transform="translate(0 60.921)" fill="#2d5b68" fill-rule="evenodd"/>
    <path id="Trazado_104592" data-name="Trazado 104592" d="M461.065,157.823a1.109,1.109,0,0,1,0-2.218h51.009a1.109,1.109,0,0,1,0,2.218Zm57.752,0a1.109,1.109,0,0,1,0-2.218h5.164a1.109,1.109,0,0,1,0,2.218Z" transform="translate(8.24 40.693)" fill="#fff" fill-rule="evenodd"/>
  </g>
</svg>
