<svg xmlns="http://www.w3.org/2000/svg" xmlns:xlink="http://www.w3.org/1999/xlink" width="244" height="244" viewBox="0 0 244 244">
  <defs>
    <radialGradient id="radial-gradient" cx="-28.702" cy="-22.331" r="75.358" gradientTransform="translate(0.323) scale(0.354 1)" gradientUnits="objectBoundingBox">
      <stop offset="0" stop-color="#dc8328"/>
      <stop offset="1" stop-color="#d2591d"/>
    </radialGradient>
    <radialGradient id="radial-gradient-2" cx="394.533" cy="-39.156" r="194.802" gradientTransform="translate(-0.825) scale(2.65 1)" xlink:href="#radial-gradient"/>
    <radialGradient id="radial-gradient-3" cx="0.47" cy="0.687" r="0.635" gradientTransform="translate(0.196) scale(0.608 1)" xlink:href="#radial-gradient"/>
    <linearGradient id="linear-gradient" x1="0.761" y1="-2.049" x2="-0.634" y2="11.552" gradientUnits="objectBoundingBox">
      <stop offset="0.005" stop-color="#f5db34"/>
      <stop offset="1" stop-color="#ebb935"/>
    </linearGradient>
    <linearGradient id="linear-gradient-2" x1="225.322" y1="-35.236" x2="-766.232" y2="122.416" xlink:href="#linear-gradient"/>
    <radialGradient id="radial-gradient-4" cx="-20.887" cy="13.602" r="57.675" gradientTransform="translate(-0.214) scale(1.428 1)" xlink:href="#radial-gradient"/>
    <linearGradient id="linear-gradient-3" x1="-1.583" y1="21.865" x2="-6.818" y2="75.62" xlink:href="#linear-gradient"/>
    <radialGradient id="radial-gradient-5" cx="42.168" cy="-11.818" r="37.226" gradientTransform="translate(-0.114) scale(1.227 1)" xlink:href="#radial-gradient"/>
    <linearGradient id="linear-gradient-4" x1="1.324" y1="-9.35" x2="-1.578" y2="25.335" xlink:href="#linear-gradient"/>
    <linearGradient id="linear-gradient-5" x1="0" y1="0.5" x2="1" y2="0.5" gradientTransform="matrix(1, 0, 0, 1, 0, 0)" xlink:href="#radial-gradient"/>
    <linearGradient id="linear-gradient-6" x1="0" y1="0.5" x2="1" y2="0.5" gradientTransform="matrix(1, 0, 0, 1, 0, 0)" xlink:href="#radial-gradient"/>
    <linearGradient id="linear-gradient-9" x1="0" y1="0.5" x2="1" y2="0.5" gradientTransform="matrix(1, 0, 0, 1, 0, 0)" xlink:href="#radial-gradient"/>
    <linearGradient id="linear-gradient-10" x1="0" y1="0.5" x2="1" y2="0.5" xlink:href="#linear-gradient"/>
    <linearGradient id="linear-gradient-11" x1="0" y1="0.5" x2="1" y2="0.5" xlink:href="#linear-gradient"/>
    <linearGradient id="linear-gradient-12" x1="0" y1="0.5" x2="1" y2="0.5" xlink:href="#linear-gradient"/>
    <linearGradient id="linear-gradient-13" x1="0" y1="0.5" x2="1" y2="0.5" xlink:href="#linear-gradient"/>
    <linearGradient id="linear-gradient-18" x1="0" y1="0.5" x2="1" y2="0.5" xlink:href="#linear-gradient"/>
    <linearGradient id="linear-gradient-20" x1="0" y1="0.5" x2="1" y2="0.5" xlink:href="#linear-gradient"/>
  </defs>
  <g id="Grupo_56329" data-name="Grupo 56329" transform="translate(-199 -2480)">
    <g id="Grupo_56310" data-name="Grupo 56310" transform="translate(215 2510)">
      <path id="Trazado_104781" data-name="Trazado 104781" d="M438.575,480.96c-5.063,11.74-11.11,24.6-13.217,25.26-2.851.892-3.174-8.791-3.206-11,0,1.56-.1,6.775-1.815,6.775-1.6-.01-1.543-5.344-1.462-7.522.032-.561.056-.906.056-.906-4.619,13.456-20.888,10.243-26.31,4.82a25.029,25.029,0,0,1-2.9-3.777c-1.624-2.466-3.392-5.624-5.087-8.837a7.015,7.015,0,0,0,.955-4.859s17.275,13.657,26.313,9.641,7.632-13.256,7.632-13.256,6.427,9.44,11.98,8.034,5.092-7.23,5.092-7.23A19.75,19.75,0,0,0,438.575,480.96Z" transform="translate(-324.999 -410.181)" fill="#c05422"/>
      <path id="Trazado_104782" data-name="Trazado 104782" d="M452.653,487.2c-3.968,5.246-8.323,10.605-12.3,15.122-6.265,7.1-11.593,12.122-12.974,11.343-2.05-1.149,2.1-8.5,5.381-13.682a25.886,25.886,0,0,0,3.439-5.175c-.184.26-1.695,2.412-3.439,5.175-5.293,6.363-13.682,11.7-18.438,10.267-4.531-1.367-6.226-4.426-6.273-9.626a42.547,42.547,0,0,1,.448-5.839c.235-1.7.715-4.259,1.35-7.279a14.117,14.117,0,0,0,10.3,1.656c11.448-2.41,16.67-13.256,16.67-13.256s.8,7.632,7.632,10.444C449.206,488.307,451.617,487.729,452.653,487.2Z" transform="translate(-291.065 -412.201)" fill="#c05422"/>
      <path id="Trazado_104783" data-name="Trazado 104783" d="M387.685,483.433a4.864,4.864,0,0,1-3.5-2.777c.578,1.636,2.4,8.039-3.36,10.657a9.636,9.636,0,0,1-3.444.923c4.943,4.161,8.867,7.713,8.867,7.713S387.169,492.027,387.685,483.433Z" transform="translate(-335.504 -405.316)" fill="#c05422"/>
      <path id="Trazado_104784" data-name="Trazado 104784" d="M422.267,503.959c.412,1.854,9.307-5.107,18.4-12.548.735-1.913,1.279-3.118,1.279-3.118s-5.222,1.607-7.431-.4a7.769,7.769,0,0,1-2.618-5.57C426.8,492.087,421.871,502.176,422.267,503.959Z" transform="translate(-270.489 -402.9)" fill="#c05422"/>
      <path id="Trazado_104785" data-name="Trazado 104785" d="M439.94,484.455a14.977,14.977,0,0,0-2.844-1.007A8.979,8.979,0,0,0,439.94,484.455Z" transform="translate(-248.965 -401.268)" fill="url(#radial-gradient)"/>
      <path id="Trazado_104786" data-name="Trazado 104786" d="M380.251,480.885c-.086-.25-.147-.389-.147-.389A3.083,3.083,0,0,0,380.251,480.885Z" transform="translate(-331.564 -405.546)" fill="#c05422"/>
      <path id="Trazado_104787" data-name="Trazado 104787" d="M380.251,480.885c-.086-.25-.147-.389-.147-.389A3.083,3.083,0,0,0,380.251,480.885Z" transform="translate(-331.564 -405.546)" fill="url(#radial-gradient-2)"/>
      <path id="Trazado_104788" data-name="Trazado 104788" d="M548.956,545.809c-1.663,5.648-4.259,9.954-7.674,12.839-4.595,3.887-10.662,5.212-17.924,3.831a6.38,6.38,0,0,1-5.173-4.788c.987-1.509,2.072-3.133,3.206-4.835,1.727-2.6,3.591-5.359,5.462-8.139,8.347-12.42,16.792-25.1,14.179-24.013-1.068.441-4.377,3.059-8.626,6.54-3.231,2.643-6.99,5.775-10.725,8.83.73-1.913,1.276-3.118,1.276-3.118s-5.222,1.607-7.431-.4a7.781,7.781,0,0,1-2.618-5.567c2.3-4.428,4.651-8.783,6.547-12.269,1.839-3.375,3.262-5.937,3.823-6.966-1.156,1.959-2.6,4.186-4.232,6.572-1.8,2.611-3.823,5.408-5.962,8.235-1.036.531-3.446,1.109-8.2-.85-6.829-2.812-7.632-10.444-7.632-10.444s-5.222,10.846-16.67,13.256a14.116,14.116,0,0,1-10.3-1.656c2.251-10.765,6.373-27.413,7.561-32.177.208-.842.331-1.318.331-1.318a11.512,11.512,0,0,0-.926,1.261,65.055,65.055,0,0,0-5.7,11.994c-1.389,3.618-3.782,9.506-6.466,15.715a19.756,19.756,0,0,1-1.969-2.858s.458,5.824-5.092,7.23-11.98-8.034-11.98-8.034,1.406,9.239-7.632,13.256-26.313-9.641-26.313-9.641a7.015,7.015,0,0,1-.955,4.859c-3.936-7.512-7.456-15.384-7.671-15.867.8,3.978.642,11.409.215,18.389a4.865,4.865,0,0,1-3.5-2.78c-.064-.184-.113-.306-.135-.362a2.606,2.606,0,0,0,.135.362c.578,1.639,2.4,8.043-3.358,10.662a9.582,9.582,0,0,1-3.446.923c-1.663-1.406-3.439-2.868-5.222-4.3-4.612-3.686-9.246-7.086-12.019-8.274-7.03-3.013-2.41,2.812,1.808,8.235a95.58,95.58,0,0,1,7.8,13.111c.965,1.849,1.969,3.833,3,5.93-2.256,1.815-9.986,7.037-17.424.441-4.612-4.088-4.242-8.073-2.635-11.11a18.949,18.949,0,0,1,4.644-5.359s-.064-.032-.186-.105c-1.389-.843-9.912-6.586-5.557-18.975a19.422,19.422,0,0,1,1.5-3.3c3.855-6.635,9.849-5.43,13.175-3.037l.01.01a6.421,6.421,0,0,1,2.248,2.569c-.674-2.016-7.559-24.295,13.714-35.4,19.185-10.028,30.041,4.492,32.7,8.734.025.047.056.086.081.127.37.61.563.98.563.98s-.4-8.636,7.23-11.448c7.424-2.731,12.759,6.878,13.04,7.407v.007h.007v.01l.007.007a52.166,52.166,0,0,1,2.988-8.886c2.822-6.522,7.914-14.855,16.342-18.495l.024-.007c4.514-1.952,9.993-2.555,16.6-.8a28.707,28.707,0,0,1,9.472,4.242c15.169,10.831,4.587,32.586,4.587,32.586s.377-.3,1.036-.772a34.689,34.689,0,0,1,5.567-3.238c2.956-1.325,6.339-2.16,8.861-.811,5.479,2.932,3.713,15.394,3.623,16.043.274-.536,4.943-9.792,9.231-5.751a8.053,8.053,0,0,1,2.2,4.948,27.023,27.023,0,0,1-.987,9.658c.223-.191,4.521-3.767,8.626-2.4,4.22,1.406,1.406,11.85,1.406,11.85s9.241-1.1,7.233,6.98c-1.166,4.676-4.009,5.232-6.194,4.869a14.8,14.8,0,0,0-2.829-1,8.907,8.907,0,0,0,2.829,1,12.122,12.122,0,0,1,6.586,6.723A13.337,13.337,0,0,1,548.956,545.809Z" transform="translate(-351.496 -447.562)" fill="url(#radial-gradient-3)"/>
      <path id="Trazado_104789" data-name="Trazado 104789" d="M418.138,488.809a26.581,26.581,0,0,0,3.454-5.2S420,485.86,418.138,488.809Z" transform="translate(-276.441 -401.03)" fill="#c05422"/>
      <path id="Trazado_104790" data-name="Trazado 104790" d="M418.138,488.809a26.581,26.581,0,0,0,3.454-5.2S420,485.86,418.138,488.809Z" transform="translate(-276.441 -401.03)" fill="url(#linear-gradient)"/>
      <path id="Trazado_104791" data-name="Trazado 104791" d="M399.954,484.88c0-.274,0-.448,0-.448S399.949,484.6,399.954,484.88Z" transform="translate(-302.803 -399.842)" fill="#c05422"/>
      <path id="Trazado_104792" data-name="Trazado 104792" d="M399.954,484.88c0-.274,0-.448,0-.448S399.949,484.6,399.954,484.88Z" transform="translate(-302.803 -399.842)" fill="url(#linear-gradient-2)"/>
      <path id="Trazado_104793" data-name="Trazado 104793" d="M412.549,466.965a11.3,11.3,0,0,0-.921,1.261l.59.054C412.429,467.438,412.549,466.965,412.549,466.965Z" transform="translate(-285.876 -425.157)" fill="url(#radial-gradient-4)"/>
      <path id="Trazado_104794" data-name="Trazado 104794" d="M412.549,466.965a11.3,11.3,0,0,0-.921,1.261l.59.054C412.429,467.438,412.549,466.965,412.549,466.965Z" transform="translate(-285.876 -425.157)" fill="url(#linear-gradient-3)"/>
      <path id="Trazado_104795" data-name="Trazado 104795" d="M376.845,486.142a17.206,17.206,0,0,0-1.661-2.038A5.666,5.666,0,0,0,376.845,486.142Z" transform="translate(-338.695 -400.317)" fill="#c05422"/>
      <path id="Trazado_104796" data-name="Trazado 104796" d="M376.845,486.142a17.206,17.206,0,0,0-1.661-2.038A5.666,5.666,0,0,0,376.845,486.142Z" transform="translate(-338.695 -400.317)" fill="url(#radial-gradient-5)"/>
      <path id="Trazado_104797" data-name="Trazado 104797" d="M376.845,486.142a17.206,17.206,0,0,0-1.661-2.038A5.666,5.666,0,0,0,376.845,486.142Z" transform="translate(-338.695 -400.317)" fill="url(#linear-gradient-4)"/>
      <path id="Trazado_104798" data-name="Trazado 104798" d="M419.492,521.658c-.088.26-.135.409-.135.409S419.406,521.92,419.492,521.658Z" transform="translate(-274.675 -345.89)" fill="#754a28"/>
      <path id="Trazado_104799" data-name="Trazado 104799" d="M429.531,466.233c2.143,1.337,9.641-8.57,7.5-9.91S427.39,464.893,429.531,466.233Z" transform="translate(-260.481 -440.759)" fill="#e6a731"/>
      <path id="Trazado_104800" data-name="Trazado 104800" d="M442.555,476.739c1,1.372,12.374-6.165,10.37-8.058S441.56,475.37,442.555,476.739Z" transform="translate(-241.161 -423.064)" fill="#d35d26"/>
      <path id="Trazado_104801" data-name="Trazado 104801" d="M392.277,461.176c2.141-.8-1.34-10.584-3.75-11.255S390.134,461.979,392.277,461.176Z" transform="translate(-320.437 -449.896)" fill="#c05422"/>
      <path id="Trazado_104802" data-name="Trazado 104802" d="M376.12,467.755c.747-.958-7.573-10.792-8.4-8.276S374.651,469.641,376.12,467.755Z" transform="translate(-349.603 -436.601)" fill="#e6a731"/>
      <path id="Trazado_104803" data-name="Trazado 104803" d="M368.647,486.252c1.607-2.947-7.5-6.16-8.3-4.82S367.041,489.2,368.647,486.252Z" transform="translate(-360.286 -404.645)" fill="#c05422"/>
      <path id="Trazado_104804" data-name="Trazado 104804" d="M437.029,476.92a21.474,21.474,0,0,0,.35-4.379s-6.628,10.446-15.063,11.979-16.873-6.153-16.873-6.153,1.719,12.376,17.275,11.649c8.465-.4,12.053-5.538,13.572-10.14a10.454,10.454,0,0,0,8.247,2.307c5.158-.669,7.5-7.233,7.5-7.233C447.622,482.583,437.032,476.92,437.029,476.92Z" transform="translate(-294.84 -417.076)" opacity="0.4" fill="url(#linear-gradient-5)" style="mix-blend-mode: multiply;isolation: isolate"/>
      <path id="Trazado_104805" data-name="Trazado 104805" d="M388.01,497.7c-2.256,1.815-9.986,7.037-17.424.441-4.612-4.088-4.242-8.073-2.635-11.11,1.029,3.8,3.407,9.817,8.982,9.5,4.316-.24,7.086-2.121,8.083-4.764C385.979,493.619,386.983,495.6,388.01,497.7Z" transform="translate(-350.766 -396.076)" opacity="0.4" fill="url(#linear-gradient-6)" style="mix-blend-mode: multiply;isolation: isolate"/>
      <path id="Trazado_104806" data-name="Trazado 104806" d="M459.113,494.943c-3.9,13.256-12.945,19.08-25.6,16.67a6.381,6.381,0,0,1-5.173-4.789c2.5-3.816,5.575-8.379,8.668-12.974A12.535,12.535,0,0,0,444.963,502c7.8,2.618,13.371-8.364,14.253-15.394A13.336,13.336,0,0,1,459.113,494.943Z" transform="translate(-261.653 -396.695)" opacity="0.4" fill="url(#linear-gradient-5)" style="mix-blend-mode: multiply;isolation: isolate"/>
      <path id="Trazado_104807" data-name="Trazado 104807" d="M384.286,476.265s6.831,10.833,15.869,7.926,8.034-9.922,8.034-9.922,4.218,14.649-7.431,15.252S384.286,476.265,384.286,476.265Z" transform="translate(-325.503 -414.571)" opacity="0.4" fill="url(#linear-gradient-5)" style="mix-blend-mode: multiply;isolation: isolate"/>
      <path id="Trazado_104808" data-name="Trazado 104808" d="M378.16,498.32a48.793,48.793,0,0,1-5.023-.338c-1.389-.843-9.912-6.586-5.557-18.975a19.421,19.421,0,0,1,1.5-3.3C368.647,483.352,371.163,496.36,378.16,498.32Z" transform="translate(-351.496 -412.493)" opacity="0.4" fill="url(#linear-gradient-9)" style="mix-blend-mode: multiply;isolation: isolate"/>
      <path id="Trazado_104809" data-name="Trazado 104809" d="M514.545,534.54c-.74,1.134-1.43,2.2-2.057,3.182a352.392,352.392,0,0,0-20.743,36.644,138.759,138.759,0,0,0-7.73,19.545c-1.083-1.533-.127-8.4.507-14.331.081-.779.152-1.543.218-2.275a21.6,21.6,0,0,0,.007-6.064,1.738,1.738,0,0,0-.243-.578c-.681-.982-3.084,1.9-6,5.905-5.07,6.949-11.681,17.265-13.552,16.589-2-.73,3.069-16.6,5.913-27.579,1.342-5.151,2.185-9.224,1.59-10.157-.941-1.462-7.583,8.205-13.988,18.223-.1.135-.142.215-.142.215-6.331,9.915-12.381,20.1-12.381,20.1l1.8-13.047.047-.3,1.9-13.755-16.6,27.645s-1.849-24.689-3.794-35.414c-.625-3.407-1.252-5.4-1.83-4.757-1.127,1.247-2.075,9.858-2.765,18.713-.794,10.169-1.254,20.655-1.254,20.655s-2.312-14.14-5.342-21.346l-.007-.025c-1.092-2.6-2.283-4.291-3.488-4.073-4.387.772,1.158,26.1,1.575,28.005-.321-1.117-3.062-10.3-5.325-9.792-2.212.49-.37,6.829-.049,7.889a105.1,105.1,0,0,0-4.372-10.4c-3.422-12.42-8.3-28.914-12.653-39-2.964-6.86-5.92-13.295-8.685-18.918-4.352-8.869-8.217-15.722-10.8-19.041-1.036-1.325-2.089-2.675-3-3.921-2.79-3.823-4.122-6.589,1.188-4.313,2.773,1.188,7.407,4.587,12.019,8.274,1.783,1.43,3.559,2.893,5.222,4.3,4.94,4.161,8.869,7.713,8.869,7.713s.916-7.921,1.43-16.518c.426-6.98.588-14.412-.215-18.389.215.482,3.735,8.355,7.671,15.867,2.787,5.3,5.785,10.412,7.987,12.614,5.423,5.423,21.691,8.636,26.31-4.82,0,0-.6,8.418,1.406,8.428,1.712,0,1.815-5.215,1.815-6.775.032,2.209.355,11.891,3.206,11,2.106-.659,8.154-13.52,13.217-25.26,2.684-6.209,5.077-12.1,6.466-15.715a65.058,65.058,0,0,1,5.7-11.994c.2.017.4.042.6.056-1.188,4.764-5.31,21.412-7.561,32.177-.634,3.02-1.114,5.574-1.35,7.279-1.205,8.837-.2,13.657,5.824,15.465,4.757,1.43,13.145-3.9,18.438-10.268-3.277,5.183-7.431,12.533-5.381,13.682,2.266,1.279,15.056-12.959,25.275-26.465,2.138-2.827,4.161-5.624,5.962-8.235,1.678-2.457,3.164-4.747,4.338-6.755-.482.874-1.969,3.549-3.929,7.15-1.9,3.485-4.242,7.84-6.547,12.269-5.1,9.76-10.027,19.852-9.633,21.635.409,1.857,9.312-5.109,18.407-12.548,3.735-3.054,7.495-6.187,10.726-8.83,4.25-3.481,7.559-6.1,8.626-6.54C540.968,496.066,523.808,520.4,514.545,534.54Z" transform="translate(-347.856 -424.41)" fill="#fad228"/>
      <path id="Trazado_104810" data-name="Trazado 104810" d="M375.1,477.036a19.854,19.854,0,0,1-2.248-2.569A6.421,6.421,0,0,1,375.1,477.036Z" transform="translate(-342.079 -414.284)" fill="#dc8126" opacity="0.5" style="mix-blend-mode: screen;isolation: isolate"/>
      <path id="Trazado_104811" data-name="Trazado 104811" d="M422.36,475.738c-2.621-4.813-7.843-9.013-16.663-9.616-8.84-.6-3.216,9.44-3.216,9.44a3.46,3.46,0,0,0-3.214,2.008s-2.209-12.051-12.854-6.314-12.773,22.808-11.7,27.268l-.007-.01c-.674-2.016-7.559-24.295,13.714-35.4,19.185-10.028,30.041,4.492,32.7,8.734A19.446,19.446,0,0,1,422.36,475.738Z" transform="translate(-341.691 -435.762)" fill="#dc8126" opacity="0.5" style="mix-blend-mode: screen;isolation: isolate"/>
      <path id="Trazado_104812" data-name="Trazado 104812" d="M449.505,489.369s.377-.3,1.036-.772c-1.719,3.311-3.125,5.553-3.238,5.736,3.407-6.466,2.4-17.618-1.614-22.036s-8.837,4.218-8.837,3.414-1-16.067-11.046-18.093c-7.441-1.494-17.748,7.617-23.325,14.228,4.34-10.018,14.027-24.319,32.965-19.306C463.765,460.046,449.505,489.369,449.505,489.369Z" transform="translate(-299.133 -447.561)" fill="#dc8126" opacity="0.5" style="mix-blend-mode: screen;isolation: isolate"/>
      <path id="Trazado_104813" data-name="Trazado 104813" d="M397.615,466.965c-.6,0-.6,10.419,9.64,10.934a21.392,21.392,0,0,0,16.224-6.192s-9.81,5.31-17.028,3.694A12.026,12.026,0,0,1,397.615,466.965Z" transform="translate(-306.494 -425.157)" fill="#dc8126" opacity="0.5" style="mix-blend-mode: screen;isolation: isolate"/>
      <path id="Trazado_104814" data-name="Trazado 104814" d="M412.814,470.7s5.342-5.824,9.8-3.816,7.069,5.9,9.278,11.989c0,0-4.313-6.439-10.219-9.1A8.237,8.237,0,0,0,412.814,470.7Z" transform="translate(-284.158 -425.884)" fill="#dc8126" opacity="0.5" style="mix-blend-mode: screen;isolation: isolate"/>
      <path id="Trazado_104815" data-name="Trazado 104815" d="M448.293,480.643c-6.821-1.783-8.09,10.525-8.09,10.525s.867-6.745-1.342-8.955c-2.136-2.138-7.174,4.722-7.424,5.068.137-.5,3.522-10.912,2.653-15.543-.852-4.526-5.08-5.731-9.714-5.523,2.956-1.325,6.339-2.16,8.861-.811,5.479,2.932,3.713,15.394,3.623,16.043.274-.536,4.943-9.792,9.231-5.751A8.053,8.053,0,0,1,448.293,480.643Z" transform="translate(-267.401 -428.416)" fill="#dc8126" opacity="0.5" style="mix-blend-mode: screen;isolation: isolate"/>
      <path id="Trazado_104816" data-name="Trazado 104816" d="M440.352,491.14c-6.265,7.1-11.593,12.122-12.974,11.343-2.05-1.149,2.1-8.5,5.381-13.682-5.293,6.363-13.682,11.7-18.438,10.267-4.531-1.367-6.226-4.426-6.273-9.626a8.793,8.793,0,0,0,6.674,4.524c7.826,1.085,15.845-4.323,21.475-10.341l.01-.007C436.1,484,434.143,491.348,440.352,491.14Z" transform="translate(-291.065 -401.021)" fill="#c05422" opacity="0.4" style="mix-blend-mode: multiply;isolation: isolate"/>
      <path id="Trazado_104817" data-name="Trazado 104817" d="M415.865,485.322c.032-.561.056-.906.056-.906-4.619,13.456-20.888,10.243-26.31,4.82a25.028,25.028,0,0,1-2.9-3.777c3.936,2.484,9.9,5.665,14.348,5.479,7.23-.3,13.657-3.51,15.063-7.326A10.745,10.745,0,0,1,415.865,485.322Z" transform="translate(-321.989 -401.03)" fill="#c05422" opacity="0.4" style="mix-blend-mode: multiply;isolation: isolate"/>
      <path id="Trazado_104818" data-name="Trazado 104818" d="M451.439,498.678c-4.595,3.887-10.662,5.212-17.924,3.831a6.38,6.38,0,0,1-5.173-4.788c.987-1.509,2.072-3.133,3.206-4.835C433.571,496.917,439.139,503.674,451.439,498.678Z" transform="translate(-261.653 -387.591)" fill="#c05422" opacity="0.4" style="mix-blend-mode: multiply;isolation: isolate"/>
      <path id="Trazado_104819" data-name="Trazado 104819" d="M377.051,482.546s-2.812-10.539,4.619-12.389,13.055,3.691,13.055,3.691-7.355-3.093-12.653-.666S377.051,482.546,377.051,482.546Z" transform="translate(-336.746 -421.077)" fill="#dc8126" opacity="0.5" style="mix-blend-mode: screen;isolation: isolate"/>
      <path id="Trazado_104820" data-name="Trazado 104820" d="M413.59,468.108v.01l-.007-.01c-.306-.336-5.905-6.361-11.835-4.8-6.1,1.607-7.424,12.572-7.84,11.624a18.1,18.1,0,0,1-1.159-3.767c.37.61.563.98.563.98s-.4-8.636,7.23-11.448c7.424-2.731,12.758,6.878,13.04,7.407Z" transform="translate(-313.238 -434.953)" fill="#dc8126" opacity="0.5" style="mix-blend-mode: screen;isolation: isolate"/>
      <path id="Trazado_104821" data-name="Trazado 104821" d="M405.3,468.167c.2-2.469-.2-13.716-5.222-12.31s-.509,5.021,1.5,7.23A36.684,36.684,0,0,1,405.3,468.167Z" transform="translate(-305.94 -441.432)" fill="#d35d26"/>
      <path id="Trazado_104822" data-name="Trazado 104822" d="M382.264,487.2c2.072,2.68-4.112-11.213-6.476-8.7S380.055,484.338,382.264,487.2Z" transform="translate(-338.545 -408.881)" fill="url(#linear-gradient-10)"/>
      <path id="Trazado_104823" data-name="Trazado 104823" d="M410.553,494.905c-.6,1.928,4.894-17.588,10.079-14.62S412.361,489.081,410.553,494.905Z" transform="translate(-287.499 -406.298)" fill="url(#linear-gradient-11)"/>
      <path id="Trazado_104824" data-name="Trazado 104824" d="M396.505,498.114c1.607-1.406,7.441-10.091,8.44-23.122Z" transform="translate(-307.794 -413.523)" fill="url(#linear-gradient-12)"/>
      <path id="Trazado_104825" data-name="Trazado 104825" d="M428.539,496.415c-3.1,4.152,16.42-13.917,18.027-19.3C446.566,477.117,433.208,490.162,428.539,496.415Z" transform="translate(-261.85 -410.443)" fill="url(#linear-gradient-13)"/>
      <path id="Trazado_104826" data-name="Trazado 104826" d="M414.737,575.2c-.321-1.117-3.062-10.3-5.325-9.792-2.212.49-.37,6.829-.049,7.889a105.08,105.08,0,0,0-4.372-10.4c-3.422-12.42-8.3-28.914-12.653-39-2.964-6.861-5.92-13.295-8.685-18.918-4.352-8.869-8.217-15.722-10.8-19.041-1.036-1.325-2.089-2.675-3-3.921,6.072,5.729,22.734,30.45,28.728,48.751,0,0,1.68-9.545,7.456-6.87,5.673,2.628,10.436,26.521,10.605,27.374-1.092-2.6-2.283-4.291-3.488-4.073C408.776,547.964,414.321,573.294,414.737,575.2Z" transform="translate(-346.41 -403.35)" fill="#e0c830" opacity="0.3" style="mix-blend-mode: multiply;isolation: isolate"/>
      <path id="Trazado_104827" data-name="Trazado 104827" d="M386.724,493.5c.585,1.568,8.989,24.375,12.09,41.841-.794,10.169-1.254,20.655-1.254,20.655s-2.312-14.14-5.342-21.346C392.218,534.646,393.229,512.3,386.724,493.5Z" transform="translate(-321.97 -386.707)" fill="#e0c830" opacity="0.3" style="mix-blend-mode: multiply;isolation: isolate"/>
      <path id="Trazado_104828" data-name="Trazado 104828" d="M437.844,498.339s-12.266,27.812-15.279,44.154c-6.331,9.915-12.381,20.1-12.381,20.1l1.8-13.047c-.145.313-.3.62-.458.926.064-.169.24-.588.5-1.229l1.9-13.755-16.6,27.645s-1.849-24.689-3.794-35.414c1.575-12.34,4.1-27.139,8.484-38.6-.169,1.3-5.888,44.124-5.575,55.533,0,0,2.3-20.422,15.046-12.589,0,0,8.068-8.308,8.068-22.85.039,3.559-.1,19.555-4.886,33.72C420.388,529.494,432.326,502.539,437.844,498.339Z" transform="translate(-312.097 -393.044)" fill="#e0c830" opacity="0.3" style="mix-blend-mode: multiply;isolation: isolate"/>
      <path id="Trazado_104829" data-name="Trazado 104829" d="M421.916,518.521c-5.07,6.949-11.681,17.265-13.552,16.589-2-.73,3.069-16.6,5.913-27.579C419.234,507.908,421.2,514.681,421.916,518.521Z" transform="translate(-291.268 -366.364)" fill="#e0c830" opacity="0.3" style="mix-blend-mode: multiply;isolation: isolate"/>
      <path id="Trazado_104830" data-name="Trazado 104830" d="M416.674,516.334c1.776-1.335,4.379-3.255,7.223-5.215a138.758,138.758,0,0,0-7.73,19.545C415.085,529.131,416.04,522.261,416.674,516.334Z" transform="translate(-280.009 -361.164)" fill="#e0c830" opacity="0.3" style="mix-blend-mode: multiply;isolation: isolate"/>
      <path id="Trazado_104831" data-name="Trazado 104831" d="M416.173,530.725a21.6,21.6,0,0,0,.007-6.064c4.588-6.789,10.275-16.743,10.846-25.042C427.026,499.619,426.842,512.914,416.173,530.725Z" transform="translate(-279.289 -377.831)" fill="#e0c830" opacity="0.3" style="mix-blend-mode: multiply;isolation: isolate"/>
      <path id="Trazado_104832" data-name="Trazado 104832" d="M382.313,479.02s3.427,25.12,20.3,24.711c0,0-4.389.607-12.036-10.062S382.313,479.02,382.313,479.02Z" transform="translate(-328.363 -407.685)" opacity="0.4" fill="url(#linear-gradient-12)" style="mix-blend-mode: screen;isolation: isolate"/>
      <path id="Trazado_104833" data-name="Trazado 104833" d="M418.458,476.645s-9.05,27.871-17.591,32.61c0,0,7.125-1.693,11.208-10.392S418.458,476.645,418.458,476.645Z" transform="translate(-301.472 -411.127)" opacity="0.6" fill="url(#linear-gradient-12)" style="mix-blend-mode: screen;isolation: isolate"/>
      <path id="Trazado_104834" data-name="Trazado 104834" d="M422.245,504.846s18.465-12.484,26.482-20.78C448.727,484.066,440.835,500.026,422.245,504.846Z" transform="translate(-270.489 -400.372)" opacity="0.6" fill="url(#linear-gradient-12)" style="mix-blend-mode: screen;isolation: isolate"/>
      <path id="Trazado_104835" data-name="Trazado 104835" d="M373.88,483.9c-2.021-3.027,12.577,8.933,16.861,15.546C390.741,499.443,377.5,489.322,373.88,483.9Z" transform="translate(-340.862 -401.315)" opacity="0.6" fill="url(#linear-gradient-12)" style="mix-blend-mode: screen;isolation: isolate"/>
      <path id="Trazado_104836" data-name="Trazado 104836" d="M426.4,496.524a13.726,13.726,0,0,0-12.776,8.034S414.7,491.436,426.4,496.524Z" transform="translate(-282.979 -384.016)" opacity="0.6" fill="url(#linear-gradient-18)" style="mix-blend-mode: screen;isolation: isolate"/>
      <g id="Grupo_56309" data-name="Grupo 56309" transform="translate(46.88 129.799)">
        <path id="Trazado_104837" data-name="Trazado 104837" d="M490.614,552.819H380.55c-.941-2.121-1.68-5.905-.556-7.326a1.371,1.371,0,0,1,.556-.443c1.839-.786,7.495,3.985,7.759,4.21-.12-.233-2.3-4.595-4.2-9.65-2.258-6.04-4.1-13.077-1.416-15.183a1.362,1.362,0,0,1,.242-.159c2.506-1.511,5.663,3.245,8.193,8.362a106.73,106.73,0,0,1,4.34,10.309c-.387-1.3-2.075-7.321.081-7.794,2.224-.5,4.908,8.347,5.31,9.721-.233-1.078-1.448-6.652-2.315-12.54-1.075-7.248-1.639-14.978.754-15.394h.01c4.546-.771,8.827,25.443,8.827,25.443s1.609-36.691,4.019-39.368a.265.265,0,0,1,.321-.1c2.177.965,4.845,34.329,5.246,39.576.039.451.056.691.056.691l16.6-27.645-3.742,27.107s2.072-3.485,5.053-8.362c4.6-7.5,11.367-18.311,16.085-24.794,2.249-3.086,4.041-5.183,4.908-5.486.208-.081.37-.049.465.1,1.616,2.533-7.368,28.089-7.928,35.657v.007c-.088,1.188.024,1.928.426,2.072.681.25,1.984-.955,3.605-2.915v-.01c5.207-6.275,13.723-20.342,15.725-19.739a.41.41,0,0,1,.223.169c1.754,2.5-2.337,20.631-.49,23.249a.662.662,0,0,0,.49.313c.524.049,1.039-.36,1.543-1.068,2.258-3.062,4.5-11.634,7.343-10.461a1.7,1.7,0,0,1,.483.282c1.688,1.325,1.592,5.031.965,8.693a63.552,63.552,0,0,1-2.05,8.181c.779-2.155,3.206-8.149,5.641-6.155.064.047.12.105.176.152,2.5,2.266,1.124,6.138.916,6.677.257-.571,2.283-4.838,4.531-3.084a5.506,5.506,0,0,1,1.759,3.534A12.735,12.735,0,0,1,490.614,552.819Z" transform="translate(-379.426 -502.89)" fill="#754a28"/>
        <path id="Trazado_104838" data-name="Trazado 104838" d="M490.614,537.356H380.55c-.941-2.121-1.68-5.905-.556-7.326,1.078,2.217,3.424,5.2,6.5,5.719,3.968.666,4.771-3.686,4.771-3.686s2.3,4.764,6.035,3.75,1.2-8.1,1.2-8.1,2.724,4.225,3.9,4.122c0,0-.159,4.6,3.728,4.12s5.352-7.174,5.352-7.174a3.716,3.716,0,0,0,2.248-1.244,1.918,1.918,0,0,0,.257-.412c.708-1.421-1.582,7.5,2.91,8.862,3.968,1.2,10.772-17.882,12.34-22.431-1.332,4.171-6.554,20.479-5.969,21.652.659,1.325,9.023-3.358,15.288-15.071-1.229,2.417-6.9,13.714-5.109,14.669,2.009,1.07,12.043,2.677,16.261-1a6.269,6.269,0,0,0,7.037,2.29c4.548-1.421,6.451-7.85,6.451-7.85s1.046,2.413,2.251,1.881c0,0-1.293,5.085,2.77,5.352,2.765.184,8.734-4.467,11.313-10.591a63.557,63.557,0,0,1-2.05,8.181c.779-2.156,3.206-8.149,5.641-6.155.064.047.12.105.176.152-1.494,4.468-1.864,11.73,7.206,7.127A12.735,12.735,0,0,1,490.614,537.356Z" transform="translate(-379.426 -487.427)" fill="#754a28" opacity="0.4" style="mix-blend-mode: multiply;isolation: isolate"/>
        <path id="Trazado_104839" data-name="Trazado 104839" d="M408.551,539.128v.007c-2.065,1-.7-5.592.49-11.705,1.156-5.954,5.93-19.394,6.973-24.062.208-.081.37-.049.465.1C418.1,506,409.112,531.559,408.551,539.128Z" transform="translate(-338.761 -502.26)" fill="#754a28" opacity="0.4" style="mix-blend-mode: multiply;isolation: isolate"/>
        <path id="Trazado_104840" data-name="Trazado 104840" d="M425.29,509.549c-2.515,4.281-8.026,13.939-12.783,17.843a9.074,9.074,0,0,1-2.942,1.9C414.773,523.013,423.289,508.947,425.29,509.549Z" transform="translate(-335.745 -493.266)" fill="#754a28" opacity="0.4" style="mix-blend-mode: multiply;isolation: isolate"/>
        <path id="Trazado_104841" data-name="Trazado 104841" d="M398.166,542.475c-1.825,1.22-2.822-13.907-3.157-18.865-.345-5.046-1.4-16.388-2.089-20.711C395.1,503.864,397.765,537.229,398.166,542.475Z" transform="translate(-359.87 -502.877)" fill="#754a28" opacity="0.4" style="mix-blend-mode: multiply;isolation: isolate"/>
        <path id="Trazado_104842" data-name="Trazado 104842" d="M385.966,521.692a21.21,21.21,0,0,0-3,5.268c-2.258-6.04-4.1-13.077-1.416-15.183a1.36,1.36,0,0,1,.242-.159,12.182,12.182,0,0,0,.426,7.125C383.556,522.358,385.966,521.692,385.966,521.692Z" transform="translate(-378.281 -490.24)" fill="#754a28" opacity="0.4" style="mix-blend-mode: multiply;isolation: isolate"/>
        <path id="Trazado_104843" data-name="Trazado 104843" d="M388.935,519.549a10.081,10.081,0,0,0-1.156,4.468c-1.075-7.247-1.639-14.978.754-15.394h.01C387.8,511.2,387.328,517.668,388.935,519.549Z" transform="translate(-368.661 -494.581)" fill="#754a28" opacity="0.4" style="mix-blend-mode: screen;isolation: isolate"/>
        <path id="Trazado_104844" data-name="Trazado 104844" d="M418.481,505.582c-1.969,4.2-4.9,10.059-6.949,13.562a66.8,66.8,0,0,1-9.136,11.233C407,522.872,413.763,512.065,418.481,505.582Z" transform="translate(-346.137 -498.988)" fill="#754a28" opacity="0.4" style="mix-blend-mode: screen;isolation: isolate"/>
        <path id="Trazado_104845" data-name="Trazado 104845" d="M424.05,514.585c-1.1,2.667-2.851,8.445-5,9.545a8.978,8.978,0,0,1-2.339.916C418.965,521.984,421.206,513.412,424.05,514.585Z" transform="translate(-325.396 -486.099)" fill="#754a28" opacity="0.4" style="mix-blend-mode: screen;isolation: isolate"/>
        <path id="Trazado_104846" data-name="Trazado 104846" d="M403.9,525.019c-.389.061,3.75-3.9,5.491-8.386C409.392,516.633,409.257,524.184,403.9,525.019Z" transform="translate(-343.994 -482.972)" fill="#754a28" opacity="0.4" style="mix-blend-mode: screen;isolation: isolate"/>
        <path id="Trazado_104847" data-name="Trazado 104847" d="M411.1,524.463c.267,3.079,2.141,2.947,2.141,2.947-2.141-2.947,3.081-10.777,3.081-10.777-4.688,3.419-5.251,6.628-5.222,7.578Z" transform="translate(-333.52 -482.972)" fill="#754a28" opacity="0.4" style="mix-blend-mode: screen;isolation: isolate"/>
      </g>
      <path id="Trazado_104848" data-name="Trazado 104848" d="M432.523,495.936s4.174-8.6,10.064-8.548,8.034,5.043,6.16,5.763S441.169,488.6,432.523,495.936Z" transform="translate(-255.593 -395.558)" fill="url(#linear-gradient-18)"/>
      <path id="Trazado_104849" data-name="Trazado 104849" d="M385.006,510.346c2.653,2.462-6.434-17.731-13.873-22.5C371.133,487.844,379.517,505.254,385.006,510.346Z" transform="translate(-344.566 -394.897)" fill="url(#linear-gradient-20)"/>
      <path id="Trazado_104850" data-name="Trazado 104850" d="M435.233,456.784c-5.663,2.089-8.749,11.3-8.749,11.3s1.156-9.2-6.388-13.795c-2.79-1.7-7.1-1.737-10.934-.941,4.514-1.952,9.993-2.555,16.6-.8A28.707,28.707,0,0,1,435.233,456.784Z" transform="translate(-289.449 -447.562)" opacity="0.4" fill="url(#linear-gradient-12)"/>
    </g>
    <rect id="Rectángulo_5778" data-name="Rectángulo 5778" width="244" height="244" transform="translate(199 2480)" fill="none"/>
  </g>
</svg>
