<svg xmlns="http://www.w3.org/2000/svg" width="90" height="90" viewBox="0 0 90 90">
  <g id="Grupo_60909" data-name="Grupo 60909" transform="translate(-240 -8626.58)">
    <g id="Elipse_4272" data-name="Elipse 4272" transform="translate(240 8626.58)" fill="#fff" stroke="#09b291" stroke-width="5">
      <circle cx="45" cy="45" r="45" stroke="none"/>
      <circle cx="45" cy="45" r="42.5" fill="none"/>
    </g>
    <g id="Grupo_56202" data-name="Grupo 56202" transform="translate(253.328 8646.676)">
      <path id="Trazado_104394" data-name="Trazado 104394" d="M607.63,290.064a3.007,3.007,0,0,0-.08-.3.757.757,0,0,0-.7-1.21c-.069-.076-.144-.149-.22-.22a.757.757,0,0,0-.648-.849.765.765,0,0,0-.562.149,2.972,2.972,0,0,0-.3-.08.756.756,0,0,0-1.4,0c-.1.023-.2.048-.3.08a.756.756,0,0,0-1.059.14.747.747,0,0,0-.149.56c-.078.071-.151.144-.22.22a.755.755,0,0,0-.7,1.21c-.031.1-.059.2-.081.3a.756.756,0,0,0,0,1.4c.023.1.05.2.081.3a.757.757,0,0,0,.6,1.217,1,1,0,0,0,.1-.007c.069.076.142.149.22.22a.754.754,0,0,0,1.208.7c.1.033.2.059.3.081a.756.756,0,0,0,1.4,0,2.864,2.864,0,0,0,.3-.081.755.755,0,0,0,1.21-.7c.076-.071.151-.144.22-.22a.967.967,0,0,0,.1.007.757.757,0,0,0,.6-1.217c.031-.1.059-.2.081-.3a.755.755,0,0,0,0-1.4Zm-3.21,2.475a1.776,1.776,0,1,1,1.775-1.777h0A1.779,1.779,0,0,1,604.419,292.54Z" transform="translate(-567.959 -253.007)" fill="#065949"/>
      <path id="Trazado_104395" data-name="Trazado 104395" d="M618.409,288.553c-.071-.076-.144-.149-.22-.22a.757.757,0,0,0-1.21-.7,2.884,2.884,0,0,0-.3-.08.755.755,0,0,0-1.4,0,2.889,2.889,0,0,0-.3.08.756.756,0,0,0-1.059.14.748.748,0,0,0-.149.56,2.9,2.9,0,0,0-.22.22.755.755,0,0,0-.7,1.21,2.966,2.966,0,0,0-.081.3.756.756,0,0,0,0,1.4,2.879,2.879,0,0,0,.081.3.757.757,0,0,0,.6,1.217,1,1,0,0,0,.1-.007,2.892,2.892,0,0,0,.22.218.754.754,0,0,0,1.208.7,3.012,3.012,0,0,0,.3.081.755.755,0,0,0,1.4,0,2.974,2.974,0,0,0,.3-.081.757.757,0,0,0,1.061-.139.767.767,0,0,0,.149-.562c.076-.069.149-.142.22-.218a.971.971,0,0,0,.1.007.757.757,0,0,0,.6-1.217,2.844,2.844,0,0,0,.08-.3.755.755,0,0,0,0-1.4,2.926,2.926,0,0,0-.08-.3.756.756,0,0,0-.7-1.21Zm-2.432,3.987a1.776,1.776,0,1,1,1.777-1.777h0A1.779,1.779,0,0,1,615.977,292.54Z" transform="translate(-559.481 -253.007)" fill="#065949"/>
      <path id="Trazado_104396" data-name="Trazado 104396" d="M613.286,290.064c-.023-.1-.048-.2-.08-.3a.756.756,0,0,0-.7-1.21c-.071-.076-.144-.149-.22-.22a.757.757,0,0,0-.648-.849.766.766,0,0,0-.562.149c-.1-.031-.2-.057-.3-.08a.756.756,0,0,0-1.4,0c-.1.023-.2.048-.3.08a.756.756,0,0,0-1.059.14.747.747,0,0,0-.149.56c-.078.071-.151.144-.22.22a.755.755,0,0,0-.7,1.21,2.865,2.865,0,0,0-.082.3.756.756,0,0,0,0,1.4,2.864,2.864,0,0,0,.082.3.756.756,0,0,0,.6,1.217.659.659,0,0,0,.1-.007c.069.076.142.149.22.22a.756.756,0,0,0,1.208.7c.1.031.2.057.3.08a.756.756,0,0,0,1.4,0c.1-.023.2-.049.3-.08a.756.756,0,0,0,1.21-.7c.076-.071.151-.144.22-.22a.645.645,0,0,0,.1.007.757.757,0,0,0,.6-1.217c.031-.1.059-.2.081-.3a.756.756,0,0,0,0-1.4Zm-3.21,2.475a1.776,1.776,0,1,1,1.775-1.777h0A1.779,1.779,0,0,1,610.076,292.54Z" transform="translate(-563.809 -253.007)" fill="#065949"/>
      <path id="Trazado_104397" data-name="Trazado 104397" d="M644.129,304.43a5.931,5.931,0,0,0-.411-1.55.754.754,0,0,0-.752-1.3,6.017,6.017,0,0,0-1.134-1.137.756.756,0,0,0-1.3-.758,5.882,5.882,0,0,0-1.553-.416.754.754,0,0,0-1.46-.2v-3.33h2.645a.763.763,0,0,0,.43-.133l2.966-2.045a.756.756,0,0,0,.317-.744l-1.2-7.454a.754.754,0,0,0-.745-.634h-4.148V272.214h1.326a.756.756,0,0,0,.756-.756v-3.276a.758.758,0,0,0-.756-.756H620.316a4.035,4.035,0,0,0-4.032,4.032.755.755,0,0,0,.756.756h1.844L617.29,284l-3.465,1.031v-7.58a.757.757,0,0,0-.756-.758h-.605v-2.633a2.636,2.636,0,0,0-1.474-2.375l-.516-.255a.756.756,0,0,0-.671,1.356l.517.255a1.133,1.133,0,0,1,.633,1.019v2.633h-.733a.757.757,0,0,0-.756.758v8.88l-2.22.662a2.788,2.788,0,0,0-1.98,2.657V298.2h-.914v-.18c0-1.206-.716-1.636-1.385-1.636H601.71l.806-5.183a2.657,2.657,0,0,0-2.215-3.034,2.694,2.694,0,0,0-.409-.031h-1.584a.755.755,0,0,0-.744.622L595.475,300.5l-8.7,7.246-4.185-.05a.78.78,0,0,0-.539.218.757.757,0,0,0-.225.537v3.122a.757.757,0,0,0,.756.758h11.763a5.672,5.672,0,0,0,5.632-4.826l.532-3.422h2.2a1.64,1.64,0,0,0,1.638-1.638v-.179h.914V303.8a.754.754,0,0,0,.61.742l5.963,1.168a.753.753,0,0,0,.473.225,5.908,5.908,0,0,0,.418,1.553.754.754,0,0,0,.759,1.3,5.963,5.963,0,0,0,1.137,1.132.754.754,0,0,0,1.305.751,5.9,5.9,0,0,0,1.545.409.755.755,0,0,0,1.5.049h1.454a.755.755,0,0,0,1.5,0H623.2a.756.756,0,0,0,1.5,0h1.269a.756.756,0,0,0,1.5,0h1.269a.756.756,0,0,0,1.5,0H631.5a.756.756,0,0,0,1.5,0h1.7a.757.757,0,0,0,1.5,0h1.267a.756.756,0,0,0,1.5-.05,5.858,5.858,0,0,0,1.541-.411.755.755,0,0,0,1.3-.759,5.98,5.98,0,0,0,1.128-1.125.755.755,0,0,0,.759-1.3,5.9,5.9,0,0,0,.416-1.544.755.755,0,0,0,0-1.506Zm-45.643,2.841a4.167,4.167,0,0,1-4.138,3.545H583.341v-1.6l3.7.043a.746.746,0,0,0,.492-.175l9.121-7.6a.753.753,0,0,0,.26-.449l2.026-11.383h.95a1.146,1.146,0,0,1,1.146,1.144,1.207,1.207,0,0,1-.014.177Zm4.353-4.829a.127.127,0,0,1-.127.127h-1.964l.726-4.672h1.359a1.221,1.221,0,0,1,.005.127Zm2.425-1.692h-.914v-1.037h.914Zm36.019-14.511,1.024,6.346-2.38,1.641H624.085l2.91-7.988Zm-15.571-7.19h-6.227l.926-6.835h5.3Zm1.511,5.679v-4.166h4.252a2.8,2.8,0,0,0,2.8-2.8v-5.552h2v12.514Zm-9.31-14.025a2.524,2.524,0,0,1,2.4-1.763h18.033V270.7h-6.357a.756.756,0,1,0,0,1.512h.766v5.552a1.285,1.285,0,0,1-1.285,1.283h-4.252v-6.835h2.448a.756.756,0,1,0,0-1.512Zm-6.937,7.5h1.338v7.275l-1.338.4Zm2.5,23.367a.755.755,0,0,0-.756,1.3,5.829,5.829,0,0,0-.388,1.4l-5.556-1.089V289.649a1.266,1.266,0,0,1,.9-1.208l9.716-2.895.532,2.713a.756.756,0,1,0,1.486-.283l0-.007-.668-3.408.541-4h6.429v4.788l-2.4,6.577h-3.131l-.35-1.784a.756.756,0,0,0-1.484.291l.47,2.394a.756.756,0,0,0,.742.612h3.2l-.47,1.285a.758.758,0,0,0,.452.969.771.771,0,0,0,.258.045h13v3.077a.751.751,0,0,0-1.063-.042.742.742,0,0,0-.234.442H633a.755.755,0,0,0-1.493,0h-1.274a.756.756,0,0,0-1.494,0h-1.274a.756.756,0,0,0-1.494,0H624.7a.755.755,0,0,0-1.493,0h-1.276a.754.754,0,0,0-1.492,0h-1.461a.755.755,0,0,0-1.5.047,5.916,5.916,0,0,0-1.558.414.756.756,0,0,0-1.3.756,5.956,5.956,0,0,0-1.139,1.139Zm27.884,6.738a4.419,4.419,0,0,1-3.138,1.307H618.214a4.444,4.444,0,1,1,0-8.887h20.009a4.437,4.437,0,0,1,3.138,7.58Z" transform="translate(-581.829 -267.426)" fill="#065949"/>
    </g>
  </g>
</svg>
