<svg xmlns="http://www.w3.org/2000/svg" width="90" height="90" viewBox="0 0 90 90">
  <g id="Grupo_60907" data-name="Grupo 60907" transform="translate(-240 -8379.58)">
    <g id="Elipse_4270" data-name="Elipse 4270" transform="translate(240 8379.58)" fill="#fff" stroke="#09b291" stroke-width="5">
      <circle cx="45" cy="45" r="45" stroke="none"/>
      <circle cx="45" cy="45" r="42.5" fill="none"/>
    </g>
    <g id="Grupo_56206" data-name="Grupo 56206" transform="translate(254.739 8398.902)">
      <path id="Trazado_104403" data-name="Trazado 104403" d="M564.863,262.361l1.081.034a.064.064,0,0,1,.056.043l.47,1.409a.876.876,0,0,0,1.662-.554l-.469-1.407A1.82,1.82,0,0,0,566,260.644c-1.067-.034-1.132,0-1.142-.091l-.661-6.747a1.809,1.809,0,0,0-1.9-1.635,1.156,1.156,0,0,1-.3-.019c-.008-.019-.813-2.67-.819-2.689a1.818,1.818,0,0,0-1.171-1.2c-4.631-1.516-3.644-1.1-5.305-2.11h0a.063.063,0,0,1-.029-.058l.042-.706a1.814,1.814,0,0,0-2.546-1.765c-2.223.984-3.183,1.425-3.446,1.516-1.5-.1-1.531-.062-1.535-.155l-.01-.252a1.815,1.815,0,0,0-2.434-1.642.061.061,0,0,1-.067-.018l-2.344-2.653a.06.06,0,0,1-.013-.062l.872-2.44a.067.067,0,0,1,.046-.042l3.414-.669a1.806,1.806,0,0,0,1.455-1.6c.624-6.156.672-4.451-.037-7.678-.022-.107-.014-.065,2.346-.425a.064.064,0,0,1,.057.021l1.385,1.591a1.82,1.82,0,0,0,2.26.388l1.881-1.06a1.821,1.821,0,0,0,.835-2.142l-.58-1.781c-.037-.107.006-.073,4.617-.842.081-.014-.016-.212,1.359,3.913a1.806,1.806,0,0,0,2.135,1.193l2.456-.575a1.839,1.839,0,0,0,1.386-1.5c.043-.069-.069-.065,2.675.688a1.822,1.822,0,0,0,1.956-.7l.666-.931a.061.061,0,0,1,.109.014c1.533,4.009,1.479,4.213,2.274,4.611l2.558,1.279a.876.876,0,1,0,.783-1.567c-.69-.347-2.389-1.2-2.559-1.281-.161-.292-.572-1.452-1.42-3.668a1.814,1.814,0,0,0-3.17-.406l-.666.931a.067.067,0,0,1-.069.024l-2.6-.715a1.814,1.814,0,0,0-2.26,1.394c0,.043-.018.109-.061.12-2.57.6-2.5.621-2.53.533l-1.29-3.871a1.806,1.806,0,0,0-2.02-1.217l-4.567.762a1.814,1.814,0,0,0-1.426,2.351l.58,1.779c.026.08.056.026-1.912,1.135a.064.064,0,0,1-.078-.013l-1.385-1.592a1.8,1.8,0,0,0-1.642-.6l-2.293.348a1.814,1.814,0,0,0-1.5,2.183l.493,2.25c-.014.275-.137,1.405-.489,4.876-.008.074.179.011-3.464.727a1.824,1.824,0,0,0-1.359,1.171l-.872,2.44a1.815,1.815,0,0,0,.35,1.811l2.344,2.653a1.8,1.8,0,0,0,1.979.5.062.062,0,0,1,.085.056l.008.252a1.807,1.807,0,0,0,1.7,1.747c2.408.156,1.252.42,5.745-1.567a.062.062,0,0,1,.088.061,2.182,2.182,0,0,0,.826,2.362v0c1.873,1.143.731.661,5.671,2.279a.064.064,0,0,1,.041.04l.81,2.664a1.872,1.872,0,0,0,2.086,1.286c.089,0,.022-.361.725,6.8A1.82,1.82,0,0,0,564.863,262.361Z" transform="translate(-540.556 -221.931)" fill="#065949"/>
      <path id="Trazado_104404" data-name="Trazado 104404" d="M585.053,238.169c-2.587,2.413-2.7,2.407-2.848,3.1-1.1,5.019-1.463,6.712-1.567,7.084-.025.037-4.171,6.013-4.216,6.018-6.418.493-6.157.371-6.733.878-3.058,2.665-3.2,2.645-3.325,3.469-.294,1.924-.423,2.915-.5,3.186l-5.315,5.387a.064.064,0,0,1-.089,0l-3.764-3.705c-.089-.086-.192.058,3.831-3.071a1.815,1.815,0,0,0,.616-1.979l-.343-1.266a.876.876,0,0,0-1.691.46c.011.038.351,1.3.364,1.333a.062.062,0,0,1-.021.069L555.63,262.1a1.816,1.816,0,0,0-.16,2.726l3.766,3.705a1.816,1.816,0,0,0,2.563-.019l5.315-5.385c.675-.684.477-1.377.982-4.157.212-.236,1.084-.963,2.74-2.407.4-.073,1.987-.168,5.721-.455a1.809,1.809,0,0,0,1.35-.773l4.175-6c.26-.337.179-.169,1.835-7.7.179-.209.928-.88,2.332-2.191a.876.876,0,1,0-1.195-1.281Z" transform="translate(-531.975 -212.377)" fill="#065949"/>
      <path id="Trazado_104405" data-name="Trazado 104405" d="M584.235,235.717a1.816,1.816,0,0,0-1.8-1.6h-1.29c-.382-.257-1.75-1.464-5.027-4.253-.709-.6-.966-.446-5.76-.212-.251-.1-1.142-.578-3.066-1.567a.876.876,0,0,0-.8,1.559c3.4,1.747,3.33,1.789,3.951,1.757,2.9-.141,4.133-.23,4.545-.2,5.221,4.441,5.283,4.668,6.077,4.668,1.385,0,1.425-.035,1.436.054,0,.046.441,3.6.407,3.636l-1.966,1.944a.876.876,0,0,0,.615,1.5c.473,0,.46-.1,2.582-2.2a1.83,1.83,0,0,0,.538-1.29C584.673,239.365,584.7,239.62,584.235,235.717Z" transform="translate(-525.358 -218.315)" fill="#065949"/>
    </g>
  </g>
</svg>
