<svg xmlns="http://www.w3.org/2000/svg" width="90" height="90" viewBox="0 0 90 90">
  <g id="Grupo_60910" data-name="Grupo 60910" transform="translate(-240 -8725.58)">
    <g id="Elipse_4273" data-name="Elipse 4273" transform="translate(240 8725.58)" fill="#fff" stroke="#09b291" stroke-width="5">
      <circle cx="45" cy="45" r="45" stroke="none"/>
      <circle cx="45" cy="45" r="42.5" fill="none"/>
    </g>
    <g id="Grupo_56201" data-name="Grupo 56201" transform="translate(260.27 8745.851)">
      <path id="Trazado_104392" data-name="Trazado 104392" d="M594.423,307.015v-2.753a12.428,12.428,0,0,0-12.415-12.413H579.6a1.665,1.665,0,0,1-1.448-.82,10.9,10.9,0,0,0-2.763-3.168v-8.569h-2.078V275.91h8.84v-9.177H555.3v9.177h8.838v3.381h-2.076v8.569a10.843,10.843,0,0,0-2.763,3.168,1.668,1.668,0,0,1-1.45.82h-2.018v-1.691h-9.179v15.7h9.179v-1.691h2.018a1.666,1.666,0,0,1,1.45.818,10.869,10.869,0,0,0,18.855,0,1.663,1.663,0,0,1,1.448-.818h2.405a.1.1,0,0,1,.1.1v2.753h-1.69v9.177h15.7v-9.177Zm-36.226-34v-3.381h21.059v3.381Zm8.838,2.9h3.381v3.381h-3.381Zm-2.076,6.279h7.534v4.061a10.781,10.781,0,0,0-7.534,0Zm-12.028,20.77h-3.381v-9.9h3.381Zm29.076-1.691H579.6a4.57,4.57,0,0,0-3.961,2.272,7.97,7.97,0,0,1-13.83,0,4.571,4.571,0,0,0-3.963-2.272h-2.018v-6.521h2.018a4.569,4.569,0,0,0,3.963-2.274,7.972,7.972,0,0,1,13.83,0,4.568,4.568,0,0,0,3.961,2.274h2.405a9.525,9.525,0,0,1,9.516,9.516v2.753H585v-2.753a3,3,0,0,0-3-2.994Zm11.206,12.026h-9.9v-3.381h9.9Z" transform="translate(-546.653 -266.733)" fill="#065949"/>
      <path id="Trazado_104393" data-name="Trazado 104393" d="M560.684,281.145a4.588,4.588,0,1,0,4.588,4.588A4.593,4.593,0,0,0,560.684,281.145Zm0,6.279a1.691,1.691,0,1,1,1.69-1.691A1.693,1.693,0,0,1,560.684,287.424Z" transform="translate(-538.611 -254.459)" fill="#065949"/>
    </g>
  </g>
</svg>
