<svg xmlns="http://www.w3.org/2000/svg" width="90" height="90" viewBox="0 0 90 90">
  <g id="Grupo_60911" data-name="Grupo 60911" transform="translate(-240 -8841.58)">
    <g id="Elipse_4274" data-name="Elipse 4274" transform="translate(240 8841.58)" fill="#fff" stroke="#09b291" stroke-width="5">
      <circle cx="45" cy="45" r="45" stroke="none"/>
      <circle cx="45" cy="45" r="42.5" fill="none"/>
    </g>
    <g id="Grupo_56209" data-name="Grupo 56209" transform="translate(260.27 8863.11)">
      <path id="Trazado_104438" data-name="Trazado 104438" d="M677.061,221.812H637.946a3.917,3.917,0,0,0-3.912,3.911V264.84a3.917,3.917,0,0,0,3.912,3.911h39.115a3.916,3.916,0,0,0,3.913-3.911V225.723A3.916,3.916,0,0,0,677.061,221.812Zm2.348,43.028a2.347,2.347,0,0,1-2.348,2.346H637.946a2.347,2.347,0,0,1-2.347-2.346V225.723a2.347,2.347,0,0,1,2.347-2.347h39.115a2.347,2.347,0,0,1,2.348,2.347Z" transform="translate(-634.033 -221.812)" fill="#065949"/>
      <path id="Trazado_104439" data-name="Trazado 104439" d="M656.1,225.1a18.776,18.776,0,1,0,18.776,18.776A18.776,18.776,0,0,0,656.1,225.1Zm0,35.987a17.211,17.211,0,1,1,17.211-17.211A17.211,17.211,0,0,1,656.1,261.086Z" transform="translate(-632.626 -220.405)" fill="#065949"/>
      <path id="Trazado_104440" data-name="Trazado 104440" d="M663.775,224a2.347,2.347,0,1,0,2.346,2.348A2.347,2.347,0,0,0,663.775,224Zm0,3.13a.783.783,0,1,1,.783-.783A.783.783,0,0,1,663.775,227.133Z" transform="translate(-622.31 -220.874)" fill="#065949"/>
      <path id="Trazado_104441" data-name="Trazado 104441" d="M638.573,228.7a2.347,2.347,0,1,0-2.348-2.346A2.347,2.347,0,0,0,638.573,228.7Zm0-3.129a.783.783,0,1,1-.783.783A.781.781,0,0,1,638.573,225.568Z" transform="translate(-633.095 -220.874)" fill="#065949"/>
      <path id="Trazado_104442" data-name="Trazado 104442" d="M663.775,249.205a2.348,2.348,0,1,0,2.346,2.348A2.347,2.347,0,0,0,663.775,249.205Zm0,3.13a.783.783,0,1,1,.783-.783A.783.783,0,0,1,663.775,252.335Z" transform="translate(-622.31 -210.09)" fill="#065949"/>
      <path id="Trazado_104443" data-name="Trazado 104443" d="M638.573,249.205a2.348,2.348,0,1,0,2.346,2.348A2.348,2.348,0,0,0,638.573,249.205Zm0,3.13a.783.783,0,1,1,.781-.783A.783.783,0,0,1,638.573,252.335Z" transform="translate(-633.095 -210.09)" fill="#065949"/>
      <path id="Trazado_104444" data-name="Trazado 104444" d="M642.956,239.107h23.469a2.347,2.347,0,0,0,0-4.694H642.956a2.347,2.347,0,1,0,0,4.694Zm0-3.13h23.469a.783.783,0,0,1,0,1.565H642.956a.783.783,0,1,1,0-1.565Z" transform="translate(-631.219 -216.42)" fill="#065949"/>
      <path id="Trazado_104445" data-name="Trazado 104445" d="M644.6,234.724h18.776a2.347,2.347,0,1,0,0-4.694H644.6a2.347,2.347,0,0,0,0,4.694Zm0-3.129h18.776a.782.782,0,1,1,0,1.564H644.6a.782.782,0,1,1,0-1.564Z" transform="translate(-630.516 -218.295)" fill="#065949"/>
      <path id="Trazado_104446" data-name="Trazado 104446" d="M666.425,238.8H642.956a2.347,2.347,0,1,0,0,4.694h23.469a2.347,2.347,0,0,0,0-4.694Zm0,3.129H642.956a.783.783,0,1,1,0-1.565h23.469a.783.783,0,0,1,0,1.565Z" transform="translate(-631.219 -214.544)" fill="#065949"/>
      <path id="Trazado_104447" data-name="Trazado 104447" d="M663.374,243.179H644.6a2.347,2.347,0,0,0,0,4.694h18.776a2.347,2.347,0,1,0,0-4.694Zm0,3.129H644.6a.782.782,0,1,1,0-1.565h18.776a.782.782,0,1,1,0,1.565Z" transform="translate(-630.516 -212.668)" fill="#065949"/>
    </g>
  </g>
</svg>
