<svg id="Grupo_60856" data-name="Grupo 60856" xmlns="http://www.w3.org/2000/svg" width="104.301" height="107.19" viewBox="0 0 104.301 107.19">
  <g id="Grupo_56214" data-name="Grupo 56214" transform="translate(0 2.916)">
    <path id="Trazado_104471" data-name="Trazado 104471" d="M110.1,226.417l39.62,47.475a52.142,52.142,0,1,0-79.652.494l40.027-47.961Z" transform="translate(-57.539 -188.369)" fill="#fdeda9"/>
    <path id="Trazado_104472" data-name="Trazado 104472" d="M140.674,262.5l-39.62-47.475,0,.009c-.348.661-23.1,43.739-22.35,61.379A52.13,52.13,0,0,0,140.674,262.5Z" transform="translate(-48.497 -176.972)" fill="#468ca5"/>
    <path id="Trazado_104473" data-name="Trazado 104473" d="M83.989,276.405c-.747-17.64,22-60.718,22.35-61.379L66.312,262.987A52.309,52.309,0,0,0,83.989,276.405Z" transform="translate(-53.787 -176.969)" fill="#2d5b68"/>
  </g>
  <g id="Grupo_56215" data-name="Grupo 56215" transform="translate(24.259 1.464)">
    <path id="Trazado_104474" data-name="Trazado 104474" d="M82.006,195.2a1.688,1.688,0,0,1-1.689-1.687v-4.474a1.689,1.689,0,1,1,3.378,0v4.474A1.688,1.688,0,0,1,82.006,195.2Z" transform="translate(-72.057 -187.352)" fill="#fad228"/>
    <path id="Trazado_104475" data-name="Trazado 104475" d="M82.006,203.641a1.69,1.69,0,0,1-1.689-1.689v-4.474a1.689,1.689,0,0,1,3.378,0v4.474A1.689,1.689,0,0,1,82.006,203.641Z" transform="translate(-72.057 -183.743)" fill="#fad228"/>
    <path id="Trazado_104476" data-name="Trazado 104476" d="M89.132,196.514H84.658a1.688,1.688,0,1,1,0-3.376h4.474a1.688,1.688,0,1,1,0,3.376Z" transform="translate(-70.922 -184.878)" fill="#fad228"/>
    <path id="Trazado_104477" data-name="Trazado 104477" d="M80.694,196.514H76.22a1.688,1.688,0,1,1,0-3.376h4.474a1.688,1.688,0,1,1,0,3.376Z" transform="translate(-74.531 -184.878)" fill="#fad228"/>
    <path id="Trazado_104478" data-name="Trazado 104478" d="M102.347,193.754A1.689,1.689,0,1,1,104,192.4,1.708,1.708,0,0,1,102.347,193.754Z" transform="translate(-63.357 -186.054)" fill="#fad228"/>
    <path id="Trazado_104479" data-name="Trazado 104479" d="M127.679,217.015a1.688,1.688,0,1,1,1.655-1.359A1.706,1.706,0,0,1,127.679,217.015Z" transform="translate(-52.523 -176.106)" fill="#fad228"/>
  </g>
  <g id="Grupo_56216" data-name="Grupo 56216" transform="translate(40.494 61.017)">
    <path id="Trazado_104480" data-name="Trazado 104480" d="M115.334,245.046a1.688,1.688,0,1,1,1.646-1.318A1.7,1.7,0,0,1,115.334,245.046Z" transform="translate(-74.038 -223.671)" fill="#69d1ff"/>
    <path id="Trazado_104481" data-name="Trazado 104481" d="M119.119,252.615a1.687,1.687,0,1,1,1.636-1.276A1.7,1.7,0,0,1,119.119,252.615Z" transform="translate(-72.419 -220.434)" fill="#69d1ff"/>
    <path id="Trazado_104482" data-name="Trazado 104482" d="M106.188,239.368a1.688,1.688,0,1,1,1.662-1.4A1.7,1.7,0,0,1,106.188,239.368Z" transform="translate(-77.949 -226.098)" fill="#69d1ff"/>
    <path id="Trazado_104483" data-name="Trazado 104483" d="M87.576,232.431a1.689,1.689,0,1,1,1.676-1.479A1.7,1.7,0,0,1,87.576,232.431Z" transform="translate(-85.903 -229.066)" fill="#69d1ff"/>
  </g>
  <g id="Grupo_56217" data-name="Grupo 56217" transform="translate(38.562 86.841)">
    <path id="Trazado_104484" data-name="Trazado 104484" d="M111.4,251.7a1.688,1.688,0,1,1,1.669-1.441A1.7,1.7,0,0,1,111.4,251.7Z" transform="translate(-73.789 -246.649)" fill="#69d1ff"/>
    <path id="Trazado_104485" data-name="Trazado 104485" d="M86.223,250.522a1.689,1.689,0,1,1,1.636-1.273A1.7,1.7,0,0,1,86.223,250.522Z" transform="translate(-84.55 -247.154)" fill="#69d1ff"/>
  </g>
  <g id="Grupo_56218" data-name="Grupo 56218" transform="translate(22.033 80.821)">
    <path id="Trazado_104486" data-name="Trazado 104486" d="M74.965,252.3a1.688,1.688,0,1,1,1.662-1.4A1.7,1.7,0,0,1,74.965,252.3Z" transform="translate(-72.84 -240.373)" fill="#468ca5"/>
    <path id="Trazado_104487" data-name="Trazado 104487" d="M74.647,246.31A1.687,1.687,0,1,1,76.3,244.97,1.7,1.7,0,0,1,74.647,246.31Z" transform="translate(-72.972 -242.938)" fill="#468ca5"/>
  </g>
  <g id="Grupo_56219" data-name="Grupo 56219" transform="translate(3.926)">
    <path id="Trazado_104488" data-name="Trazado 104488" d="M65.685,201.084a1.688,1.688,0,1,1,1.675-1.48A1.7,1.7,0,0,1,65.685,201.084Z" transform="translate(-58.702 -181.453)" fill="#fad228"/>
    <path id="Trazado_104489" data-name="Trazado 104489" d="M103.326,221.836a1.688,1.688,0,1,1,1.675-1.48A1.7,1.7,0,0,1,103.326,221.836Z" transform="translate(-42.605 -172.579)" fill="#fad228"/>
    <path id="Trazado_104490" data-name="Trazado 104490" d="M88.431,226.114l4.306-.874a1.9,1.9,0,0,0,0-3.729l-4.306-.872a10.774,10.774,0,0,1-8.419-8.419l-.872-4.306a1.9,1.9,0,0,0-3.729,0l-.872,4.306a10.774,10.774,0,0,1-8.419,8.419l-4.306.872a1.9,1.9,0,0,0,0,3.729l4.306.874a10.774,10.774,0,0,1,8.419,8.419l.872,4.3a1.9,1.9,0,0,0,3.729,0l.872-4.3A10.774,10.774,0,0,1,88.431,226.114Z" transform="translate(-60.289 -177.746)" fill="#fad228"/>
    <path id="Trazado_104491" data-name="Trazado 104491" d="M135.72,209.574l5.074-1.029a2.242,2.242,0,0,0,0-4.394l-5.074-1.029A12.7,12.7,0,0,1,125.8,193.2l-1.029-5.075a2.242,2.242,0,0,0-4.394,0l-1.029,5.074a12.7,12.7,0,0,1-9.922,9.924l-5.075,1.028a2.243,2.243,0,0,0,0,4.4l5.075,1.029a12.7,12.7,0,0,1,9.922,9.922l1.028,5.074a2.243,2.243,0,0,0,4.4,0L125.8,219.5A12.7,12.7,0,0,1,135.72,209.574Z" transform="translate(-42.216 -186.326)" fill="#fad228"/>
  </g>
</svg>
