<svg id="Grupo_60858" data-name="Grupo 60858" xmlns="http://www.w3.org/2000/svg" width="104.274" height="107.191" viewBox="0 0 104.274 107.191">
  <g id="Grupo_56224" data-name="Grupo 56224" transform="translate(0 2.916)">
    <path id="Trazado_104496" data-name="Trazado 104496" d="M321.535,236.707h12.953a3.24,3.24,0,0,1,3.239,3.238V270.69a52.137,52.137,0,1,0-84.2,0V239.944a3.239,3.239,0,0,1,3.238-3.238h12.955a3.239,3.239,0,0,1,3.238,3.238v46.963a51.723,51.723,0,0,0,6.477,2.6V239.944a3.239,3.239,0,0,1,3.238-3.238h25.908a3.239,3.239,0,0,1,3.238,3.238v49.561a51.723,51.723,0,0,0,6.477-2.6V239.944A3.239,3.239,0,0,1,321.535,236.707Z" transform="translate(-243.491 -187.808)" fill="#fdeda9"/>
    <path id="Trazado_104497" data-name="Trazado 104497" d="M305.6,222.059h-6.477a3.239,3.239,0,0,0-3.238,3.238V272.26a52.1,52.1,0,0,0,9.715-6.117Z" transform="translate(-221.083 -173.16)" fill="#468ca5"/>
    <path id="Trazado_104498" data-name="Trazado 104498" d="M309.17,222.059h-6.476v44.083a52.481,52.481,0,0,0,9.715-10.1V225.3A3.24,3.24,0,0,0,309.17,222.059Z" transform="translate(-218.173 -173.16)" fill="#2d5b68"/>
    <path id="Trazado_104499" data-name="Trazado 104499" d="M260.237,266.142V222.059H253.76a3.239,3.239,0,0,0-3.238,3.238v30.746A52.435,52.435,0,0,0,260.237,266.142Z" transform="translate(-240.484 -173.16)" fill="#468ca5"/>
    <path id="Trazado_104500" data-name="Trazado 104500" d="M263.8,222.059h-6.477v44.083a52.1,52.1,0,0,0,9.715,6.117V225.3A3.239,3.239,0,0,0,263.8,222.059Z" transform="translate(-237.574 -173.16)" fill="#2d5b68"/>
    <path id="Trazado_104501" data-name="Trazado 104501" d="M284.86,222.059H271.907a3.239,3.239,0,0,0-3.238,3.238v49.561a52.067,52.067,0,0,0,16.191,2.577Z" transform="translate(-232.724 -173.16)" fill="#468ca5"/>
    <path id="Trazado_104502" data-name="Trazado 104502" d="M292.965,222.059H280.01v55.376a52.069,52.069,0,0,0,16.192-2.577V225.3A3.239,3.239,0,0,0,292.965,222.059Z" transform="translate(-227.873 -173.16)" fill="#2d5b68"/>
  </g>
  <g id="Grupo_56225" data-name="Grupo 56225" transform="translate(16.515 12.954)">
    <path id="Trazado_104503" data-name="Trazado 104503" d="M258.3,240.177a3.351,3.351,0,0,1-.337-.017,3.238,3.238,0,0,1-2.888-3.555,98.3,98.3,0,0,1,13.4-40.194,3.238,3.238,0,0,1,5.554,3.332,91.8,91.8,0,0,0-12.509,37.529,3.237,3.237,0,0,1-3.217,2.905Z" transform="translate(-255.059 -194.839)" fill="#09b291"/>
  </g>
  <g id="Grupo_56226" data-name="Grupo 56226" transform="translate(16.515)">
    <path id="Trazado_104504" data-name="Trazado 104504" d="M258.3,244.057h-.059a3.238,3.238,0,0,1-3.181-3.294,248.773,248.773,0,0,1,6.563-52.5,3.238,3.238,0,1,1,6.3,1.483,242.175,242.175,0,0,0-6.392,51.13,3.239,3.239,0,0,1-3.236,3.181Z" transform="translate(-255.059 -185.765)" fill="#69d1ff"/>
  </g>
  <g id="Grupo_56227" data-name="Grupo 56227" transform="translate(3.561 12.954)">
    <path id="Trazado_104505" data-name="Trazado 104505" d="M262.173,240.177a3.237,3.237,0,0,1-3.217-2.905,91.776,91.776,0,0,0-12.509-37.529A3.238,3.238,0,1,1,252,196.411a98.323,98.323,0,0,1,13.4,40.194,3.24,3.24,0,0,1-2.888,3.555q-.171.017-.338.017Z" transform="translate(-245.985 -194.839)" fill="#fad228"/>
  </g>
  <g id="Grupo_56228" data-name="Grupo 56228" transform="translate(10.037)">
    <path id="Trazado_104506" data-name="Trazado 104506" d="M260.236,244.057A3.239,3.239,0,0,1,257,240.875a242.173,242.173,0,0,0-6.392-51.129,3.238,3.238,0,1,1,6.3-1.483,248.685,248.685,0,0,1,6.563,52.5,3.238,3.238,0,0,1-3.181,3.294Z" transform="translate(-250.521 -185.765)" fill="#e94b46"/>
  </g>
  <g id="Grupo_56231" data-name="Grupo 56231" transform="translate(42.421 0.001)">
    <g id="Grupo_56230" data-name="Grupo 56230">
      <g id="Grupo_56229" data-name="Grupo 56229">
        <path id="Trazado_104507" data-name="Trazado 104507" d="M292.635,210.33l-3.142.334,3.142,8.829v10.268l-2.47,1.582,2.266,7.375a3.244,3.244,0,0,1-3.034,2.1H276.444a3.24,3.24,0,0,1-3.239-3.238V219.493l2.039-2.544L273.2,210.33V200.063l2.039-3.886L273.2,190.9V189a3.24,3.24,0,0,1,3.239-3.238H289.4A3.239,3.239,0,0,1,292.635,189Z" transform="translate(-273.205 -185.766)" fill="#eff6fe"/>
      </g>
    </g>
  </g>
  <path id="Trazado_104508" data-name="Trazado 104508" d="M289.725,210.33l-3.142.334,3.142,8.829v10.268l-2.47,1.582,2.266,7.375a3.244,3.244,0,0,1-3.034,2.1H280.01V185.766h6.477A3.239,3.239,0,0,1,289.725,189Z" transform="translate(-227.873 -185.765)" fill="#d2dce7"/>
  <g id="Grupo_56232" data-name="Grupo 56232" transform="translate(42.421 5.135)">
    <path id="Trazado_104509" data-name="Trazado 104509" d="M292.635,208.792v9.163l-19.43-19.43v-9.163Z" transform="translate(-273.205 -189.362)" fill="#d2dce7"/>
  </g>
  <g id="Grupo_56233" data-name="Grupo 56233" transform="translate(42.421 24.565)">
    <path id="Trazado_104510" data-name="Trazado 104510" d="M292.635,222.4v7.819a3.268,3.268,0,0,1-.2,1.138L273.2,212.135v-9.163Z" transform="translate(-273.205 -202.972)" fill="#d2dce7"/>
  </g>
  <path id="Trazado_104511" data-name="Trazado 104511" d="M289.725,205.882v9.163l-9.715-9.715v-9.163Z" transform="translate(-227.873 -181.317)" fill="#a1aebc"/>
  <path id="Trazado_104512" data-name="Trazado 104512" d="M280.01,209.777l9.715,9.715v7.819a3.268,3.268,0,0,1-.2,1.138l-9.511-9.51Z" transform="translate(-227.873 -175.496)" fill="#a1aebc"/>
  <g id="Grupo_56234" data-name="Grupo 56234" transform="translate(81.282 0.001)">
    <path id="Trazado_104513" data-name="Trazado 104513" d="M306.9,189v51.814a3.239,3.239,0,1,1-6.477,0V189a3.239,3.239,0,0,1,6.477,0Z" transform="translate(-300.425 -185.766)" fill="#fad228"/>
  </g>
</svg>
