<svg id="Grupo_60857" data-name="Grupo 60857" xmlns="http://www.w3.org/2000/svg" width="106.095" height="104.274" viewBox="0 0 106.095 104.274">
  <g id="Grupo_56221" data-name="Grupo 56221" transform="translate(1.821)">
    <path id="Trazado_104492" data-name="Trazado 104492" d="M253.562,241.586h-5.449V233.54h5.114a52.131,52.131,0,1,0-92.9,38.218h82.287A51.867,51.867,0,0,0,253.562,241.586Z" transform="translate(-149.333 -187.618)" fill="#fdeda9"/>
    <path id="Trazado_104493" data-name="Trazado 104493" d="M197.137,265.483A51.967,51.967,0,0,0,234.8,249.372H159.468A51.973,51.973,0,0,0,197.137,265.483Z" transform="translate(-144.999 -161.209)" fill="#fdeda9"/>
    <path id="Trazado_104494" data-name="Trazado 104494" d="M218.523,227.83h5.449c.021-.61.046-1.216.046-1.83a52.521,52.521,0,0,0-.381-6.216h-5.114Z" transform="translate(-119.744 -173.862)" fill="#2d5b68"/>
    <path id="Trazado_104495" data-name="Trazado 104495" d="M157.034,246.554a52.39,52.39,0,0,0,3.475,4.023h75.336a52.394,52.394,0,0,0,3.476-4.023Z" transform="translate(-146.04 -162.414)" fill="#a1aebc"/>
  </g>
  <path id="Shape" d="M210.491,235.673h7.865a4.035,4.035,0,0,0,4.023-4.023V219.58a4.033,4.033,0,0,0-4.023-4.023h-8.85Z" transform="translate(-121.779 -175.67)" fill="#468ca5"/>
  <g id="Grupo_56222" data-name="Grupo 56222" transform="translate(22.151 15.748)">
    <path id="Shape-2" data-name="Shape" d="M163.573,210.738v-7.06a5.029,5.029,0,1,1,10.058,0v7.04Z" transform="translate(-163.573 -198.649)" fill="#2d5b68"/>
    <path id="Shape-3" data-name="Shape" d="M181.282,198.649a5.029,5.029,0,0,1,5.03,5.03v7.04H176.254v-7.04A5.029,5.029,0,0,1,181.282,198.649Z" transform="translate(-158.15 -198.649)" fill="#2d5b68"/>
    <path id="Shape-4" data-name="Shape" d="M188.935,210.718v-7.04a5.029,5.029,0,1,1,10.058,0v7.06Z" transform="translate(-152.727 -198.649)" fill="#2d5b68"/>
  </g>
  <path id="Shape-5" data-name="Shape" d="M224.218,251.659a23.52,23.52,0,0,0,7.6-5.07A23.133,23.133,0,0,0,215.468,207.1H171.215a23.133,23.133,0,0,0-8.75,44.556l11.807,1.709h38.14Z" transform="translate(-148.058 -179.285)" fill="#fad228"/>
  <path id="Shape-6" data-name="Shape" d="M154.337,229.2H154.2a2.013,2.013,0,0,1-1.876-2.139,17.15,17.15,0,0,1,11.654-15.086,2.014,2.014,0,1,1,1.271,3.822,13.128,13.128,0,0,0-8.91,11.535A2.012,2.012,0,0,1,154.337,229.2Z" transform="translate(-146.233 -177.245)" fill="#fdeda9"/>
  <path id="Shape-7" data-name="Shape" d="M196.422,233.874h5.027a1.8,1.8,0,0,1,1.76,1.436l2.872,14.364a1.795,1.795,0,0,1-1.76,2.154H193.548a1.795,1.795,0,0,1-1.759-2.154l2.872-14.364a1.8,1.8,0,0,1,1.76-1.436Z" transform="translate(-129.371 -167.836)" fill="#468ca5"/>
  <path id="Shape-8" data-name="Shape" d="M164.138,233.874h5.027a1.8,1.8,0,0,1,1.76,1.436l2.872,14.364a1.795,1.795,0,0,1-1.76,2.154H161.264a1.795,1.795,0,0,1-1.759-2.154l2.872-14.364a1.8,1.8,0,0,1,1.76-1.436Z" transform="translate(-143.178 -167.836)" fill="#468ca5"/>
  <path id="Shape-9" data-name="Shape" d="M184.639,243.515a16.52,16.52,0,0,1-4.137-.525,12.347,12.347,0,0,1-6.317-3.753,10.758,10.758,0,0,1-1.71-9.644l.842-3.119,2.1,2.387a3.813,3.813,0,0,0,1.957,1.225,2.832,2.832,0,0,0,.65.074,2.715,2.715,0,0,0,1.943-.792,2.361,2.361,0,0,0,.6-2.186,6.245,6.245,0,0,0-.891-1.972,7.363,7.363,0,0,1-.8-1.676,6.636,6.636,0,0,1,1.655-6.062,24.415,24.415,0,0,1,2.106-2.257c.348-.344.651-.64.944-.947l2.845-2.938.1,4.182a6.786,6.786,0,0,0,.051.748,6.368,6.368,0,0,0,2.076,4.1l.59.555a26.364,26.364,0,0,1,4.179,4.6,17.33,17.33,0,0,1,2.483,5.555,10.109,10.109,0,0,1-1.609,8.208,11.714,11.714,0,0,1-9.658,4.239Z" transform="translate(-137.817 -177.477)" fill="#cc4040"/>
</svg>
