<svg xmlns="http://www.w3.org/2000/svg" width="90" height="90" viewBox="0 0 90 90">
  <g id="Grupo_56278" data-name="Grupo 56278" transform="translate(-257 -2062)">
    <g id="Elipse_4280" data-name="Elipse 4280" transform="translate(257 2062)" fill="#fff" stroke="#09b291" stroke-width="5">
      <circle cx="45" cy="45" r="45" stroke="none"/>
      <circle cx="45" cy="45" r="42.5" fill="none"/>
    </g>
    <g id="Grupo_56271" data-name="Grupo 56271" transform="translate(275.978 2078.978)">
      <g id="Grupo_56270" data-name="Grupo 56270">
        <g id="Grupo_56269" data-name="Grupo 56269">
          <path id="Trazado_104623" data-name="Trazado 104623" d="M591.494,370.321a2.737,2.737,0,0,0-5.167,0h-2a.917.917,0,0,1-.917-.917v-2a2.737,2.737,0,0,0,0-5.167V351.056H566.893V362.23a2.628,2.628,0,0,0-1.016.636,2.687,2.687,0,0,0-.819,1.951,2.751,2.751,0,0,0,1.835,2.584v2a.917.917,0,0,1-.918.917h-2a2.738,2.738,0,0,0-5.169,0H547.627v16.514h11.178a2.735,2.735,0,0,0,5.166,0H573.7l3.742-3.745-.625,3.745h9.509a2.737,2.737,0,0,0,5.169,0h11.176V370.321ZM558.636,385h-9.175V372.155h9.175Zm3.669.918a.917.917,0,0,1-1.835,0V371.239a.9.9,0,0,1,.282-.654.874.874,0,0,1,.636-.264.917.917,0,0,1,.917.918Zm6.422-33.027h12.844v9.173H568.728Zm-1.554,11.274a.873.873,0,0,1,.636-.264h14.679a.917.917,0,1,1,0,1.835H567.81a.917.917,0,0,1-.917-.918A.888.888,0,0,1,567.174,364.164ZM586.158,385h-7.172l1.21-7.263L572.941,385h-8.8V372.155h1.835a2.752,2.752,0,0,0,2.753-2.751v-1.835h12.844V369.4a2.75,2.75,0,0,0,2.751,2.751h1.835Zm3.671.918a.9.9,0,0,1-.281.653.876.876,0,0,1-.637.264.917.917,0,0,1-.918-.917V371.239a.918.918,0,1,1,1.836,0ZM600.837,385h-9.173V372.155h9.173Z" transform="translate(-547.627 -351.056)" fill="#065949"/>
          <path id="Trazado_104624" data-name="Trazado 104624" d="M568.889,378.788l-.756,1.094c-.486.7-4.75,6.954-4.75,9.695a5.5,5.5,0,1,0,11.009,0c0-2.74-4.263-8.99-4.749-9.695Zm0,14.459a3.669,3.669,0,0,1-3.669-3.671c0-1.41,2.018-4.979,3.669-7.522,1.652,2.544,3.669,6.113,3.669,7.522A3.67,3.67,0,0,1,568.889,393.247Z" transform="translate(-541.367 -340.038)" fill="#065949"/>
        </g>
      </g>
    </g>
  </g>
</svg>
