<svg xmlns="http://www.w3.org/2000/svg" xmlns:xlink="http://www.w3.org/1999/xlink" width="352" height="264" viewBox="0 0 352 264">
  <defs>
    <linearGradient id="linear-gradient" x1="-0.034" y1="0.626" x2="1.081" y2="0.302" gradientUnits="objectBoundingBox">
      <stop offset="0" stop-color="#9a8a62"/>
      <stop offset="0.054" stop-color="#918563"/>
      <stop offset="0.275" stop-color="#737468"/>
      <stop offset="0.464" stop-color="#606a6b"/>
      <stop offset="0.597" stop-color="#5a676d"/>
      <stop offset="0.685" stop-color="#5f6a6b"/>
      <stop offset="0.802" stop-color="#707368"/>
      <stop offset="0.932" stop-color="#8b8164"/>
      <stop offset="1" stop-color="#9c8b61"/>
    </linearGradient>
    <linearGradient id="linear-gradient-2" y1="0.5" x2="1" y2="0.5" gradientUnits="objectBoundingBox">
      <stop offset="0" stop-color="#7e9193"/>
      <stop offset="0.522" stop-color="#9faeaf"/>
      <stop offset="1" stop-color="#7e9193"/>
    </linearGradient>
    <linearGradient id="linear-gradient-5" x1="0" y1="0.5" x2="1" y2="0.5" xlink:href="#linear-gradient-2"/>
    <radialGradient id="radial-gradient" cx="0.5" cy="0.5" r="1.02" gradientTransform="translate(0.315) scale(0.37 1)" gradientUnits="objectBoundingBox">
      <stop offset="0" stop-color="#ca9089"/>
      <stop offset="1" stop-color="#be776e"/>
    </radialGradient>
    <radialGradient id="radial-gradient-2" cx="0.5" cy="0.5" r="0.444" gradientTransform="translate(-0.158) scale(1.316 1)" xlink:href="#radial-gradient"/>
    <linearGradient id="linear-gradient-9" x1="0" y1="0.5" x2="1" y2="0.5" xlink:href="#linear-gradient-2"/>
    <linearGradient id="linear-gradient-11" x1="0.246" y1="0.099" x2="0.521" y2="0.955" gradientUnits="objectBoundingBox">
      <stop offset="0" stop-color="#77796d"/>
      <stop offset="1" stop-color="#d5ab57"/>
    </linearGradient>
    <linearGradient id="linear-gradient-12" x1="0.246" y1="0.099" x2="0.521" y2="0.955" gradientUnits="objectBoundingBox">
      <stop offset="0" stop-color="#646b52"/>
      <stop offset="0.398" stop-color="#77796d"/>
      <stop offset="1" stop-color="#d5ab57"/>
    </linearGradient>
    <radialGradient id="radial-gradient-3" cx="0.401" cy="0.406" r="2.284" gradientTransform="translate(0.296 0.01) scale(0.261 1.074)" xlink:href="#linear-gradient-12"/>
    <radialGradient id="radial-gradient-4" cx="0.5" cy="0.5" r="0.466" gradientTransform="translate(-0.037 0.195) scale(1.074 1.074)" gradientUnits="objectBoundingBox">
      <stop offset="0.554" stop-color="#d2a957"/>
      <stop offset="1" stop-color="#988854"/>
    </radialGradient>
    <radialGradient id="radial-gradient-5" cx="0.5" cy="0.5" r="0.465" gradientTransform="translate(-0.037 0.254) scale(1.073 1.074)" xlink:href="#radial-gradient-4"/>
    <radialGradient id="radial-gradient-6" cx="0.5" cy="0.5" r="0.465" gradientTransform="translate(-0.037 0.26) scale(1.074 1.074)" xlink:href="#radial-gradient-4"/>
    <radialGradient id="radial-gradient-7" cx="0.5" cy="0.5" r="0.466" gradientTransform="translate(-0.037 0.15) scale(1.074 1.074)" xlink:href="#radial-gradient-4"/>
    <radialGradient id="radial-gradient-8" cx="0.5" cy="0.5" r="0.465" gradientTransform="translate(-0.037 0.236) scale(1.074 1.074)" xlink:href="#radial-gradient-4"/>
    <radialGradient id="radial-gradient-9" cx="0.5" cy="0.501" r="0.465" gradientTransform="translate(-0.037 0.238) scale(1.074 1.074)" xlink:href="#radial-gradient-4"/>
    <radialGradient id="radial-gradient-10" cx="0.5" cy="0.5" r="0.466" gradientTransform="translate(-0.037 0.27) scale(1.073 1.074)" xlink:href="#radial-gradient-4"/>
    <radialGradient id="radial-gradient-11" cx="0.5" cy="0.5" r="0.465" gradientTransform="translate(-0.037 0.258) scale(1.074 1.074)" xlink:href="#radial-gradient-4"/>
    <radialGradient id="radial-gradient-12" cx="0.5" cy="0.5" r="0.465" gradientTransform="translate(-0.037 0.256) scale(1.073 1.074)" xlink:href="#radial-gradient-4"/>
    <radialGradient id="radial-gradient-13" cx="0.5" cy="0.5" r="0.465" gradientTransform="translate(-0.037 0.263) scale(1.074 1.074)" xlink:href="#radial-gradient-4"/>
    <radialGradient id="radial-gradient-14" cx="0.5" cy="0.5" r="0.465" gradientTransform="translate(-0.037 0.184) scale(1.074 1.074)" xlink:href="#radial-gradient-4"/>
    <radialGradient id="radial-gradient-15" cx="0.5" cy="0.5" r="0.466" gradientTransform="translate(-0.037 0.106) scale(1.074 1.074)" xlink:href="#radial-gradient-4"/>
    <radialGradient id="radial-gradient-16" cx="0.5" cy="0.5" r="0.465" gradientTransform="translate(-0.038 0.097) scale(1.075 1.074)" xlink:href="#radial-gradient-4"/>
    <radialGradient id="radial-gradient-17" cx="0.5" cy="0.5" r="0.465" gradientTransform="translate(-0.037 0.201) scale(1.074 1.074)" xlink:href="#radial-gradient-4"/>
    <radialGradient id="radial-gradient-18" cx="0.5" cy="0.5" r="0.466" gradientTransform="translate(-0.037 0.168) scale(1.073 1.074)" xlink:href="#radial-gradient-4"/>
    <radialGradient id="radial-gradient-19" cx="0.5" cy="0.5" r="0.466" gradientTransform="translate(-0.037 0.203) scale(1.074 1.074)" xlink:href="#radial-gradient-4"/>
  </defs>
  <g id="Grupo_60906" data-name="Grupo 60906" transform="translate(-507 -2517)">
    <rect id="Rect치ngulo_5751" data-name="Rect치ngulo 5751" width="352" height="163" transform="translate(507 2618)" fill="#cdf0e9" opacity="0.36"/>
    <g id="Grupo_56328" data-name="Grupo 56328" transform="translate(0 37)">
      <rect id="Rect치ngulo_5777" data-name="Rect치ngulo 5777" width="244" height="244" transform="translate(570 2480)" fill="none"/>
      <g id="Grupo_56327" data-name="Grupo 56327" transform="translate(96.423 2076.186)">
        <g id="Grupo_56323" data-name="Grupo 56323" transform="translate(503.545 540.796)">
          <path id="Trazado_104851" data-name="Trazado 104851" d="M642.52,496.88l-69.758.425c-11.945.072-23.889.145-35.83.481-13.056.367-26.411,1.118-38.495,6.659-5.3,2.428-10.84,6.69-11.412,13.06-.635,7.1,5.436,12.944,11.614,14.755s12.734.975,19.033,2.16c4.463.841,18.711,7.332,10.708,13.691-1.451,1.151-3.184,2.093-3.973,3.877-.986,2.225-.058,5.042,1.6,6.7,4.941,4.946,13.986,5.972,20.247,6.294a60.012,60.012,0,0,0,23.816-3.611c5.91-2.173,11.573-5.286,17.684-6.58,11.243-2.379,20.446,2.569,31.192,4.581,9.038,1.693,18.59,2.811,27.789,1.939,4.633-.44,9.51-1.478,12.955-4.968,3.4-3.448,4.821-8.687,7.589-12.783,2.882-4.266,8.255-8.939,12.949-10.272,5.447-1.547,10.985-2.238,16.4-4.307,5.762-2.2,12.224-6.4,12.39-13.2a12.558,12.558,0,0,0-5.116-9.908c-2.934-2.254-6.451-3.316-9.914-4.226a160.409,160.409,0,0,0-56.336-4.508Z" transform="translate(-486.98 -494.373)" fill="url(#linear-gradient)"/>
          <path id="Trazado_104852" data-name="Trazado 104852" d="M559.743,524.161a64.618,64.618,0,0,0-10.9,2.2c.2-.456,2.214-.885.61-1.371a22.021,22.021,0,0,0-16.338-1.147,5.544,5.544,0,0,1-2.663.463c-.9-.161-1.728-1.078-1.422-1.937.371-1.033,2.12-1.585,1.7-2.6a1.405,1.405,0,0,0-.843-.671c-3.73-1.5-8.452.069-11.67-2.339a1.466,1.466,0,0,1-.6-.756c-.233-.921,1.026-1.433,1.972-1.507,2.051-.161,4.11-.192,6.154-.427,4.441-.51,8.866-1.977,13.291-1.339a3.056,3.056,0,0,0,.539-1.865,2.158,2.158,0,0,0-2.062-1.576,9.488,9.488,0,0,0-2.753.458c-4.754,1.1-9.91-.6-14.536.953-1.058.353-2.062.874-3.148,1.129-1.605.376-3.3.159-4.912.485-1.97.4-4.029,2.055-3.052,4.293a3.97,3.97,0,0,0,2.171,1.963,18.3,18.3,0,0,0,5.387,1.353,12.6,12.6,0,0,1,3.5.55,22.1,22.1,0,0,1,3.437,1.2c.5.338-.563,1.051-1.125,1.277-1.192.474-2.444,1.945-2.019,2.889a4.554,4.554,0,0,0,3.22,2.144,12.594,12.594,0,0,0,4.691.376,28.986,28.986,0,0,0,4.284-1.1,30.544,30.544,0,0,1,8.955-1.172,2.843,2.843,0,0,1,1.594.36,1.052,1.052,0,0,1,.346,1.436c-.157,0-2.077.832-2.227.861-1.42.275.423,1.507,1.84,1.789a9.788,9.788,0,0,0,3.466-.076c6.88-1.076,13.939-3.343,20.647-1.474a48.335,48.335,0,0,0,5.172,1.523,5.752,5.752,0,0,0,5.035-1.261q-.644-.885-1.286-1.773c3.292-2.241,7.983-.622,11.576-2.334,1.058-.5,2.077-1.7,1.525-2.735-.581-1.089-2.484-1.057-2.817-2.249a1.793,1.793,0,0,1,1.1-1.869,19.1,19.1,0,0,0,2.126-.975,2.865,2.865,0,0,0-.034-4.479,5.1,5.1,0,0,0-2.006-.682,34.356,34.356,0,0,0-13.1.2c-.09.512.615.742,1.134.776a24.036,24.036,0,0,1,6.732,1.433c.615.228,1.353.814,1.022,1.38l-6.05,1.31c.058,1.474,1.69,2.278,3.052,2.846s2.925,1.65,2.643,3.1l-4.9.087a3.291,3.291,0,0,0-1.6.3,7.955,7.955,0,0,0-1.176,1.107c-1.746,1.561-4.436.458-6.69-.177A23.43,23.43,0,0,0,559.743,524.161Z" transform="translate(-459.935 -478.415)" opacity="0.75" fill="url(#linear-gradient-2)"/>
          <path id="Trazado_104853" data-name="Trazado 104853" d="M589.459,519.8c.373-.881,1.7-1.4,1.48-2.328-.148-.613-.892-.832-1.514-.941l-12.481-2.214c-.926-.163-2.131-.19-2.52.664s.42,1.751,1.239,2.182c1.606.843,3.477.968,5.232,1.427s3.584,1.451,4.119,3.184a1.639,1.639,0,0,0-2.207,1.04,8.149,8.149,0,0,1-.183,1.08c-.208.528-.76.814-1.194,1.178-1.256,1.062-1.608,2.963-2.949,3.915-1.67,1.187-3.942.38-5.954-.007-3.613-.691-7.341.166-11.014-.02a1.37,1.37,0,0,1-.957-.311,1.886,1.886,0,0,1-.318-1.011c-.376-2.064-2.842-2.967-4.937-3.1s-4.412.047-6.053-1.261q1.979-.791,3.958-1.588a.959.959,0,0,0,.559-.4c.335-.7-1.131-1.241-.917-1.99a27.925,27.925,0,0,1,6.578-1.261c1.547-.105,3.193-.107,4.506-.937s1.983-2.878.854-3.942c-1.682,1.567-4.154,1.907-6.453,1.925s-4.662-.2-6.842.528a4.646,4.646,0,0,0-2.415,1.65,2.516,2.516,0,0,0-.114,2.793c-1.849.691-3.953,2.171-3.528,4.1.338,1.529,2.117,2.249,3.676,2.381s3.227-.047,4.6.7c1.3.711,2.068,2.122,3.244,3.032,2.334,1.8,5.619,1.263,8.568,1.337,3.077.078,6.088.921,9.161,1.071,2.728.134,5.843-.514,7.256-2.853.36-.6.588-1.272.995-1.838,1.138-1.59,3.312-1.912,5.217-2.352s4.063-1.491,4.28-3.435a3.666,3.666,0,0,1-2.218-.425A1.692,1.692,0,0,1,589.459,519.8Z" transform="translate(-414.801 -473.631)" opacity="0.75" fill="url(#linear-gradient-2)"/>
          <g id="Grupo_56313" data-name="Grupo 56313" transform="translate(152.995)">
            <path id="Trazado_104854" data-name="Trazado 104854" d="M620.449,506.18a1.147,1.147,0,0,0-.592-.727c-3.327-2.214-7.477-2.688-11.451-3.1l-8.685-.906,6.887,2.844a11.289,11.289,0,0,0,4.067,1.107,9.369,9.369,0,0,1,2.155.06,1.53,1.53,0,0,1,1.266,1.512c-.1.691-.814,1.08-1.415,1.435s-1.23.977-1.015,1.639c-1.731-.241-3.611-.454-5.118.429-.756.443-1.344,1.129-2.1,1.572a7.848,7.848,0,0,1-4.025.713l-9.322-.007a15.522,15.522,0,0,1-2.618-.152c-1.015-.174-1.983-.552-2.989-.778a10.274,10.274,0,0,0-4.593.029c-.993.235-2.363.443-2.739-.505-.105-.264-.092-.561-.208-.818-.284-.626-1.131-.7-1.818-.662a71.435,71.435,0,0,0-8.016.843,4.031,4.031,0,0,1-1.744.038,1.348,1.348,0,0,1-1.058-1.239c.031-.72.834-1.386.514-2.033a1.281,1.281,0,0,0-.673-.525,11.636,11.636,0,0,0-3.609-.966,2.926,2.926,0,0,1-1.2-.271.86.86,0,0,1-.427-1.04,1.13,1.13,0,0,1,.387-.4,11.75,11.75,0,0,1,5.471-1.6l3.821-.463c-4.409-.291-9.054-.539-13.027,1.4a2.135,2.135,0,0,0-1.062.881,1.587,1.587,0,0,0,.635,1.872,4.614,4.614,0,0,0,2.026.657q1.472.238,2.947.472c.9.143,2.039.555,2.019,1.467a5.718,5.718,0,0,1-.378,1.172,1.978,1.978,0,0,0,1.239,2.1,5.765,5.765,0,0,0,2.6.306l6.695-.246a2.748,2.748,0,0,1,1.956.429c.257.228.418.546.659.792a3.351,3.351,0,0,0,1.706.751,19.817,19.817,0,0,0,4.774.7c1.842-.036,3.671-.586,5.507-.409,2.193.21,4.251,1.449,6.453,1.324,1.411-.081,2.73-.718,4.13-.917,2.075-.3,4.282.376,6.241-.369.874-.331,1.623-.921,2.462-1.333,2.044-1,4.443-.861,6.706-.608a3.7,3.7,0,0,0,1.813-.094,1.238,1.238,0,0,0,.8-1.456c-.174-.456-.713-.758-.727-1.248-.011-.458.447-.771.85-.993l3-1.652C620.035,506.978,620.5,506.643,620.449,506.18Z" transform="translate(-555.404 -488.106)" opacity="0.75" fill="url(#linear-gradient-2)"/>
            <path id="Trazado_104855" data-name="Trazado 104855" d="M596.048,502.292l5.534.23a8.366,8.366,0,0,1,4.2.921,2.082,2.082,0,0,1,1.082,2.319c-.42,1.067-1.869,1.134-3.016,1.143A11.61,11.61,0,0,0,599,507.9a20.866,20.866,0,0,1-1.986.941,10.1,10.1,0,0,1-4.606.058c-4.206-.572-8.439-.906-12.676-1.176-3.327-.215-6.659-.389-9.995-.385a23.009,23.009,0,0,1-4.459-.25c-.438-.085-.991-.436-.787-.832a6.679,6.679,0,0,1-5.286-2.408,22.925,22.925,0,0,1,9.44-.823l-2.375,1.183a.812.812,0,0,0-.429.367c-.185.47.519.756,1.024.769l23.983.635a20.085,20.085,0,0,0,3.9-.152,10.04,10.04,0,0,0,5.167-2.583,1.4,1.4,0,0,0-1.684-.774Z" transform="translate(-550.702 -487.058)" opacity="0.75" fill="url(#linear-gradient-5)"/>
            <g id="Grupo_56312" data-name="Grupo 56312" transform="translate(12.759)">
              <path id="Trazado_104856" data-name="Trazado 104856" d="M598,513.036s-3.479-8.508-7.115-10.981-14.541-5.492-15.545-6.576c0,0-6.576,6.265-7.967,7.812a70.241,70.241,0,0,0-6.265,9.745s2.862,2.321,10.829,1.469,8.895,1.625,17.711,1.006S598,513.036,598,513.036Z" transform="translate(-561.11 -495.479)" fill="#624c4d"/>
              <path id="Trazado_104857" data-name="Trazado 104857" d="M594.314,513.036s-3.479-8.508-7.115-10.983-14.54-5.489-15.545-6.574c0,0-5.614,5.351-7.562,7.379l.009.042c.566,2.567,1.695,2.828,3.81,1.941,2.249-.944,4.467-2.167,6.974-2.064,2.227.089,3.555,1.927,4.027,3.911.427,1.8-.738,4.049.528,5.686a15.293,15.293,0,0,0,3.473,3.235c.908.009,1.909-.018,3.05-.1C594.78,514.892,594.314,513.036,594.314,513.036Z" transform="translate(-557.423 -495.479)" fill="#624c4d" opacity="0.32" style="mix-blend-mode: multiply;isolation: isolate"/>
              <path id="Trazado_104858" data-name="Trazado 104858" d="M579.342,505.788c-.123-2.243.427-6.35-3.112-5.024-1.275.479-2.493,1.082-3.763,1.567-4.078,1.554-5.89.172-6.9-2.272a75.569,75.569,0,0,0-4.459,7.316s2.862,2.321,10.829,1.469a26.411,26.411,0,0,1,8.984.5A6.264,6.264,0,0,1,579.342,505.788Z" transform="translate(-561.11 -489.818)" fill="#624c4d" opacity="0.32" style="mix-blend-mode: multiply;isolation: isolate"/>
              <path id="Trazado_104859" data-name="Trazado 104859" d="M589.788,512.816s-3.479-8.508-7.115-10.981c-3.26-2.223-12.354-4.875-14.919-6.178.868,2.4,1.44,4.228,3.56,6.169A64.419,64.419,0,0,1,576,506.452c2.164,2.435,4.805,5.5,5.874,8.8C590.215,514.6,589.788,512.816,589.788,512.816Z" transform="translate(-552.897 -495.259)" fill="#bd9389"/>
              <path id="Trazado_104860" data-name="Trazado 104860" d="M570.067,498.036c1.467.919,3.13,2.777,5.062,2.366a5.84,5.84,0,0,1,2.846.018c.78.242,3.855,1.878,6.245,2.815a8.938,8.938,0,0,0-1.547-1.4c-3.26-2.22-12.354-4.872-14.919-6.176.233.646.447,1.248.673,1.822A3.715,3.715,0,0,1,570.067,498.036Z" transform="translate(-552.897 -495.259)" fill="#624c4d" opacity="0.32" style="mix-blend-mode: multiply;isolation: isolate"/>
              <path id="Trazado_104861" data-name="Trazado 104861" d="M583.044,502.153c-1.726,2.106-3.978,3.2-6.529.646a10.673,10.673,0,0,1-1.239-1.784,4.272,4.272,0,0,0-3.222-.595c-.255-.034-.512-.067-.769-.1.116.125.235.248.349.376,2.164,2.435,4.805,5.5,5.874,8.8,8.345-.651,7.918-2.439,7.918-2.439A51.845,51.845,0,0,0,583.044,502.153Z" transform="translate(-548.534 -489.499)" fill="#624c4d" opacity="0.32" style="mix-blend-mode: multiply;isolation: isolate"/>
            </g>
          </g>
          <g id="Grupo_56315" data-name="Grupo 56315" transform="translate(10.987 5.914)">
            <path id="Trazado_104862" data-name="Trazado 104862" d="M523.943,505.053a1.241,1.241,0,0,1,.774.508.856.856,0,0,1,.038.6,2.268,2.268,0,0,1-2.263,1.368,12.334,12.334,0,0,0-2.831.047,14.279,14.279,0,0,0-1.462.6c-2.625,1.042-5.547-.291-8.372-.311-1.565-.011-3.253.364-4.608-.418-.894-.516-1.6-1.516-2.634-1.534-.333-.007-.66.1-.993.083a.746.746,0,0,1-.747-.532,7.117,7.117,0,0,1,2.63-.034,34.318,34.318,0,0,0,7.33-.054c.288-.034.644-.132.693-.418.06-.347-.376-.543-.722-.6a63.871,63.871,0,0,0-6.648-.235c-2.663-.157-5.474-.854-7.9.248a1.124,1.124,0,0,0-.577.463c-.221.449.161.955.537,1.288a11.649,11.649,0,0,0,2.565,1.722,23.175,23.175,0,0,0,4.13,1.427c5.049,1.4,10.321,2.8,15.462,1.8.881-.172,1.749-.414,2.641-.5,1.8-.179,3.857.2,5.234-.97.349-.3.622-.673.955-.991,1-.959,2.544-1.359,3.236-2.565a1.263,1.263,0,0,0,.112-1.221,1.672,1.672,0,0,0-1.207-.637,54.946,54.946,0,0,0-8.021-.979,2.9,2.9,0,0,0-1.838.335Q521.7,504.3,523.943,505.053Z" transform="translate(-487.335 -491.86)" opacity="0.75" fill="url(#linear-gradient-2)"/>
            <path id="Trazado_104863" data-name="Trazado 104863" d="M543.039,504.35a2.353,2.353,0,0,0-1.38-.532,35.077,35.077,0,0,0-6.972-.034l-3.464.215a6.815,6.815,0,0,1-.863,2.178c1.44.141,2.909.154,4.354.2.595.018,1.339.161,1.48.738a1.122,1.122,0,0,1-.132.736,4.5,4.5,0,0,1-2.582,2.024c-3.716,1.418-7.953.827-11.7,2.158-1.192.423-2.314,1.033-3.528,1.382a4.71,4.71,0,0,1-3.678-.237c-1.037-.615-1.632-1.753-2.489-2.6-1.608-1.6-4.023-2.077-6.288-2.091s-4.539.364-6.8.143a.71.71,0,0,1-.255-.06c-.192-.1-.246-.344-.315-.55a2.078,2.078,0,0,0-2.234-1.346c-.118-.329.353-.537.7-.568l16.26-1.449c-.139-.774-1.129-.991-1.914-1.026a72.4,72.4,0,0,0-12.273.5l1.319-.215-5.176.61c-1.27.15-2.808.512-3.157,1.742-.34,1.194.72,2.314,1.775,2.965a11.914,11.914,0,0,0,6.31,1.746c1.659-.018,3.3-.385,4.955-.467a6.93,6.93,0,0,1,4.718,1.2c.671.539,1.172,1.257,1.784,1.858a7.073,7.073,0,0,0,6.4,1.825c1.243-.282,2.384-.9,3.607-1.254,3.408-.991,7.068.123,10.6-.239a7.015,7.015,0,0,0,2.18-.53,9.639,9.639,0,0,0,1.892-1.239l5.536-4.273a5.032,5.032,0,0,0,1.478-1.518A1.72,1.72,0,0,0,543.039,504.35Z" transform="translate(-491.893 -491.408)" opacity="0.75" fill="url(#linear-gradient-2)"/>
            <g id="Grupo_56314" data-name="Grupo 56314" transform="translate(13.878)">
              <path id="Trazado_104864" data-name="Trazado 104864" d="M508.557,513.922c4.812.928,7.137-1.283,10.947-2.659l-11.737-13.049-9.6,8.635,5.8,6.449A43.331,43.331,0,0,1,508.557,513.922Z" transform="translate(-498.018 -498.012)" fill="#4e728d"/>
              <path id="Trazado_104865" data-name="Trazado 104865" d="M510.928,513.508c1.717-.61,3.287-1.536,5.25-2.245l-11.737-13.049-3.584,3.473C504.128,505.687,510.928,513.508,510.928,513.508Z" transform="translate(-494.692 -498.012)" fill="#829bab" opacity="0.32" style="mix-blend-mode: screen;isolation: isolate"/>
              <path id="Trazado_104866" data-name="Trazado 104866" d="M514.016,511.424c.141-.056.284-.11.427-.161l-11.737-13.049-.445.4C503.07,499.524,514.016,511.424,514.016,511.424Z" transform="translate(-492.957 -498.012)" fill="#829bab" opacity="0.32" style="mix-blend-mode: screen;isolation: isolate"/>
              <path id="Trazado_104867" data-name="Trazado 104867" d="M502.435,498.685l-1.042,1.093c3.477,4.255,10.8,12.343,10.8,12.343.526-.241,1.058-.494,1.61-.74C512.016,510.024,504.673,501.288,502.435,498.685Z" transform="translate(-494.03 -497.43)" fill="#a7b9c4" opacity="0.32" style="mix-blend-mode: screen;isolation: isolate"/>
              <path id="Trazado_104868" data-name="Trazado 104868" d="M501.236,500.513l-2.41,2.169c1.138,1.277,5.733,6.73,6.952,8.078.646.092,1.295.19,1.963.32a10.817,10.817,0,0,0,3.26.161Z" transform="translate(-497.203 -495.171)" fill="#224e6a" opacity="0.32" style="mix-blend-mode: multiply;isolation: isolate"/>
              <path id="Trazado_104869" data-name="Trazado 104869" d="M504.266,509.87c1.252.125,2.527.289,3.859.546,4.812.928,7.137-1.283,10.947-2.659l-.881-.979a17.411,17.411,0,0,1-5.74.6,9.148,9.148,0,0,1-1.351-.2c-3.761-.49-7.075-3.278-9.888-6.127l-2.7,2.426Z" transform="translate(-497.587 -494.506)" fill="#1d4a67" opacity="0.32" style="mix-blend-mode: multiply;isolation: isolate"/>
              <path id="Trazado_104870" data-name="Trazado 104870" d="M507.849,498.326c.66.733-.953,3.262-3.6,5.648s-5.335,3.721-6,2.987.953-3.262,3.6-5.648S507.187,497.59,507.849,498.326Z" transform="translate(-498.1 -498.124)" fill="#1d1e20"/>
              <path id="Trazado_104871" data-name="Trazado 104871" d="M506.915,498.516c.483.534-1.015,2.67-3.347,4.765s-4.608,3.361-5.091,2.824,1.015-2.67,3.345-4.765S506.432,497.98,506.915,498.516Z" transform="translate(-497.747 -497.791)" fill="#1d4a67"/>
              <path id="Trazado_104872" data-name="Trazado 104872" d="M504,499.169c.224.25-.66,1.413-1.977,2.6s-2.567,1.941-2.793,1.69.662-1.413,1.977-2.6S503.771,498.919,504,499.169Z" transform="translate(-496.75 -496.891)" fill="#829bab" opacity="0.32" style="mix-blend-mode: screen;isolation: isolate"/>
            </g>
          </g>
          <g id="Grupo_56317" data-name="Grupo 56317" transform="translate(69.634 15.294)">
            <path id="Trazado_104873" data-name="Trazado 104873" d="M551.707,529.837c.076,0,.138.031.212.038,2.627-2.647,6.4-6.831,6.9-9.5l-10.791,1.25,8.718-15.679s-8.327-6.92-22.051-1.641c-10.513,4.043-15.035,15.817-16.575,21.108C529.465,524.994,540.417,528.909,551.707,529.837Z" transform="translate(-518.122 -502.319)" fill="#d2cbb1"/>
            <path id="Trazado_104874" data-name="Trazado 104874" d="M531.076,518.8c5.031.06,9.955-2.5,11.131-2.272l4.55-8.179a22.625,22.625,0,0,0-17.3-2.518c-4.165,1.442-7.654,4.353-4.917,9.02C526.282,517.815,527.527,518.761,531.076,518.8Z" transform="translate(-511.386 -498.868)" fill="#c5bc9b"/>
            <path id="Trazado_104875" data-name="Trazado 104875" d="M550.767,521.492a16.783,16.783,0,0,0-9.463.481,16.452,16.452,0,0,1-5.109,1.178,9.135,9.135,0,0,1-7.75-3.609c-3.578-4.971-4.17-10.154-1.364-14.075-5.23,5.214-7.859,12.278-8.96,16.054,11.343-.418,22.3,3.5,33.585,4.425.076,0,.138.031.212.038a56.217,56.217,0,0,0,4.193-4.673A11.2,11.2,0,0,1,550.767,521.492Z" transform="translate(-518.122 -498.428)" fill="#bdc5b8" opacity="0.55" style="mix-blend-mode: multiply;isolation: isolate"/>
            <path id="Trazado_104876" data-name="Trazado 104876" d="M530.067,516.8c2.283.376,4.57.693,6.876.883.076,0,.139.032.212.038a50.875,50.875,0,0,0,4.87-5.572A31.731,31.731,0,0,1,530.067,516.8Z" transform="translate(-503.358 -490.167)" fill="#bdc5b8" opacity="0.55" style="mix-blend-mode: multiply;isolation: isolate"/>
            <g id="Grupo_56316" data-name="Grupo 56316">
              <path id="Trazado_104877" data-name="Trazado 104877" d="M534.364,505.612c12.327-4.743,20.278.347,21.774,1.433l.613-1.1s-8.329-6.92-22.054-1.641c-10.513,4.043-15.035,15.817-16.575,21.108l.072,0C520.049,519.69,524.642,509.351,534.364,505.612Z" transform="translate(-518.122 -502.319)" fill="#f1efe7"/>
            </g>
            <circle id="Elipse_4281" data-name="Elipse 4281" cx="3.584" cy="3.584" r="3.584" transform="translate(16.432 9.936)" fill="#f3a92c"/>
            <path id="Trazado_104878" data-name="Trazado 104878" d="M530.869,509.717a2.444,2.444,0,1,1-2.444-2.444A2.443,2.443,0,0,1,530.869,509.717Z" transform="translate(-508.408 -496.196)" fill="#1d1e20"/>
            <path id="Trazado_104879" data-name="Trazado 104879" d="M528.63,508.587a1,1,0,1,1-1-1A1,1,0,0,1,528.63,508.587Z" transform="translate(-507.611 -495.811)" fill="#929083"/>
            <path id="Trazado_104880" data-name="Trazado 104880" d="M530.8,514.675a21.949,21.949,0,0,1,4.338-2.981c3.627-1.945,8.8-3.792,10.364-1.614,2.583,3.6-8.315,3.524-9.773,4.027A20.478,20.478,0,0,1,530.8,514.675Z" transform="translate(-502.455 -493.942)" fill="url(#radial-gradient)"/>
            <path id="Trazado_104881" data-name="Trazado 104881" d="M530.747,521.481s.324-6.319,6.985-14.583c6.335-7.859,8.237-.823,6.361,2.7C542.5,512.582,530.3,523.885,530.747,521.481Z" transform="translate(-502.533 -501.08)" fill="url(#radial-gradient-2)"/>
          </g>
          <path id="Trazado_104882" data-name="Trazado 104882" d="M567.788,515.218c.908.313,4.962,2.211,1.344,2.781-1.887.72-2.84-.071-4.378.338a44.41,44.41,0,0,1-6.712,1.422,27.7,27.7,0,0,1-9.639-.8,12.052,12.052,0,0,0-2.708-.5,22.7,22.7,0,0,0-4.215.778c-3.935.682-7.927-1.113-11.918-.836-1.829.128-4.179.456-5.033-1.087a4.309,4.309,0,0,0-.63-1.192,2.166,2.166,0,0,0-1.044-.429l-7.918-1.744c-.338-.642.575-1.207,1.3-1.409l2.619-.724a6.764,6.764,0,0,1,3.758-.3,13.7,13.7,0,0,1,2.037,1.049,7.721,7.721,0,0,0,4.291,1.04c2.37-.3,4.6.458,6.873.364,3.591-.15,7.307-1.771,10.63-.469a20.568,20.568,0,0,1,2.489,1.326,19.093,19.093,0,0,0,7.314,2.308,1.8,1.8,0,0,0,1.359-.137s.845-.932,1.234-1.373c.982-1.113,3-1.525,4.524-1.462A15.676,15.676,0,0,1,567.788,515.218Z" transform="translate(-452.515 -475.869)" opacity="0.75" fill="url(#linear-gradient-2)"/>
          <g id="Grupo_56320" data-name="Grupo 56320" transform="translate(139.638 12.853)">
            <g id="Grupo_56319" data-name="Grupo 56319">
              <g id="Grupo_56318" data-name="Grupo 56318">
                <path id="Trazado_104883" data-name="Trazado 104883" d="M584.128,506.7l-4.2-3.285s-6.8,10.473-8.123,10.478-5.729-1.523-11.638,6.133c-.935,1.212-6.267,8.75-10.733,15.082a7.639,7.639,0,0,0,8.293,2.039,5.7,5.7,0,0,1,4.237.293c2.364,1.259,3.573.774,6.212.34a8.938,8.938,0,0,1,4.286.6c3.1-4.338,5.9-8.4,6.308-9.308,2.643-5.872.208-9.049.121-10.366C578.771,516.953,584.128,506.7,584.128,506.7Z" transform="translate(-549.43 -498.522)" fill="#417a16"/>
                <path id="Trazado_104884" data-name="Trazado 104884" d="M576.659,505.644l-1.382-1.373c-1.932,4.125-3.638,6.981-6.487,11.862,0,0-6,10.031-13.317,20.694,1.769.662,2.985.266,5.23-.1a8.978,8.978,0,0,1,4.322.613c2.73-3.756,5.123-7.115,5.5-7.8,3.835-6.853.984-10.462.89-11.889C571.3,515.9,576.659,505.644,576.659,505.644Z" transform="translate(-541.961 -497.465)" fill="#417a16" opacity="0.55" style="mix-blend-mode: multiply;isolation: isolate"/>
                <path id="Trazado_104885" data-name="Trazado 104885" d="M561.985,507.025c1.364-1.977,2.426-3.609,2.426-3.609l4.2,3.285s-.792,1.518-1.76,3.484a5.734,5.734,0,0,1-3.074-1.093A4.882,4.882,0,0,1,561.985,507.025Z" transform="translate(-533.917 -498.522)" fill="#184001"/>
                <path id="Trazado_104886" data-name="Trazado 104886" d="M574.186,507.252l-3.11,4.716s-4.367-.224-9.49-5.854l2.985-4.886Z" transform="translate(-534.405 -501.226)" fill="#417a16"/>
                <path id="Trazado_104887" data-name="Trazado 104887" d="M565.863,501.856l2.547,1.594a23.646,23.646,0,0,0-3.687,5.467,21.509,21.509,0,0,1-2.37-1.878A23.53,23.53,0,0,1,565.863,501.856Z" transform="translate(-533.458 -500.45)" fill="#8ccf58"/>
                <path id="Trazado_104888" data-name="Trazado 104888" d="M562.921,501.229a12.312,12.312,0,0,1,5.661,1.664c3.464,1.784,4.114,3.307,3.953,4.36,0,0-2.064.449-5.563-1.554S562.921,501.229,562.921,501.229Z" transform="translate(-532.755 -501.227)" fill="#62913e"/>
                <path id="Trazado_104889" data-name="Trazado 104889" d="M559.785,528.557a6.34,6.34,0,0,1,2.026.022c2.878-4.112,5.416-7.741,5.543-8.023,2.835-6.218.684-9.677.684-9.677-1.771,3.718-7.122,11.527-11.822,18.127A18.4,18.4,0,0,0,559.785,528.557Z" transform="translate(-541.043 -489.298)" fill="#184001"/>
              </g>
              <path id="Trazado_104890" data-name="Trazado 104890" d="M555.214,530.105c4.939-7.233,12.329-17.912,14.753-20.734-2.931.32-5.462,2.209-7.493,4.347-1.19,1.252-7.079,9.179-12.036,15.708A7.343,7.343,0,0,0,555.214,530.105Z" transform="translate(-548.184 -491.162)" fill="#8ccf58"/>
            </g>
            <path id="Trazado_104891" data-name="Trazado 104891" d="M555.186,521.016c2.364,1.259,3.573.774,6.212.34a8.978,8.978,0,0,1,4.322.613c1.44-1.981,2.777-3.839,3.783-5.264a77.1,77.1,0,0,1-14.592,4.206C555,520.949,555.1,520.971,555.186,521.016Z" transform="translate(-542.655 -482.097)" fill="#637c58" opacity="0.55" style="mix-blend-mode: multiply;isolation: isolate"/>
          </g>
          <path id="Trazado_104892" data-name="Trazado 104892" d="M516.709,530.071a10.181,10.181,0,0,1-4.177-1.411,21.2,21.2,0,0,0-6.978-1.889.9.9,0,0,1,.085-1.205c.3-.338.716-.541,1.026-.863a4.867,4.867,0,0,0,.892-1.907,9.246,9.246,0,0,1,11.377-5.5,4.78,4.78,0,0,1,3.325,3.271c.1.523.1,1.138.514,1.473a1.988,1.988,0,0,0,1.534.141,6.173,6.173,0,0,1,6.4,3.837c.4,1.066.369,2.5-.613,3.086a2.842,2.842,0,0,1-1.5.282c-2.741-.04-5.516-.823-8.184-.2A17.088,17.088,0,0,1,516.709,530.071Z" transform="translate(-464.269 -469.075)" fill="#ca90a6"/>
          <path id="Trazado_104893" data-name="Trazado 104893" d="M518.542,528.769a36.1,36.1,0,0,1-2.616-4.38c-.595-1.056-1.648-2.209-1.907-3.417a4.571,4.571,0,0,1,.248-3.316,6.283,6.283,0,0,1,.631-.765,9.24,9.24,0,0,0-7.341,5.843,4.866,4.866,0,0,1-.892,1.907c-.311.322-.731.526-1.026.863a.9.9,0,0,0-.085,1.205,21.2,21.2,0,0,1,6.978,1.889,10.182,10.182,0,0,0,4.177,1.411,8.152,8.152,0,0,0,2.453-.521A8.5,8.5,0,0,1,518.542,528.769Z" transform="translate(-464.269 -469.014)" fill="#ca90a6" opacity="0.32" style="mix-blend-mode: multiply;isolation: isolate"/>
          <path id="Trazado_104894" data-name="Trazado 104894" d="M510.94,519.5c1.556,2.093,3.971,4.819,5.091,3.121a5.476,5.476,0,0,1,1.295-1.417,1.88,1.88,0,0,1-1.458-.152c-.414-.335-.416-.95-.514-1.473a3.592,3.592,0,0,0-.977-1.8c-.027-.025-.056-.04-.083-.067C513.921,517.336,512.431,518.42,510.94,519.5Z" transform="translate(-457.365 -468.092)" fill="#ca90a6" style="mix-blend-mode: multiply;isolation: isolate"/>
          <path id="Trazado_104895" data-name="Trazado 104895" d="M528.24,525.658a2.507,2.507,0,0,1-.729-.233,1.108,1.108,0,0,1-.224.362c-1.321,1.552-3.513.912-4.973.134q-.637-.483-1.25-.995a2.341,2.341,0,0,1-1.38.432,4.5,4.5,0,0,1-4.226-2.567c-.078.02-.165.04-.268.058a3.608,3.608,0,0,1-1.706.5,4.758,4.758,0,0,1-2.227-.505,4.28,4.28,0,0,1-1.675-4.758v0h0a8.278,8.278,0,0,0-2.024,3.169,4.866,4.866,0,0,1-.892,1.907c-.311.322-.731.525-1.026.863a.9.9,0,0,0-.085,1.205,21.2,21.2,0,0,1,6.978,1.89,10.184,10.184,0,0,0,4.177,1.411,17.1,17.1,0,0,0,3.7-.883c2.668-.626,5.442.156,8.184.2a2.841,2.841,0,0,0,1.5-.282,2.211,2.211,0,0,0,.8-2.339A4.178,4.178,0,0,1,528.24,525.658Z" transform="translate(-464.269 -467.536)" fill="#ca90a6" style="mix-blend-mode: multiply;isolation: isolate"/>
          <path id="Trazado_104896" data-name="Trazado 104896" d="M506.227,521.636a1.021,1.021,0,0,1,.832-.908,4.936,4.936,0,0,1,1.324-.033,5.093,5.093,0,0,0,2.987-.894,36.957,36.957,0,0,0-5.981.841,5.89,5.89,0,0,0-2.5,1.024,1.946,1.946,0,0,0-.78,1.341,1.882,1.882,0,0,0,1.149,1.682,5.556,5.556,0,0,0,2.106.4l4.7.275a3.718,3.718,0,0,1,1.143.188,4.187,4.187,0,0,1,1.178.834,15.39,15.39,0,0,0,6.587,3.354,8.953,8.953,0,0,0,3.81.159,18.191,18.191,0,0,0,2.963-1.058,20.143,20.143,0,0,1,8.354-1.359c2.153.109,4.286.563,6.442.541,1.715-.02,3.739-.608,4.239-2.247.329-1.08,2.064-1.263,1.319-2.113-.383-.438-5.176-.809-5.7-1.053-2.366-1.094-2.983-.183-5.568-.519l3.074,1.639a1.217,1.217,0,0,1,.528.429c.318.57-.445,1.192-1.1,1.192a6.986,6.986,0,0,0-1.943-.112,4.249,4.249,0,0,0-.657.3c-2.209,1.071-4.879-.262-7.276.262a19.706,19.706,0,0,0-3.51,1.549,9.382,9.382,0,0,1-4.3.762,3.669,3.669,0,0,1-1.681-.438,6.294,6.294,0,0,1-1.476-1.588,8.1,8.1,0,0,0-5.731-2.96c-1.38-.083-2.913.15-4.018-.68A1.122,1.122,0,0,1,506.227,521.636Z" transform="translate(-468.286 -465.419)" opacity="0.75" fill="url(#linear-gradient-9)"/>
          <g id="Grupo_56322" data-name="Grupo 56322" transform="translate(113.553 11.916)">
            <g id="Grupo_56321" data-name="Grupo 56321" transform="translate(4.911)">
              <path id="Trazado_104897" data-name="Trazado 104897" d="M559.815,501.358c1.78.344,3.73.8,4.8,2.258,1.192,1.632.856,3.94,1.711,5.771.543,1.172,1.538,2.073,2.175,3.2s.807,2.726-.179,3.557c-.95.8-2.375.452-3.571.114a41.108,41.108,0,0,0-17.137-1.1,3.193,3.193,0,0,1-1.934-.1,3.455,3.455,0,0,1-.932-.845c-1.212-1.348-2.735-2.424-3.774-3.911s-1.478-3.64-.351-5.062a4.832,4.832,0,0,1,3.548-1.48,19.579,19.579,0,0,0,3.94-.315c1.608-.443,2.931-1.59,4.5-2.164C554.894,500.436,557.425,500.893,559.815,501.358Z" transform="translate(-539.96 -500.808)" fill="#a290a6"/>
              <path id="Trazado_104898" data-name="Trazado 104898" d="M562.042,513.631c-.353-1.771-2.077-1.243-3.466-1.04a2.026,2.026,0,0,1-2.509-1.912c-.123-1.992-1.932-6.2.6-7.551.742-.394,4.208-.568,5.764-1.078a14.941,14.941,0,0,0-2.616-.693c-2.39-.465-4.921-.921-7.207-.08-1.565.575-2.889,1.722-4.5,2.164a19.579,19.579,0,0,1-3.94.315,4.829,4.829,0,0,0-3.548,1.48c-1.127,1.422-.689,3.575.351,5.062s2.563,2.562,3.774,3.911a3.455,3.455,0,0,0,.932.845,3.193,3.193,0,0,0,1.934.1,41.127,41.127,0,0,1,15.231.615A5.987,5.987,0,0,1,562.042,513.631Z" transform="translate(-539.96 -500.808)" fill="#a290a6" opacity="0.32" style="mix-blend-mode: multiply;isolation: isolate"/>
              <path id="Trazado_104899" data-name="Trazado 104899" d="M549.19,505.716c1.679-.177,3.49-.11,4.5,1.1.148.177.266.347.389.514-.161-1.431-.275-2.884-.344-4.331a7.877,7.877,0,0,1-1.295.4,34.013,34.013,0,0,1-3.812.273C548.935,503.645,549.1,504.658,549.19,505.716Z" transform="translate(-529.246 -498.098)" fill="#a290a6" style="mix-blend-mode: multiply;isolation: isolate"/>
              <path id="Trazado_104900" data-name="Trazado 104900" d="M552.552,508.159a8.6,8.6,0,0,1,.432-1.789,2.147,2.147,0,0,1-1.652-.317c-1.321-1-1.42-1.941-1.865-3.448.074.246-.957.134-1.7.087a3.787,3.787,0,0,1-1.672-.644,3,3,0,0,1-.429-.288c-.033-.013-.067-.02-.1-.031a8.5,8.5,0,0,1,.646,1.6c.322,1.172-.349,1.807-.966,2.5a3.87,3.87,0,0,1,1.071.338c.854.5,1.194,1.136,2.308,1.268,1.558.183,2.187.959,3.519,1.594.181.087.391.163.6.239A3.15,3.15,0,0,1,552.552,508.159Z" transform="translate(-533.437 -499.672)" fill="#a290a6" style="mix-blend-mode: multiply;isolation: isolate"/>
              <path id="Trazado_104901" data-name="Trazado 104901" d="M568.368,512.217a2.029,2.029,0,0,1-2.238.912c-1.69-.315-2.808-1.831-4.461-.615a2.916,2.916,0,0,1-2.824.228,4.18,4.18,0,0,1-1.8-2.562c-.53-1.921-2.22-1.078-3.631-.523-1.507.593-3.725.6-4.266-1.362-.438-1.6.438-.434-1.409-.756a2.866,2.866,0,0,1-2.051-1.113,1.974,1.974,0,0,1-.51-1.927,4.7,4.7,0,0,1,1.715-2.422c-.9.083-1.815.054-2.721.112a4.829,4.829,0,0,0-3.548,1.48c-1.127,1.422-.689,3.575.351,5.062s2.563,2.562,3.774,3.911a3.453,3.453,0,0,0,.932.845,3.193,3.193,0,0,0,1.934.1,41.11,41.11,0,0,1,17.137,1.1c1.2.338,2.62.689,3.571-.114a2.7,2.7,0,0,0,.393-3.121A4.475,4.475,0,0,1,568.368,512.217Z" transform="translate(-539.96 -499.24)" fill="#a290a6" style="mix-blend-mode: multiply;isolation: isolate"/>
            </g>
            <path id="Trazado_104902" data-name="Trazado 104902" d="M578.106,507a.917.917,0,0,0-.376-1.123,2.685,2.685,0,0,0-1.234-.347,3.449,3.449,0,0,0-1.476.052c-.335.112-4.083.177-4.385.36l.479.7c.183.255,2.211.215,2.873.443.633.215.061.664-.991.861a4.428,4.428,0,0,0-1.523.642c-.423.311-.937.572-1.017,1.076-.034.215.016.456-.114.63a.73.73,0,0,1-.588.2,15.54,15.54,0,0,1-3.6-.161c-1.275-.257-2.469-.825-3.741-1.084-.932-.19-3.613.61-4.566.592-1.438-.029-1.154-.876-2.591-.906a4.292,4.292,0,0,0-1.916.259c-.407.195-.745.517-1.154.709a4.194,4.194,0,0,1-1.684.28,1.3,1.3,0,0,1-.892-.195.477.477,0,0,1-.087-.1,1.772,1.772,0,0,0-1.129-.9q-2.743-.53-5.485-1.062c.606-.237,2.889-.311,3.5-.548l-.78-.729c-1.8.092-3.555.382-5.351.472a3.75,3.75,0,0,0-2.27.615.546.546,0,0,0-.237.409.6.6,0,0,0,.329.429c2.424,1.6,5.628.917,8.5,1.44a1.546,1.546,0,0,1,1.174,1.069,1.369,1.369,0,0,0,.44.644,3,3,0,0,0,1.465.534,8.737,8.737,0,0,0,3.714-.107c.7-.2,1.364-.519,2.066-.713,2.775-.767,5.7.514,8.571.4a24.146,24.146,0,0,1,3.182-.177c1.127.107,2.2.584,3.329.637.44.02.982-.1,1.113-.519a3,3,0,0,0,.029-.6,1.685,1.685,0,0,1,.465-.894,8.168,8.168,0,0,1,4.825-2.743C577.395,507.463,577.9,507.382,578.106,507Z" transform="translate(-537.764 -495.04)" opacity="0.75" fill="url(#linear-gradient-2)"/>
          </g>
        </g>
        <g id="Grupo_56326" data-name="Grupo 56326" transform="translate(473.577 458.814)">
          <g id="Grupo_56325" data-name="Grupo 56325">
            <path id="Trazado_104903" data-name="Trazado 104903" d="M583.113,512.748l-103.933-21c-5.751-3.589-6.5-13.89-4.81-20.484,1.234-4.805,6.323-11.81,11.663-12.45l103.209,20Z" transform="translate(-473.577 -458.814)" fill="#8b8b8b"/>
            <path id="Trazado_104904" data-name="Trazado 104904" d="M583.113,512.748l-103.933-21c-5.751-3.589-6.5-13.89-4.81-20.484,1.234-4.805,6.323-11.81,11.663-12.45l103.209,20Z" transform="translate(-473.577 -458.814)" fill="#8b8b8b"/>
            <path id="Trazado_104905" data-name="Trazado 104905" d="M529.8,467.563l-16.488-3.2c-4.358,2.549-8.029,8.157-9.089,12.287-1.733,6.75-1.123,17.056,4.13,21.557l14.885,3.007c-4.608-4.785-5.1-14.444-3.446-20.884C520.921,475.915,525.042,469.808,529.8,467.563Z" transform="translate(-436.779 -451.949)" fill="#595959"/>
            <path id="Trazado_104906" data-name="Trazado 104906" d="M510.163,498.678c-4.606-5.226-5.058-15.232-3.334-21.948a24.478,24.478,0,0,1,8.065-11.972l-.836-.161a24.471,24.471,0,0,0-8.251,12.133c-1.7,6.616-1.277,16.416,3.137,21.7Z" transform="translate(-434.882 -451.666)" fill="#1d1e20"/>
            <path id="Trazado_104907" data-name="Trazado 104907" d="M513.606,499.357c-4.6-5.225-5.056-15.234-3.334-21.951a24.463,24.463,0,0,1,8.065-11.969l-.834-.161a24.469,24.469,0,0,0-8.253,12.13c-1.7,6.616-1.277,16.417,3.137,21.7Z" transform="translate(-430.627 -450.827)" fill="#1d1e20"/>
            <path id="Trazado_104908" data-name="Trazado 104908" d="M496.54,461.034l-7.175-1.391c-4.7,2.294-8.758,8.333-9.881,12.714-1.585,6.174-1.2,15.312,2.9,20.274l5.928,1.2c-3.066-5.485-3.224-13.745-1.733-19.551C487.728,469.788,491.776,463.659,496.54,461.034Z" transform="translate(-467.346 -457.789)" fill="#595959"/>
            <path id="Trazado_104909" data-name="Trazado 104909" d="M582.112,489.51c-19.292-4.948-102.632-21.9-108.181-24.162-.776,4.859-.34,10.9,2.084,14.979l.027.02,103.933,21Z" transform="translate(-473.573 -450.738)" fill="#8b8b8b" opacity="0.65" style="mix-blend-mode: multiply;isolation: isolate"/>
            <ellipse id="Elipse_4282" data-name="Elipse 4282" cx="17.229" cy="11.98" rx="17.229" ry="11.98" transform="translate(97.853 52) rotate(-80.743)" fill="#b8b8b8"/>
            <path id="Trazado_104910" data-name="Trazado 104910" d="M530.251,480.568a16.15,16.15,0,0,1-11.763-4.637c-.508,8.11,3.124,15.147,8.872,16.408,6.466,1.418,13.15-5.006,14.927-14.351a24.906,24.906,0,0,0,.349-2.735A16.06,16.06,0,0,1,530.251,480.568Z" transform="translate(-418.128 -438.496)" fill="#8b8b8b" opacity="0.32" style="mix-blend-mode: multiply;isolation: isolate"/>
            <path id="Trazado_104911" data-name="Trazado 104911" d="M538.2,484.864c-1.413,7.439-6.6,12.584-11.578,11.493s-7.871-8.012-6.458-15.451,6.6-12.586,11.58-11.493S539.62,477.422,538.2,484.864Z" transform="translate(-416.433 -445.895)" fill="#1d1e20"/>
            <path id="Trazado_104912" data-name="Trazado 104912" d="M545.827,482.909a47.616,47.616,0,0,0-6.668-5.532c-5.085-2.676-14.087-2.357-18.268-2.03a17.429,17.429,0,0,0,1,8.289c.049.116.1.226.152.338a11.817,11.817,0,0,0,.706,1.337c.161.266.322.505.479.722a9.031,9.031,0,0,0,.97,1.181l.092.094c.085.085.145.143.145.143,1.413,1.424.935,3.388,1.125,7.7.722,16.273-6.493,35.409-6.493,35.409H559.99C561.143,510.693,553.235,492.4,545.827,482.909Z" transform="translate(-417.359 -438.643)" fill="url(#linear-gradient-11)"/>
            <path id="Trazado_104913" data-name="Trazado 104913" d="M545.827,482.909a47.616,47.616,0,0,0-6.668-5.532c-5.085-2.676-14.087-2.357-18.268-2.03a17.429,17.429,0,0,0,1,8.289c.049.116.1.226.152.338a11.817,11.817,0,0,0,.706,1.337c.161.266.322.505.479.722a9.031,9.031,0,0,0,.97,1.181l.092.094c.085.085.145.143.145.143,1.413,1.424.935,3.388,1.125,7.7.722,16.273-6.493,35.409-6.493,35.409H559.99C561.143,510.693,553.235,492.4,545.827,482.909Z" transform="translate(-417.359 -438.643)" fill="url(#linear-gradient-12)"/>
            <g id="Grupo_56324" data-name="Grupo 56324" transform="translate(101.706 83.155)">
              <path id="Trazado_104914" data-name="Trazado 104914" d="M558.432,496.034a.786.786,0,0,0-.338.4,14.977,14.977,0,0,0-.682,1.536c-.4-.546-1.006-1.151-1.608-.89-.541.235-.642.99-.691,1.614s-.239,1.386-.812,1.509c-.454.1-.866-.291-1.19-.646-.367-.4-.731-.8-1.1-1.205a.654.654,0,0,0-.463-.284.54.54,0,0,0-.355.219c-.725.834-.769,2.482-1.82,2.652-.816.134-1.53-.865-2.341-.693a4.345,4.345,0,0,0-1.026.6,1.656,1.656,0,0,1-2.281-1.313l-1.867,1.214a.551.551,0,0,1-.335.125c-.2-.018-.315-.235-.389-.431-.317-.85-.55-1.957-1.377-2.173-.711-.186-1.355.445-1.891.977s-1.337,1.035-1.95.61c-.208-.143-.351-.373-.555-.521a1.353,1.353,0,0,0-1.494.114c-.451.291-.818.713-1.27,1.006a.772.772,0,0,1-.595.159c-.373-.1-.494-.6-.792-.863-.418-.365-1.042-.15-1.509.139a2.116,2.116,0,0,1-1.5.519c-.414-.1-.707-.479-1.049-.745a2.285,2.285,0,0,0-2.934.163.8.8,0,0,1-.371.255c-.268.047-.472-.248-.586-.514-.253-.595-.749-2.589-1.675-2.035-.646.387-.9,2.375-1.114,3.052-.094.3-1.134,4.188-1.418,4.188h40.925a68.122,68.122,0,0,0-.007-7.824c-.042.013-.071.051-.121.049C559.264,496.969,558.987,495.8,558.432,496.034Z" transform="translate(-519.063 -496.003)" fill="#825c39" opacity="0.32" style="mix-blend-mode: multiply;isolation: isolate"/>
            </g>
            <path id="Trazado_104915" data-name="Trazado 104915" d="M525.129,526.273q.151-1.526.3-3.05a30.589,30.589,0,0,1,1.017-6.077c.566-1.825,1.482-3.739.921-5.563-.275-.885-.876-1.628-1.116-2.524-.635-2.381,1.413-4.544,2.057-6.923.986-3.647-1.427-7.385-1.326-11.182.036-1.438.438-2.842.488-4.28a8.451,8.451,0,0,0-5.167-8.07,11.1,11.1,0,0,1,2.92,9.583c-.3,1.7-1,3.441-.543,5.1a13.052,13.052,0,0,0,1.011,2.165,9.012,9.012,0,0,1,.519,6.381c-.854,2.9-3.191,5.545-2.56,8.5.26,1.219,1.006,2.265,1.284,3.477.595,2.589-1.026,5.078-2.162,7.45a2.23,2.23,0,0,0-.3,1.339,4.261,4.261,0,0,0,.557,1.1,3.152,3.152,0,0,1,.022,2.565Z" transform="translate(-413.35 -434.354)" fill="#825c39" opacity="0.32" style="mix-blend-mode: multiply;isolation: isolate"/>
            <path id="Trazado_104916" data-name="Trazado 104916" d="M533.18,526.724h4.792a30.367,30.367,0,0,1-.125-5.666c.159-2.144.534-4.389-.224-6.379-.385-1.011-1.04-1.878-1.464-2.869-2.113-4.948,1.918-11.406-.845-15.969-.733-1.212-1.862-2.088-2.661-3.253-1.661-2.426-1.659-5.673-2.323-8.6s-2.741-6.075-5.525-5.722a11.265,11.265,0,0,1,4.836,9.116c.022,1.7-.32,3.455.19,5.065.722,2.276,2.954,3.645,3.877,5.834,1.438,3.394-.693,7.253-.745,10.981-.065,4.582,3.034,9.078,1.74,13.443C534.309,524.037,533.533,525.4,533.18,526.724Z" transform="translate(-410.262 -434.805)" fill="#825c39" opacity="0.32" style="mix-blend-mode: multiply;isolation: isolate"/>
            <path id="Trazado_104917" data-name="Trazado 104917" d="M545.971,525.539c-.031-2.026-.546-4.664-2.419-4.886.6-4.168,1.069-8.895-1.4-12.166a10.893,10.893,0,0,1-1.156-1.578c-.7-1.373-.373-3.054-.1-4.588a16.216,16.216,0,0,0,.206-6.013c-.716-3.566-3.372-6.279-4.816-9.581-.718-1.637-1.136-3.423-1.981-4.989a9,9,0,0,0-8.476-4.749,8.349,8.349,0,0,1,7.184,7.005c.239,1.5.1,3.079.6,4.5.552,1.579,1.793,2.737,2.75,4.072a12.708,12.708,0,0,1,2.222,8.662c-.2,1.829-.8,3.665-.454,5.467.523,2.773,3.106,4.675,3.678,7.439.452,2.189-.458,4.476-.163,6.7.224,1.679,1.111,3.164,1.6,4.781a10.071,10.071,0,0,1,.38,2.69h2.39Q545.99,526.922,545.971,525.539Z" transform="translate(-408.997 -436.388)" fill="#825c39" opacity="0.32" style="mix-blend-mode: multiply;isolation: isolate"/>
            <path id="Trazado_104918" data-name="Trazado 104918" d="M531.348,515.342c-.306-.991-.852-1.885-1.1-2.893-.988-3.947,2.73-7.806,2.131-11.842-.268-1.813-1.373-3.336-2.062-5.015-1.216-2.969-1.1-6.344-1.592-9.545s-1.954-6.648-4.825-7.658c2.652,1.932,3.627,5.624,3.942,9.051s.19,6.99,1.429,10.165a25.286,25.286,0,0,1,1.35,3.439c1.114,4.805-3.432,9.508-2.5,14.355.186.959.581,1.863.711,2.831.277,2.064-.673,4.061-1.554,5.919a12.763,12.763,0,0,0-.91,2.392h3.213C530.265,522.781,532.479,518.971,531.348,515.342Z" transform="translate(-411.385 -434.621)" fill="#825c39" opacity="0.32" style="mix-blend-mode: multiply;isolation: isolate"/>
            <path id="Trazado_104919" data-name="Trazado 104919" d="M540.722,510.959c-.421-.758-1.027-1.386-1.389-2.176-1.216-2.656.713-5.921-.094-8.752a20.654,20.654,0,0,0-1.675-3.276c-.917-1.876-1.078-4.054-1.523-6.118a21.166,21.166,0,0,0-3.676-8.146A28.59,28.59,0,0,1,534.41,493.2a11.565,11.565,0,0,0,.27,3.477,14.616,14.616,0,0,0,1.467,2.773,12.848,12.848,0,0,1,1.456,8.291,4.075,4.075,0,0,0,.595,3.754c1.561,2.978,1.672,6.529,1.639,9.97h1.5C540.626,517.989,542.412,514.018,540.722,510.959Z" transform="translate(-400.915 -429.547)" fill="#825c39" opacity="0.32" style="mix-blend-mode: multiply;isolation: isolate"/>
            <path id="Trazado_104920" data-name="Trazado 104920" d="M572.778,498.129c-1.632-1.167-3.7-2.31-5.453-1.366-.584.315-.865.472-1.44.8a12.9,12.9,0,0,0-1.29,2.679,2.414,2.414,0,0,1-.394.814c-.6.713-1.67.427-2.558.288s-2.117.3-2,1.254c-1.608.465-3.26-.664-4.924-.579-1.771.092-3.291,1.536-5.06,1.632-2.853.159-5.465-3.182-8.137-2.1-1,.4-1.728,1.364-2.721,1.775-2.426,1-4.97-1.621-7.555-1.324-1.791.206-3.267,1.791-5.064,1.907-.508.033-.693.311-1.053-.074,0,0,2.055-6.652,2.1-6.773q-1.68.027-3.361.049c-.932.013-2.086.188-2.4,1.134-.145.447-.047.973-.264,1.388-.351.675-1.243.64-1.965.626a4.962,4.962,0,0,0-4.374,2.149c-.924,1.5-.637,3.855.834,4.711.749.436,1.78.548,2.131,1.38a5.418,5.418,0,0,1,.188,1.315,3.011,3.011,0,0,0,3.3,2.283,10.142,10.142,0,0,0,3.984-1.695,6.207,6.207,0,0,1,4.108-1.118,24.473,24.473,0,0,1,2.853,1.151c3.043,1,6.292-1.254,9.431-.706,1.306.228,2.538.935,3.859.919,2.012-.024,3.741-1.708,5.749-1.838,1.494-.1,2.9.675,4.318,1.169s3.162.648,4.248-.454c.327-.333.566-.753.886-1.093a4.324,4.324,0,0,1,3.694-1,14.844,14.844,0,0,0,3.915.282,3.058,3.058,0,0,0,2.679-2.634c.034-.8-.329-1.693.08-2.368.613-1.017,2.3-.485,3.01-1.422C574.918,500.273,573.8,498.86,572.778,498.129Z" transform="translate(-423.191 -412.341)" fill="url(#radial-gradient-3)"/>
            <path id="Trazado_104921" data-name="Trazado 104921" d="M521.653,503.55l.11-.356.042-.134.132-.432.054-.172.013-.04.148-.476.033-.109.013-.047c.266-.861.588-1.9.872-2.811v0l.045-.141.034-.11.19-.608c.08-.347.154-.631.2-.76-.136.4-2.061.449-2.493.657a2.1,2.1,0,0,0-1.46,2.176.849.849,0,0,1,.018.373c-.081.25-.389.282-.635.306a2.144,2.144,0,0,0-1.679,1.109.969.969,0,0,0-.13.528c.049.53.514.8.539,1.382s-.362,1.2-.083,1.778a1.087,1.087,0,0,0,.454.461,1.567,1.567,0,0,0,1.114.174c.682-.154,1.357-.908,2.091-.727.458.114.563.514.9.794,1.122.935,2.343-1.013,3.622-.474a4.591,4.591,0,0,1,.575.344,2.357,2.357,0,0,0,2.616-.163,1.918,1.918,0,0,1,.483-.326,1.044,1.044,0,0,1,.716.052c.494.186.93.519,1.429.689,1.684.568,3.269-1.681,5.015-1.14.465.145.863.49,1.33.626,1.263.365,2.661-.863,3.846-.264.512.259.894.838,1.46.9.653.074,1.161-.57,1.753-.874a3.985,3.985,0,0,1,2.983.224,1.244,1.244,0,0,0,.821.067,2.246,2.246,0,0,0,.624-.51c1.277-1.152,2.544.577,3.884.83a1.542,1.542,0,0,0,.655.013,2.7,2.7,0,0,0,.908-.593,3.113,3.113,0,0,1,2.625-.566c1.022.253,1.612.572,2.3-.32s1.351-.309,2.379-.358a1.307,1.307,0,0,0,1.089-.5c.23-.367.181-.9.481-1.21.7-.722,2.46.342,2.247-1.4-.074-.6-.631-.859-.729-1.3-.119-.53.5-.684.568-1.165.1-.745-.852-1.27-1.308-1.632-.329-.262-.465-.66-.914-.662a.812.812,0,0,0-.145.036c-.362.2-.633.351-1.073.6a1.178,1.178,0,0,0-.232.333c-.121.212-.264.5-.411.807l0,.009c-.2.427-.4.892-.537,1.232-.045.116-.08.217-.107.3a2.418,2.418,0,0,1-.394.814c-.6.713-1.67.427-2.558.288s-2.117.3-2,1.254c-1.608.465-3.26-.664-4.924-.579-1.771.092-3.291,1.536-5.06,1.632a3.7,3.7,0,0,1-.631-.022h0c-2.609-.293-5.031-3.081-7.506-2.082-1,.4-1.728,1.364-2.721,1.775-2.426,1-4.97-1.621-7.555-1.324-1.791.206-3.267,1.791-5.064,1.907C522.2,503.657,522.013,503.935,521.653,503.55Z" transform="translate(-419.715 -412.058)" fill="#825c39" opacity="0.32" style="mix-blend-mode: multiply;isolation: isolate"/>
            <path id="Trazado_104922" data-name="Trazado 104922" d="M490.315,459.855a24.11,24.11,0,0,0-8.884,11.169c-2.178,6.379-2.511,16.043,1.362,21.727l1.113.226c-3.971-5.664-3.651-15.431-1.456-21.863a24.114,24.114,0,0,1,8.772-11.084Z" transform="translate(-465.853 -457.527)" fill="#1d1e20"/>
            <path id="Trazado_104923" data-name="Trazado 104923" d="M517.9,497.348a1.189,1.189,0,1,1-1.185-1.275A1.231,1.231,0,0,1,517.9,497.348Z" transform="translate(-421.727 -412.763)" fill="url(#radial-gradient-4)"/>
            <path id="Trazado_104924" data-name="Trazado 104924" d="M518.425,495.522a.92.92,0,1,1-.917-.986A.953.953,0,0,1,518.425,495.522Z" transform="translate(-420.415 -414.662)" fill="url(#radial-gradient-5)"/>
            <path id="Trazado_104925" data-name="Trazado 104925" d="M543.468,496.52a.919.919,0,1,1-.917-.986A.953.953,0,0,1,543.468,496.52Z" transform="translate(-389.46 -413.429)" fill="url(#radial-gradient-6)"/>
            <path id="Trazado_104926" data-name="Trazado 104926" d="M541.819,495.928a1.43,1.43,0,1,1-1.427-1.532A1.484,1.484,0,0,1,541.819,495.928Z" transform="translate(-392.758 -414.835)" fill="url(#radial-gradient-7)"/>
            <ellipse id="Elipse_4283" data-name="Elipse 4283" cx="0.917" cy="0.985" rx="0.917" ry="0.985" transform="translate(102.635 72.922)" fill="url(#radial-gradient-8)"/>
            <path id="Trazado_104927" data-name="Trazado 104927" d="M539.666,492.762a.919.919,0,1,1-.917-.986A.953.953,0,0,1,539.666,492.762Z" transform="translate(-394.159 -418.074)" fill="url(#radial-gradient-9)"/>
            <path id="Trazado_104928" data-name="Trazado 104928" d="M529.918,498.125a.919.919,0,1,1-.917-.984A.951.951,0,0,1,529.918,498.125Z" transform="translate(-406.208 -411.443)" fill="url(#radial-gradient-10)"/>
            <path id="Trazado_104929" data-name="Trazado 104929" d="M523,496.176a.919.919,0,1,1-.917-.984A.953.953,0,0,1,523,496.176Z" transform="translate(-414.759 -413.851)" fill="url(#radial-gradient-11)"/>
            <path id="Trazado_104930" data-name="Trazado 104930" d="M532.662,495.877a.92.92,0,1,1-.917-.986A.953.953,0,0,1,532.662,495.877Z" transform="translate(-402.819 -414.224)" fill="url(#radial-gradient-12)"/>
            <path id="Trazado_104931" data-name="Trazado 104931" d="M537.863,497.127a.919.919,0,1,1-.917-.984A.953.953,0,0,1,537.863,497.127Z" transform="translate(-396.386 -412.676)" fill="url(#radial-gradient-13)"/>
            <path id="Trazado_104932" data-name="Trazado 104932" d="M537.751,494.871a1.189,1.189,0,1,1-1.187-1.275A1.233,1.233,0,0,1,537.751,494.871Z" transform="translate(-397.191 -415.823)" fill="url(#radial-gradient-14)"/>
            <path id="Trazado_104933" data-name="Trazado 104933" d="M521.932,495.71a1.853,1.853,0,1,1-1.849-1.983A1.921,1.921,0,0,1,521.932,495.71Z" transform="translate(-418.38 -415.662)" fill="url(#radial-gradient-15)"/>
            <path id="Trazado_104934" data-name="Trazado 104934" d="M542.915,492.623a1.852,1.852,0,1,1-1.847-1.986A1.921,1.921,0,0,1,542.915,492.623Z" transform="translate(-392.442 -419.481)" fill="url(#radial-gradient-16)"/>
            <path id="Trazado_104935" data-name="Trazado 104935" d="M535.366,497.011a1.156,1.156,0,1,1-1.152-1.239A1.2,1.2,0,0,1,535.366,497.011Z" transform="translate(-400.056 -413.135)" fill="url(#radial-gradient-17)"/>
            <path id="Trazado_104936" data-name="Trazado 104936" d="M528.2,496.9a1.333,1.333,0,1,1-1.328-1.427A1.379,1.379,0,0,1,528.2,496.9Z" transform="translate(-409.354 -413.509)" fill="url(#radial-gradient-18)"/>
            <path id="Trazado_104937" data-name="Trazado 104937" d="M524.223,497.712a1.162,1.162,0,1,1-1.16-1.245A1.2,1.2,0,0,1,524.223,497.712Z" transform="translate(-413.846 -412.276)" fill="url(#radial-gradient-19)"/>
          </g>
        </g>
      </g>
    </g>
  </g>
</svg>
