<svg xmlns="http://www.w3.org/2000/svg" width="90" height="90" viewBox="0 0 90 90">
  <g id="Grupo_60908" data-name="Grupo 60908" transform="translate(-240 -8511.58)">
    <g id="Elipse_4271" data-name="Elipse 4271" transform="translate(240 8511.58)" fill="#fff" stroke="#09b291" stroke-width="5">
      <circle cx="45" cy="45" r="45" stroke="none"/>
      <circle cx="45" cy="45" r="42.5" fill="none"/>
    </g>
    <g id="Grupo_56205" data-name="Grupo 56205" transform="translate(253.914 8534.004)">
      <g id="Grupo_56204" data-name="Grupo 56204">
        <g id="Grupo_56203" data-name="Grupo 56203">
          <path id="Trazado_104398" data-name="Trazado 104398" d="M561.793,256.817h-2.225l-1.815-7.258a1,1,0,0,0-.972-.76H545.756v-7.015a1,1,0,0,0-1-1h-2V229.755a1,1,0,0,0-1-1H528.717v-2a1,1,0,0,0-1-1H519.7a1,1,0,0,0-1,1v2H504.663a1,1,0,0,0-1,1V240.78h-2a1,1,0,0,0-1,1v11.025a1,1,0,0,0,1,1h2v11.026a1,1,0,0,0,1,1h1v2a3.007,3.007,0,0,0,3.008,3.006h2a3.007,3.007,0,0,0,3.006-3.006v-2h19.043a1,1,0,0,0,1,1v1a3.007,3.007,0,0,0,3.008,3.006h2a3.007,3.007,0,0,0,3.006-3.006v-1h12.028v1a3.007,3.007,0,0,0,3.006,3.006h2a3.007,3.007,0,0,0,3.008-3.006v-1a1,1,0,0,0,1-1v-8.019A1,1,0,0,0,561.793,256.817ZM503.66,251.8h-1v-9.02h1Zm53.841,5.012H538.02l.752-3.008H556.75ZM542.75,242.785h1V248.8h-1ZM556,250.8l.25,1H539.273l.25-1Zm-35.3-23.053h6.014v1H520.7Zm-9.02,40.091a1,1,0,0,1-1,1h-2a1,1,0,0,1-1-1v-2h4.009Zm7.2-4.009.667-4.009h8.325l.667,4.009Zm14.851-7.015a1,1,0,0,0-1,1v6.014h-2.158l-.863-5.176a1,1,0,0,0-.988-.838H518.694a1,1,0,0,0-.988.838l-.864,5.176H505.665V230.759h35.081V248.8h-1V238.775a1,1,0,0,0-1-1H507.669a1,1,0,0,0-1,1V251.8a1,1,0,0,0,1,1h29.287l-1,4.009Zm4.009-17.039v9.9l-.281,1.124H508.673V239.779Zm2,28.063a1,1,0,0,1-1,1h-2a1,1,0,0,1-1-1v-1h4.009Zm20.046,0a1,1,0,0,1-1,1h-2a1,1,0,0,1-1-1v-1h4.009Zm1-3.006H534.731v-6.014H560.79Z" transform="translate(-500.654 -225.746)" fill="#065949"/>
          <path id="Trazado_104399" data-name="Trazado 104399" d="M510.377,234.246H524.41a1,1,0,0,0,1-1v-3.006a1,1,0,0,0-1-1H510.377a1,1,0,0,0-1,1v3.006A1,1,0,0,0,510.377,234.246Zm1-3.006h12.028v1H511.381Z" transform="translate(-494.342 -223.221)" fill="#065949"/>
          <path id="Trazado_104400" data-name="Trazado 104400" d="M508.152,242.609a4.009,4.009,0,1,0,4.009,4.009A4.008,4.008,0,0,0,508.152,242.609Zm0,6.014a2,2,0,1,1,2-2A2,2,0,0,1,508.152,248.623Z" transform="translate(-498.129 -213.542)" fill="#065949"/>
          <path id="Trazado_104401" data-name="Trazado 104401" d="M527.019,247.941a3.007,3.007,0,1,0-3.006,3.008A3.007,3.007,0,0,0,527.019,247.941Zm-3.006,1a1,1,0,1,1,1-1A1,1,0,0,1,524.013,248.944Z" transform="translate(-485.926 -211.859)" fill="#065949"/>
          <path id="Trazado_104402" data-name="Trazado 104402" d="M537.486,247.941a3.007,3.007,0,1,0-3.008,3.008A3.007,3.007,0,0,0,537.486,247.941Zm-3.008,1a1,1,0,1,1,1-1A1,1,0,0,1,534.478,248.944Z" transform="translate(-478.352 -211.859)" fill="#065949"/>
        </g>
      </g>
    </g>
  </g>
</svg>
