<svg xmlns="http://www.w3.org/2000/svg" width="90" height="90" viewBox="0 0 90 90">
  <g id="Grupo_56280" data-name="Grupo 56280" transform="translate(-257 -2319)">
    <g id="Elipse_4277" data-name="Elipse 4277" transform="translate(257 2319)" fill="#fff" stroke="#09b291" stroke-width="5">
      <circle cx="45" cy="45" r="45" stroke="none"/>
      <circle cx="45" cy="45" r="42.5" fill="none"/>
    </g>
    <g id="outline" transform="translate(283.625 2339.038)">
      <path id="Trazado_104643" data-name="Trazado 104643" d="M447.084,380.3c-.008-.025-.016-.051-.027-.075l-1.8-4.5a.9.9,0,0,0-1.539-.229l-1.863,2.328a1.593,1.593,0,0,1-2.239.25c-.045-.037-.089-.077-.13-.118a1.6,1.6,0,0,1-.084-2.164,7.971,7.971,0,0,0,.071-10.32l-.665-.8a.9.9,0,0,0-1.565.358l-.246.982a2.557,2.557,0,0,1-1.583,1.777v-1.368a12.912,12.912,0,0,0-2.419-7.55,11.127,11.127,0,0,1-2.085-6.5v-3.331a.9.9,0,0,0-1.4-.749l-3.851,2.567a6.951,6.951,0,0,0-2.5,8.627,5.137,5.137,0,0,1-.738,5.389l-7.292,8.827a17.4,17.4,0,0,0,13.416,28.483h1.838a17.284,17.284,0,0,0,12.3-5.1l.228-.226A16.626,16.626,0,0,0,447.084,380.3Zm-5.448,15.279-.226.228a15.5,15.5,0,0,1-11.03,4.569h-1.838a15.6,15.6,0,0,1-12.026-25.534l7.292-8.827a6.927,6.927,0,0,0,.995-7.267,5.156,5.156,0,0,1,1.855-6.4l2.45-1.633v1.648a12.927,12.927,0,0,0,2.42,7.551,11.125,11.125,0,0,1,2.084,6.5v2.431a.9.9,0,0,0,.9.9,4.357,4.357,0,0,0,3.983-2.583,6.174,6.174,0,0,1-.461,7.45,3.394,3.394,0,1,0,5.154,4.418c.025-.029.049-.059.073-.088l.9-1.122,1.213,3.032A14.825,14.825,0,0,1,441.636,395.578Z" transform="translate(-411.139 -348.131)" fill="#065949"/>
      <path id="Trazado_104644" data-name="Trazado 104644" d="M437.643,378.406a.9.9,0,0,0-.863.235l-2.62,2.62a1.763,1.763,0,0,1-2.6-2.375,7.938,7.938,0,0,0,1-8.632l-4.246-8.494a.9.9,0,0,0-1.7.322l-.653,7.183a5.555,5.555,0,0,1-2.05,3.811l-3.712,2.97a9.273,9.273,0,0,0-3.5,7.274v1.022a9.317,9.317,0,0,0,9.317,9.317h.092l2.6-.026a9.261,9.261,0,0,0,6.519-2.752l.008-.01a12.105,12.105,0,0,0,3.044-11.843A.9.9,0,0,0,437.643,378.406Zm-3.681,11.2-.008.007,0,0a7.471,7.471,0,0,1-5.259,2.221l-2.6.026a7.513,7.513,0,0,1-7.587-7.44v-1.1a7.473,7.473,0,0,1,2.821-5.866l3.712-2.97a7.367,7.367,0,0,0,2.719-5.057l.366-4.029,2.83,5.661a6.138,6.138,0,0,1-.775,6.674,3.564,3.564,0,0,0,5.259,4.8l1.436-1.436A10.305,10.305,0,0,1,433.962,389.6Z" transform="translate(-409.071 -343.247)" fill="#065949"/>
      <path id="Trazado_104645" data-name="Trazado 104645" d="M413.074,360.85v1.8a.9.9,0,1,0,1.8,0v-1.8a.9.9,0,1,0-1.8,0Z" transform="translate(-410.419 -343.736)" fill="#065949"/>
      <path id="Trazado_104646" data-name="Trazado 104646" d="M415.944,360.27a.9.9,0,0,0,.9-.9v-1.8a.9.9,0,0,0-1.8,0v1.8A.9.9,0,0,0,415.944,360.27Z" transform="translate(-409.687 -344.956)" fill="#065949"/>
      <path id="Trazado_104647" data-name="Trazado 104647" d="M413.318,357.644a.9.9,0,0,0,.9-.9v-1.8a.9.9,0,1,0-1.8,0v1.8A.9.9,0,0,0,413.318,357.644Z" transform="translate(-410.663 -345.933)" fill="#065949"/>
      <path id="Trazado_104648" data-name="Trazado 104648" d="M436.3,365.522a.9.9,0,0,0,.9-.9v-1.8a.9.9,0,1,0-1.8,0v1.8A.9.9,0,0,0,436.3,365.522Z" transform="translate(-402.117 -343.003)" fill="#065949"/>
      <path id="Trazado_104649" data-name="Trazado 104649" d="M434.328,360.926a.9.9,0,0,0,.9-.9v-1.8a.9.9,0,1,0-1.8,0v1.8A.9.9,0,0,0,434.328,360.926Z" transform="translate(-402.849 -344.712)" fill="#065949"/>
      <path id="Trazado_104650" data-name="Trazado 104650" d="M436.954,359.2a.9.9,0,0,0,.9-.9v-2.7a.9.9,0,0,0-1.8,0v2.7A.9.9,0,0,0,436.954,359.2Z" transform="translate(-401.873 -345.689)" fill="#065949"/>
    </g>
  </g>
</svg>
