<svg xmlns="http://www.w3.org/2000/svg" width="90" height="90" viewBox="0 0 90 90">
  <g id="Grupo_56282" data-name="Grupo 56282" transform="translate(-257 -2580)">
    <g id="Elipse_4279" data-name="Elipse 4279" transform="translate(257 2580)" fill="#fff" stroke="#09b291" stroke-width="5">
      <circle cx="45" cy="45" r="45" stroke="none"/>
      <circle cx="45" cy="45" r="42.5" fill="none"/>
    </g>
    <g id="Grupo_56277" data-name="Grupo 56277" transform="translate(275.978 2602.52)">
      <g id="Grupo_56276" data-name="Grupo 56276">
        <g id="Grupo_56275" data-name="Grupo 56275">
          <path id="Trazado_104627" data-name="Trazado 104627" d="M498.412,359.7h-4.079v-5.352a3.338,3.338,0,1,0-6.675,0V359.7H459.541v-5.352a3.337,3.337,0,1,0-6.674,0V359.7H449.7a2.671,2.671,0,0,0-2.668,2.668v30a2.67,2.67,0,0,0,2.668,2.666h48.711a2.669,2.669,0,0,0,2.666-2.666v-30A2.67,2.67,0,0,0,498.412,359.7Zm-8.642,2.111v-7.463a1.226,1.226,0,1,1,2.451,0v9.31a1.226,1.226,0,1,1-2.451,0Zm-34.792,0v-7.463a1.226,1.226,0,1,1,2.451,0v9.31a1.226,1.226,0,1,1-2.451,0Zm43.99,30.559a.557.557,0,0,1-.556.556H449.7a.557.557,0,0,1-.556-.556v-30a.556.556,0,0,1,.556-.557h3.167v1.847a3.337,3.337,0,0,0,6.674,0v-1.847h28.117v1.847a3.338,3.338,0,0,0,6.675,0v-1.847h4.079a.557.557,0,0,1,.556.557v30Z" transform="translate(-447.033 -351.007)" fill="#065949"/>
          <path id="Trazado_104628" data-name="Trazado 104628" d="M494.521,376.736l-7.612-4.945a1.431,1.431,0,0,0-2.21,1.2v1.456H452.135a1.858,1.858,0,0,0-1.855,1.856v3.5a1.857,1.857,0,0,0,1.855,1.855h3.311a1.055,1.055,0,1,0,0-2.111h-3.055v-2.987h33.364a1.057,1.057,0,0,0,1.056-1.056v-1.258l5.86,3.807-5.86,3.807V380.6a1.057,1.057,0,0,0-1.056-1.056H463.891a1.056,1.056,0,1,0,0,2.112H484.7v1.457a1.43,1.43,0,0,0,2.21,1.2l7.612-4.945a1.568,1.568,0,0,0,0-2.63Z" transform="translate(-446.104 -345.125)" fill="#065949"/>
          <path id="Trazado_104629" data-name="Trazado 104629" d="M458.789,378.42a1.032,1.032,0,0,0-.1-.183,1.076,1.076,0,0,0-.132-.161,1,1,0,0,0-.161-.131,1.072,1.072,0,0,0-.181-.1,1.05,1.05,0,0,0-.61-.06.979.979,0,0,0-.2.06,1.086,1.086,0,0,0-.183.1.989.989,0,0,0-.159.131.932.932,0,0,0-.131.161,1.039,1.039,0,0,0-.1.183.935.935,0,0,0-.059.2,1.018,1.018,0,0,0-.022.206,1.031,1.031,0,0,0,.022.207,1.038,1.038,0,0,0,.157.379,1.1,1.1,0,0,0,.291.292,1.077,1.077,0,0,0,.183.1.976.976,0,0,0,.2.06,1.049,1.049,0,0,0,.61-.06,1.063,1.063,0,0,0,.181-.1.934.934,0,0,0,.161-.132.986.986,0,0,0,.131-.159,1.082,1.082,0,0,0,.1-.183.993.993,0,0,0,.06-.2,1.027,1.027,0,0,0,.022-.207,1.013,1.013,0,0,0-.022-.206A.941.941,0,0,0,458.789,378.42Z" transform="translate(-444.25 -343.348)" fill="#065949"/>
          <path id="Trazado_104630" data-name="Trazado 104630" d="M453.689,371.453a.651.651,0,0,0,.1-.35.661.661,0,0,0-.1-.369.325.325,0,0,0-.287-.162h-2.358v-1.623h1.248a.333.333,0,0,0,.292-.148.554.554,0,0,0,.1-.315.56.56,0,0,0-.1-.332.335.335,0,0,0-.287-.148h-1.248v-1.614H453.4a.328.328,0,0,0,.287-.162.671.671,0,0,0,.1-.369.658.658,0,0,0-.094-.351.326.326,0,0,0-.292-.162h-3.015a.652.652,0,0,0-.36.1.326.326,0,0,0-.162.288v5.495a.328.328,0,0,0,.162.288.652.652,0,0,0,.36.1H453.4A.325.325,0,0,0,453.689,371.453Z" transform="translate(-446.224 -346.903)" fill="#065949"/>
          <path id="Trazado_104631" data-name="Trazado 104631" d="M453.9,371.517a.892.892,0,0,0,.814,0,.323.323,0,0,0,.186-.289v-3.55l.9,1.689a.426.426,0,0,0,.4.242.431.431,0,0,0,.406-.241l.917-1.63v3.49a.319.319,0,0,0,.181.288.8.8,0,0,0,.409.1.825.825,0,0,0,.405-.1.324.324,0,0,0,.185-.289v-5.292a.558.558,0,0,0-.171-.445.621.621,0,0,0-.419-.145.946.946,0,0,0-.508.116,1.356,1.356,0,0,0-.391.489l-1.007,1.834-1.006-1.834a1.379,1.379,0,0,0-.386-.487.92.92,0,0,0-.5-.117.618.618,0,0,0-.419.145.558.558,0,0,0-.171.445v5.292A.32.32,0,0,0,453.9,371.517Z" transform="translate(-445.12 -346.903)" fill="#065949"/>
          <path id="Trazado_104632" data-name="Trazado 104632" d="M458.85,371.517a.658.658,0,0,0,.36.1h3.015a.324.324,0,0,0,.292-.163.71.71,0,0,0-.005-.719.325.325,0,0,0-.287-.162h-2.356v-1.623h1.248a.332.332,0,0,0,.291-.148.584.584,0,0,0-.005-.647.334.334,0,0,0-.286-.148h-1.248v-1.614h2.356a.328.328,0,0,0,.287-.162.712.712,0,0,0,.005-.72.326.326,0,0,0-.292-.162H459.21a.658.658,0,0,0-.36.1.329.329,0,0,0-.162.288v5.495A.33.33,0,0,0,458.85,371.517Z" transform="translate(-443.697 -346.903)" fill="#065949"/>
          <path id="Trazado_104633" data-name="Trazado 104633" d="M462.731,371.517a.812.812,0,0,0,.405.1.8.8,0,0,0,.409-.1.32.32,0,0,0,.181-.288v-2.17h.647l1.192,2.315a.454.454,0,0,0,.415.284.763.763,0,0,0,.491-.192.553.553,0,0,0,.234-.424.237.237,0,0,0-.046-.154l-1.087-2.015a1.527,1.527,0,0,0,.783-.576,1.933,1.933,0,0,0,.307-1.14c0-1.2-.688-1.81-2.046-1.81h-1.676a.383.383,0,0,0-.283.113.366.366,0,0,0-.113.265v5.5A.321.321,0,0,0,462.731,371.517Zm1-5.126h.891a.862.862,0,1,1,0,1.725h-.891Z" transform="translate(-442.593 -346.903)" fill="#065949"/>
          <path id="Trazado_104634" data-name="Trazado 104634" d="M467.167,371.192a2.518,2.518,0,0,0,2.943,0,1.885,1.885,0,0,0,.556-1.5v-1.007a.41.41,0,0,0-.1-.277.358.358,0,0,0-.284-.12h-1.439a.327.327,0,0,0-.278.148.587.587,0,0,0,0,.651.324.324,0,0,0,.282.144h.647v.46a.986.986,0,0,1-.222.7.828.828,0,0,1-.628.233c-.566,0-.841-.3-.841-.934v-2.363c0-.628.278-.934.85-.934a.786.786,0,0,1,.638.217,1.034,1.034,0,0,1,.2.583c.006.256.2.386.589.386a.68.68,0,0,0,.445-.12.563.563,0,0,0,.145-.445,1.467,1.467,0,0,0-.579-1.217,2.344,2.344,0,0,0-1.484-.449,2.112,2.112,0,0,0-1.437.48,1.9,1.9,0,0,0-.551,1.5v2.363A1.892,1.892,0,0,0,467.167,371.192Z" transform="translate(-441.428 -346.903)" fill="#065949"/>
          <path id="Trazado_104635" data-name="Trazado 104635" d="M470.911,371.517a.658.658,0,0,0,.36.1h3.015a.325.325,0,0,0,.292-.163.71.71,0,0,0-.005-.719.325.325,0,0,0-.287-.162H471.93v-1.623h1.248a.332.332,0,0,0,.291-.148.584.584,0,0,0-.005-.647.334.334,0,0,0-.286-.148H471.93v-1.614h2.356a.328.328,0,0,0,.287-.162.712.712,0,0,0,.005-.72.326.326,0,0,0-.292-.162h-3.015a.658.658,0,0,0-.36.1.329.329,0,0,0-.162.288v5.495A.33.33,0,0,0,470.911,371.517Z" transform="translate(-440.245 -346.903)" fill="#065949"/>
          <path id="Trazado_104636" data-name="Trazado 104636" d="M474.788,371.517a.8.8,0,0,0,.409.1.825.825,0,0,0,.405-.1.324.324,0,0,0,.185-.289v-3.246l1.745,3.266a.7.7,0,0,0,.67.368.824.824,0,0,0,.405-.1.324.324,0,0,0,.185-.289v-5.5a.311.311,0,0,0-.183-.289.981.981,0,0,0-.815,0,.311.311,0,0,0-.183.289v3.241l-1.559-3.015a1.38,1.38,0,0,0-.369-.487.854.854,0,0,0-.487-.117.832.832,0,0,0-.409.094.319.319,0,0,0-.181.293v5.495A.323.323,0,0,0,474.788,371.517Z" transform="translate(-439.141 -346.903)" fill="#065949"/>
          <path id="Trazado_104637" data-name="Trazado 104637" d="M479.464,371.188a2.118,2.118,0,0,0,1.437.478,2.289,2.289,0,0,0,1.486-.466,1.535,1.535,0,0,0,.577-1.25.583.583,0,0,0-.145-.458.678.678,0,0,0-.453-.124c-.368,0-.563.129-.581.385a1.656,1.656,0,0,1-.037.293,1.317,1.317,0,0,1-.107.271.5.5,0,0,1-.244.223,1.035,1.035,0,0,1-.436.081c-.583,0-.867-.3-.867-.934v-2.363c0-.628.278-.934.85-.934a1.111,1.111,0,0,1,.383.06.639.639,0,0,1,.239.143.69.69,0,0,1,.132.208,1.076,1.076,0,0,1,.066.2c.008.051.014.115.021.185.005.256.2.386.589.386a.668.668,0,0,0,.45-.125.6.6,0,0,0,.14-.458,1.45,1.45,0,0,0-.579-1.2,2.332,2.332,0,0,0-1.477-.449,2.124,2.124,0,0,0-1.439.48,1.884,1.884,0,0,0-.556,1.5v2.363A1.9,1.9,0,0,0,479.464,371.188Z" transform="translate(-437.909 -346.903)" fill="#065949"/>
          <path id="Trazado_104638" data-name="Trazado 104638" d="M487.138,365.487a1.032,1.032,0,0,0-.505-.14.4.4,0,0,0-.365.241l-1.261,2.381-1.253-2.379a.4.4,0,0,0-.373-.242,1.037,1.037,0,0,0-.507.14.422.422,0,0,0-.261.356.361.361,0,0,0,.031.13l1.754,3.035a.149.149,0,0,1,.018.086v2.134a.318.318,0,0,0,.185.288.886.886,0,0,0,.814,0,.321.321,0,0,0,.18-.288V369.1a.151.151,0,0,1,.03-.09l1.743-3.03a.254.254,0,0,0,.032-.131A.423.423,0,0,0,487.138,365.487Z" transform="translate(-436.849 -346.903)" fill="#065949"/>
        </g>
      </g>
    </g>
  </g>
</svg>
