<svg xmlns="http://www.w3.org/2000/svg" width="309.52" height="257" viewBox="0 0 309.52 257">
  <g id="Grupo_56261" data-name="Grupo 56261" transform="translate(-189.036 -288.017)">
    <g id="Grupo_56257" data-name="Grupo 56257" transform="translate(220.338 407.752)" opacity="0.4">
      <path id="Trazado_104593" data-name="Trazado 104593" d="M319.667,470.417c51.244,2.207,101.952-27.37,116.274-61.172,21.967-51.84-58.865-77.6-115.549-75.9-50.683,1.524-137.762,27.91-116.142,76.619C218.557,442.2,272.7,468.4,319.667,470.417Z" transform="translate(-200.866 -333.269)" fill="#bdf1ff" fill-rule="evenodd"/>
    </g>
    <g id="Grupo_56258" data-name="Grupo 56258" transform="translate(189.036 372.103)">
      <path id="Trazado_104594" data-name="Trazado 104594" d="M275.157,359.615l-37.393-21.326a8.754,8.754,0,0,0-8.88-.005l-37.578,21.358a4.488,4.488,0,0,0-.005,7.8L228.763,388.8a8.766,8.766,0,0,0,8.893,0l37.5-21.39a4.489,4.489,0,0,0,0-7.8Z" transform="translate(-189.036 -291.354)" fill="#b2b2b2" fill-rule="evenodd"/>
      <path id="Trazado_104595" data-name="Trazado 104595" d="M275.157,358.7l-37.393-21.326a8.76,8.76,0,0,0-8.88-.008l-37.578,21.361a4.486,4.486,0,0,0-.005,7.8l37.462,21.364a8.765,8.765,0,0,0,8.893,0l37.5-21.39a4.489,4.489,0,0,0,0-7.8Z" transform="translate(-189.036 -292.852)" fill="#fff" fill-rule="evenodd"/>
      <path id="Trazado_104596" data-name="Trazado 104596" d="M195.057,383.119a9.878,9.878,0,0,0-.619,1.633l-.336.892h.135a8.867,8.867,0,0,0-.135,1.524c0,9.028,13.812,16.352,30.841,16.352s30.839-7.324,30.839-16.352a8.615,8.615,0,0,0-.135-1.524h.138l-.341-.9a9.666,9.666,0,0,0-.606-1.6L233.2,325.951c-1.442-3.816-4.58-6.155-8.253-6.155s-6.811,2.339-8.253,6.155Z" transform="translate(-180.698 -319.796)" fill="#ccc" fill-rule="evenodd"/>
      <path id="Trazado_104597" data-name="Trazado 104597" d="M194.821,390.243c4.347,6.237,15.664,10.687,28.939,10.687a54.6,54.6,0,0,0,12.883-1.492l-8.806-68.9c-.677-5.3-1.087-7.718-4.077-8.909-3.051-1.215-6.091,2.093-7.382,5.5l-21.319,62.582Q194.932,389.974,194.821,390.243Z" transform="translate(-179.514 -317.207)" fill="#e5e5e5" fill-rule="evenodd"/>
      <path id="Trazado_104598" data-name="Trazado 104598" d="M197.36,341.446l-3.239,8.562c-.871,11.883,17.016,17.876,30.841,17.876,8.24,0,33.18-3.831,30.7-17.876.132,0-2.781-7.718-3.1-8.562-3.847,6.911-15.048,11.182-27.6,11.182S201.13,348.2,197.36,341.446Z" transform="translate(-180.717 -284.161)" fill="#cc4040" fill-rule="evenodd"/>
      <path id="Trazado_104599" data-name="Trazado 104599" d="M194.842,354.862c4.937,7.194,18.135,10.817,28.883,10.817A60.45,60.45,0,0,0,236.585,364L234.7,349.266a51.2,51.2,0,0,1-10.975,1.156c-10.195,0-19.548-2.924-24.724-7.636l-3.977,11.674C194.958,354.592,194.9,354.727,194.842,354.862Z" transform="translate(-179.48 -281.955)" fill="#e94b46" fill-rule="evenodd"/>
      <path id="Trazado_104600" data-name="Trazado 104600" d="M197.414,344.059c1.966,7.107,10.941,11.288,22.078,11.288s20.956-4.5,21.959-11.605l-4.826-12.751c-1.148,4.591-7.948,9.062-17.133,9.062s-15.622-3.514-17.252-8.748Z" transform="translate(-175.246 -301.369)" fill="#cc4040" fill-rule="evenodd"/>
      <path id="Trazado_104601" data-name="Trazado 104601" d="M198.222,345.867c3.715,4.588,11.155,7.189,19.94,7.189a37.923,37.923,0,0,0,9.134-1.08l-1.942-15.2a25.862,25.862,0,0,1-7.192.984c-7.036,0-12.462-2.061-15.349-5.379Z" transform="translate(-173.916 -299.078)" fill="#e94b46" fill-rule="evenodd"/>
      <path id="Trazado_104602" data-name="Trazado 104602" d="M201.054,337.032c1.3,3.863,7.419,5.784,12.447,5.784s11.462-2.162,12.447-5.781l-4.194-11.084c-1.442-3.816-4.58-6.155-8.253-6.155s-6.811,2.342-8.253,6.155Z" transform="translate(-169.255 -319.796)" fill="#cc4040" fill-rule="evenodd"/>
      <path id="Trazado_104603" data-name="Trazado 104603" d="M201.707,338.377c2.5,2.2,6.919,3.3,10.719,3.3a21.09,21.09,0,0,0,5.226-.693l-1.148-9c-.677-5.3-.572-10.086-4.072-11.261-4.488-1.506-6.1,4.445-7.388,7.856Z" transform="translate(-168.18 -318.659)" fill="#e94b46" fill-rule="evenodd"/>
    </g>
    <g id="Grupo_56259" data-name="Grupo 56259" transform="translate(244.027 288.017)">
      <path id="Rectángulo_5760" data-name="Rectángulo 5760" d="M3.416,0h211.1a3.415,3.415,0,0,1,3.415,3.415V72.408a3.416,3.416,0,0,1-3.416,3.416H3.415A3.415,3.415,0,0,1,0,72.409V3.416A3.416,3.416,0,0,1,3.416,0Z" transform="translate(0 45.255)" fill="#fad228"/>
      <path id="Trazado_104604" data-name="Trazado 104604" d="M255.51,307.394l-23.47,63.784H215.109a3.022,3.022,0,0,1-3.014-3.014v-25.79l12.865-34.98Z" transform="translate(-206.072 -256.123)" fill="#fcf2e6"/>
      <path id="Trazado_104605" data-name="Trazado 104605" d="M283.709,307.4l-23.47,63.784H231.885a3.074,3.074,0,0,1-1.926-.693l23.2-63.09Z" transform="translate(-176.669 -256.12)" fill="#fcf2e6"/>
      <path id="Trazado_104606" data-name="Trazado 104606" d="M305.479,307.4l-23.47,63.784H253.658a3.082,3.082,0,0,1-1.929-.693l23.2-63.09Z" transform="translate(-140.836 -256.12)" fill="#fcf2e6"/>
      <path id="Trazado_104607" data-name="Trazado 104607" d="M316.892,310.405v25.16l-13.105,35.612H275.435a3.074,3.074,0,0,1-1.932-.693l23.2-63.09h17.175A3,3,0,0,1,316.892,310.405Z" transform="translate(-104.997 -256.123)" fill="#fcf2e6"/>
      <path id="Trazado_104608" data-name="Trazado 104608" d="M417.967,310.41v10.031H212.1V310.41a3.022,3.022,0,0,1,3.014-3.014H414.953A3.005,3.005,0,0,1,417.967,310.41Z" transform="translate(-206.072 -256.12)" fill="#fff" opacity="0.38"/>
      <path id="Trazado_104609" data-name="Trazado 104609" d="M255.058,304.837a16.822,16.822,0,1,1-16.82-16.82A16.821,16.821,0,0,1,255.058,304.837Z" transform="translate(-190.732 -288.017)" fill="#efefef"/>
      <path id="Trazado_104610" data-name="Trazado 104610" d="M244.062,300.62a10.043,10.043,0,1,1-10.041-10.041A10.039,10.039,0,0,1,244.062,300.62Z" transform="translate(-186.515 -283.8)" fill="#e94b46"/>
      <rect id="Rectángulo_5761" data-name="Rectángulo 5761" width="14.138" height="14.438" transform="translate(40.435 30.817)" fill="#efefef"/>
      <path id="Trazado_104611" data-name="Trazado 104611" d="M300.057,304.837a16.82,16.82,0,1,1-16.82-16.82A16.821,16.821,0,0,1,300.057,304.837Z" transform="translate(-116.662 -288.017)" fill="#efefef"/>
      <path id="Trazado_104612" data-name="Trazado 104612" d="M289.063,300.62a10.043,10.043,0,1,1-10.041-10.041A10.039,10.039,0,0,1,289.063,300.62Z" transform="translate(-112.447 -283.8)" fill="#e94b46"/>
      <rect id="Rectángulo_5762" data-name="Rectángulo 5762" width="14.138" height="14.438" transform="translate(159.503 30.817)" fill="#efefef"/>
      <rect id="Rectángulo_5763" data-name="Rectángulo 5763" width="14.138" height="83.86" transform="translate(40.435 121.079)" fill="#fff"/>
      <rect id="Rectángulo_5764" data-name="Rectángulo 5764" width="14.138" height="83.86" transform="translate(161.435 121.079)" fill="#fff"/>
      <rect id="Rectángulo_5765" data-name="Rectángulo 5765" width="167.721" height="15.566" transform="translate(23.18 189.374)" fill="#a6a6a6"/>
      <rect id="Rectángulo_5766" data-name="Rectángulo 5766" width="106.863" height="8.662" transform="translate(54.572 149.796)" fill="#fff"/>
      <rect id="Rectángulo_5767" data-name="Rectángulo 5767" width="14.138" height="12.052" transform="translate(40.435 121.079)" fill="#c2c2b8" style="mix-blend-mode: multiply;isolation: isolate"/>
      <rect id="Rectángulo_5768" data-name="Rectángulo 5768" width="14.138" height="12.052" transform="translate(161.438 121.079)" fill="#c2c2b8" style="mix-blend-mode: multiply;isolation: isolate"/>
    </g>
    <g id="Grupo_56260" data-name="Grupo 56260" transform="translate(406.426 436.625)">
      <path id="Trazado_104613" data-name="Trazado 104613" d="M360.965,385.689l-38.978-22.231a9.121,9.121,0,0,0-9.255-.005L273.56,385.715a4.68,4.68,0,0,0-.008,8.131l39.054,22.266a9.128,9.128,0,0,0,9.269,0l39.089-22.3a4.677,4.677,0,0,0,0-8.126Z" transform="translate(-271.195 -314.533)" fill="#b2b2b2" fill-rule="evenodd"/>
      <path id="Trazado_104614" data-name="Trazado 104614" d="M360.965,384.74l-38.978-22.231a9.121,9.121,0,0,0-9.255-.005L273.56,384.766a4.68,4.68,0,0,0-.008,8.131l39.054,22.266a9.127,9.127,0,0,0,9.269,0l39.089-22.3a4.677,4.677,0,0,0,0-8.126Z" transform="translate(-271.195 -316.095)" fill="#fff" fill-rule="evenodd"/>
      <path id="Trazado_104615" data-name="Trazado 104615" d="M277.47,410.19a10.373,10.373,0,0,0-.643,1.7l-.352.929h.143a9.082,9.082,0,0,0-.14,1.588c0,9.412,14.394,17.048,32.148,17.048s32.146-7.636,32.146-17.048a9.082,9.082,0,0,0-.14-1.588h.143l-.357-.942a10.114,10.114,0,0,0-.632-1.672l-22.557-59.611c-1.506-3.977-4.776-6.414-8.6-6.414s-7.1,2.44-8.6,6.414Z" transform="translate(-262.504 -344.181)" fill="#ccc" fill-rule="evenodd"/>
      <path id="Trazado_104616" data-name="Trazado 104616" d="M277.225,417.615c4.532,6.5,16.328,11.142,30.167,11.142A56.963,56.963,0,0,0,320.82,427.2l-9.179-71.822c-.707-5.527-1.133-8.046-4.249-9.29-3.183-1.265-6.35,2.183-7.7,5.739L277.471,417.06C277.384,417.245,277.3,417.428,277.225,417.615Z" transform="translate(-261.27 -341.483)" fill="#e5e5e5" fill-rule="evenodd"/>
      <path id="Trazado_104617" data-name="Trazado 104617" d="M279.871,366.749q-1.687,4.465-3.376,8.925c-.908,12.386,17.738,18.635,32.151,18.635,8.589,0,34.585-4,32.006-18.635.138,0-2.9-8.044-3.236-8.925-4.011,7.2-15.685,11.655-28.77,11.655S283.8,373.787,279.871,366.749Z" transform="translate(-262.524 -307.035)" fill="#cc4040" fill-rule="evenodd"/>
      <path id="Trazado_104618" data-name="Trazado 104618" d="M277.247,380.735c5.146,7.5,18.905,11.277,30.108,11.277a63.05,63.05,0,0,0,13.4-1.746L318.794,374.9a53.382,53.382,0,0,1-11.439,1.2c-10.629,0-20.379-3.046-25.774-7.962l-4.146,12.169C277.369,380.454,277.305,380.594,277.247,380.735Z" transform="translate(-261.234 -304.737)" fill="#e94b46" fill-rule="evenodd"/>
      <path id="Trazado_104619" data-name="Trazado 104619" d="M279.928,369.471c2.048,7.411,11.4,11.769,23.015,11.769s21.842-4.686,22.888-12.1L320.8,355.85c-1.2,4.787-8.287,9.449-17.86,9.449s-16.286-3.662-17.985-9.118Z" transform="translate(-256.821 -324.974)" fill="#cc4040" fill-rule="evenodd"/>
      <path id="Trazado_104620" data-name="Trazado 104620" d="M280.77,371.355c3.874,4.784,11.629,7.5,20.787,7.5a39.428,39.428,0,0,0,9.52-1.127l-2.024-15.844a26.875,26.875,0,0,1-7.5,1.029c-7.335,0-12.992-2.148-16-5.607Z" transform="translate(-255.435 -322.584)" fill="#e94b46" fill-rule="evenodd"/>
      <path id="Trazado_104621" data-name="Trazado 104621" d="M283.722,362.147c1.36,4.027,7.734,6.03,12.976,6.03s11.947-2.254,12.973-6.027L305.3,350.595c-1.506-3.977-4.776-6.414-8.6-6.414s-7.1,2.44-8.6,6.414Z" transform="translate(-250.576 -344.181)" fill="#cc4040" fill-rule="evenodd"/>
      <path id="Trazado_104622" data-name="Trazado 104622" d="M284.4,363.548c2.6,2.3,7.213,3.445,11.174,3.445a22.034,22.034,0,0,0,5.448-.722l-1.2-9.38c-.707-5.527-.6-10.515-4.247-11.74-4.676-1.572-6.353,4.633-7.7,8.189Z" transform="translate(-249.455 -342.997)" fill="#e94b46" fill-rule="evenodd"/>
    </g>
  </g>
</svg>
