<svg xmlns="http://www.w3.org/2000/svg" width="90" height="90" viewBox="0 0 90 90">
  <g id="Grupo_60906" data-name="Grupo 60906" transform="translate(-240 -8247.58)">
    <g id="Elipse_4269" data-name="Elipse 4269" transform="translate(240 8247.58)" fill="#fff" stroke="#09b291" stroke-width="5">
      <circle cx="45" cy="45" r="45" stroke="none"/>
      <circle cx="45" cy="45" r="42.5" fill="none"/>
    </g>
    <g id="Grupo_56208" data-name="Grupo 56208" transform="translate(256.748 8263)">
      <g id="Grupo_56207" data-name="Grupo 56207">
        <path id="Trazado_104406" data-name="Trazado 104406" d="M612.029,239.669a.825.825,0,0,0-.825.825v13.554a.825.825,0,0,0,.825.825h7.7a.825.825,0,0,0,.825-.825V240.494a.825.825,0,0,0-.825-.825Zm6.874,13.554h-6.049v-11.9H618.9Z" transform="translate(-574.198 -205.066)" fill="#065949"/>
        <path id="Trazado_104407" data-name="Trazado 104407" d="M594.149,239.669a.825.825,0,0,0-.825.825v13.554a.825.825,0,0,0,.825.825h7.7a.825.825,0,0,0,.825-.825V240.494a.825.825,0,0,0-.825-.825Zm6.872,13.554h-6.048v-11.9h6.048Z" transform="translate(-583.371 -205.066)" fill="#065949"/>
        <path id="Trazado_104408" data-name="Trazado 104408" d="M640.577,262.936H636.4v-12.62a.825.825,0,1,0-1.649,0v12.62H622.322V247.007a.824.824,0,0,0-.825-.825H608.3a.825.825,0,0,0-.825.825v15.929H595.048V242.371h39.7v4.385a.825.825,0,1,0,1.649,0v-4.385h2.035a.825.825,0,0,0,.8-1.035L635.6,227.588a.827.827,0,0,0-.8-.614H604.328a.825.825,0,0,0,0,1.651h29.843l3.191,12.1H592.435l3.193-12.1h5.262a.825.825,0,0,0,0-1.651h-5.9a.825.825,0,0,0-.8.614l-3.628,13.748a.827.827,0,0,0,.8,1.035H593.4v20.565H589.22a2.475,2.475,0,0,0,0,4.949h11.548a.825.825,0,0,0,0-1.651H589.22a.825.825,0,0,1,0-1.649h51.357a.825.825,0,1,1,0,1.649H604.312a.825.825,0,1,0,0,1.651h36.265a2.475,2.475,0,1,0,0-4.949Zm-31.452,0v-15.1h11.548v15.1Z" transform="translate(-586.746 -211.579)" fill="#065949"/>
        <path id="Trazado_104409" data-name="Trazado 104409" d="M607.491,244.424a2.683,2.683,0,1,0,2.683,2.684A2.686,2.686,0,0,0,607.491,244.424Zm0,3.718a1.033,1.033,0,1,1,1.033-1.033A1.035,1.035,0,0,1,607.491,248.141Z" transform="translate(-577.479 -202.626)" fill="#065949"/>
        <path id="Trazado_104410" data-name="Trazado 104410" d="M588.261,251a.826.826,0,0,0,.826-.825v-.825a.825.825,0,0,0-1.651,0v.825A.825.825,0,0,0,588.261,251Z" transform="translate(-586.392 -200.524)" fill="#065949"/>
        <path id="Trazado_104411" data-name="Trazado 104411" d="M588.173,226.673a.884.884,0,0,0,.165.017.827.827,0,0,0,.808-.661,4.951,4.951,0,0,1,.445-1.272.825.825,0,1,0-1.468-.752,6.587,6.587,0,0,0-.595,1.7A.825.825,0,0,0,588.173,226.673Z" transform="translate(-586.353 -213.333)" fill="#065949"/>
        <path id="Trazado_104412" data-name="Trazado 104412" d="M593.083,223.063h1.578a.825.825,0,1,0,0-1.649h-1.578a.825.825,0,0,0,0,1.649Z" transform="translate(-583.918 -214.431)" fill="#065949"/>
        <path id="Trazado_104413" data-name="Trazado 104413" d="M590.073,223.909a.831.831,0,0,0,.442-.129,5.179,5.179,0,0,1,1.232-.572.825.825,0,1,0-.493-1.574,6.825,6.825,0,0,0-1.624.752.825.825,0,0,0,.443,1.522Z" transform="translate(-585.463 -214.337)" fill="#065949"/>
        <path id="Trazado_104414" data-name="Trazado 104414" d="M596.212,223.063h1.578a.825.825,0,1,0,0-1.649h-1.578a.825.825,0,0,0,0,1.649Z" transform="translate(-582.313 -214.431)" fill="#065949"/>
        <path id="Trazado_104415" data-name="Trazado 104415" d="M588.261,229.846a.826.826,0,0,0,.826-.825v-1.58a.825.825,0,0,0-1.651,0v1.58A.825.825,0,0,0,588.261,229.846Z" transform="translate(-586.392 -211.762)" fill="#065949"/>
        <path id="Trazado_104416" data-name="Trazado 104416" d="M588.261,242.363a.826.826,0,0,0,.826-.825v-1.58a.825.825,0,0,0-1.651,0v1.58A.825.825,0,0,0,588.261,242.363Z" transform="translate(-586.392 -205.34)" fill="#065949"/>
        <path id="Trazado_104417" data-name="Trazado 104417" d="M588.261,245.491a.826.826,0,0,0,.826-.825v-1.578a.825.825,0,0,0-1.651,0v1.578A.825.825,0,0,0,588.261,245.491Z" transform="translate(-586.392 -203.734)" fill="#065949"/>
        <path id="Trazado_104418" data-name="Trazado 104418" d="M588.261,248.62a.826.826,0,0,0,.826-.825v-1.578a.825.825,0,0,0-1.651,0V247.8A.825.825,0,0,0,588.261,248.62Z" transform="translate(-586.392 -202.129)" fill="#065949"/>
        <path id="Trazado_104419" data-name="Trazado 104419" d="M588.261,239.232a.826.826,0,0,0,.826-.825V236.83a.825.825,0,0,0-1.651,0v1.578A.825.825,0,0,0,588.261,239.232Z" transform="translate(-586.392 -206.945)" fill="#065949"/>
        <path id="Trazado_104420" data-name="Trazado 104420" d="M588.261,232.974a.826.826,0,0,0,.826-.825v-1.578a.825.825,0,0,0-1.651,0v1.578A.825.825,0,0,0,588.261,232.974Z" transform="translate(-586.392 -210.156)" fill="#065949"/>
        <path id="Trazado_104421" data-name="Trazado 104421" d="M588.261,236.1a.826.826,0,0,0,.826-.825V233.7a.825.825,0,0,0-1.651,0v1.578A.825.825,0,0,0,588.261,236.1Z" transform="translate(-586.392 -208.551)" fill="#065949"/>
        <path id="Trazado_104422" data-name="Trazado 104422" d="M599.346,223.063h.825a.825.825,0,0,0,0-1.649h-.825a.825.825,0,1,0,0,1.649Z" transform="translate(-580.705 -214.431)" fill="#065949"/>
        <path id="Trazado_104423" data-name="Trazado 104423" d="M623,248.522a.825.825,0,0,0-.825.825v.825a.825.825,0,0,0,1.649,0v-.825A.825.825,0,0,0,623,248.522Z" transform="translate(-568.567 -200.524)" fill="#065949"/>
        <path id="Trazado_104424" data-name="Trazado 104424" d="M623.828,227.43a.825.825,0,0,0-1.649,0v1.58a.825.825,0,0,0,1.649,0Z" transform="translate(-568.567 -211.768)" fill="#065949"/>
        <path id="Trazado_104425" data-name="Trazado 104425" d="M623.828,236.823a.825.825,0,1,0-1.649,0v1.58a.825.825,0,0,0,1.649,0Z" transform="translate(-568.567 -206.949)" fill="#065949"/>
        <path id="Trazado_104426" data-name="Trazado 104426" d="M623.828,230.561a.825.825,0,1,0-1.649,0v1.58a.825.825,0,0,0,1.649,0Z" transform="translate(-568.567 -210.162)" fill="#065949"/>
        <path id="Trazado_104427" data-name="Trazado 104427" d="M623.828,233.692a.825.825,0,1,0-1.649,0v1.58a.825.825,0,1,0,1.649,0Z" transform="translate(-568.567 -208.555)" fill="#065949"/>
        <path id="Trazado_104428" data-name="Trazado 104428" d="M623.828,239.954a.825.825,0,1,0-1.649,0v1.58a.825.825,0,1,0,1.649,0Z" transform="translate(-568.567 -205.343)" fill="#065949"/>
        <path id="Trazado_104429" data-name="Trazado 104429" d="M623.828,243.085a.825.825,0,0,0-1.649,0v1.58a.825.825,0,1,0,1.649,0Z" transform="translate(-568.567 -203.736)" fill="#065949"/>
        <path id="Trazado_104430" data-name="Trazado 104430" d="M623.828,246.216a.825.825,0,1,0-1.649,0v1.58a.825.825,0,0,0,1.649,0Z" transform="translate(-568.567 -202.13)" fill="#065949"/>
        <path id="Trazado_104431" data-name="Trazado 104431" d="M622.293,226.015a.823.823,0,0,0,.808.661.862.862,0,0,0,.164-.015.826.826,0,0,0,.646-.971,6.747,6.747,0,0,0-.589-1.7.825.825,0,0,0-1.472.744,5.023,5.023,0,0,1,.443,1.279Z" transform="translate(-568.781 -213.34)" fill="#065949"/>
        <path id="Trazado_104432" data-name="Trazado 104432" d="M617.141,223.063h1.58a.825.825,0,0,0,0-1.649h-1.58a.825.825,0,0,0,0,1.649Z" transform="translate(-571.575 -214.431)" fill="#065949"/>
        <path id="Trazado_104433" data-name="Trazado 104433" d="M614.011,223.063h1.58a.825.825,0,0,0,0-1.649h-1.58a.825.825,0,1,0,0,1.649Z" transform="translate(-573.181 -214.431)" fill="#065949"/>
        <path id="Trazado_104434" data-name="Trazado 104434" d="M620.018,223.193a5,5,0,0,1,1.227.563.81.81,0,0,0,.442.129.824.824,0,0,0,.442-1.521,6.649,6.649,0,0,0-1.633-.751.825.825,0,0,0-.478,1.58Z" transform="translate(-569.977 -214.347)" fill="#065949"/>
        <path id="Trazado_104435" data-name="Trazado 104435" d="M611.374,223.063h.825a.825.825,0,0,0,0-1.649h-.825a.825.825,0,0,0,0,1.649Z" transform="translate(-574.533 -214.431)" fill="#065949"/>
        <path id="Trazado_104436" data-name="Trazado 104436" d="M603.971,228.62h6.158a1.928,1.928,0,0,0,1.925-1.925v-4.179a1.925,1.925,0,0,0-1.649-1.9v-.463a3.354,3.354,0,0,0-6.709,0v.463a1.925,1.925,0,0,0-1.649,1.9V226.7a1.926,1.926,0,0,0,1.925,1.925Zm3.079-10.172a1.7,1.7,0,0,1,1.7,1.7v.44h-3.409v-.44A1.707,1.707,0,0,1,607.05,218.448Zm-3.354,4.069a.275.275,0,0,1,.275-.275h6.158a.276.276,0,0,1,.275.275V226.7a.276.276,0,0,1-.275.275h-6.158a.275.275,0,0,1-.275-.275Z" transform="translate(-578.896 -216.799)" fill="#065949"/>
        <path id="Trazado_104437" data-name="Trazado 104437" d="M605.069,222.406v1.216a.825.825,0,1,0,1.649,0v-1.216a.824.824,0,0,0-.054-1.646h-1.54a.824.824,0,0,0-.054,1.646Z" transform="translate(-577.74 -214.767)" fill="#065949"/>
      </g>
    </g>
  </g>
</svg>
