<svg xmlns="http://www.w3.org/2000/svg" width="90" height="90" viewBox="0 0 90 90">
  <g id="Grupo_56281" data-name="Grupo 56281" transform="translate(-257 -2450)">
    <g id="Elipse_4278" data-name="Elipse 4278" transform="translate(257 2450)" fill="#fff" stroke="#09b291" stroke-width="5">
      <circle cx="45" cy="45" r="45" stroke="none"/>
      <circle cx="45" cy="45" r="42.5" fill="none"/>
    </g>
    <g id="Grupo_56274" data-name="Grupo 56274" transform="translate(275.978 2469.176)">
      <g id="Grupo_56273" data-name="Grupo 56273">
        <g id="Grupo_56272" data-name="Grupo 56272">
          <path id="Trazado_104625" data-name="Trazado 104625" d="M552.293,380.324a4.656,4.656,0,0,0-6.584-6.583l-3.355,3.359V356.056a3.713,3.713,0,0,0-3.993-3.7,3.513,3.513,0,0,0-1.59.522v-.423a3.724,3.724,0,0,0-7.449,0v.4a3.678,3.678,0,0,0-1.858-.516,3.724,3.724,0,0,0-3.724,3.716v6.827L520,352.612a3.685,3.685,0,0,0-4.965-2.1,3.482,3.482,0,0,0-1.286,1.01l-.137-.371a3.68,3.68,0,1,0-6.917,2.514l.133.354a3.623,3.623,0,0,0-1.883.152,3.686,3.686,0,0,0-2.2,4.72l1.115,3.045a3.659,3.659,0,0,0-2.136.253,3.776,3.776,0,0,0-1.9,4.762l6.092,16.74a15.623,15.623,0,0,0,2.213,4.077l5.457,7.213a1.856,1.856,0,0,0-.8,2.229l2.185,6.01a1.859,1.859,0,0,0,2.382,1.114l2.8-1.021a1.857,1.857,0,0,0,1.716,1.135h19.55a2.786,2.786,0,0,0,2.785-2.786V397a2.771,2.771,0,0,0-1.9-2.622v-4.34Zm-21.112-27.872a1.867,1.867,0,0,1,3.733,0v13.1a4.561,4.561,0,0,0-3.733.158V352.452Zm-5.582,3.6a1.863,1.863,0,0,1,3.725,0v11.338a4.378,4.378,0,0,0-.28.465L527.1,372.1l-1.5-4.108V356.056Zm-24.031,10.263a1.942,1.942,0,0,1,.912-2.432,1.828,1.828,0,0,1,2.46,1.038l3.451,9.48a.933.933,0,0,0,.176.288c.021.023.044.044.068.065a.908.908,0,0,0,.194.139.658.658,0,0,0,.087.042.829.829,0,0,0,.248.062c.024,0,.046.011.07.011h.029a.929.929,0,0,0,.873-1.247l-3.449-9.475-2.2-6.033a1.823,1.823,0,0,1,3.425-1.248l4.705,12.927a.915.915,0,0,0,.175.288c.022.025.048.045.072.068a.962.962,0,0,0,.186.135.871.871,0,0,0,.093.046.931.931,0,0,0,.232.058c.029,0,.057.012.086.013h.026a.936.936,0,0,0,.841-.537.927.927,0,0,0,.033-.71l-5.921-16.267a1.824,1.824,0,0,1,1.09-2.335,1.8,1.8,0,0,1,1.392.062,1.837,1.837,0,0,1,.944,1.025l5.918,16.271a.929.929,0,0,0,1.8-.271.9.9,0,0,0-.056-.365l-1.021-2.8-3.627-9.98a1.941,1.941,0,0,1,.911-2.431,1.829,1.829,0,0,1,2.461,1.038l7.091,19.481A1.838,1.838,0,0,0,527,373.941a1.8,1.8,0,0,0,1.753-1.068l1.975-4.233a2.742,2.742,0,0,1,4.972,2.314l-6.015,12.9a.751.751,0,0,0-.025.109.8.8,0,0,0,0,.606l1.456,4-9.451,3.436c-.114-.32-.229-.638-.342-.959-1.579-4.514-3.365-9.629-9.079-11.112a11.034,11.034,0,0,0-5.693.062Zm8.048,20.331a13.73,13.73,0,0,1-1.951-3.591l-.473-1.3a9.13,9.13,0,0,1,4.588-.019c4.753,1.233,6.229,5.454,7.791,9.925.115.33.233.651.349.983l-4.521,1.646Zm7.107,15.943-2.185-6.011.825-.3L532.6,390a.93.93,0,0,1,1.191.556l1.549,4.265a.929.929,0,0,1-.558,1.191Zm25.63-5.59v4.661a.928.928,0,0,1-.928.928H522.149l7.681-2.8h8.809v.93a.928.928,0,1,0,1.857,0v-.93a1.862,1.862,0,0,0-1.866-1.857h-3.7l.491-.179a2.758,2.758,0,0,0,1.656-1.687h4.346A.928.928,0,0,1,542.354,397Zm-1.626-8.022v.005a.97.97,0,0,0-.211.328.952.952,0,0,0-.065.326v4.576H537.1a.038.038,0,0,0-.007-.026l-1.553-4.266a2.787,2.787,0,0,0-2.616-1.819l-1.386-3.807,5.851-12.55a4.529,4.529,0,0,0-.614-4.83v-10.7a1.969,1.969,0,0,1,1.729-2.006,1.857,1.857,0,0,1,2,1.849V377.1a1.857,1.857,0,0,0,3.175,1.314l3.35-3.358A2.8,2.8,0,0,1,550.984,379Z" transform="translate(-499.573 -348.728)" fill="#065949"/>
          <path id="Trazado_104626" data-name="Trazado 104626" d="M528.71,382.971a1.852,1.852,0,0,0-2.366-1.1l-1.656.6c-.015.005-.029.009-.044.016l-11.227,4.087a.929.929,0,1,0,.635,1.745l11.28-4.114a.781.781,0,0,0,.078-.029l1.555-.568.314.862a.929.929,0,1,0,1.745-.637Z" transform="translate(-495.263 -337.956)" fill="#065949"/>
        </g>
      </g>
    </g>
  </g>
</svg>
