<svg xmlns="http://www.w3.org/2000/svg" width="90" height="90" viewBox="0 0 90 90">
  <g id="Grupo_56279" data-name="Grupo 56279" transform="translate(-257 -2192)">
    <g id="Elipse_4276" data-name="Elipse 4276" transform="translate(257 2192)" fill="#fff" stroke="#09b291" stroke-width="5">
      <circle cx="45" cy="45" r="45" stroke="none"/>
      <circle cx="45" cy="45" r="42.5" fill="none"/>
    </g>
    <g id="outline" transform="translate(275.978 2206.978)">
      <path id="Trazado_104639" data-name="Trazado 104639" d="M412.417,372.763v-.969a9.908,9.908,0,1,0-19.816,0v3.6H389a.9.9,0,0,0-.9.9v3.6a.9.9,0,0,0,.9.9h.091l.852,8.107H386.3v-38.73a2.7,2.7,0,1,0-5.4,0v38.73h-9.007a1.8,1.8,0,0,0-1.8,1.8V393.3l-1.774,7.1a.9.9,0,0,0,.874,1.119h42.334a.9.9,0,0,0,.9-.9v-3.555l1.272-12.078a2.756,2.756,0,0,0,1.431-2.432v-6.48A3.383,3.383,0,0,0,412.417,372.763Zm-18.015-.969a8.107,8.107,0,1,1,16.213,0v.9h-8.332a3.385,3.385,0,0,0-3.31,2.7H394.4Zm-4.5,5.4h9.008V379H389.9Zm1,3.6h8.006v1.752a2.794,2.794,0,0,0,.83,1.976,2.66,2.66,0,0,0,1.914.776,7.407,7.407,0,0,1,5.363-.69,5.4,5.4,0,0,1,4.837.628l-1.144,10.871h-12.9l-.7-2.814v-2.592a1.8,1.8,0,0,0-1.8-1.8h-3.552Zm-8.207-30.624a.9.9,0,1,1,1.8,0v38.73h-1.8Zm-10.808,40.532H395.3v1.8H371.885Zm2.054,9.008,1.351-5.405h1.745l-1.35,5.405Zm-2.251-5.405h1.745l-1.351,5.405h-1.745Zm7.205,0h1.879l-.676,5.405h-2.554Zm3.02,5.405.675-5.405H384.6l.676,5.405Zm5.179,0-.676-5.405h1.88l1.351,5.405Zm4.412,0-1.351-5.405H391.9l1.35,5.405Zm3.6,0-1.351-5.405H395.5l1.351,5.405Zm15.509,0H398.709l-.45-1.8h12.357Zm2.7-19.816v2.651a.938.938,0,0,1-.856.951.9.9,0,0,1-.945-.855V379h-1.8v3.6a.9.9,0,0,1-1.8,0V379h-1.8v3.6a.9.9,0,1,1-1.8,0V379h-1.8v3.6a.9.9,0,0,1-.886.9h-.012a.869.869,0,0,1-.609-.259.979.979,0,0,1-.294-.691v-6.481a1.579,1.579,0,0,1,1.576-1.576h9.458a1.579,1.579,0,0,1,1.576,1.576Z" transform="translate(-364.678 -347.475)" fill="#065949"/>
      <rect id="Rect치ngulo_5770" data-name="Rect치ngulo 5770" width="1.801" height="4.504" transform="translate(42.334 42.334)" fill="#065949"/>
      <rect id="Rect치ngulo_5771" data-name="Rect치ngulo 5771" width="1.801" height="1.801" transform="translate(42.334 38.731)" fill="#065949"/>
      <path id="Trazado_104640" data-name="Trazado 104640" d="M373.243,370.967a.9.9,0,0,0,1.709,0,4.82,4.82,0,0,1,3.033-3.033.9.9,0,0,0,0-1.709,4.817,4.817,0,0,1-3.033-3.033.9.9,0,0,0-1.709,0,4.814,4.814,0,0,1-3.033,3.033.9.9,0,0,0,0,1.709A4.817,4.817,0,0,1,373.243,370.967Zm.855-5.512a6.648,6.648,0,0,0,1.626,1.624A6.656,6.656,0,0,0,374.1,368.7a6.674,6.674,0,0,0-1.624-1.626A6.666,6.666,0,0,0,374.1,365.455Z" transform="translate(-364.19 -341.859)" fill="#065949"/>
      <path id="Trazado_104641" data-name="Trazado 104641" d="M406.874,358.346a4.821,4.821,0,0,1-3.033-3.033.9.9,0,0,0-1.709,0,4.818,4.818,0,0,1-3.033,3.033.9.9,0,0,0,0,1.709,4.814,4.814,0,0,1,3.033,3.033.9.9,0,0,0,1.709,0,4.818,4.818,0,0,1,3.033-3.033.9.9,0,0,0,0-1.709Zm-3.888,2.479a6.668,6.668,0,0,0-1.624-1.624,6.674,6.674,0,0,0,1.624-1.626,6.679,6.679,0,0,0,1.626,1.626A6.673,6.673,0,0,0,402.986,360.825Z" transform="translate(-353.446 -344.789)" fill="#065949"/>
      <path id="Trazado_104642" data-name="Trazado 104642" d="M370.159,379.462a.9.9,0,0,0,.855-.616,4.814,4.814,0,0,1,3.033-3.033.9.9,0,0,0,0-1.709,4.817,4.817,0,0,1-3.033-3.033.9.9,0,0,0-1.709,0,4.817,4.817,0,0,1-3.033,3.033.9.9,0,0,0,0,1.709,4.814,4.814,0,0,1,3.033,3.033A.9.9,0,0,0,370.159,379.462Zm0-6.13a6.648,6.648,0,0,0,1.624,1.626,6.667,6.667,0,0,0-1.624,1.624,6.65,6.65,0,0,0-1.626-1.624,6.631,6.631,0,0,0,1.626-1.626Z" transform="translate(-365.655 -338.929)" fill="#065949"/>
    </g>
  </g>
</svg>
